G04 EAGLE Gerber RS-274X export*
G75*
%MOMM*%
%FSLAX34Y34*%
%LPD*%
%INSolderpaste Top*%
%IPPOS*%
%AMOC8*
5,1,8,0,0,1.08239X$1,22.5*%
G01*
%ADD10R,1.500000X1.300000*%
%ADD11R,2.500000X3.500000*%
%ADD12R,1.300000X1.500000*%
%ADD13R,2.250000X3.180000*%
%ADD14R,2.108200X1.397000*%
%ADD15R,10.800000X10.410000*%
%ADD16R,1.066800X2.159000*%
%ADD17R,1.900000X3.400000*%
%ADD18R,2.000000X0.900000*%
%ADD19R,2.000000X1.300000*%
%ADD20R,6.200000X2.700000*%
%ADD21R,0.550000X1.600000*%
%ADD22R,1.600000X0.550000*%
%ADD23R,0.787400X0.889000*%


D10*
X711200Y206400D03*
X711200Y225400D03*
D11*
X50800Y335800D03*
X50800Y400800D03*
X279400Y400800D03*
X279400Y335800D03*
D12*
X295300Y482600D03*
X314300Y482600D03*
X796900Y457200D03*
X777900Y457200D03*
D10*
X558800Y104800D03*
X558800Y123800D03*
X355600Y104800D03*
X355600Y123800D03*
D12*
X358800Y482600D03*
X377800Y482600D03*
D13*
X85350Y215900D03*
X16250Y215900D03*
D14*
X215900Y88900D03*
X307086Y88900D03*
X215900Y133858D03*
X307086Y133858D03*
D15*
X165100Y368300D03*
D16*
X131064Y284988D03*
X148082Y284988D03*
X165100Y284988D03*
X182118Y284988D03*
X199136Y284988D03*
D14*
X419100Y88900D03*
X510286Y88900D03*
X419100Y133858D03*
X510286Y133858D03*
D17*
X234500Y203200D03*
X273500Y203200D03*
D10*
X381000Y269900D03*
X381000Y288900D03*
X889000Y803300D03*
X889000Y822300D03*
D12*
X479400Y50800D03*
X460400Y50800D03*
X765200Y279400D03*
X784200Y279400D03*
X847700Y76200D03*
X828700Y76200D03*
X784200Y76200D03*
X765200Y76200D03*
D18*
X110900Y506700D03*
D19*
X66900Y520700D03*
D18*
X110900Y534700D03*
D10*
X520700Y257200D03*
X520700Y276200D03*
D20*
X901700Y631698D03*
X901700Y714502D03*
D10*
X863600Y377800D03*
X863600Y358800D03*
D12*
X663600Y330200D03*
X682600Y330200D03*
D10*
X711200Y390500D03*
X711200Y371500D03*
D12*
X600100Y520700D03*
X619100Y520700D03*
X676300Y520700D03*
X695300Y520700D03*
X701700Y76200D03*
X720700Y76200D03*
X816000Y279400D03*
X835000Y279400D03*
X276200Y50800D03*
X257200Y50800D03*
D21*
X536000Y410100D03*
X528000Y410100D03*
X520000Y410100D03*
X512000Y410100D03*
X504000Y410100D03*
X496000Y410100D03*
X488000Y410100D03*
X480000Y410100D03*
D22*
X466200Y396300D03*
X466200Y388300D03*
X466200Y380300D03*
X466200Y372300D03*
X466200Y364300D03*
X466200Y356300D03*
X466200Y348300D03*
X466200Y340300D03*
D21*
X480000Y326500D03*
X488000Y326500D03*
X496000Y326500D03*
X504000Y326500D03*
X512000Y326500D03*
X520000Y326500D03*
X528000Y326500D03*
X536000Y326500D03*
D22*
X549800Y340300D03*
X549800Y348300D03*
X549800Y356300D03*
X549800Y364300D03*
X549800Y372300D03*
X549800Y380300D03*
X549800Y388300D03*
X549800Y396300D03*
D23*
X886206Y162560D03*
X866902Y162560D03*
X876554Y142240D03*
M02*
