M48
;GenerationSoftware,Autodesk,EAGLE,9.6.2*%
;CreationDate,2020-11-11T16:05:48Z*%
FMAT,2
ICI,OFF
METRIC,TZ,000.000
T7C0.381
T6C0.800
T5C0.813
T4C0.900
T3C1.016
T2C2.800
T1C2.997
%
G90
M71
T1
X6890Y5460
X3890Y10160
X9890Y10160
T2
X6950Y91700
X6950Y60700
X81950Y91700
X81950Y60700
T3
X35310Y91700
X42930Y91700
X40390Y91700
X37850Y91700
X91440Y48260
X91440Y50800
X91440Y45720
X50550Y91700
X48010Y91700
X45470Y91700
X32770Y91700
X30230Y91700
X27690Y91700
X25150Y91700
X22610Y91700
X20070Y91700
X17530Y91700
X14990Y91700
X12450Y91700
T4
X35560Y36830
X91440Y7890
X91440Y9890
X38100Y36830
X35560Y34290
X35560Y39370
X38100Y39370
X38100Y34290
T5
X82550Y38100
X82550Y40640
X74930Y35560
X74930Y33020
X82550Y35560
X82550Y33020
X74930Y40640
X74930Y38100
T6
X66165Y20320
X58295Y22860
X58295Y25400
X58295Y20320
X58295Y27940
X66165Y27940
X66165Y22860
X66165Y25400
T7
X11430Y22860
X58420Y34290
X38100Y13970
X13970Y22860
X57150Y35560
X62230Y17780
X10160Y43180
X77470Y48260
X40640Y26670
X44450Y27940
X52070Y57150
X60960Y57150
X55880Y17780
X60960Y33020
X46990Y30480
X41910Y38100
X44450Y35560
X88900Y35560
X64770Y30480
X63500Y31750
X66040Y16510
X55880Y24130
X55880Y29210
X73660Y5080
X52070Y35560
X54610Y24130
X54610Y29210
X38100Y80010
X48260Y69850
X55880Y67310
X64770Y53340
X81280Y53340
X88900Y45720
X87630Y53340
X49530Y38100
X15240Y53340
M30