G04 EAGLE Gerber RS-274X export*
G75*
%MOMM*%
%FSLAX34Y34*%
%LPD*%
%INSoldermask Top*%
%IPPOS*%
%AMOC8*
5,1,8,0,0,1.08239X$1,22.5*%
G01*
%ADD10R,1.601600X1.401600*%
%ADD11R,2.601600X3.601600*%
%ADD12R,1.401600X1.601600*%
%ADD13R,2.351600X3.281600*%
%ADD14R,2.209800X1.498600*%
%ADD15R,10.901600X10.511600*%
%ADD16R,1.168400X2.260600*%
%ADD17C,1.422400*%
%ADD18C,1.727200*%
%ADD19C,4.419600*%
%ADD20R,2.001600X3.501600*%
%ADD21R,1.981200X1.981200*%
%ADD22C,1.981200*%
%ADD23C,2.901600*%
%ADD24C,1.625600*%
%ADD25R,2.101600X1.001600*%
%ADD26R,2.101600X1.401600*%
%ADD27R,6.301600X2.801600*%
%ADD28C,1.409600*%
%ADD29R,1.409600X1.409600*%
%ADD30R,0.651600X1.701600*%
%ADD31R,1.701600X0.651600*%
%ADD32C,1.509600*%
%ADD33R,0.889000X0.990600*%

G36*
X27192Y916620D02*
X27192Y916620D01*
X27235Y916632D01*
X27301Y916639D01*
X28984Y917090D01*
X29025Y917109D01*
X29088Y917128D01*
X30668Y917865D01*
X30705Y917891D01*
X30764Y917920D01*
X32192Y918920D01*
X32223Y918952D01*
X32276Y918991D01*
X33509Y920224D01*
X33534Y920260D01*
X33580Y920308D01*
X34580Y921736D01*
X34598Y921777D01*
X34635Y921832D01*
X35372Y923412D01*
X35383Y923455D01*
X35410Y923516D01*
X35861Y925199D01*
X35863Y925231D01*
X35870Y925252D01*
X35870Y925267D01*
X35880Y925308D01*
X36032Y927045D01*
X36028Y927089D01*
X36032Y927155D01*
X35880Y928892D01*
X35868Y928935D01*
X35861Y929001D01*
X35410Y930684D01*
X35391Y930725D01*
X35372Y930788D01*
X34635Y932368D01*
X34609Y932405D01*
X34580Y932464D01*
X33580Y933892D01*
X33548Y933923D01*
X33509Y933976D01*
X32276Y935209D01*
X32240Y935234D01*
X32192Y935280D01*
X30764Y936280D01*
X30723Y936298D01*
X30668Y936335D01*
X29088Y937072D01*
X29045Y937083D01*
X28984Y937110D01*
X27301Y937561D01*
X27256Y937564D01*
X27192Y937580D01*
X25455Y937732D01*
X25411Y937728D01*
X25345Y937732D01*
X23608Y937580D01*
X23565Y937568D01*
X23499Y937561D01*
X21816Y937110D01*
X21775Y937091D01*
X21712Y937072D01*
X20132Y936335D01*
X20095Y936309D01*
X20036Y936280D01*
X18608Y935280D01*
X18577Y935248D01*
X18524Y935209D01*
X17291Y933976D01*
X17266Y933940D01*
X17220Y933892D01*
X16220Y932464D01*
X16202Y932423D01*
X16165Y932368D01*
X15428Y930788D01*
X15417Y930745D01*
X15390Y930684D01*
X14939Y929001D01*
X14936Y928956D01*
X14920Y928892D01*
X14768Y927155D01*
X14772Y927111D01*
X14768Y927045D01*
X14920Y925308D01*
X14932Y925265D01*
X14936Y925231D01*
X14936Y925215D01*
X14938Y925210D01*
X14939Y925199D01*
X15390Y923516D01*
X15409Y923475D01*
X15428Y923412D01*
X16165Y921832D01*
X16191Y921795D01*
X16220Y921736D01*
X17220Y920308D01*
X17252Y920277D01*
X17291Y920224D01*
X18524Y918991D01*
X18560Y918966D01*
X18608Y918920D01*
X20036Y917920D01*
X20077Y917902D01*
X20132Y917865D01*
X21712Y917128D01*
X21755Y917117D01*
X21816Y917090D01*
X23499Y916639D01*
X23544Y916636D01*
X23608Y916620D01*
X25345Y916468D01*
X25389Y916472D01*
X25455Y916468D01*
X27192Y916620D01*
G37*
G36*
X27192Y14920D02*
X27192Y14920D01*
X27235Y14932D01*
X27301Y14939D01*
X28984Y15390D01*
X29025Y15409D01*
X29088Y15428D01*
X30668Y16165D01*
X30705Y16191D01*
X30764Y16220D01*
X32192Y17220D01*
X32223Y17252D01*
X32276Y17291D01*
X33509Y18524D01*
X33534Y18560D01*
X33580Y18608D01*
X34580Y20036D01*
X34598Y20077D01*
X34635Y20132D01*
X35372Y21712D01*
X35383Y21755D01*
X35410Y21816D01*
X35861Y23499D01*
X35863Y23531D01*
X35870Y23552D01*
X35870Y23567D01*
X35880Y23608D01*
X36032Y25345D01*
X36028Y25389D01*
X36032Y25455D01*
X35880Y27192D01*
X35868Y27235D01*
X35861Y27301D01*
X35410Y28984D01*
X35391Y29025D01*
X35372Y29088D01*
X34635Y30668D01*
X34609Y30705D01*
X34580Y30764D01*
X33580Y32192D01*
X33548Y32223D01*
X33509Y32276D01*
X32276Y33509D01*
X32240Y33534D01*
X32192Y33580D01*
X30764Y34580D01*
X30723Y34598D01*
X30668Y34635D01*
X29088Y35372D01*
X29045Y35383D01*
X28984Y35410D01*
X27301Y35861D01*
X27256Y35864D01*
X27192Y35880D01*
X25455Y36032D01*
X25411Y36028D01*
X25345Y36032D01*
X23608Y35880D01*
X23565Y35868D01*
X23499Y35861D01*
X21816Y35410D01*
X21775Y35391D01*
X21712Y35372D01*
X20132Y34635D01*
X20095Y34609D01*
X20036Y34580D01*
X18608Y33580D01*
X18577Y33548D01*
X18524Y33509D01*
X17291Y32276D01*
X17266Y32240D01*
X17220Y32192D01*
X16220Y30764D01*
X16202Y30723D01*
X16165Y30668D01*
X15428Y29088D01*
X15417Y29045D01*
X15390Y28984D01*
X14939Y27301D01*
X14936Y27256D01*
X14920Y27192D01*
X14768Y25455D01*
X14772Y25411D01*
X14768Y25345D01*
X14920Y23608D01*
X14932Y23565D01*
X14936Y23531D01*
X14936Y23515D01*
X14938Y23510D01*
X14939Y23499D01*
X15390Y21816D01*
X15409Y21775D01*
X15428Y21712D01*
X16165Y20132D01*
X16191Y20095D01*
X16220Y20036D01*
X17220Y18608D01*
X17252Y18577D01*
X17291Y18524D01*
X18524Y17291D01*
X18560Y17266D01*
X18608Y17220D01*
X20036Y16220D01*
X20077Y16202D01*
X20132Y16165D01*
X21712Y15428D01*
X21755Y15417D01*
X21816Y15390D01*
X23499Y14939D01*
X23544Y14936D01*
X23608Y14920D01*
X25345Y14768D01*
X25389Y14772D01*
X25455Y14768D01*
X27192Y14920D01*
G37*
G36*
X916192Y14920D02*
X916192Y14920D01*
X916235Y14932D01*
X916301Y14939D01*
X917984Y15390D01*
X918025Y15409D01*
X918088Y15428D01*
X919668Y16165D01*
X919705Y16191D01*
X919764Y16220D01*
X921192Y17220D01*
X921223Y17252D01*
X921276Y17291D01*
X922509Y18524D01*
X922534Y18560D01*
X922580Y18608D01*
X923580Y20036D01*
X923598Y20077D01*
X923635Y20132D01*
X924372Y21712D01*
X924383Y21755D01*
X924410Y21816D01*
X924861Y23499D01*
X924863Y23531D01*
X924870Y23552D01*
X924870Y23567D01*
X924880Y23608D01*
X925032Y25345D01*
X925028Y25389D01*
X925032Y25455D01*
X924880Y27192D01*
X924868Y27235D01*
X924861Y27301D01*
X924410Y28984D01*
X924391Y29025D01*
X924372Y29088D01*
X923635Y30668D01*
X923609Y30705D01*
X923580Y30764D01*
X922580Y32192D01*
X922548Y32223D01*
X922509Y32276D01*
X921276Y33509D01*
X921240Y33534D01*
X921192Y33580D01*
X919764Y34580D01*
X919723Y34598D01*
X919668Y34635D01*
X918088Y35372D01*
X918045Y35383D01*
X917984Y35410D01*
X916301Y35861D01*
X916256Y35864D01*
X916192Y35880D01*
X914455Y36032D01*
X914411Y36028D01*
X914345Y36032D01*
X912608Y35880D01*
X912565Y35868D01*
X912499Y35861D01*
X910816Y35410D01*
X910775Y35391D01*
X910712Y35372D01*
X909132Y34635D01*
X909095Y34609D01*
X909036Y34580D01*
X907608Y33580D01*
X907577Y33548D01*
X907524Y33509D01*
X906291Y32276D01*
X906266Y32240D01*
X906220Y32192D01*
X905220Y30764D01*
X905202Y30723D01*
X905165Y30668D01*
X904428Y29088D01*
X904417Y29045D01*
X904390Y28984D01*
X903939Y27301D01*
X903936Y27256D01*
X903920Y27192D01*
X903768Y25455D01*
X903772Y25411D01*
X903768Y25345D01*
X903920Y23608D01*
X903932Y23565D01*
X903936Y23531D01*
X903936Y23515D01*
X903938Y23510D01*
X903939Y23499D01*
X904390Y21816D01*
X904409Y21775D01*
X904428Y21712D01*
X905165Y20132D01*
X905191Y20095D01*
X905220Y20036D01*
X906220Y18608D01*
X906252Y18577D01*
X906291Y18524D01*
X907524Y17291D01*
X907560Y17266D01*
X907608Y17220D01*
X909036Y16220D01*
X909077Y16202D01*
X909132Y16165D01*
X910712Y15428D01*
X910755Y15417D01*
X910816Y15390D01*
X912499Y14939D01*
X912544Y14936D01*
X912608Y14920D01*
X914345Y14768D01*
X914389Y14772D01*
X914455Y14768D01*
X916192Y14920D01*
G37*
D10*
X711200Y206400D03*
X711200Y225400D03*
D11*
X50800Y335800D03*
X50800Y400800D03*
X279400Y400800D03*
X279400Y335800D03*
D12*
X295300Y482600D03*
X314300Y482600D03*
X796900Y457200D03*
X777900Y457200D03*
D10*
X558800Y104800D03*
X558800Y123800D03*
X355600Y104800D03*
X355600Y123800D03*
D12*
X358800Y482600D03*
X377800Y482600D03*
D13*
X85350Y215900D03*
X16250Y215900D03*
D14*
X215900Y88900D03*
X307086Y88900D03*
X215900Y133858D03*
X307086Y133858D03*
D15*
X165100Y368300D03*
D16*
X131064Y284988D03*
X148082Y284988D03*
X165100Y284988D03*
X182118Y284988D03*
X199136Y284988D03*
D17*
X749300Y406400D03*
X749300Y381000D03*
X825500Y381000D03*
X825500Y406400D03*
X749300Y355600D03*
X749300Y330200D03*
X825500Y355600D03*
X825500Y330200D03*
D14*
X419100Y88900D03*
X510286Y88900D03*
X419100Y133858D03*
X510286Y133858D03*
D18*
X355600Y368300D03*
X381000Y368300D03*
X381000Y393700D03*
X355600Y393700D03*
X355600Y342900D03*
X381000Y342900D03*
D19*
X98900Y101600D03*
X38900Y101600D03*
X68900Y54600D03*
D20*
X234500Y203200D03*
X273500Y203200D03*
D21*
X124500Y917000D03*
D22*
X149900Y917000D03*
X175300Y917000D03*
X200700Y917000D03*
X226100Y917000D03*
X251500Y917000D03*
X276900Y917000D03*
X302300Y917000D03*
X327700Y917000D03*
X353100Y917000D03*
X378500Y917000D03*
X403900Y917000D03*
X429300Y917000D03*
X454700Y917000D03*
X480100Y917000D03*
X505500Y917000D03*
D23*
X69500Y917000D03*
X69500Y607000D03*
X819500Y917000D03*
X819500Y607000D03*
D24*
X906780Y508000D02*
X922020Y508000D01*
X922020Y482600D02*
X906780Y482600D01*
X906780Y457200D02*
X922020Y457200D01*
D10*
X381000Y269900D03*
X381000Y288900D03*
X889000Y803300D03*
X889000Y822300D03*
D12*
X479400Y50800D03*
X460400Y50800D03*
X765200Y279400D03*
X784200Y279400D03*
X847700Y76200D03*
X828700Y76200D03*
X784200Y76200D03*
X765200Y76200D03*
D25*
X110900Y506700D03*
D26*
X66900Y520700D03*
D25*
X110900Y534700D03*
D10*
X520700Y257200D03*
X520700Y276200D03*
D27*
X901700Y631698D03*
X901700Y714502D03*
D10*
X863600Y377800D03*
X863600Y358800D03*
D12*
X663600Y330200D03*
X682600Y330200D03*
D10*
X711200Y390500D03*
X711200Y371500D03*
D12*
X600100Y520700D03*
X619100Y520700D03*
X676300Y520700D03*
X695300Y520700D03*
X701700Y76200D03*
X720700Y76200D03*
X816000Y279400D03*
X835000Y279400D03*
X276200Y50800D03*
X257200Y50800D03*
D28*
X582950Y228600D03*
X582950Y254000D03*
X582950Y203200D03*
D29*
X582950Y279400D03*
D28*
X661650Y203200D03*
X661650Y279400D03*
X661650Y228600D03*
X661650Y254000D03*
D30*
X536000Y410100D03*
X528000Y410100D03*
X520000Y410100D03*
X512000Y410100D03*
X504000Y410100D03*
X496000Y410100D03*
X488000Y410100D03*
X480000Y410100D03*
D31*
X466200Y396300D03*
X466200Y388300D03*
X466200Y380300D03*
X466200Y372300D03*
X466200Y364300D03*
X466200Y356300D03*
X466200Y348300D03*
X466200Y340300D03*
D30*
X480000Y326500D03*
X488000Y326500D03*
X496000Y326500D03*
X504000Y326500D03*
X512000Y326500D03*
X520000Y326500D03*
X528000Y326500D03*
X536000Y326500D03*
D31*
X549800Y340300D03*
X549800Y348300D03*
X549800Y356300D03*
X549800Y364300D03*
X549800Y372300D03*
X549800Y380300D03*
X549800Y388300D03*
X549800Y396300D03*
D32*
X914400Y98900D03*
X914400Y78900D03*
D33*
X886206Y162560D03*
X866902Y162560D03*
X876554Y142240D03*
M02*
