G04 EAGLE Gerber RS-274X export*
G75*
%MOMM*%
%FSLAX34Y34*%
%LPD*%
%INSoldermask Top*%
%IPPOS*%
%AMOC8*
5,1,8,0,0,1.08239X$1,22.5*%
G01*
%ADD10R,1.601600X1.401600*%
%ADD11R,2.601600X3.601600*%
%ADD12R,1.401600X1.601600*%
%ADD13R,2.351600X3.281600*%
%ADD14R,10.901600X10.511600*%
%ADD15R,1.168400X2.260600*%
%ADD16R,2.301600X0.701600*%
%ADD17C,1.727200*%
%ADD18R,2.001600X3.501600*%
%ADD19R,1.981200X1.981200*%
%ADD20C,1.981200*%
%ADD21C,2.901600*%
%ADD22C,1.609600*%
%ADD23C,3.217600*%
%ADD24C,1.625600*%
%ADD25R,6.301600X2.801600*%
%ADD26R,2.851600X1.101600*%
%ADD27R,0.889000X0.990600*%
%ADD28C,0.252575*%
%ADD29C,4.901600*%
%ADD30R,0.651600X1.701600*%
%ADD31R,1.701600X0.651600*%
%ADD32C,1.509600*%

G36*
X27192Y916620D02*
X27192Y916620D01*
X27235Y916632D01*
X27301Y916639D01*
X28984Y917090D01*
X29025Y917109D01*
X29088Y917128D01*
X30668Y917865D01*
X30705Y917891D01*
X30764Y917920D01*
X32192Y918920D01*
X32223Y918952D01*
X32276Y918991D01*
X33509Y920224D01*
X33534Y920260D01*
X33580Y920308D01*
X34580Y921736D01*
X34598Y921777D01*
X34635Y921832D01*
X35372Y923412D01*
X35383Y923455D01*
X35410Y923516D01*
X35861Y925199D01*
X35863Y925231D01*
X35870Y925252D01*
X35870Y925267D01*
X35880Y925308D01*
X36032Y927045D01*
X36028Y927089D01*
X36032Y927155D01*
X35880Y928892D01*
X35868Y928935D01*
X35861Y929001D01*
X35410Y930684D01*
X35391Y930725D01*
X35372Y930788D01*
X34635Y932368D01*
X34609Y932405D01*
X34580Y932464D01*
X33580Y933892D01*
X33548Y933923D01*
X33509Y933976D01*
X32276Y935209D01*
X32240Y935234D01*
X32192Y935280D01*
X30764Y936280D01*
X30723Y936298D01*
X30668Y936335D01*
X29088Y937072D01*
X29045Y937083D01*
X28984Y937110D01*
X27301Y937561D01*
X27256Y937564D01*
X27192Y937580D01*
X25455Y937732D01*
X25411Y937728D01*
X25345Y937732D01*
X23608Y937580D01*
X23565Y937568D01*
X23499Y937561D01*
X21816Y937110D01*
X21775Y937091D01*
X21712Y937072D01*
X20132Y936335D01*
X20095Y936309D01*
X20036Y936280D01*
X18608Y935280D01*
X18577Y935248D01*
X18524Y935209D01*
X17291Y933976D01*
X17266Y933940D01*
X17220Y933892D01*
X16220Y932464D01*
X16202Y932423D01*
X16165Y932368D01*
X15428Y930788D01*
X15417Y930745D01*
X15390Y930684D01*
X14939Y929001D01*
X14936Y928956D01*
X14920Y928892D01*
X14768Y927155D01*
X14772Y927111D01*
X14768Y927045D01*
X14920Y925308D01*
X14932Y925265D01*
X14936Y925231D01*
X14936Y925215D01*
X14938Y925210D01*
X14939Y925199D01*
X15390Y923516D01*
X15409Y923475D01*
X15428Y923412D01*
X16165Y921832D01*
X16191Y921795D01*
X16220Y921736D01*
X17220Y920308D01*
X17252Y920277D01*
X17291Y920224D01*
X18524Y918991D01*
X18560Y918966D01*
X18608Y918920D01*
X20036Y917920D01*
X20077Y917902D01*
X20132Y917865D01*
X21712Y917128D01*
X21755Y917117D01*
X21816Y917090D01*
X23499Y916639D01*
X23544Y916636D01*
X23608Y916620D01*
X25345Y916468D01*
X25389Y916472D01*
X25455Y916468D01*
X27192Y916620D01*
G37*
G36*
X954292Y916620D02*
X954292Y916620D01*
X954335Y916632D01*
X954401Y916639D01*
X956084Y917090D01*
X956125Y917109D01*
X956188Y917128D01*
X957768Y917865D01*
X957805Y917891D01*
X957864Y917920D01*
X959292Y918920D01*
X959323Y918952D01*
X959376Y918991D01*
X960609Y920224D01*
X960634Y920260D01*
X960680Y920308D01*
X961680Y921736D01*
X961698Y921777D01*
X961735Y921832D01*
X962472Y923412D01*
X962483Y923455D01*
X962510Y923516D01*
X962961Y925199D01*
X962963Y925231D01*
X962970Y925252D01*
X962970Y925267D01*
X962980Y925308D01*
X963132Y927045D01*
X963128Y927089D01*
X963132Y927155D01*
X962980Y928892D01*
X962968Y928935D01*
X962961Y929001D01*
X962510Y930684D01*
X962491Y930725D01*
X962472Y930788D01*
X961735Y932368D01*
X961709Y932405D01*
X961680Y932464D01*
X960680Y933892D01*
X960648Y933923D01*
X960609Y933976D01*
X959376Y935209D01*
X959340Y935234D01*
X959292Y935280D01*
X957864Y936280D01*
X957823Y936298D01*
X957768Y936335D01*
X956188Y937072D01*
X956145Y937083D01*
X956084Y937110D01*
X954401Y937561D01*
X954356Y937564D01*
X954292Y937580D01*
X952555Y937732D01*
X952511Y937728D01*
X952445Y937732D01*
X950708Y937580D01*
X950665Y937568D01*
X950599Y937561D01*
X948916Y937110D01*
X948875Y937091D01*
X948812Y937072D01*
X947232Y936335D01*
X947195Y936309D01*
X947136Y936280D01*
X945708Y935280D01*
X945677Y935248D01*
X945624Y935209D01*
X944391Y933976D01*
X944366Y933940D01*
X944320Y933892D01*
X943320Y932464D01*
X943302Y932423D01*
X943265Y932368D01*
X942528Y930788D01*
X942517Y930745D01*
X942490Y930684D01*
X942039Y929001D01*
X942036Y928956D01*
X942020Y928892D01*
X941868Y927155D01*
X941872Y927111D01*
X941868Y927045D01*
X942020Y925308D01*
X942032Y925265D01*
X942036Y925231D01*
X942036Y925215D01*
X942038Y925210D01*
X942039Y925199D01*
X942490Y923516D01*
X942509Y923475D01*
X942528Y923412D01*
X943265Y921832D01*
X943291Y921795D01*
X943320Y921736D01*
X944320Y920308D01*
X944352Y920277D01*
X944391Y920224D01*
X945624Y918991D01*
X945660Y918966D01*
X945708Y918920D01*
X947136Y917920D01*
X947177Y917902D01*
X947232Y917865D01*
X948812Y917128D01*
X948855Y917117D01*
X948916Y917090D01*
X950599Y916639D01*
X950644Y916636D01*
X950708Y916620D01*
X952445Y916468D01*
X952489Y916472D01*
X952555Y916468D01*
X954292Y916620D01*
G37*
G36*
X27192Y14920D02*
X27192Y14920D01*
X27235Y14932D01*
X27301Y14939D01*
X28984Y15390D01*
X29025Y15409D01*
X29088Y15428D01*
X30668Y16165D01*
X30705Y16191D01*
X30764Y16220D01*
X32192Y17220D01*
X32223Y17252D01*
X32276Y17291D01*
X33509Y18524D01*
X33534Y18560D01*
X33580Y18608D01*
X34580Y20036D01*
X34598Y20077D01*
X34635Y20132D01*
X35372Y21712D01*
X35383Y21755D01*
X35410Y21816D01*
X35861Y23499D01*
X35863Y23531D01*
X35870Y23552D01*
X35870Y23567D01*
X35880Y23608D01*
X36032Y25345D01*
X36028Y25389D01*
X36032Y25455D01*
X35880Y27192D01*
X35868Y27235D01*
X35861Y27301D01*
X35410Y28984D01*
X35391Y29025D01*
X35372Y29088D01*
X34635Y30668D01*
X34609Y30705D01*
X34580Y30764D01*
X33580Y32192D01*
X33548Y32223D01*
X33509Y32276D01*
X32276Y33509D01*
X32240Y33534D01*
X32192Y33580D01*
X30764Y34580D01*
X30723Y34598D01*
X30668Y34635D01*
X29088Y35372D01*
X29045Y35383D01*
X28984Y35410D01*
X27301Y35861D01*
X27256Y35864D01*
X27192Y35880D01*
X25455Y36032D01*
X25411Y36028D01*
X25345Y36032D01*
X23608Y35880D01*
X23565Y35868D01*
X23499Y35861D01*
X21816Y35410D01*
X21775Y35391D01*
X21712Y35372D01*
X20132Y34635D01*
X20095Y34609D01*
X20036Y34580D01*
X18608Y33580D01*
X18577Y33548D01*
X18524Y33509D01*
X17291Y32276D01*
X17266Y32240D01*
X17220Y32192D01*
X16220Y30764D01*
X16202Y30723D01*
X16165Y30668D01*
X15428Y29088D01*
X15417Y29045D01*
X15390Y28984D01*
X14939Y27301D01*
X14936Y27256D01*
X14920Y27192D01*
X14768Y25455D01*
X14772Y25411D01*
X14768Y25345D01*
X14920Y23608D01*
X14932Y23565D01*
X14936Y23531D01*
X14936Y23515D01*
X14938Y23510D01*
X14939Y23499D01*
X15390Y21816D01*
X15409Y21775D01*
X15428Y21712D01*
X16165Y20132D01*
X16191Y20095D01*
X16220Y20036D01*
X17220Y18608D01*
X17252Y18577D01*
X17291Y18524D01*
X18524Y17291D01*
X18560Y17266D01*
X18608Y17220D01*
X20036Y16220D01*
X20077Y16202D01*
X20132Y16165D01*
X21712Y15428D01*
X21755Y15417D01*
X21816Y15390D01*
X23499Y14939D01*
X23544Y14936D01*
X23608Y14920D01*
X25345Y14768D01*
X25389Y14772D01*
X25455Y14768D01*
X27192Y14920D01*
G37*
D10*
X749300Y168300D03*
X749300Y187300D03*
D11*
X50800Y323100D03*
X50800Y388100D03*
X292100Y388100D03*
X292100Y323100D03*
D12*
X320700Y482600D03*
X339700Y482600D03*
X771500Y431800D03*
X752500Y431800D03*
X511200Y38100D03*
X530200Y38100D03*
X333400Y38100D03*
X352400Y38100D03*
X384200Y482600D03*
X403200Y482600D03*
D13*
X85350Y203200D03*
X16250Y203200D03*
D14*
X165100Y355600D03*
D15*
X131064Y272288D03*
X148082Y272288D03*
X165100Y272288D03*
X182118Y272288D03*
X199136Y272288D03*
D16*
X736000Y361950D03*
X788000Y361950D03*
X736000Y374650D03*
X736000Y349250D03*
X736000Y336550D03*
X788000Y374650D03*
X788000Y349250D03*
X788000Y336550D03*
D17*
X381000Y355600D03*
X406400Y355600D03*
X406400Y381000D03*
X381000Y381000D03*
X381000Y330200D03*
X406400Y330200D03*
D18*
X221800Y190500D03*
X260800Y190500D03*
D19*
X137200Y917000D03*
D20*
X162600Y917000D03*
X188000Y917000D03*
X213400Y917000D03*
X238800Y917000D03*
X264200Y917000D03*
X289600Y917000D03*
X315000Y917000D03*
X340400Y917000D03*
X365800Y917000D03*
X391200Y917000D03*
X416600Y917000D03*
X442000Y917000D03*
X467400Y917000D03*
X492800Y917000D03*
X518200Y917000D03*
D21*
X82200Y917000D03*
X82200Y607000D03*
X832200Y917000D03*
X832200Y607000D03*
D22*
X152400Y495300D03*
X152400Y470300D03*
X152400Y520300D03*
D23*
X82400Y442300D03*
X82400Y548300D03*
D24*
X843280Y495300D02*
X858520Y495300D01*
X858520Y469900D02*
X843280Y469900D01*
X843280Y444500D02*
X858520Y444500D01*
D10*
X419100Y244500D03*
X419100Y263500D03*
X927100Y803300D03*
X927100Y822300D03*
X609600Y130200D03*
X609600Y149200D03*
D12*
X765200Y279400D03*
X784200Y279400D03*
X860400Y50800D03*
X841400Y50800D03*
X784200Y50800D03*
X765200Y50800D03*
D10*
X546100Y231800D03*
X546100Y250800D03*
D25*
X927100Y618998D03*
X927100Y701802D03*
D10*
X850900Y365100D03*
X850900Y346100D03*
D12*
X676300Y317500D03*
X695300Y317500D03*
D10*
X660400Y390500D03*
X660400Y371500D03*
D12*
X644500Y508000D03*
X625500Y508000D03*
X720700Y508000D03*
X701700Y508000D03*
X689000Y50800D03*
X708000Y50800D03*
X828700Y279400D03*
X847700Y279400D03*
D10*
X431800Y130200D03*
X431800Y149200D03*
D26*
X549450Y107000D03*
X491950Y107000D03*
X549450Y147000D03*
X491950Y147000D03*
X371650Y107000D03*
X314150Y107000D03*
X371650Y147000D03*
X314150Y147000D03*
D27*
X911606Y137160D03*
X892302Y137160D03*
X901954Y116840D03*
D28*
X669995Y232705D02*
X652505Y232705D01*
X652505Y237195D01*
X669995Y237195D01*
X669995Y232705D01*
X669995Y235105D02*
X652505Y235105D01*
X652505Y220005D02*
X669995Y220005D01*
X652505Y220005D02*
X652505Y224495D01*
X669995Y224495D01*
X669995Y220005D01*
X669995Y222405D02*
X652505Y222405D01*
X652505Y207305D02*
X669995Y207305D01*
X652505Y207305D02*
X652505Y211795D01*
X669995Y211795D01*
X669995Y207305D01*
X669995Y209705D02*
X652505Y209705D01*
X652505Y194605D02*
X669995Y194605D01*
X652505Y194605D02*
X652505Y199095D01*
X669995Y199095D01*
X669995Y194605D01*
X669995Y197005D02*
X652505Y197005D01*
X701605Y194605D02*
X719095Y194605D01*
X701605Y194605D02*
X701605Y199095D01*
X719095Y199095D01*
X719095Y194605D01*
X719095Y197005D02*
X701605Y197005D01*
X701605Y207305D02*
X719095Y207305D01*
X701605Y207305D02*
X701605Y211795D01*
X719095Y211795D01*
X719095Y207305D01*
X719095Y209705D02*
X701605Y209705D01*
X701605Y220005D02*
X719095Y220005D01*
X701605Y220005D02*
X701605Y224495D01*
X719095Y224495D01*
X719095Y220005D01*
X719095Y222405D02*
X701605Y222405D01*
X701605Y232705D02*
X719095Y232705D01*
X701605Y232705D02*
X701605Y237195D01*
X719095Y237195D01*
X719095Y232705D01*
X719095Y235105D02*
X701605Y235105D01*
D29*
X75600Y55600D03*
X105600Y102600D03*
X46600Y102600D03*
D30*
X561400Y397400D03*
X553400Y397400D03*
X545400Y397400D03*
X537400Y397400D03*
X529400Y397400D03*
X521400Y397400D03*
X513400Y397400D03*
X505400Y397400D03*
D31*
X491600Y383600D03*
X491600Y375600D03*
X491600Y367600D03*
X491600Y359600D03*
X491600Y351600D03*
X491600Y343600D03*
X491600Y335600D03*
X491600Y327600D03*
D30*
X505400Y313800D03*
X513400Y313800D03*
X521400Y313800D03*
X529400Y313800D03*
X537400Y313800D03*
X545400Y313800D03*
X553400Y313800D03*
X561400Y313800D03*
D31*
X575200Y327600D03*
X575200Y335600D03*
X575200Y343600D03*
X575200Y351600D03*
X575200Y359600D03*
X575200Y367600D03*
X575200Y375600D03*
X575200Y383600D03*
D32*
X939800Y73500D03*
X939800Y53500D03*
M02*
