G04 EAGLE Gerber RS-274X export*
G75*
%MOMM*%
%FSLAX34Y34*%
%LPD*%
%INSolderpaste Top*%
%IPPOS*%
%AMOC8*
5,1,8,0,0,1.08239X$1,22.5*%
G01*
%ADD10R,1.500000X1.300000*%
%ADD11R,2.500000X3.500000*%
%ADD12R,1.300000X1.500000*%
%ADD13R,2.250000X3.180000*%
%ADD14R,10.800000X10.410000*%
%ADD15R,1.066800X2.159000*%
%ADD16R,2.200000X0.600000*%
%ADD17R,1.900000X3.400000*%
%ADD18R,6.200000X2.700000*%
%ADD19R,2.750000X1.000000*%
%ADD20R,0.787400X0.889000*%
%ADD21C,0.150000*%
%ADD22R,0.550000X1.600000*%
%ADD23R,1.600000X0.550000*%


D10*
X749300Y168300D03*
X749300Y187300D03*
D11*
X50800Y323100D03*
X50800Y388100D03*
X292100Y388100D03*
X292100Y323100D03*
D12*
X320700Y482600D03*
X339700Y482600D03*
X771500Y431800D03*
X752500Y431800D03*
X511200Y38100D03*
X530200Y38100D03*
X333400Y38100D03*
X352400Y38100D03*
X384200Y482600D03*
X403200Y482600D03*
D13*
X85350Y203200D03*
X16250Y203200D03*
D14*
X165100Y355600D03*
D15*
X131064Y272288D03*
X148082Y272288D03*
X165100Y272288D03*
X182118Y272288D03*
X199136Y272288D03*
D16*
X736000Y361950D03*
X788000Y361950D03*
X736000Y374650D03*
X736000Y349250D03*
X736000Y336550D03*
X788000Y374650D03*
X788000Y349250D03*
X788000Y336550D03*
D17*
X221800Y190500D03*
X260800Y190500D03*
D10*
X419100Y244500D03*
X419100Y263500D03*
X927100Y803300D03*
X927100Y822300D03*
X609600Y130200D03*
X609600Y149200D03*
D12*
X765200Y279400D03*
X784200Y279400D03*
X860400Y50800D03*
X841400Y50800D03*
X784200Y50800D03*
X765200Y50800D03*
D10*
X546100Y231800D03*
X546100Y250800D03*
D18*
X927100Y618998D03*
X927100Y701802D03*
D10*
X850900Y365100D03*
X850900Y346100D03*
D12*
X676300Y317500D03*
X695300Y317500D03*
D10*
X660400Y390500D03*
X660400Y371500D03*
D12*
X644500Y508000D03*
X625500Y508000D03*
X720700Y508000D03*
X701700Y508000D03*
X689000Y50800D03*
X708000Y50800D03*
X828700Y279400D03*
X847700Y279400D03*
D10*
X431800Y130200D03*
X431800Y149200D03*
D19*
X549450Y107000D03*
X491950Y107000D03*
X549450Y147000D03*
X491950Y147000D03*
X371650Y107000D03*
X314150Y107000D03*
X371650Y147000D03*
X314150Y147000D03*
D20*
X911606Y137160D03*
X892302Y137160D03*
X901954Y116840D03*
D21*
X670000Y232700D02*
X652500Y232700D01*
X652500Y237200D01*
X670000Y237200D01*
X670000Y232700D01*
X670000Y234125D02*
X652500Y234125D01*
X652500Y235550D02*
X670000Y235550D01*
X670000Y236975D02*
X652500Y236975D01*
X652500Y220000D02*
X670000Y220000D01*
X652500Y220000D02*
X652500Y224500D01*
X670000Y224500D01*
X670000Y220000D01*
X670000Y221425D02*
X652500Y221425D01*
X652500Y222850D02*
X670000Y222850D01*
X670000Y224275D02*
X652500Y224275D01*
X652500Y207300D02*
X670000Y207300D01*
X652500Y207300D02*
X652500Y211800D01*
X670000Y211800D01*
X670000Y207300D01*
X670000Y208725D02*
X652500Y208725D01*
X652500Y210150D02*
X670000Y210150D01*
X670000Y211575D02*
X652500Y211575D01*
X652500Y194600D02*
X670000Y194600D01*
X652500Y194600D02*
X652500Y199100D01*
X670000Y199100D01*
X670000Y194600D01*
X670000Y196025D02*
X652500Y196025D01*
X652500Y197450D02*
X670000Y197450D01*
X670000Y198875D02*
X652500Y198875D01*
X701600Y194600D02*
X719100Y194600D01*
X701600Y194600D02*
X701600Y199100D01*
X719100Y199100D01*
X719100Y194600D01*
X719100Y196025D02*
X701600Y196025D01*
X701600Y197450D02*
X719100Y197450D01*
X719100Y198875D02*
X701600Y198875D01*
X701600Y207300D02*
X719100Y207300D01*
X701600Y207300D02*
X701600Y211800D01*
X719100Y211800D01*
X719100Y207300D01*
X719100Y208725D02*
X701600Y208725D01*
X701600Y210150D02*
X719100Y210150D01*
X719100Y211575D02*
X701600Y211575D01*
X701600Y220000D02*
X719100Y220000D01*
X701600Y220000D02*
X701600Y224500D01*
X719100Y224500D01*
X719100Y220000D01*
X719100Y221425D02*
X701600Y221425D01*
X701600Y222850D02*
X719100Y222850D01*
X719100Y224275D02*
X701600Y224275D01*
X701600Y232700D02*
X719100Y232700D01*
X701600Y232700D02*
X701600Y237200D01*
X719100Y237200D01*
X719100Y232700D01*
X719100Y234125D02*
X701600Y234125D01*
X701600Y235550D02*
X719100Y235550D01*
X719100Y236975D02*
X701600Y236975D01*
D22*
X561400Y397400D03*
X553400Y397400D03*
X545400Y397400D03*
X537400Y397400D03*
X529400Y397400D03*
X521400Y397400D03*
X513400Y397400D03*
X505400Y397400D03*
D23*
X491600Y383600D03*
X491600Y375600D03*
X491600Y367600D03*
X491600Y359600D03*
X491600Y351600D03*
X491600Y343600D03*
X491600Y335600D03*
X491600Y327600D03*
D22*
X505400Y313800D03*
X513400Y313800D03*
X521400Y313800D03*
X529400Y313800D03*
X537400Y313800D03*
X545400Y313800D03*
X553400Y313800D03*
X561400Y313800D03*
D23*
X575200Y327600D03*
X575200Y335600D03*
X575200Y343600D03*
X575200Y351600D03*
X575200Y359600D03*
X575200Y367600D03*
X575200Y375600D03*
X575200Y383600D03*
M02*
