G04 EAGLE Gerber RS-274X export*
G75*
%MOMM*%
%FSLAX34Y34*%
%LPD*%
%INSoldermask Bottom*%
%IPPOS*%
%AMOC8*
5,1,8,0,0,1.08239X$1,22.5*%
G01*
%ADD10C,1.422400*%
%ADD11C,1.727200*%
%ADD12C,4.419600*%
%ADD13R,1.981200X1.981200*%
%ADD14C,1.981200*%
%ADD15C,2.901600*%
%ADD16C,1.625600*%
%ADD17C,1.409600*%
%ADD18R,1.409600X1.409600*%
%ADD19C,1.509600*%


D10*
X749300Y406400D03*
X749300Y381000D03*
X825500Y381000D03*
X825500Y406400D03*
X749300Y355600D03*
X749300Y330200D03*
X825500Y355600D03*
X825500Y330200D03*
D11*
X355600Y368300D03*
X381000Y368300D03*
X381000Y393700D03*
X355600Y393700D03*
X355600Y342900D03*
X381000Y342900D03*
D12*
X98900Y101600D03*
X38900Y101600D03*
X68900Y54600D03*
D13*
X124500Y917000D03*
D14*
X149900Y917000D03*
X175300Y917000D03*
X200700Y917000D03*
X226100Y917000D03*
X251500Y917000D03*
X276900Y917000D03*
X302300Y917000D03*
X327700Y917000D03*
X353100Y917000D03*
X378500Y917000D03*
X403900Y917000D03*
X429300Y917000D03*
X454700Y917000D03*
X480100Y917000D03*
X505500Y917000D03*
D15*
X69500Y917000D03*
X69500Y607000D03*
X819500Y917000D03*
X819500Y607000D03*
D16*
X906780Y508000D02*
X922020Y508000D01*
X922020Y482600D02*
X906780Y482600D01*
X906780Y457200D02*
X922020Y457200D01*
D17*
X582950Y228600D03*
X582950Y254000D03*
X582950Y203200D03*
D18*
X582950Y279400D03*
D17*
X661650Y203200D03*
X661650Y279400D03*
X661650Y228600D03*
X661650Y254000D03*
D19*
X914400Y98900D03*
X914400Y78900D03*
M02*
