G04 EAGLE Gerber RS-274X export*
G75*
%MOMM*%
%FSLAX34Y34*%
%LPD*%
%INBottom Copper*%
%IPPOS*%
%AMOC8*
5,1,8,0,0,1.08239X$1,22.5*%
G01*
%ADD10C,1.320800*%
%ADD11C,1.625600*%
%ADD12C,4.318000*%
%ADD13R,1.879600X1.879600*%
%ADD14C,1.879600*%
%ADD15C,1.524000*%
%ADD16C,1.308000*%
%ADD17R,1.308000X1.308000*%
%ADD18C,1.408000*%
%ADD19C,0.685800*%
%ADD20C,0.203200*%
%ADD21C,0.508000*%

G36*
X933522Y4067D02*
X933522Y4067D01*
X933540Y4065D01*
X933722Y4086D01*
X933905Y4105D01*
X933922Y4110D01*
X933939Y4112D01*
X934114Y4169D01*
X934290Y4223D01*
X934305Y4231D01*
X934322Y4237D01*
X934482Y4327D01*
X934644Y4415D01*
X934657Y4426D01*
X934673Y4435D01*
X934812Y4555D01*
X934953Y4672D01*
X934964Y4686D01*
X934978Y4698D01*
X935090Y4843D01*
X935205Y4986D01*
X935213Y5002D01*
X935224Y5016D01*
X935306Y5181D01*
X935391Y5343D01*
X935396Y5360D01*
X935404Y5376D01*
X935451Y5555D01*
X935502Y5730D01*
X935504Y5748D01*
X935508Y5765D01*
X935535Y6096D01*
X935535Y449287D01*
X935534Y449296D01*
X935535Y449304D01*
X935514Y449496D01*
X935495Y449687D01*
X935493Y449696D01*
X935492Y449705D01*
X935434Y449887D01*
X935377Y450072D01*
X935373Y450080D01*
X935370Y450089D01*
X935277Y450257D01*
X935185Y450426D01*
X935180Y450433D01*
X935175Y450441D01*
X935051Y450588D01*
X934928Y450736D01*
X934921Y450741D01*
X934915Y450748D01*
X934764Y450867D01*
X934614Y450988D01*
X934606Y450992D01*
X934599Y450998D01*
X934426Y451085D01*
X934257Y451173D01*
X934248Y451176D01*
X934240Y451180D01*
X934054Y451232D01*
X933870Y451285D01*
X933861Y451285D01*
X933852Y451288D01*
X933659Y451302D01*
X933468Y451318D01*
X933460Y451317D01*
X933451Y451317D01*
X933258Y451293D01*
X933069Y451271D01*
X933060Y451268D01*
X933051Y451267D01*
X932868Y451205D01*
X932686Y451146D01*
X932678Y451141D01*
X932670Y451139D01*
X932503Y451043D01*
X932335Y450948D01*
X932328Y450942D01*
X932321Y450938D01*
X932068Y450723D01*
X928639Y447294D01*
X924344Y445515D01*
X904456Y445515D01*
X900161Y447294D01*
X896865Y450591D01*
X896795Y450716D01*
X896706Y450882D01*
X896698Y450892D01*
X896691Y450904D01*
X896570Y451047D01*
X896450Y451192D01*
X896440Y451201D01*
X896431Y451211D01*
X896284Y451327D01*
X896137Y451446D01*
X896126Y451452D01*
X896115Y451460D01*
X895947Y451546D01*
X895781Y451633D01*
X895768Y451637D01*
X895756Y451643D01*
X895574Y451694D01*
X895395Y451746D01*
X895381Y451747D01*
X895368Y451751D01*
X895179Y451765D01*
X894993Y451781D01*
X894980Y451779D01*
X894967Y451780D01*
X894779Y451756D01*
X894593Y451736D01*
X894581Y451731D01*
X894567Y451730D01*
X894389Y451670D01*
X894210Y451612D01*
X894198Y451606D01*
X894186Y451602D01*
X894023Y451508D01*
X893859Y451416D01*
X893848Y451407D01*
X893837Y451401D01*
X893584Y451186D01*
X893245Y450847D01*
X890491Y449706D01*
X887509Y449706D01*
X884755Y450847D01*
X882647Y452955D01*
X881506Y455709D01*
X881506Y456667D01*
X881504Y456694D01*
X881506Y456720D01*
X881484Y456894D01*
X881466Y457068D01*
X881459Y457093D01*
X881455Y457120D01*
X881400Y457286D01*
X881348Y457453D01*
X881335Y457476D01*
X881327Y457502D01*
X881240Y457653D01*
X881156Y457807D01*
X881139Y457827D01*
X881126Y457850D01*
X880911Y458103D01*
X871993Y467022D01*
X871219Y468889D01*
X871219Y527042D01*
X871217Y527068D01*
X871219Y527095D01*
X871197Y527269D01*
X871179Y527442D01*
X871172Y527468D01*
X871168Y527494D01*
X871113Y527660D01*
X871061Y527827D01*
X871048Y527851D01*
X871040Y527876D01*
X870953Y528028D01*
X870869Y528181D01*
X870852Y528202D01*
X870839Y528225D01*
X870624Y528478D01*
X869947Y529155D01*
X868806Y531909D01*
X868806Y534891D01*
X869947Y537645D01*
X872055Y539753D01*
X874809Y540894D01*
X877791Y540894D01*
X880545Y539753D01*
X882653Y537645D01*
X883794Y534891D01*
X883794Y531909D01*
X882653Y529155D01*
X881976Y528478D01*
X881959Y528457D01*
X881938Y528440D01*
X881831Y528302D01*
X881721Y528166D01*
X881708Y528143D01*
X881692Y528122D01*
X881614Y527965D01*
X881532Y527811D01*
X881524Y527785D01*
X881512Y527761D01*
X881467Y527592D01*
X881417Y527425D01*
X881415Y527398D01*
X881408Y527372D01*
X881381Y527042D01*
X881381Y472846D01*
X881383Y472819D01*
X881381Y472793D01*
X881403Y472619D01*
X881421Y472445D01*
X881428Y472420D01*
X881432Y472393D01*
X881487Y472227D01*
X881539Y472060D01*
X881552Y472037D01*
X881560Y472011D01*
X881647Y471860D01*
X881731Y471706D01*
X881748Y471686D01*
X881761Y471663D01*
X881976Y471410D01*
X888097Y465289D01*
X888117Y465272D01*
X888135Y465251D01*
X888273Y465144D01*
X888408Y465034D01*
X888432Y465021D01*
X888453Y465005D01*
X888610Y464927D01*
X888764Y464845D01*
X888789Y464837D01*
X888813Y464825D01*
X888983Y464780D01*
X889150Y464730D01*
X889176Y464728D01*
X889202Y464721D01*
X889533Y464694D01*
X890491Y464694D01*
X893245Y463553D01*
X893584Y463214D01*
X893594Y463206D01*
X893603Y463195D01*
X893750Y463078D01*
X893895Y462959D01*
X893907Y462953D01*
X893918Y462944D01*
X894086Y462858D01*
X894251Y462770D01*
X894264Y462767D01*
X894276Y462760D01*
X894457Y462709D01*
X894637Y462656D01*
X894650Y462654D01*
X894663Y462651D01*
X894850Y462636D01*
X895038Y462619D01*
X895051Y462621D01*
X895065Y462620D01*
X895250Y462642D01*
X895438Y462663D01*
X895451Y462667D01*
X895464Y462668D01*
X895642Y462727D01*
X895822Y462784D01*
X895834Y462791D01*
X895846Y462795D01*
X896010Y462888D01*
X896174Y462979D01*
X896184Y462988D01*
X896196Y462994D01*
X896338Y463118D01*
X896481Y463239D01*
X896490Y463250D01*
X896500Y463259D01*
X896615Y463408D01*
X896731Y463555D01*
X896737Y463567D01*
X896745Y463578D01*
X896863Y463808D01*
X900161Y467106D01*
X900745Y467348D01*
X902376Y468023D01*
X902384Y468028D01*
X902393Y468030D01*
X902563Y468123D01*
X902731Y468214D01*
X902738Y468219D01*
X902746Y468224D01*
X902894Y468348D01*
X903042Y468470D01*
X903047Y468477D01*
X903054Y468483D01*
X903174Y468633D01*
X903295Y468783D01*
X903299Y468791D01*
X903305Y468798D01*
X903392Y468967D01*
X903482Y469139D01*
X903485Y469148D01*
X903489Y469156D01*
X903541Y469338D01*
X903595Y469526D01*
X903596Y469535D01*
X903599Y469543D01*
X903613Y469734D01*
X903630Y469927D01*
X903629Y469936D01*
X903630Y469944D01*
X903606Y470135D01*
X903585Y470327D01*
X903582Y470335D01*
X903581Y470344D01*
X903521Y470526D01*
X903462Y470710D01*
X903457Y470718D01*
X903454Y470726D01*
X903359Y470894D01*
X903265Y471062D01*
X903260Y471068D01*
X903255Y471076D01*
X903128Y471222D01*
X903003Y471367D01*
X902996Y471373D01*
X902991Y471380D01*
X902838Y471497D01*
X902686Y471616D01*
X902678Y471620D01*
X902671Y471625D01*
X902376Y471777D01*
X900161Y472694D01*
X896874Y475981D01*
X895095Y480276D01*
X895095Y484924D01*
X896874Y489219D01*
X900161Y492506D01*
X902376Y493423D01*
X902384Y493428D01*
X902393Y493430D01*
X902563Y493523D01*
X902731Y493614D01*
X902738Y493619D01*
X902746Y493624D01*
X902894Y493748D01*
X903042Y493870D01*
X903047Y493877D01*
X903054Y493883D01*
X903174Y494033D01*
X903295Y494183D01*
X903299Y494191D01*
X903305Y494198D01*
X903392Y494367D01*
X903482Y494539D01*
X903485Y494548D01*
X903489Y494556D01*
X903541Y494738D01*
X903595Y494926D01*
X903596Y494935D01*
X903599Y494943D01*
X903613Y495134D01*
X903630Y495327D01*
X903629Y495336D01*
X903630Y495344D01*
X903606Y495535D01*
X903585Y495727D01*
X903582Y495735D01*
X903581Y495744D01*
X903521Y495926D01*
X903462Y496110D01*
X903457Y496118D01*
X903454Y496126D01*
X903359Y496294D01*
X903265Y496462D01*
X903260Y496468D01*
X903255Y496476D01*
X903128Y496622D01*
X903003Y496767D01*
X902996Y496773D01*
X902991Y496780D01*
X902838Y496897D01*
X902686Y497016D01*
X902678Y497020D01*
X902671Y497025D01*
X902376Y497177D01*
X900161Y498094D01*
X896874Y501381D01*
X895095Y505676D01*
X895095Y510324D01*
X896874Y514619D01*
X900161Y517906D01*
X904456Y519685D01*
X924344Y519685D01*
X928639Y517906D01*
X932068Y514477D01*
X932075Y514471D01*
X932080Y514464D01*
X932230Y514344D01*
X932379Y514222D01*
X932387Y514218D01*
X932394Y514212D01*
X932564Y514124D01*
X932735Y514033D01*
X932744Y514031D01*
X932751Y514027D01*
X932936Y513973D01*
X933121Y513919D01*
X933130Y513918D01*
X933138Y513915D01*
X933329Y513900D01*
X933522Y513882D01*
X933531Y513883D01*
X933540Y513882D01*
X933729Y513905D01*
X933922Y513926D01*
X933931Y513928D01*
X933939Y513929D01*
X934121Y513989D01*
X934306Y514047D01*
X934314Y514051D01*
X934322Y514054D01*
X934491Y514149D01*
X934658Y514242D01*
X934665Y514248D01*
X934673Y514252D01*
X934819Y514378D01*
X934965Y514502D01*
X934971Y514509D01*
X934978Y514515D01*
X935095Y514667D01*
X935215Y514818D01*
X935219Y514826D01*
X935224Y514833D01*
X935310Y515005D01*
X935397Y515177D01*
X935400Y515186D01*
X935404Y515194D01*
X935453Y515378D01*
X935505Y515565D01*
X935506Y515574D01*
X935508Y515583D01*
X935535Y515913D01*
X935535Y943104D01*
X935533Y943122D01*
X935535Y943140D01*
X935514Y943322D01*
X935495Y943505D01*
X935490Y943522D01*
X935488Y943539D01*
X935431Y943714D01*
X935377Y943890D01*
X935369Y943905D01*
X935363Y943922D01*
X935273Y944082D01*
X935185Y944244D01*
X935174Y944257D01*
X935165Y944273D01*
X935045Y944412D01*
X934928Y944553D01*
X934914Y944564D01*
X934902Y944578D01*
X934757Y944690D01*
X934614Y944805D01*
X934598Y944813D01*
X934584Y944824D01*
X934419Y944906D01*
X934257Y944991D01*
X934240Y944996D01*
X934224Y945004D01*
X934045Y945051D01*
X933870Y945102D01*
X933852Y945104D01*
X933835Y945108D01*
X933504Y945135D01*
X6096Y945135D01*
X6078Y945133D01*
X6060Y945135D01*
X5878Y945114D01*
X5695Y945095D01*
X5678Y945090D01*
X5661Y945088D01*
X5486Y945031D01*
X5310Y944977D01*
X5295Y944969D01*
X5278Y944963D01*
X5118Y944873D01*
X4956Y944785D01*
X4943Y944774D01*
X4927Y944765D01*
X4788Y944645D01*
X4647Y944528D01*
X4636Y944514D01*
X4622Y944502D01*
X4510Y944357D01*
X4395Y944214D01*
X4387Y944198D01*
X4376Y944184D01*
X4294Y944019D01*
X4209Y943857D01*
X4204Y943840D01*
X4196Y943824D01*
X4149Y943645D01*
X4098Y943470D01*
X4096Y943452D01*
X4092Y943435D01*
X4065Y943104D01*
X4065Y6096D01*
X4067Y6078D01*
X4065Y6060D01*
X4086Y5878D01*
X4105Y5695D01*
X4110Y5678D01*
X4112Y5661D01*
X4169Y5486D01*
X4223Y5310D01*
X4231Y5295D01*
X4237Y5278D01*
X4327Y5118D01*
X4415Y4956D01*
X4426Y4943D01*
X4435Y4927D01*
X4555Y4788D01*
X4672Y4647D01*
X4686Y4636D01*
X4698Y4622D01*
X4843Y4510D01*
X4986Y4395D01*
X5002Y4387D01*
X5016Y4376D01*
X5181Y4294D01*
X5343Y4209D01*
X5360Y4204D01*
X5376Y4196D01*
X5555Y4149D01*
X5730Y4098D01*
X5748Y4096D01*
X5765Y4092D01*
X6096Y4065D01*
X933504Y4065D01*
X933522Y4067D01*
G37*
%LPC*%
G36*
X379509Y132206D02*
X379509Y132206D01*
X376755Y133347D01*
X374647Y135455D01*
X373506Y138209D01*
X373506Y141191D01*
X374647Y143945D01*
X376755Y146053D01*
X379509Y147194D01*
X380467Y147194D01*
X380494Y147196D01*
X380520Y147194D01*
X380694Y147216D01*
X380868Y147234D01*
X380893Y147241D01*
X380920Y147245D01*
X381086Y147300D01*
X381253Y147352D01*
X381276Y147365D01*
X381302Y147373D01*
X381453Y147460D01*
X381607Y147544D01*
X381627Y147561D01*
X381650Y147574D01*
X381903Y147789D01*
X476924Y242810D01*
X476941Y242830D01*
X476962Y242848D01*
X477069Y242986D01*
X477179Y243121D01*
X477192Y243145D01*
X477208Y243166D01*
X477286Y243323D01*
X477368Y243477D01*
X477376Y243502D01*
X477388Y243526D01*
X477433Y243696D01*
X477483Y243863D01*
X477485Y243889D01*
X477492Y243915D01*
X477519Y244246D01*
X477519Y280411D01*
X478293Y282278D01*
X505122Y309107D01*
X506989Y309881D01*
X568554Y309881D01*
X568581Y309883D01*
X568607Y309881D01*
X568781Y309903D01*
X568955Y309921D01*
X568980Y309928D01*
X569007Y309932D01*
X569173Y309987D01*
X569340Y310039D01*
X569363Y310052D01*
X569389Y310060D01*
X569540Y310147D01*
X569694Y310231D01*
X569714Y310248D01*
X569737Y310261D01*
X569990Y310476D01*
X578524Y319010D01*
X578541Y319030D01*
X578562Y319048D01*
X578669Y319186D01*
X578779Y319321D01*
X578792Y319345D01*
X578808Y319366D01*
X578886Y319523D01*
X578968Y319677D01*
X578976Y319702D01*
X578988Y319726D01*
X579033Y319896D01*
X579083Y320063D01*
X579085Y320089D01*
X579092Y320115D01*
X579119Y320446D01*
X579119Y336542D01*
X579117Y336568D01*
X579119Y336595D01*
X579097Y336769D01*
X579079Y336942D01*
X579072Y336968D01*
X579068Y336994D01*
X579013Y337160D01*
X578961Y337327D01*
X578948Y337351D01*
X578940Y337376D01*
X578853Y337528D01*
X578769Y337681D01*
X578752Y337702D01*
X578739Y337725D01*
X578524Y337978D01*
X577847Y338655D01*
X576706Y341409D01*
X576706Y344391D01*
X577457Y346203D01*
X577460Y346212D01*
X577464Y346220D01*
X577518Y346404D01*
X577573Y346589D01*
X577574Y346597D01*
X577577Y346606D01*
X577593Y346796D01*
X577612Y346989D01*
X577611Y346998D01*
X577611Y347007D01*
X577590Y347198D01*
X577570Y347390D01*
X577567Y347398D01*
X577566Y347407D01*
X577508Y347589D01*
X577450Y347774D01*
X577446Y347782D01*
X577443Y347790D01*
X577349Y347959D01*
X577257Y348127D01*
X577251Y348134D01*
X577247Y348142D01*
X577121Y348289D01*
X576998Y348435D01*
X576991Y348441D01*
X576985Y348448D01*
X576833Y348566D01*
X576683Y348686D01*
X576675Y348691D01*
X576668Y348696D01*
X576496Y348783D01*
X576325Y348870D01*
X576316Y348873D01*
X576308Y348877D01*
X576121Y348928D01*
X575937Y348980D01*
X575929Y348981D01*
X575920Y348983D01*
X575727Y348996D01*
X575536Y349011D01*
X575527Y349010D01*
X575518Y349011D01*
X575327Y348986D01*
X575136Y348963D01*
X575128Y348960D01*
X575119Y348959D01*
X574803Y348857D01*
X572991Y348106D01*
X570009Y348106D01*
X567255Y349247D01*
X565147Y351355D01*
X564006Y354109D01*
X564006Y357091D01*
X565147Y359845D01*
X567255Y361953D01*
X570009Y363094D01*
X572991Y363094D01*
X575745Y361953D01*
X576422Y361276D01*
X576443Y361259D01*
X576460Y361238D01*
X576598Y361131D01*
X576734Y361021D01*
X576757Y361008D01*
X576778Y360992D01*
X576935Y360914D01*
X577089Y360832D01*
X577115Y360824D01*
X577139Y360812D01*
X577308Y360767D01*
X577475Y360717D01*
X577502Y360715D01*
X577528Y360708D01*
X577858Y360681D01*
X597911Y360681D01*
X599778Y359907D01*
X601493Y358192D01*
X626607Y333078D01*
X627381Y331211D01*
X627381Y325382D01*
X627382Y325373D01*
X627381Y325364D01*
X627401Y325174D01*
X627421Y324982D01*
X627423Y324973D01*
X627424Y324964D01*
X627482Y324782D01*
X627539Y324597D01*
X627543Y324589D01*
X627546Y324580D01*
X627638Y324413D01*
X627731Y324243D01*
X627736Y324236D01*
X627741Y324228D01*
X627867Y324079D01*
X627988Y323934D01*
X627995Y323928D01*
X628001Y323921D01*
X628153Y323801D01*
X628302Y323681D01*
X628310Y323677D01*
X628317Y323671D01*
X628490Y323583D01*
X628659Y323496D01*
X628668Y323493D01*
X628676Y323489D01*
X628863Y323437D01*
X629046Y323384D01*
X629055Y323384D01*
X629064Y323381D01*
X629255Y323367D01*
X629448Y323351D01*
X629457Y323352D01*
X629465Y323352D01*
X629657Y323376D01*
X629847Y323398D01*
X629856Y323401D01*
X629865Y323402D01*
X630048Y323464D01*
X630230Y323523D01*
X630238Y323528D01*
X630247Y323530D01*
X630413Y323626D01*
X630581Y323721D01*
X630588Y323727D01*
X630595Y323731D01*
X630723Y323839D01*
X633509Y324994D01*
X636491Y324994D01*
X639245Y323853D01*
X641353Y321745D01*
X642494Y318991D01*
X642494Y316009D01*
X641743Y314197D01*
X641740Y314188D01*
X641736Y314180D01*
X641682Y313996D01*
X641627Y313812D01*
X641626Y313803D01*
X641623Y313794D01*
X641607Y313603D01*
X641588Y313411D01*
X641589Y313402D01*
X641589Y313393D01*
X641610Y313202D01*
X641630Y313010D01*
X641633Y313002D01*
X641634Y312993D01*
X641693Y312808D01*
X641750Y312626D01*
X641754Y312618D01*
X641757Y312610D01*
X641851Y312440D01*
X641943Y312273D01*
X641949Y312266D01*
X641953Y312258D01*
X642078Y312113D01*
X642202Y311965D01*
X642209Y311959D01*
X642215Y311952D01*
X642366Y311834D01*
X642517Y311714D01*
X642525Y311710D01*
X642532Y311704D01*
X642704Y311618D01*
X642875Y311530D01*
X642884Y311527D01*
X642892Y311523D01*
X643077Y311472D01*
X643263Y311420D01*
X643271Y311419D01*
X643280Y311417D01*
X643475Y311404D01*
X643664Y311389D01*
X643673Y311390D01*
X643682Y311389D01*
X643874Y311414D01*
X644064Y311437D01*
X644072Y311440D01*
X644081Y311441D01*
X644397Y311543D01*
X646209Y312294D01*
X649191Y312294D01*
X651945Y311153D01*
X652622Y310476D01*
X652643Y310459D01*
X652660Y310438D01*
X652798Y310332D01*
X652934Y310221D01*
X652957Y310208D01*
X652978Y310192D01*
X653135Y310114D01*
X653289Y310032D01*
X653315Y310024D01*
X653339Y310012D01*
X653508Y309967D01*
X653675Y309917D01*
X653702Y309915D01*
X653728Y309908D01*
X654058Y309881D01*
X835254Y309881D01*
X835281Y309883D01*
X835307Y309881D01*
X835481Y309903D01*
X835655Y309921D01*
X835680Y309928D01*
X835707Y309932D01*
X835873Y309987D01*
X836040Y310039D01*
X836063Y310052D01*
X836089Y310060D01*
X836240Y310147D01*
X836394Y310231D01*
X836414Y310248D01*
X836437Y310261D01*
X836690Y310476D01*
X880911Y354697D01*
X880928Y354717D01*
X880949Y354735D01*
X881056Y354873D01*
X881166Y355008D01*
X881179Y355032D01*
X881195Y355053D01*
X881273Y355210D01*
X881355Y355364D01*
X881363Y355389D01*
X881375Y355413D01*
X881420Y355583D01*
X881470Y355750D01*
X881472Y355776D01*
X881479Y355802D01*
X881506Y356133D01*
X881506Y357091D01*
X882647Y359845D01*
X884755Y361953D01*
X887509Y363094D01*
X890491Y363094D01*
X893245Y361953D01*
X895353Y359845D01*
X896494Y357091D01*
X896494Y354109D01*
X895353Y351355D01*
X893245Y349247D01*
X890491Y348106D01*
X889533Y348106D01*
X889506Y348104D01*
X889480Y348106D01*
X889306Y348084D01*
X889132Y348066D01*
X889107Y348059D01*
X889080Y348055D01*
X888914Y348000D01*
X888747Y347948D01*
X888724Y347935D01*
X888698Y347927D01*
X888547Y347840D01*
X888393Y347756D01*
X888373Y347739D01*
X888350Y347726D01*
X888097Y347511D01*
X841078Y300493D01*
X839211Y299719D01*
X654058Y299719D01*
X654032Y299717D01*
X654005Y299719D01*
X653832Y299697D01*
X653658Y299679D01*
X653632Y299671D01*
X653606Y299668D01*
X653440Y299613D01*
X653273Y299561D01*
X653249Y299548D01*
X653224Y299540D01*
X653072Y299453D01*
X652919Y299369D01*
X652898Y299352D01*
X652875Y299339D01*
X652622Y299124D01*
X651945Y298447D01*
X651923Y298438D01*
X649191Y297306D01*
X646209Y297306D01*
X643415Y298464D01*
X643386Y298487D01*
X643237Y298609D01*
X643229Y298613D01*
X643222Y298619D01*
X643051Y298708D01*
X642881Y298798D01*
X642873Y298800D01*
X642865Y298804D01*
X642679Y298858D01*
X642495Y298912D01*
X642486Y298913D01*
X642478Y298916D01*
X642287Y298931D01*
X642094Y298949D01*
X642085Y298948D01*
X642076Y298949D01*
X641887Y298926D01*
X641694Y298905D01*
X641685Y298903D01*
X641677Y298902D01*
X641494Y298842D01*
X641310Y298784D01*
X641302Y298780D01*
X641294Y298777D01*
X641126Y298682D01*
X640958Y298589D01*
X640951Y298583D01*
X640943Y298579D01*
X640797Y298453D01*
X640651Y298329D01*
X640645Y298322D01*
X640638Y298316D01*
X640521Y298165D01*
X640401Y298013D01*
X640397Y298005D01*
X640392Y297998D01*
X640306Y297826D01*
X640219Y297654D01*
X640216Y297645D01*
X640212Y297637D01*
X640162Y297451D01*
X640111Y297266D01*
X640110Y297257D01*
X640108Y297248D01*
X640081Y296918D01*
X640081Y193446D01*
X640083Y193419D01*
X640081Y193393D01*
X640103Y193219D01*
X640121Y193045D01*
X640128Y193020D01*
X640132Y192993D01*
X640187Y192827D01*
X640239Y192660D01*
X640252Y192637D01*
X640260Y192611D01*
X640347Y192460D01*
X640431Y192306D01*
X640448Y192286D01*
X640461Y192263D01*
X640676Y192010D01*
X659497Y173189D01*
X659517Y173172D01*
X659535Y173151D01*
X659673Y173044D01*
X659808Y172934D01*
X659832Y172921D01*
X659853Y172905D01*
X660010Y172827D01*
X660164Y172745D01*
X660189Y172737D01*
X660213Y172725D01*
X660383Y172680D01*
X660550Y172630D01*
X660576Y172628D01*
X660602Y172621D01*
X660933Y172594D01*
X661891Y172594D01*
X664645Y171453D01*
X666753Y169345D01*
X667894Y166591D01*
X667894Y163609D01*
X666753Y160855D01*
X664645Y158747D01*
X661891Y157606D01*
X658909Y157606D01*
X656155Y158747D01*
X654047Y160855D01*
X652906Y163609D01*
X652906Y164567D01*
X652904Y164594D01*
X652906Y164620D01*
X652884Y164794D01*
X652866Y164968D01*
X652859Y164993D01*
X652855Y165020D01*
X652800Y165186D01*
X652748Y165353D01*
X652735Y165376D01*
X652727Y165402D01*
X652640Y165553D01*
X652556Y165707D01*
X652539Y165727D01*
X652526Y165750D01*
X652311Y166003D01*
X632408Y185907D01*
X630848Y187466D01*
X630841Y187472D01*
X630836Y187479D01*
X630685Y187600D01*
X630537Y187722D01*
X630529Y187726D01*
X630522Y187731D01*
X630352Y187820D01*
X630181Y187910D01*
X630172Y187913D01*
X630165Y187917D01*
X629980Y187970D01*
X629795Y188025D01*
X629786Y188026D01*
X629778Y188028D01*
X629587Y188044D01*
X629394Y188061D01*
X629385Y188060D01*
X629376Y188061D01*
X629187Y188039D01*
X628994Y188018D01*
X628985Y188015D01*
X628977Y188014D01*
X628795Y187955D01*
X628610Y187896D01*
X628602Y187892D01*
X628594Y187889D01*
X628427Y187795D01*
X628258Y187702D01*
X628251Y187696D01*
X628243Y187691D01*
X628098Y187566D01*
X627951Y187441D01*
X627945Y187434D01*
X627938Y187428D01*
X627822Y187278D01*
X627701Y187125D01*
X627697Y187117D01*
X627692Y187110D01*
X627607Y186940D01*
X627519Y186766D01*
X627516Y186758D01*
X627512Y186750D01*
X627463Y186564D01*
X627411Y186378D01*
X627410Y186369D01*
X627408Y186361D01*
X627381Y186030D01*
X627381Y184158D01*
X627383Y184132D01*
X627381Y184105D01*
X627403Y183932D01*
X627421Y183758D01*
X627429Y183732D01*
X627432Y183706D01*
X627487Y183540D01*
X627539Y183373D01*
X627552Y183349D01*
X627560Y183324D01*
X627647Y183172D01*
X627731Y183019D01*
X627748Y182998D01*
X627761Y182975D01*
X627976Y182722D01*
X628653Y182045D01*
X629794Y179291D01*
X629794Y176309D01*
X628653Y173555D01*
X626545Y171447D01*
X623791Y170306D01*
X620809Y170306D01*
X618055Y171447D01*
X615947Y173555D01*
X614806Y176309D01*
X614806Y179291D01*
X615947Y182045D01*
X616624Y182722D01*
X616641Y182743D01*
X616662Y182760D01*
X616768Y182898D01*
X616879Y183034D01*
X616892Y183057D01*
X616908Y183078D01*
X616986Y183235D01*
X617068Y183389D01*
X617076Y183415D01*
X617088Y183439D01*
X617133Y183608D01*
X617183Y183775D01*
X617185Y183802D01*
X617192Y183828D01*
X617219Y184158D01*
X617219Y186030D01*
X617218Y186039D01*
X617219Y186048D01*
X617198Y186241D01*
X617179Y186431D01*
X617177Y186439D01*
X617176Y186448D01*
X617118Y186632D01*
X617061Y186816D01*
X617057Y186824D01*
X617054Y186832D01*
X616962Y187000D01*
X616869Y187170D01*
X616864Y187177D01*
X616859Y187184D01*
X616735Y187331D01*
X616612Y187479D01*
X616605Y187485D01*
X616599Y187491D01*
X616447Y187611D01*
X616298Y187731D01*
X616290Y187735D01*
X616283Y187741D01*
X616110Y187829D01*
X615941Y187917D01*
X615932Y187919D01*
X615924Y187923D01*
X615738Y187975D01*
X615554Y188028D01*
X615545Y188029D01*
X615536Y188031D01*
X615343Y188045D01*
X615152Y188061D01*
X615144Y188060D01*
X615135Y188061D01*
X614942Y188036D01*
X614753Y188014D01*
X614744Y188011D01*
X614735Y188010D01*
X614552Y187949D01*
X614370Y187889D01*
X614362Y187885D01*
X614354Y187882D01*
X614187Y187786D01*
X614019Y187691D01*
X614012Y187686D01*
X614005Y187681D01*
X613752Y187466D01*
X601493Y175208D01*
X599778Y173493D01*
X597911Y172719D01*
X565158Y172719D01*
X565132Y172717D01*
X565105Y172719D01*
X564931Y172697D01*
X564758Y172679D01*
X564732Y172672D01*
X564706Y172668D01*
X564540Y172613D01*
X564373Y172561D01*
X564349Y172548D01*
X564324Y172540D01*
X564172Y172453D01*
X564019Y172369D01*
X563998Y172352D01*
X563975Y172339D01*
X563722Y172124D01*
X563045Y171447D01*
X560291Y170306D01*
X557309Y170306D01*
X554555Y171447D01*
X552447Y173555D01*
X551306Y176309D01*
X551306Y179291D01*
X552447Y182045D01*
X554555Y184153D01*
X557309Y185294D01*
X560291Y185294D01*
X563045Y184153D01*
X563722Y183476D01*
X563743Y183459D01*
X563760Y183438D01*
X563898Y183331D01*
X564034Y183221D01*
X564057Y183208D01*
X564078Y183192D01*
X564235Y183114D01*
X564389Y183032D01*
X564415Y183024D01*
X564439Y183012D01*
X564608Y182967D01*
X564775Y182917D01*
X564802Y182915D01*
X564828Y182908D01*
X565158Y182881D01*
X593954Y182881D01*
X593981Y182883D01*
X594007Y182881D01*
X594181Y182903D01*
X594355Y182921D01*
X594380Y182928D01*
X594407Y182932D01*
X594573Y182987D01*
X594740Y183039D01*
X594763Y183052D01*
X594789Y183060D01*
X594940Y183147D01*
X595094Y183231D01*
X595114Y183248D01*
X595137Y183261D01*
X595390Y183476D01*
X603924Y192010D01*
X603941Y192030D01*
X603962Y192048D01*
X604069Y192186D01*
X604179Y192321D01*
X604192Y192345D01*
X604208Y192366D01*
X604286Y192523D01*
X604368Y192677D01*
X604376Y192702D01*
X604388Y192726D01*
X604433Y192896D01*
X604483Y193063D01*
X604485Y193089D01*
X604492Y193115D01*
X604519Y193446D01*
X604519Y323842D01*
X604517Y323868D01*
X604519Y323895D01*
X604497Y324069D01*
X604479Y324242D01*
X604472Y324268D01*
X604468Y324294D01*
X604413Y324460D01*
X604361Y324627D01*
X604348Y324651D01*
X604340Y324676D01*
X604253Y324828D01*
X604169Y324981D01*
X604152Y325002D01*
X604139Y325025D01*
X603924Y325278D01*
X603247Y325955D01*
X602106Y328709D01*
X602106Y331691D01*
X603247Y334445D01*
X605622Y336820D01*
X605634Y336834D01*
X605647Y336845D01*
X605761Y336989D01*
X605877Y337131D01*
X605886Y337147D01*
X605897Y337161D01*
X605980Y337326D01*
X606066Y337487D01*
X606071Y337504D01*
X606079Y337520D01*
X606129Y337698D01*
X606181Y337873D01*
X606182Y337891D01*
X606187Y337908D01*
X606200Y338091D01*
X606217Y338274D01*
X606215Y338292D01*
X606216Y338310D01*
X606193Y338492D01*
X606174Y338674D01*
X606168Y338691D01*
X606166Y338709D01*
X606108Y338882D01*
X606052Y339058D01*
X606043Y339074D01*
X606038Y339091D01*
X605946Y339250D01*
X605857Y339410D01*
X605846Y339424D01*
X605837Y339440D01*
X605622Y339693D01*
X595390Y349924D01*
X595370Y349941D01*
X595352Y349962D01*
X595214Y350069D01*
X595079Y350179D01*
X595055Y350192D01*
X595034Y350208D01*
X594877Y350286D01*
X594723Y350368D01*
X594698Y350376D01*
X594674Y350388D01*
X594504Y350433D01*
X594337Y350483D01*
X594311Y350485D01*
X594285Y350492D01*
X593954Y350519D01*
X592082Y350519D01*
X592073Y350518D01*
X592064Y350519D01*
X591874Y350499D01*
X591682Y350479D01*
X591673Y350477D01*
X591664Y350476D01*
X591482Y350418D01*
X591297Y350361D01*
X591289Y350357D01*
X591280Y350354D01*
X591113Y350262D01*
X590943Y350169D01*
X590936Y350164D01*
X590928Y350159D01*
X590780Y350034D01*
X590634Y349912D01*
X590628Y349905D01*
X590621Y349899D01*
X590501Y349747D01*
X590381Y349598D01*
X590377Y349590D01*
X590371Y349583D01*
X590282Y349407D01*
X590196Y349241D01*
X590193Y349232D01*
X590189Y349224D01*
X590137Y349037D01*
X590084Y348854D01*
X590084Y348845D01*
X590081Y348836D01*
X590067Y348645D01*
X590051Y348452D01*
X590052Y348443D01*
X590052Y348435D01*
X590076Y348243D01*
X590098Y348053D01*
X590101Y348044D01*
X590102Y348035D01*
X590164Y347852D01*
X590223Y347670D01*
X590228Y347662D01*
X590230Y347653D01*
X590326Y347487D01*
X590421Y347319D01*
X590427Y347312D01*
X590431Y347305D01*
X590539Y347177D01*
X591694Y344391D01*
X591694Y341409D01*
X590553Y338655D01*
X589876Y337978D01*
X589859Y337957D01*
X589838Y337940D01*
X589731Y337802D01*
X589621Y337666D01*
X589608Y337643D01*
X589592Y337622D01*
X589514Y337465D01*
X589432Y337311D01*
X589424Y337285D01*
X589412Y337261D01*
X589367Y337091D01*
X589317Y336925D01*
X589315Y336898D01*
X589308Y336872D01*
X589281Y336542D01*
X589281Y316489D01*
X588507Y314622D01*
X574378Y300493D01*
X572511Y299719D01*
X566682Y299719D01*
X566673Y299718D01*
X566664Y299719D01*
X566474Y299699D01*
X566282Y299679D01*
X566273Y299677D01*
X566264Y299676D01*
X566082Y299618D01*
X565897Y299561D01*
X565889Y299557D01*
X565880Y299554D01*
X565713Y299462D01*
X565543Y299369D01*
X565536Y299364D01*
X565528Y299359D01*
X565380Y299234D01*
X565234Y299112D01*
X565228Y299105D01*
X565221Y299099D01*
X565100Y298946D01*
X564981Y298798D01*
X564977Y298790D01*
X564971Y298783D01*
X564883Y298609D01*
X564796Y298441D01*
X564793Y298432D01*
X564789Y298424D01*
X564737Y298237D01*
X564684Y298054D01*
X564684Y298045D01*
X564681Y298036D01*
X564667Y297845D01*
X564651Y297652D01*
X564652Y297643D01*
X564652Y297635D01*
X564676Y297443D01*
X564698Y297253D01*
X564701Y297244D01*
X564702Y297235D01*
X564764Y297052D01*
X564823Y296870D01*
X564828Y296862D01*
X564830Y296853D01*
X564926Y296687D01*
X565021Y296519D01*
X565027Y296512D01*
X565031Y296505D01*
X565139Y296377D01*
X566294Y293591D01*
X566294Y290609D01*
X565153Y287855D01*
X564476Y287178D01*
X564459Y287157D01*
X564438Y287140D01*
X564331Y287002D01*
X564221Y286866D01*
X564208Y286843D01*
X564192Y286822D01*
X564114Y286665D01*
X564032Y286511D01*
X564024Y286485D01*
X564012Y286461D01*
X563967Y286292D01*
X563917Y286125D01*
X563915Y286098D01*
X563908Y286072D01*
X563881Y285742D01*
X563881Y247658D01*
X563883Y247632D01*
X563881Y247605D01*
X563903Y247431D01*
X563921Y247258D01*
X563928Y247232D01*
X563932Y247206D01*
X563987Y247040D01*
X564039Y246873D01*
X564052Y246849D01*
X564060Y246824D01*
X564147Y246672D01*
X564231Y246519D01*
X564248Y246498D01*
X564261Y246475D01*
X564476Y246222D01*
X565153Y245545D01*
X566294Y242791D01*
X566294Y239809D01*
X565153Y237055D01*
X563045Y234947D01*
X560291Y233806D01*
X557309Y233806D01*
X554555Y234947D01*
X553886Y235616D01*
X553873Y235627D01*
X553861Y235641D01*
X553717Y235755D01*
X553575Y235871D01*
X553559Y235879D01*
X553545Y235890D01*
X553381Y235974D01*
X553219Y236060D01*
X553202Y236065D01*
X553186Y236073D01*
X553009Y236122D01*
X552833Y236174D01*
X552815Y236176D01*
X552798Y236181D01*
X552615Y236194D01*
X552432Y236211D01*
X552414Y236209D01*
X552397Y236210D01*
X552215Y236187D01*
X552032Y236167D01*
X552015Y236162D01*
X551997Y236160D01*
X551824Y236102D01*
X551648Y236046D01*
X551632Y236037D01*
X551616Y236032D01*
X551456Y235940D01*
X551296Y235851D01*
X551282Y235840D01*
X551267Y235831D01*
X551014Y235616D01*
X550345Y234947D01*
X547591Y233806D01*
X544609Y233806D01*
X541855Y234947D01*
X539747Y237055D01*
X538606Y239809D01*
X538606Y242791D01*
X539747Y245545D01*
X540424Y246222D01*
X540441Y246243D01*
X540462Y246260D01*
X540569Y246398D01*
X540679Y246534D01*
X540692Y246557D01*
X540708Y246578D01*
X540786Y246735D01*
X540868Y246889D01*
X540876Y246915D01*
X540888Y246939D01*
X540933Y247108D01*
X540983Y247275D01*
X540985Y247302D01*
X540992Y247328D01*
X541019Y247658D01*
X541019Y285742D01*
X541017Y285768D01*
X541019Y285795D01*
X540997Y285969D01*
X540979Y286142D01*
X540972Y286168D01*
X540968Y286194D01*
X540913Y286360D01*
X540861Y286527D01*
X540848Y286551D01*
X540840Y286576D01*
X540753Y286728D01*
X540669Y286881D01*
X540652Y286902D01*
X540639Y286925D01*
X540424Y287178D01*
X539747Y287855D01*
X538606Y290609D01*
X538606Y293591D01*
X539764Y296385D01*
X539787Y296414D01*
X539909Y296563D01*
X539913Y296571D01*
X539919Y296578D01*
X540008Y296749D01*
X540098Y296919D01*
X540100Y296927D01*
X540104Y296935D01*
X540158Y297121D01*
X540212Y297305D01*
X540213Y297314D01*
X540216Y297322D01*
X540231Y297513D01*
X540249Y297706D01*
X540248Y297715D01*
X540249Y297724D01*
X540226Y297913D01*
X540205Y298106D01*
X540203Y298115D01*
X540202Y298123D01*
X540142Y298305D01*
X540084Y298490D01*
X540080Y298498D01*
X540077Y298506D01*
X539982Y298674D01*
X539889Y298842D01*
X539883Y298849D01*
X539879Y298857D01*
X539753Y299003D01*
X539629Y299149D01*
X539622Y299155D01*
X539616Y299162D01*
X539465Y299279D01*
X539313Y299399D01*
X539305Y299403D01*
X539298Y299408D01*
X539126Y299494D01*
X538954Y299581D01*
X538945Y299584D01*
X538937Y299588D01*
X538751Y299638D01*
X538566Y299689D01*
X538557Y299690D01*
X538548Y299692D01*
X538218Y299719D01*
X510946Y299719D01*
X510919Y299717D01*
X510893Y299719D01*
X510719Y299697D01*
X510545Y299679D01*
X510520Y299672D01*
X510493Y299668D01*
X510327Y299613D01*
X510160Y299561D01*
X510137Y299548D01*
X510111Y299540D01*
X509960Y299453D01*
X509806Y299369D01*
X509786Y299352D01*
X509763Y299339D01*
X509510Y299124D01*
X488276Y277890D01*
X488259Y277870D01*
X488238Y277852D01*
X488131Y277714D01*
X488021Y277579D01*
X488008Y277555D01*
X487992Y277534D01*
X487914Y277377D01*
X487832Y277223D01*
X487824Y277198D01*
X487812Y277174D01*
X487767Y277004D01*
X487717Y276837D01*
X487715Y276811D01*
X487708Y276785D01*
X487681Y276454D01*
X487681Y240289D01*
X486907Y238422D01*
X389089Y140603D01*
X389072Y140583D01*
X389051Y140565D01*
X388944Y140427D01*
X388834Y140292D01*
X388821Y140268D01*
X388805Y140247D01*
X388727Y140090D01*
X388645Y139936D01*
X388637Y139911D01*
X388625Y139887D01*
X388580Y139717D01*
X388530Y139550D01*
X388528Y139524D01*
X388521Y139498D01*
X388494Y139167D01*
X388494Y138209D01*
X387353Y135455D01*
X385245Y133347D01*
X382491Y132206D01*
X379509Y132206D01*
G37*
%LPD*%
%LPC*%
G36*
X100109Y424306D02*
X100109Y424306D01*
X97355Y425447D01*
X95247Y427555D01*
X94106Y430309D01*
X94106Y433291D01*
X95247Y436045D01*
X97355Y438153D01*
X99128Y438887D01*
X99156Y438902D01*
X99185Y438912D01*
X99333Y438997D01*
X99483Y439077D01*
X99507Y439097D01*
X99534Y439113D01*
X99787Y439328D01*
X110559Y450099D01*
X112986Y451105D01*
X682223Y451105D01*
X682249Y451107D01*
X682276Y451105D01*
X682450Y451127D01*
X682623Y451145D01*
X682649Y451152D01*
X682676Y451156D01*
X682841Y451211D01*
X683008Y451263D01*
X683032Y451276D01*
X683057Y451284D01*
X683209Y451371D01*
X683362Y451455D01*
X683383Y451472D01*
X683406Y451485D01*
X683659Y451700D01*
X720159Y488199D01*
X722586Y489205D01*
X770659Y489205D01*
X770690Y489208D01*
X770721Y489206D01*
X770891Y489228D01*
X771060Y489245D01*
X771090Y489254D01*
X771121Y489258D01*
X771436Y489359D01*
X773209Y490094D01*
X776191Y490094D01*
X778945Y488953D01*
X781053Y486845D01*
X782194Y484091D01*
X782194Y481109D01*
X781053Y478355D01*
X778945Y476247D01*
X776312Y475157D01*
X776191Y475106D01*
X773209Y475106D01*
X771436Y475841D01*
X771407Y475850D01*
X771379Y475864D01*
X771214Y475908D01*
X771051Y475957D01*
X771020Y475960D01*
X770990Y475968D01*
X770659Y475995D01*
X727477Y475995D01*
X727451Y475993D01*
X727424Y475995D01*
X727250Y475973D01*
X727077Y475955D01*
X727051Y475948D01*
X727024Y475944D01*
X726859Y475889D01*
X726692Y475837D01*
X726668Y475824D01*
X726643Y475816D01*
X726491Y475729D01*
X726338Y475645D01*
X726317Y475628D01*
X726294Y475615D01*
X726041Y475400D01*
X689541Y438901D01*
X687114Y437895D01*
X117877Y437895D01*
X117851Y437893D01*
X117824Y437895D01*
X117650Y437873D01*
X117477Y437855D01*
X117451Y437848D01*
X117424Y437844D01*
X117259Y437789D01*
X117092Y437737D01*
X117068Y437724D01*
X117043Y437716D01*
X116891Y437629D01*
X116738Y437545D01*
X116717Y437528D01*
X116694Y437515D01*
X116441Y437300D01*
X109128Y429987D01*
X109108Y429963D01*
X109084Y429942D01*
X108980Y429807D01*
X108873Y429676D01*
X108858Y429648D01*
X108839Y429623D01*
X108687Y429328D01*
X107953Y427555D01*
X105845Y425447D01*
X103091Y424306D01*
X100109Y424306D01*
G37*
%LPD*%
%LPC*%
G36*
X468409Y297306D02*
X468409Y297306D01*
X465655Y298447D01*
X464978Y299124D01*
X464957Y299141D01*
X464940Y299162D01*
X464802Y299269D01*
X464666Y299379D01*
X464643Y299392D01*
X464622Y299408D01*
X464465Y299486D01*
X464311Y299568D01*
X464285Y299576D01*
X464261Y299588D01*
X464092Y299633D01*
X463925Y299683D01*
X463898Y299685D01*
X463872Y299692D01*
X463542Y299719D01*
X456189Y299719D01*
X454322Y300493D01*
X403366Y351448D01*
X403346Y351465D01*
X403328Y351486D01*
X403190Y351593D01*
X403055Y351703D01*
X403031Y351716D01*
X403010Y351732D01*
X402853Y351810D01*
X402699Y351892D01*
X402674Y351900D01*
X402650Y351912D01*
X402480Y351957D01*
X402313Y352007D01*
X402287Y352009D01*
X402261Y352016D01*
X401930Y352043D01*
X391531Y352043D01*
X391480Y352038D01*
X391429Y352041D01*
X391280Y352018D01*
X391130Y352003D01*
X391081Y351988D01*
X391031Y351981D01*
X390889Y351929D01*
X390745Y351885D01*
X390700Y351861D01*
X390652Y351843D01*
X390524Y351765D01*
X390391Y351693D01*
X390352Y351661D01*
X390308Y351634D01*
X390198Y351532D01*
X390082Y351436D01*
X390050Y351396D01*
X390012Y351361D01*
X389924Y351239D01*
X389830Y351122D01*
X389806Y351077D01*
X389776Y351035D01*
X389713Y350898D01*
X389644Y350765D01*
X389630Y350716D01*
X389609Y350669D01*
X389574Y350522D01*
X389533Y350378D01*
X389529Y350327D01*
X389517Y350277D01*
X389512Y350126D01*
X389500Y349976D01*
X389506Y349926D01*
X389504Y349874D01*
X389529Y349726D01*
X389547Y349577D01*
X389563Y349528D01*
X389571Y349477D01*
X389625Y349337D01*
X389672Y349194D01*
X389697Y349149D01*
X389715Y349101D01*
X389835Y348904D01*
X389870Y348843D01*
X389879Y348833D01*
X389888Y348818D01*
X390125Y348492D01*
X390887Y346995D01*
X391406Y345398D01*
X391445Y345149D01*
X381218Y345149D01*
X381200Y345147D01*
X381183Y345149D01*
X381000Y345128D01*
X380818Y345109D01*
X380801Y345104D01*
X380783Y345102D01*
X380608Y345045D01*
X380433Y344991D01*
X380417Y344983D01*
X380400Y344977D01*
X380240Y344887D01*
X380079Y344799D01*
X380065Y344788D01*
X380049Y344779D01*
X379910Y344659D01*
X379769Y344542D01*
X379758Y344528D01*
X379745Y344516D01*
X379632Y344371D01*
X379602Y344333D01*
X379474Y344223D01*
X379333Y344105D01*
X379322Y344092D01*
X379308Y344080D01*
X379196Y343935D01*
X379081Y343792D01*
X379073Y343776D01*
X379062Y343762D01*
X378980Y343597D01*
X378895Y343434D01*
X378890Y343417D01*
X378882Y343401D01*
X378834Y343223D01*
X378784Y343048D01*
X378782Y343030D01*
X378778Y343013D01*
X378751Y342682D01*
X378751Y332455D01*
X378502Y332494D01*
X376905Y333013D01*
X375408Y333775D01*
X374050Y334762D01*
X372862Y335950D01*
X371875Y337308D01*
X371113Y338805D01*
X371051Y338996D01*
X371015Y339077D01*
X370989Y339162D01*
X370934Y339261D01*
X370889Y339365D01*
X370838Y339437D01*
X370795Y339515D01*
X370723Y339602D01*
X370658Y339694D01*
X370593Y339755D01*
X370536Y339823D01*
X370448Y339894D01*
X370366Y339972D01*
X370291Y340019D01*
X370221Y340074D01*
X370121Y340126D01*
X370025Y340186D01*
X369942Y340218D01*
X369863Y340258D01*
X369755Y340289D01*
X369649Y340329D01*
X369561Y340344D01*
X369476Y340368D01*
X369363Y340377D01*
X369252Y340395D01*
X369163Y340392D01*
X369074Y340399D01*
X368962Y340385D01*
X368849Y340382D01*
X368763Y340361D01*
X368675Y340350D01*
X368568Y340315D01*
X368458Y340289D01*
X368377Y340252D01*
X368293Y340224D01*
X368194Y340168D01*
X368092Y340121D01*
X368020Y340069D01*
X367943Y340025D01*
X367858Y339950D01*
X367766Y339884D01*
X367706Y339818D01*
X367639Y339760D01*
X367570Y339670D01*
X367494Y339587D01*
X367448Y339511D01*
X367394Y339441D01*
X367329Y339315D01*
X367285Y339243D01*
X367270Y339199D01*
X367242Y339146D01*
X365937Y335993D01*
X362507Y332563D01*
X358025Y330707D01*
X353175Y330707D01*
X348693Y332563D01*
X345263Y335993D01*
X343407Y340475D01*
X343407Y345325D01*
X345263Y349807D01*
X348693Y353237D01*
X349565Y353598D01*
X349566Y353598D01*
X349869Y353723D01*
X349877Y353728D01*
X349885Y353730D01*
X350056Y353824D01*
X350224Y353914D01*
X350230Y353919D01*
X350238Y353924D01*
X350387Y354048D01*
X350534Y354170D01*
X350540Y354177D01*
X350547Y354183D01*
X350666Y354333D01*
X350788Y354483D01*
X350792Y354491D01*
X350798Y354498D01*
X350886Y354669D01*
X350975Y354839D01*
X350977Y354848D01*
X350981Y354856D01*
X351034Y355041D01*
X351088Y355226D01*
X351089Y355234D01*
X351091Y355243D01*
X351106Y355435D01*
X351123Y355627D01*
X351122Y355636D01*
X351122Y355644D01*
X351099Y355836D01*
X351077Y356027D01*
X351075Y356035D01*
X351074Y356044D01*
X351013Y356226D01*
X350954Y356410D01*
X350950Y356418D01*
X350947Y356426D01*
X350852Y356593D01*
X350758Y356762D01*
X350752Y356768D01*
X350748Y356776D01*
X350621Y356921D01*
X350496Y357067D01*
X350489Y357073D01*
X350483Y357080D01*
X350330Y357198D01*
X350179Y357316D01*
X350171Y357320D01*
X350164Y357325D01*
X349869Y357477D01*
X348693Y357964D01*
X345263Y361393D01*
X343407Y365875D01*
X343407Y370725D01*
X345263Y375207D01*
X348693Y378636D01*
X349869Y379123D01*
X349877Y379128D01*
X349885Y379130D01*
X350053Y379222D01*
X350224Y379314D01*
X350231Y379319D01*
X350238Y379324D01*
X350386Y379447D01*
X350534Y379570D01*
X350540Y379577D01*
X350547Y379583D01*
X350666Y379732D01*
X350788Y379883D01*
X350792Y379891D01*
X350797Y379897D01*
X350885Y380068D01*
X350975Y380239D01*
X350977Y380248D01*
X350981Y380256D01*
X351033Y380439D01*
X351088Y380625D01*
X351089Y380635D01*
X351091Y380643D01*
X351106Y380834D01*
X351123Y381027D01*
X351122Y381035D01*
X351122Y381044D01*
X351099Y381234D01*
X351077Y381427D01*
X351075Y381435D01*
X351074Y381444D01*
X351013Y381627D01*
X350954Y381810D01*
X350950Y381818D01*
X350947Y381826D01*
X350851Y381994D01*
X350758Y382161D01*
X350752Y382168D01*
X350748Y382176D01*
X350621Y382321D01*
X350496Y382467D01*
X350489Y382473D01*
X350483Y382480D01*
X350330Y382597D01*
X350179Y382716D01*
X350171Y382720D01*
X350164Y382725D01*
X349869Y382877D01*
X348693Y383363D01*
X345263Y386793D01*
X343407Y391275D01*
X343407Y396125D01*
X345263Y400607D01*
X348693Y404037D01*
X353175Y405893D01*
X358025Y405893D01*
X358597Y405656D01*
X358619Y405649D01*
X358638Y405639D01*
X358811Y405591D01*
X358983Y405539D01*
X359005Y405537D01*
X359026Y405531D01*
X359206Y405518D01*
X359383Y405501D01*
X359405Y405503D01*
X359428Y405502D01*
X359606Y405524D01*
X359784Y405543D01*
X359805Y405549D01*
X359827Y405552D01*
X359997Y405609D01*
X360168Y405663D01*
X360188Y405673D01*
X360209Y405680D01*
X360365Y405770D01*
X360521Y405856D01*
X360538Y405870D01*
X360558Y405881D01*
X360811Y406096D01*
X365422Y410707D01*
X367289Y411481D01*
X407411Y411481D01*
X409278Y410707D01*
X423407Y396578D01*
X424181Y394711D01*
X424181Y387358D01*
X424183Y387332D01*
X424181Y387305D01*
X424203Y387131D01*
X424221Y386958D01*
X424228Y386932D01*
X424232Y386906D01*
X424287Y386740D01*
X424339Y386573D01*
X424352Y386549D01*
X424360Y386524D01*
X424447Y386372D01*
X424531Y386219D01*
X424548Y386198D01*
X424561Y386175D01*
X424776Y385922D01*
X425453Y385245D01*
X426594Y382491D01*
X426594Y379509D01*
X425436Y376715D01*
X425413Y376686D01*
X425291Y376537D01*
X425287Y376529D01*
X425281Y376522D01*
X425192Y376351D01*
X425102Y376181D01*
X425100Y376173D01*
X425096Y376165D01*
X425042Y375979D01*
X424988Y375795D01*
X424987Y375786D01*
X424984Y375778D01*
X424969Y375587D01*
X424951Y375394D01*
X424952Y375385D01*
X424951Y375376D01*
X424974Y375187D01*
X424995Y374994D01*
X424997Y374985D01*
X424998Y374977D01*
X425058Y374795D01*
X425116Y374610D01*
X425120Y374602D01*
X425123Y374594D01*
X425218Y374426D01*
X425311Y374258D01*
X425317Y374251D01*
X425321Y374243D01*
X425447Y374097D01*
X425571Y373951D01*
X425578Y373945D01*
X425584Y373938D01*
X425735Y373821D01*
X425887Y373701D01*
X425895Y373697D01*
X425902Y373692D01*
X426074Y373606D01*
X426246Y373519D01*
X426255Y373516D01*
X426263Y373512D01*
X426449Y373462D01*
X426634Y373411D01*
X426643Y373410D01*
X426652Y373408D01*
X426982Y373381D01*
X432811Y373381D01*
X434678Y372607D01*
X443597Y363689D01*
X443617Y363672D01*
X443635Y363651D01*
X443773Y363544D01*
X443908Y363434D01*
X443932Y363421D01*
X443953Y363405D01*
X444110Y363327D01*
X444264Y363245D01*
X444289Y363237D01*
X444313Y363225D01*
X444483Y363180D01*
X444650Y363130D01*
X444676Y363128D01*
X444702Y363121D01*
X445033Y363094D01*
X445991Y363094D01*
X448745Y361953D01*
X450853Y359845D01*
X451994Y357091D01*
X451994Y354109D01*
X450853Y351355D01*
X448745Y349247D01*
X445991Y348106D01*
X443009Y348106D01*
X440255Y349247D01*
X438147Y351355D01*
X437006Y354109D01*
X437006Y355067D01*
X437004Y355094D01*
X437006Y355120D01*
X436984Y355294D01*
X436966Y355468D01*
X436959Y355493D01*
X436955Y355520D01*
X436900Y355686D01*
X436848Y355853D01*
X436835Y355876D01*
X436827Y355902D01*
X436740Y356053D01*
X436656Y356207D01*
X436639Y356227D01*
X436626Y356250D01*
X436411Y356503D01*
X430290Y362624D01*
X430270Y362641D01*
X430252Y362662D01*
X430114Y362769D01*
X429979Y362879D01*
X429955Y362892D01*
X429934Y362908D01*
X429777Y362986D01*
X429623Y363068D01*
X429598Y363076D01*
X429574Y363088D01*
X429404Y363133D01*
X429237Y363183D01*
X429211Y363185D01*
X429185Y363192D01*
X428854Y363219D01*
X410870Y363219D01*
X410861Y363218D01*
X410852Y363219D01*
X410659Y363198D01*
X410469Y363179D01*
X410461Y363177D01*
X410452Y363176D01*
X410267Y363117D01*
X410084Y363061D01*
X410076Y363057D01*
X410068Y363054D01*
X409900Y362961D01*
X409730Y362869D01*
X409723Y362864D01*
X409716Y362859D01*
X409569Y362735D01*
X409421Y362612D01*
X409415Y362605D01*
X409409Y362599D01*
X409289Y362447D01*
X409169Y362298D01*
X409165Y362290D01*
X409159Y362283D01*
X409071Y362110D01*
X408983Y361941D01*
X408981Y361932D01*
X408977Y361924D01*
X408925Y361738D01*
X408872Y361554D01*
X408871Y361545D01*
X408869Y361536D01*
X408855Y361343D01*
X408839Y361152D01*
X408840Y361144D01*
X408839Y361135D01*
X408864Y360942D01*
X408886Y360753D01*
X408889Y360744D01*
X408890Y360735D01*
X408951Y360553D01*
X409011Y360370D01*
X409015Y360362D01*
X409018Y360354D01*
X409114Y360187D01*
X409209Y360019D01*
X409214Y360012D01*
X409219Y360005D01*
X409434Y359752D01*
X458710Y310476D01*
X458730Y310459D01*
X458748Y310438D01*
X458886Y310331D01*
X459021Y310221D01*
X459045Y310208D01*
X459066Y310192D01*
X459223Y310114D01*
X459377Y310032D01*
X459402Y310024D01*
X459426Y310012D01*
X459596Y309967D01*
X459763Y309917D01*
X459789Y309915D01*
X459815Y309908D01*
X460146Y309881D01*
X463542Y309881D01*
X463568Y309883D01*
X463595Y309881D01*
X463769Y309903D01*
X463942Y309921D01*
X463968Y309928D01*
X463994Y309932D01*
X464160Y309987D01*
X464327Y310039D01*
X464351Y310052D01*
X464376Y310060D01*
X464528Y310147D01*
X464681Y310231D01*
X464702Y310248D01*
X464725Y310261D01*
X464978Y310476D01*
X465655Y311153D01*
X468409Y312294D01*
X471391Y312294D01*
X474145Y311153D01*
X476253Y309045D01*
X477394Y306291D01*
X477394Y303309D01*
X476253Y300555D01*
X474145Y298447D01*
X474123Y298438D01*
X471391Y297306D01*
X468409Y297306D01*
G37*
%LPD*%
%LPC*%
G36*
X248822Y903537D02*
X248822Y903537D01*
X243874Y905587D01*
X240087Y909374D01*
X239743Y910205D01*
X239661Y910357D01*
X239584Y910511D01*
X239566Y910534D01*
X239553Y910560D01*
X239443Y910693D01*
X239336Y910829D01*
X239314Y910848D01*
X239296Y910870D01*
X239162Y910979D01*
X239031Y911091D01*
X239006Y911106D01*
X238983Y911124D01*
X238831Y911204D01*
X238680Y911289D01*
X238652Y911297D01*
X238627Y911311D01*
X238461Y911359D01*
X238297Y911413D01*
X238268Y911416D01*
X238241Y911424D01*
X238068Y911439D01*
X237897Y911458D01*
X237868Y911456D01*
X237839Y911459D01*
X237668Y911439D01*
X237496Y911425D01*
X237468Y911417D01*
X237439Y911413D01*
X237275Y911361D01*
X237109Y911312D01*
X237084Y911299D01*
X237056Y911290D01*
X236906Y911206D01*
X236752Y911126D01*
X236730Y911108D01*
X236705Y911094D01*
X236574Y910982D01*
X236439Y910873D01*
X236418Y910849D01*
X236399Y910832D01*
X236346Y910765D01*
X236223Y910621D01*
X235206Y909222D01*
X233878Y907894D01*
X232357Y906789D01*
X230683Y905936D01*
X228896Y905355D01*
X228639Y905315D01*
X228639Y916492D01*
X228637Y916510D01*
X228639Y916527D01*
X228618Y916710D01*
X228599Y916892D01*
X228594Y916909D01*
X228592Y916927D01*
X228567Y917005D01*
X228606Y917142D01*
X228608Y917160D01*
X228612Y917177D01*
X228639Y917508D01*
X228639Y928685D01*
X228896Y928645D01*
X230683Y928064D01*
X232357Y927211D01*
X233878Y926106D01*
X235206Y924778D01*
X236223Y923379D01*
X236337Y923250D01*
X236449Y923117D01*
X236471Y923099D01*
X236491Y923078D01*
X236628Y922974D01*
X236764Y922866D01*
X236789Y922853D01*
X236812Y922836D01*
X236968Y922761D01*
X237122Y922683D01*
X237150Y922675D01*
X237176Y922662D01*
X237343Y922620D01*
X237509Y922573D01*
X237538Y922571D01*
X237566Y922564D01*
X237739Y922555D01*
X237911Y922542D01*
X237939Y922545D01*
X237968Y922544D01*
X238139Y922570D01*
X238310Y922590D01*
X238337Y922599D01*
X238366Y922604D01*
X238529Y922663D01*
X238692Y922717D01*
X238717Y922731D01*
X238745Y922741D01*
X238892Y922831D01*
X239042Y922916D01*
X239064Y922935D01*
X239089Y922950D01*
X239216Y923068D01*
X239346Y923181D01*
X239363Y923204D01*
X239385Y923223D01*
X239486Y923363D01*
X239591Y923500D01*
X239606Y923529D01*
X239621Y923549D01*
X239656Y923626D01*
X239743Y923795D01*
X240087Y924626D01*
X243874Y928413D01*
X248822Y930463D01*
X254178Y930463D01*
X259126Y928413D01*
X262764Y924775D01*
X262777Y924764D01*
X262789Y924751D01*
X262933Y924637D01*
X263075Y924520D01*
X263091Y924512D01*
X263105Y924501D01*
X263269Y924418D01*
X263431Y924332D01*
X263448Y924327D01*
X263464Y924319D01*
X263641Y924269D01*
X263817Y924217D01*
X263835Y924215D01*
X263852Y924211D01*
X264035Y924197D01*
X264218Y924181D01*
X264236Y924183D01*
X264253Y924181D01*
X264435Y924204D01*
X264618Y924224D01*
X264635Y924229D01*
X264653Y924232D01*
X264826Y924290D01*
X265002Y924346D01*
X265018Y924354D01*
X265034Y924360D01*
X265194Y924452D01*
X265354Y924540D01*
X265368Y924552D01*
X265383Y924561D01*
X265636Y924775D01*
X269274Y928413D01*
X274222Y930463D01*
X279578Y930463D01*
X284526Y928413D01*
X288164Y924775D01*
X288177Y924764D01*
X288189Y924751D01*
X288333Y924637D01*
X288475Y924520D01*
X288491Y924512D01*
X288505Y924501D01*
X288669Y924418D01*
X288831Y924332D01*
X288848Y924327D01*
X288864Y924319D01*
X289041Y924269D01*
X289217Y924217D01*
X289235Y924215D01*
X289252Y924211D01*
X289435Y924197D01*
X289618Y924181D01*
X289636Y924183D01*
X289653Y924181D01*
X289835Y924204D01*
X290018Y924224D01*
X290035Y924229D01*
X290053Y924232D01*
X290226Y924290D01*
X290402Y924346D01*
X290418Y924354D01*
X290434Y924360D01*
X290594Y924452D01*
X290754Y924540D01*
X290768Y924552D01*
X290783Y924561D01*
X291036Y924775D01*
X294674Y928413D01*
X299622Y930463D01*
X304978Y930463D01*
X309926Y928413D01*
X313564Y924775D01*
X313577Y924764D01*
X313589Y924751D01*
X313733Y924637D01*
X313875Y924520D01*
X313891Y924512D01*
X313905Y924501D01*
X314069Y924418D01*
X314231Y924332D01*
X314248Y924327D01*
X314264Y924319D01*
X314441Y924269D01*
X314617Y924217D01*
X314635Y924215D01*
X314652Y924211D01*
X314835Y924197D01*
X315018Y924181D01*
X315036Y924183D01*
X315053Y924181D01*
X315235Y924204D01*
X315418Y924224D01*
X315435Y924229D01*
X315453Y924232D01*
X315626Y924290D01*
X315802Y924346D01*
X315818Y924354D01*
X315834Y924360D01*
X315994Y924452D01*
X316154Y924540D01*
X316168Y924552D01*
X316183Y924561D01*
X316436Y924775D01*
X320074Y928413D01*
X325022Y930463D01*
X330378Y930463D01*
X335326Y928413D01*
X338964Y924775D01*
X338977Y924764D01*
X338989Y924751D01*
X339133Y924637D01*
X339275Y924520D01*
X339291Y924512D01*
X339305Y924501D01*
X339469Y924418D01*
X339631Y924332D01*
X339648Y924327D01*
X339664Y924319D01*
X339841Y924269D01*
X340017Y924217D01*
X340035Y924215D01*
X340052Y924211D01*
X340235Y924197D01*
X340418Y924181D01*
X340436Y924183D01*
X340453Y924181D01*
X340635Y924204D01*
X340818Y924224D01*
X340835Y924229D01*
X340853Y924232D01*
X341026Y924290D01*
X341202Y924346D01*
X341218Y924354D01*
X341234Y924360D01*
X341394Y924452D01*
X341554Y924540D01*
X341568Y924552D01*
X341583Y924561D01*
X341836Y924775D01*
X345474Y928413D01*
X350422Y930463D01*
X355778Y930463D01*
X360726Y928413D01*
X364364Y924775D01*
X364377Y924764D01*
X364389Y924751D01*
X364533Y924637D01*
X364675Y924520D01*
X364691Y924512D01*
X364705Y924501D01*
X364869Y924418D01*
X365031Y924332D01*
X365048Y924327D01*
X365064Y924319D01*
X365241Y924269D01*
X365417Y924217D01*
X365435Y924215D01*
X365452Y924211D01*
X365635Y924197D01*
X365818Y924181D01*
X365836Y924183D01*
X365853Y924181D01*
X366035Y924204D01*
X366218Y924224D01*
X366235Y924229D01*
X366253Y924232D01*
X366426Y924290D01*
X366602Y924346D01*
X366618Y924354D01*
X366634Y924360D01*
X366794Y924452D01*
X366954Y924540D01*
X366968Y924552D01*
X366983Y924561D01*
X367236Y924775D01*
X370874Y928413D01*
X375822Y930463D01*
X381178Y930463D01*
X386126Y928413D01*
X389764Y924775D01*
X389777Y924764D01*
X389789Y924751D01*
X389933Y924637D01*
X390075Y924520D01*
X390091Y924512D01*
X390105Y924501D01*
X390269Y924418D01*
X390431Y924332D01*
X390448Y924327D01*
X390464Y924319D01*
X390641Y924269D01*
X390817Y924217D01*
X390835Y924215D01*
X390852Y924211D01*
X391035Y924197D01*
X391218Y924181D01*
X391236Y924183D01*
X391253Y924181D01*
X391435Y924204D01*
X391618Y924224D01*
X391635Y924229D01*
X391653Y924232D01*
X391826Y924290D01*
X392002Y924346D01*
X392018Y924354D01*
X392034Y924360D01*
X392194Y924452D01*
X392354Y924540D01*
X392368Y924552D01*
X392383Y924561D01*
X392636Y924775D01*
X396274Y928413D01*
X401222Y930463D01*
X406578Y930463D01*
X411526Y928413D01*
X415164Y924775D01*
X415177Y924764D01*
X415189Y924751D01*
X415333Y924637D01*
X415475Y924520D01*
X415491Y924512D01*
X415505Y924501D01*
X415669Y924418D01*
X415831Y924332D01*
X415848Y924327D01*
X415864Y924319D01*
X416041Y924269D01*
X416217Y924217D01*
X416235Y924215D01*
X416252Y924211D01*
X416435Y924197D01*
X416618Y924181D01*
X416636Y924183D01*
X416653Y924181D01*
X416835Y924204D01*
X417018Y924224D01*
X417035Y924229D01*
X417053Y924232D01*
X417226Y924290D01*
X417402Y924346D01*
X417418Y924354D01*
X417434Y924360D01*
X417594Y924452D01*
X417754Y924540D01*
X417768Y924552D01*
X417783Y924561D01*
X418036Y924775D01*
X421674Y928413D01*
X426622Y930463D01*
X431978Y930463D01*
X436926Y928413D01*
X440564Y924775D01*
X440577Y924764D01*
X440589Y924751D01*
X440733Y924637D01*
X440875Y924520D01*
X440891Y924512D01*
X440905Y924501D01*
X441069Y924418D01*
X441231Y924332D01*
X441248Y924327D01*
X441264Y924319D01*
X441441Y924269D01*
X441617Y924217D01*
X441635Y924215D01*
X441652Y924211D01*
X441835Y924197D01*
X442018Y924181D01*
X442036Y924183D01*
X442053Y924181D01*
X442235Y924204D01*
X442418Y924224D01*
X442435Y924229D01*
X442453Y924232D01*
X442626Y924290D01*
X442802Y924346D01*
X442818Y924354D01*
X442834Y924360D01*
X442994Y924452D01*
X443154Y924540D01*
X443168Y924552D01*
X443183Y924561D01*
X443436Y924775D01*
X447074Y928413D01*
X452022Y930463D01*
X457378Y930463D01*
X462326Y928413D01*
X465964Y924775D01*
X465977Y924764D01*
X465989Y924751D01*
X466133Y924637D01*
X466275Y924520D01*
X466291Y924512D01*
X466305Y924501D01*
X466469Y924418D01*
X466631Y924332D01*
X466648Y924327D01*
X466664Y924319D01*
X466841Y924269D01*
X467017Y924217D01*
X467035Y924215D01*
X467052Y924211D01*
X467235Y924197D01*
X467418Y924181D01*
X467436Y924183D01*
X467453Y924181D01*
X467635Y924204D01*
X467818Y924224D01*
X467835Y924229D01*
X467853Y924232D01*
X468026Y924290D01*
X468202Y924346D01*
X468218Y924354D01*
X468234Y924360D01*
X468394Y924452D01*
X468554Y924540D01*
X468568Y924552D01*
X468583Y924561D01*
X468836Y924775D01*
X472474Y928413D01*
X477422Y930463D01*
X482778Y930463D01*
X487726Y928413D01*
X491513Y924626D01*
X491857Y923795D01*
X491939Y923643D01*
X492016Y923489D01*
X492034Y923466D01*
X492047Y923440D01*
X492157Y923307D01*
X492264Y923171D01*
X492286Y923152D01*
X492304Y923130D01*
X492438Y923021D01*
X492569Y922909D01*
X492594Y922894D01*
X492617Y922876D01*
X492769Y922796D01*
X492920Y922711D01*
X492948Y922703D01*
X492973Y922689D01*
X493139Y922641D01*
X493303Y922587D01*
X493332Y922584D01*
X493359Y922576D01*
X493532Y922561D01*
X493703Y922542D01*
X493732Y922544D01*
X493761Y922541D01*
X493932Y922561D01*
X494104Y922575D01*
X494132Y922583D01*
X494161Y922587D01*
X494325Y922639D01*
X494491Y922688D01*
X494516Y922701D01*
X494544Y922710D01*
X494694Y922794D01*
X494848Y922874D01*
X494870Y922892D01*
X494895Y922906D01*
X495026Y923018D01*
X495161Y923127D01*
X495182Y923151D01*
X495201Y923168D01*
X495254Y923235D01*
X495377Y923379D01*
X496394Y924778D01*
X497722Y926106D01*
X499243Y927211D01*
X500917Y928064D01*
X502704Y928645D01*
X502961Y928685D01*
X502961Y917508D01*
X502962Y917490D01*
X502961Y917473D01*
X502982Y917290D01*
X503001Y917108D01*
X503006Y917091D01*
X503008Y917073D01*
X503033Y916995D01*
X502994Y916858D01*
X502992Y916840D01*
X502988Y916823D01*
X502961Y916492D01*
X502961Y905315D01*
X502704Y905355D01*
X500917Y905936D01*
X499243Y906789D01*
X497722Y907894D01*
X496394Y909222D01*
X495377Y910621D01*
X495263Y910750D01*
X495151Y910883D01*
X495129Y910901D01*
X495109Y910922D01*
X494972Y911026D01*
X494836Y911134D01*
X494811Y911147D01*
X494788Y911164D01*
X494632Y911239D01*
X494478Y911317D01*
X494450Y911325D01*
X494424Y911338D01*
X494257Y911380D01*
X494091Y911427D01*
X494062Y911429D01*
X494034Y911436D01*
X493861Y911445D01*
X493689Y911458D01*
X493661Y911455D01*
X493632Y911456D01*
X493461Y911430D01*
X493290Y911410D01*
X493263Y911401D01*
X493234Y911396D01*
X493071Y911337D01*
X492908Y911283D01*
X492883Y911269D01*
X492855Y911259D01*
X492708Y911169D01*
X492558Y911084D01*
X492536Y911065D01*
X492511Y911050D01*
X492384Y910932D01*
X492254Y910819D01*
X492237Y910796D01*
X492215Y910777D01*
X492114Y910637D01*
X492009Y910500D01*
X491994Y910471D01*
X491979Y910451D01*
X491944Y910374D01*
X491857Y910205D01*
X491513Y909374D01*
X487726Y905587D01*
X482778Y903537D01*
X477422Y903537D01*
X472474Y905587D01*
X468836Y909225D01*
X468822Y909236D01*
X468811Y909249D01*
X468667Y909363D01*
X468525Y909480D01*
X468509Y909488D01*
X468495Y909499D01*
X468331Y909583D01*
X468169Y909668D01*
X468152Y909673D01*
X468136Y909681D01*
X467959Y909731D01*
X467783Y909783D01*
X467765Y909785D01*
X467748Y909789D01*
X467565Y909803D01*
X467382Y909819D01*
X467364Y909817D01*
X467347Y909819D01*
X467165Y909796D01*
X466982Y909776D01*
X466965Y909771D01*
X466947Y909768D01*
X466773Y909710D01*
X466598Y909654D01*
X466582Y909646D01*
X466566Y909640D01*
X466406Y909548D01*
X466246Y909460D01*
X466232Y909448D01*
X466217Y909439D01*
X465964Y909225D01*
X462326Y905587D01*
X457378Y903537D01*
X452022Y903537D01*
X447074Y905587D01*
X443436Y909225D01*
X443422Y909236D01*
X443411Y909249D01*
X443267Y909363D01*
X443125Y909480D01*
X443109Y909488D01*
X443095Y909499D01*
X442931Y909583D01*
X442769Y909668D01*
X442752Y909673D01*
X442736Y909681D01*
X442559Y909731D01*
X442383Y909783D01*
X442365Y909785D01*
X442348Y909789D01*
X442165Y909803D01*
X441982Y909819D01*
X441964Y909817D01*
X441947Y909819D01*
X441765Y909796D01*
X441582Y909776D01*
X441565Y909771D01*
X441547Y909768D01*
X441373Y909710D01*
X441198Y909654D01*
X441182Y909646D01*
X441166Y909640D01*
X441006Y909548D01*
X440846Y909460D01*
X440832Y909448D01*
X440817Y909439D01*
X440564Y909225D01*
X436926Y905587D01*
X431978Y903537D01*
X426622Y903537D01*
X421674Y905587D01*
X418036Y909225D01*
X418022Y909236D01*
X418011Y909249D01*
X417867Y909363D01*
X417725Y909480D01*
X417709Y909488D01*
X417695Y909499D01*
X417531Y909583D01*
X417369Y909668D01*
X417352Y909673D01*
X417336Y909681D01*
X417159Y909731D01*
X416983Y909783D01*
X416965Y909785D01*
X416948Y909789D01*
X416765Y909803D01*
X416582Y909819D01*
X416564Y909817D01*
X416547Y909819D01*
X416365Y909796D01*
X416182Y909776D01*
X416165Y909771D01*
X416147Y909768D01*
X415973Y909710D01*
X415798Y909654D01*
X415782Y909646D01*
X415766Y909640D01*
X415606Y909548D01*
X415446Y909460D01*
X415432Y909448D01*
X415417Y909439D01*
X415164Y909225D01*
X411526Y905587D01*
X406578Y903537D01*
X401222Y903537D01*
X396274Y905587D01*
X392636Y909225D01*
X392622Y909236D01*
X392611Y909249D01*
X392467Y909363D01*
X392325Y909480D01*
X392309Y909488D01*
X392295Y909499D01*
X392131Y909583D01*
X391969Y909668D01*
X391952Y909673D01*
X391936Y909681D01*
X391759Y909731D01*
X391583Y909783D01*
X391565Y909785D01*
X391548Y909789D01*
X391365Y909803D01*
X391182Y909819D01*
X391164Y909817D01*
X391147Y909819D01*
X390965Y909796D01*
X390782Y909776D01*
X390765Y909771D01*
X390747Y909768D01*
X390573Y909710D01*
X390398Y909654D01*
X390382Y909646D01*
X390366Y909640D01*
X390206Y909548D01*
X390046Y909460D01*
X390032Y909448D01*
X390017Y909439D01*
X389764Y909225D01*
X386126Y905587D01*
X381178Y903537D01*
X375822Y903537D01*
X370874Y905587D01*
X367236Y909225D01*
X367222Y909236D01*
X367211Y909249D01*
X367067Y909363D01*
X366925Y909480D01*
X366909Y909488D01*
X366895Y909499D01*
X366731Y909583D01*
X366569Y909668D01*
X366552Y909673D01*
X366536Y909681D01*
X366359Y909731D01*
X366183Y909783D01*
X366165Y909785D01*
X366148Y909789D01*
X365965Y909803D01*
X365782Y909819D01*
X365764Y909817D01*
X365747Y909819D01*
X365565Y909796D01*
X365382Y909776D01*
X365365Y909771D01*
X365347Y909768D01*
X365173Y909710D01*
X364998Y909654D01*
X364982Y909646D01*
X364966Y909640D01*
X364806Y909548D01*
X364646Y909460D01*
X364632Y909448D01*
X364617Y909439D01*
X364364Y909225D01*
X360726Y905587D01*
X355778Y903537D01*
X350422Y903537D01*
X345474Y905587D01*
X341836Y909225D01*
X341822Y909236D01*
X341811Y909249D01*
X341667Y909363D01*
X341525Y909480D01*
X341509Y909488D01*
X341495Y909499D01*
X341331Y909583D01*
X341169Y909668D01*
X341152Y909673D01*
X341136Y909681D01*
X340959Y909731D01*
X340783Y909783D01*
X340765Y909785D01*
X340748Y909789D01*
X340565Y909803D01*
X340382Y909819D01*
X340364Y909817D01*
X340347Y909819D01*
X340165Y909796D01*
X339982Y909776D01*
X339965Y909771D01*
X339947Y909768D01*
X339773Y909710D01*
X339598Y909654D01*
X339582Y909646D01*
X339566Y909640D01*
X339406Y909548D01*
X339246Y909460D01*
X339232Y909448D01*
X339217Y909439D01*
X338964Y909225D01*
X335326Y905587D01*
X330378Y903537D01*
X325022Y903537D01*
X320074Y905587D01*
X316436Y909225D01*
X316422Y909236D01*
X316411Y909249D01*
X316267Y909363D01*
X316125Y909480D01*
X316109Y909488D01*
X316095Y909499D01*
X315931Y909583D01*
X315769Y909668D01*
X315752Y909673D01*
X315736Y909681D01*
X315559Y909731D01*
X315383Y909783D01*
X315365Y909785D01*
X315348Y909789D01*
X315165Y909803D01*
X314982Y909819D01*
X314964Y909817D01*
X314947Y909819D01*
X314765Y909796D01*
X314582Y909776D01*
X314565Y909771D01*
X314547Y909768D01*
X314373Y909710D01*
X314198Y909654D01*
X314182Y909646D01*
X314166Y909640D01*
X314006Y909548D01*
X313846Y909460D01*
X313832Y909448D01*
X313817Y909439D01*
X313564Y909225D01*
X309926Y905587D01*
X304978Y903537D01*
X299622Y903537D01*
X294674Y905587D01*
X291036Y909225D01*
X291022Y909236D01*
X291011Y909249D01*
X290867Y909363D01*
X290725Y909480D01*
X290709Y909488D01*
X290695Y909499D01*
X290531Y909583D01*
X290369Y909668D01*
X290352Y909673D01*
X290336Y909681D01*
X290159Y909731D01*
X289983Y909783D01*
X289965Y909785D01*
X289948Y909789D01*
X289765Y909803D01*
X289582Y909819D01*
X289564Y909817D01*
X289547Y909819D01*
X289365Y909796D01*
X289182Y909776D01*
X289165Y909771D01*
X289147Y909768D01*
X288973Y909710D01*
X288798Y909654D01*
X288782Y909646D01*
X288766Y909640D01*
X288606Y909548D01*
X288446Y909460D01*
X288432Y909448D01*
X288417Y909439D01*
X288164Y909225D01*
X284526Y905587D01*
X279578Y903537D01*
X274222Y903537D01*
X269274Y905587D01*
X265636Y909225D01*
X265622Y909236D01*
X265611Y909249D01*
X265467Y909363D01*
X265325Y909480D01*
X265309Y909488D01*
X265295Y909499D01*
X265131Y909583D01*
X264969Y909668D01*
X264952Y909673D01*
X264936Y909681D01*
X264759Y909731D01*
X264583Y909783D01*
X264565Y909785D01*
X264548Y909789D01*
X264365Y909803D01*
X264182Y909819D01*
X264164Y909817D01*
X264147Y909819D01*
X263965Y909796D01*
X263782Y909776D01*
X263765Y909771D01*
X263747Y909768D01*
X263573Y909710D01*
X263398Y909654D01*
X263382Y909646D01*
X263366Y909640D01*
X263206Y909548D01*
X263046Y909460D01*
X263032Y909448D01*
X263017Y909439D01*
X262764Y909225D01*
X259126Y905587D01*
X254178Y903537D01*
X248822Y903537D01*
G37*
%LPD*%
%LPC*%
G36*
X147222Y903537D02*
X147222Y903537D01*
X142274Y905587D01*
X139804Y908056D01*
X139691Y908149D01*
X139583Y908248D01*
X139536Y908276D01*
X139493Y908311D01*
X139364Y908380D01*
X139238Y908455D01*
X139186Y908474D01*
X139137Y908500D01*
X138997Y908542D01*
X138859Y908591D01*
X138804Y908599D01*
X138751Y908615D01*
X138606Y908628D01*
X138461Y908649D01*
X138406Y908646D01*
X138350Y908651D01*
X138205Y908635D01*
X138059Y908628D01*
X138005Y908614D01*
X137950Y908608D01*
X137811Y908564D01*
X137669Y908527D01*
X137619Y908503D01*
X137566Y908486D01*
X137438Y908416D01*
X137307Y908352D01*
X137262Y908318D01*
X137214Y908292D01*
X137103Y908197D01*
X136986Y908108D01*
X136949Y908067D01*
X136907Y908031D01*
X136816Y907916D01*
X136719Y907807D01*
X136692Y907759D01*
X136657Y907715D01*
X136591Y907585D01*
X136518Y907458D01*
X136497Y907399D01*
X136475Y907356D01*
X136452Y907275D01*
X136406Y907146D01*
X136266Y906621D01*
X135931Y906042D01*
X135458Y905569D01*
X134879Y905234D01*
X134233Y905061D01*
X127039Y905061D01*
X127039Y916492D01*
X127037Y916510D01*
X127039Y916527D01*
X127018Y916710D01*
X126999Y916892D01*
X126994Y916909D01*
X126992Y916927D01*
X126967Y917005D01*
X127006Y917142D01*
X127008Y917160D01*
X127012Y917177D01*
X127039Y917508D01*
X127039Y928939D01*
X134233Y928939D01*
X134879Y928766D01*
X135458Y928431D01*
X135931Y927958D01*
X136266Y927379D01*
X136406Y926854D01*
X136458Y926717D01*
X136502Y926578D01*
X136529Y926530D01*
X136548Y926478D01*
X136626Y926354D01*
X136697Y926226D01*
X136733Y926183D01*
X136762Y926136D01*
X136863Y926030D01*
X136957Y925919D01*
X137001Y925884D01*
X137039Y925844D01*
X137159Y925760D01*
X137273Y925669D01*
X137322Y925644D01*
X137368Y925612D01*
X137502Y925553D01*
X137632Y925487D01*
X137686Y925472D01*
X137736Y925449D01*
X137879Y925418D01*
X138020Y925379D01*
X138075Y925375D01*
X138129Y925363D01*
X138275Y925360D01*
X138421Y925349D01*
X138477Y925356D01*
X138532Y925355D01*
X138675Y925381D01*
X138821Y925400D01*
X138874Y925417D01*
X138928Y925427D01*
X139064Y925481D01*
X139203Y925528D01*
X139251Y925556D01*
X139302Y925576D01*
X139425Y925656D01*
X139551Y925729D01*
X139599Y925770D01*
X139640Y925796D01*
X139700Y925855D01*
X139804Y925944D01*
X142274Y928413D01*
X147222Y930463D01*
X152578Y930463D01*
X157526Y928413D01*
X161164Y924775D01*
X161177Y924764D01*
X161189Y924751D01*
X161333Y924637D01*
X161475Y924520D01*
X161491Y924512D01*
X161505Y924501D01*
X161669Y924418D01*
X161831Y924332D01*
X161848Y924327D01*
X161864Y924319D01*
X162041Y924269D01*
X162217Y924217D01*
X162235Y924215D01*
X162252Y924211D01*
X162435Y924197D01*
X162618Y924181D01*
X162636Y924183D01*
X162653Y924181D01*
X162835Y924204D01*
X163018Y924224D01*
X163035Y924229D01*
X163053Y924232D01*
X163226Y924290D01*
X163402Y924346D01*
X163418Y924354D01*
X163434Y924360D01*
X163594Y924452D01*
X163754Y924540D01*
X163768Y924552D01*
X163783Y924561D01*
X164036Y924775D01*
X167674Y928413D01*
X172622Y930463D01*
X177978Y930463D01*
X182926Y928413D01*
X186564Y924775D01*
X186577Y924764D01*
X186589Y924751D01*
X186733Y924637D01*
X186875Y924520D01*
X186891Y924512D01*
X186905Y924501D01*
X187069Y924418D01*
X187231Y924332D01*
X187248Y924327D01*
X187264Y924319D01*
X187441Y924269D01*
X187617Y924217D01*
X187635Y924215D01*
X187652Y924211D01*
X187835Y924197D01*
X188018Y924181D01*
X188036Y924183D01*
X188053Y924181D01*
X188235Y924204D01*
X188418Y924224D01*
X188435Y924229D01*
X188453Y924232D01*
X188626Y924290D01*
X188802Y924346D01*
X188818Y924354D01*
X188834Y924360D01*
X188994Y924452D01*
X189154Y924540D01*
X189168Y924552D01*
X189183Y924561D01*
X189436Y924775D01*
X193074Y928413D01*
X198022Y930463D01*
X203378Y930463D01*
X208326Y928413D01*
X212113Y924626D01*
X212457Y923795D01*
X212539Y923643D01*
X212616Y923489D01*
X212634Y923466D01*
X212647Y923440D01*
X212757Y923307D01*
X212864Y923171D01*
X212886Y923152D01*
X212904Y923130D01*
X213038Y923021D01*
X213169Y922909D01*
X213194Y922894D01*
X213217Y922876D01*
X213369Y922796D01*
X213520Y922711D01*
X213548Y922703D01*
X213573Y922689D01*
X213739Y922641D01*
X213903Y922587D01*
X213932Y922584D01*
X213959Y922576D01*
X214132Y922561D01*
X214303Y922542D01*
X214332Y922544D01*
X214361Y922541D01*
X214532Y922561D01*
X214704Y922575D01*
X214732Y922583D01*
X214761Y922587D01*
X214925Y922639D01*
X215091Y922688D01*
X215116Y922701D01*
X215144Y922710D01*
X215294Y922794D01*
X215448Y922874D01*
X215470Y922892D01*
X215495Y922906D01*
X215626Y923018D01*
X215761Y923127D01*
X215782Y923151D01*
X215801Y923168D01*
X215854Y923235D01*
X215977Y923379D01*
X216994Y924778D01*
X218322Y926106D01*
X219843Y927211D01*
X221517Y928064D01*
X223304Y928645D01*
X223561Y928685D01*
X223561Y917508D01*
X223562Y917490D01*
X223561Y917473D01*
X223582Y917290D01*
X223601Y917108D01*
X223606Y917091D01*
X223608Y917073D01*
X223633Y916995D01*
X223594Y916858D01*
X223592Y916840D01*
X223588Y916823D01*
X223561Y916492D01*
X223561Y905315D01*
X223304Y905355D01*
X221517Y905936D01*
X219843Y906789D01*
X218322Y907894D01*
X216994Y909222D01*
X215977Y910621D01*
X215863Y910750D01*
X215751Y910883D01*
X215729Y910901D01*
X215709Y910922D01*
X215572Y911026D01*
X215436Y911134D01*
X215411Y911147D01*
X215388Y911164D01*
X215232Y911239D01*
X215078Y911317D01*
X215050Y911325D01*
X215024Y911338D01*
X214857Y911380D01*
X214691Y911427D01*
X214662Y911429D01*
X214634Y911436D01*
X214461Y911445D01*
X214289Y911458D01*
X214261Y911455D01*
X214232Y911456D01*
X214061Y911430D01*
X213890Y911410D01*
X213863Y911401D01*
X213834Y911396D01*
X213671Y911337D01*
X213508Y911283D01*
X213483Y911269D01*
X213455Y911259D01*
X213308Y911169D01*
X213158Y911084D01*
X213136Y911065D01*
X213111Y911050D01*
X212984Y910932D01*
X212854Y910819D01*
X212837Y910796D01*
X212815Y910777D01*
X212714Y910637D01*
X212609Y910500D01*
X212594Y910471D01*
X212579Y910451D01*
X212544Y910374D01*
X212457Y910205D01*
X212113Y909374D01*
X208326Y905587D01*
X203378Y903537D01*
X198022Y903537D01*
X193074Y905587D01*
X189436Y909225D01*
X189422Y909236D01*
X189411Y909249D01*
X189267Y909363D01*
X189125Y909480D01*
X189109Y909488D01*
X189095Y909499D01*
X188931Y909583D01*
X188769Y909668D01*
X188752Y909673D01*
X188736Y909681D01*
X188559Y909731D01*
X188383Y909783D01*
X188365Y909785D01*
X188348Y909789D01*
X188165Y909803D01*
X187982Y909819D01*
X187964Y909817D01*
X187947Y909819D01*
X187765Y909796D01*
X187582Y909776D01*
X187565Y909771D01*
X187547Y909768D01*
X187373Y909710D01*
X187198Y909654D01*
X187182Y909646D01*
X187166Y909640D01*
X187006Y909548D01*
X186846Y909460D01*
X186832Y909448D01*
X186817Y909439D01*
X186564Y909225D01*
X182926Y905587D01*
X177978Y903537D01*
X172622Y903537D01*
X167674Y905587D01*
X164036Y909225D01*
X164022Y909236D01*
X164011Y909249D01*
X163867Y909363D01*
X163725Y909480D01*
X163709Y909488D01*
X163695Y909499D01*
X163531Y909583D01*
X163369Y909668D01*
X163352Y909673D01*
X163336Y909681D01*
X163159Y909731D01*
X162983Y909783D01*
X162965Y909785D01*
X162948Y909789D01*
X162765Y909803D01*
X162582Y909819D01*
X162564Y909817D01*
X162547Y909819D01*
X162365Y909796D01*
X162182Y909776D01*
X162165Y909771D01*
X162147Y909768D01*
X161973Y909710D01*
X161798Y909654D01*
X161782Y909646D01*
X161766Y909640D01*
X161606Y909548D01*
X161446Y909460D01*
X161432Y909448D01*
X161417Y909439D01*
X161164Y909225D01*
X157526Y905587D01*
X152578Y903537D01*
X147222Y903537D01*
G37*
%LPD*%
%LPC*%
G36*
X95522Y75945D02*
X95522Y75945D01*
X88998Y77694D01*
X83148Y81071D01*
X78371Y85848D01*
X74994Y91698D01*
X73245Y98222D01*
X73245Y104978D01*
X74994Y111502D01*
X78371Y117352D01*
X83148Y122129D01*
X88998Y125506D01*
X95522Y127255D01*
X102278Y127255D01*
X108802Y125506D01*
X114652Y122129D01*
X119429Y117352D01*
X122806Y111502D01*
X124555Y104978D01*
X124555Y98222D01*
X122806Y91698D01*
X119429Y85848D01*
X114652Y81071D01*
X108802Y77694D01*
X102278Y75945D01*
X95522Y75945D01*
G37*
%LPD*%
%LPC*%
G36*
X823378Y319531D02*
X823378Y319531D01*
X819457Y321155D01*
X816368Y324244D01*
X816361Y324257D01*
X816244Y324392D01*
X816129Y324531D01*
X816112Y324545D01*
X816098Y324562D01*
X815957Y324671D01*
X815817Y324784D01*
X815797Y324795D01*
X815780Y324808D01*
X815619Y324888D01*
X815460Y324971D01*
X815439Y324978D01*
X815419Y324988D01*
X815245Y325034D01*
X815074Y325084D01*
X815052Y325086D01*
X815030Y325092D01*
X814700Y325119D01*
X799089Y325119D01*
X797222Y325893D01*
X763354Y359761D01*
X763351Y359763D01*
X763348Y359767D01*
X763194Y359892D01*
X763043Y360016D01*
X763039Y360018D01*
X763035Y360021D01*
X762858Y360114D01*
X762687Y360204D01*
X762683Y360205D01*
X762679Y360208D01*
X762488Y360263D01*
X762301Y360319D01*
X762297Y360319D01*
X762292Y360321D01*
X762099Y360337D01*
X761900Y360355D01*
X761896Y360355D01*
X761891Y360355D01*
X761701Y360334D01*
X761500Y360312D01*
X761495Y360311D01*
X761491Y360310D01*
X761307Y360251D01*
X761116Y360190D01*
X761112Y360188D01*
X761108Y360187D01*
X760935Y360091D01*
X760764Y359996D01*
X760760Y359993D01*
X760756Y359990D01*
X760606Y359862D01*
X760457Y359735D01*
X760454Y359732D01*
X760450Y359729D01*
X760330Y359574D01*
X760207Y359419D01*
X760205Y359415D01*
X760202Y359412D01*
X760115Y359238D01*
X760025Y359060D01*
X760024Y359056D01*
X760022Y359052D01*
X759970Y358863D01*
X759917Y358672D01*
X759916Y358668D01*
X759915Y358664D01*
X759902Y358470D01*
X759887Y358271D01*
X759888Y358266D01*
X759888Y358262D01*
X759913Y358069D01*
X759938Y357871D01*
X759939Y357867D01*
X759940Y357863D01*
X759969Y357773D01*
X759969Y353478D01*
X758345Y349557D01*
X755343Y346555D01*
X751422Y344931D01*
X747178Y344931D01*
X743257Y346555D01*
X740255Y349557D01*
X738631Y353478D01*
X738631Y357722D01*
X740255Y361643D01*
X743257Y364645D01*
X747178Y366269D01*
X751487Y366269D01*
X751632Y366225D01*
X751637Y366224D01*
X751641Y366223D01*
X751840Y366205D01*
X752033Y366187D01*
X752037Y366187D01*
X752042Y366187D01*
X752244Y366209D01*
X752433Y366228D01*
X752438Y366230D01*
X752442Y366230D01*
X752633Y366291D01*
X752818Y366348D01*
X752822Y366350D01*
X752826Y366352D01*
X752996Y366445D01*
X753171Y366541D01*
X753174Y366544D01*
X753178Y366547D01*
X753328Y366673D01*
X753479Y366801D01*
X753482Y366804D01*
X753485Y366807D01*
X753607Y366961D01*
X753730Y367115D01*
X753732Y367119D01*
X753735Y367123D01*
X753823Y367297D01*
X753914Y367473D01*
X753915Y367478D01*
X753917Y367482D01*
X753971Y367673D01*
X754024Y367861D01*
X754024Y367865D01*
X754025Y367870D01*
X754040Y368068D01*
X754055Y368262D01*
X754054Y368267D01*
X754055Y368271D01*
X754030Y368466D01*
X754006Y368662D01*
X754005Y368666D01*
X754004Y368671D01*
X753943Y368854D01*
X753880Y369044D01*
X753878Y369048D01*
X753876Y369052D01*
X753779Y369222D01*
X753680Y369394D01*
X753677Y369397D01*
X753675Y369401D01*
X753461Y369654D01*
X753344Y369770D01*
X753327Y369785D01*
X753312Y369802D01*
X753171Y369912D01*
X753033Y370025D01*
X753013Y370036D01*
X752995Y370050D01*
X752835Y370130D01*
X752677Y370214D01*
X752656Y370220D01*
X752636Y370230D01*
X752463Y370278D01*
X752291Y370329D01*
X752269Y370331D01*
X752247Y370337D01*
X752069Y370349D01*
X751890Y370365D01*
X751868Y370363D01*
X751846Y370364D01*
X751669Y370341D01*
X751578Y370331D01*
X747178Y370331D01*
X743257Y371955D01*
X740255Y374957D01*
X738631Y378878D01*
X738631Y383122D01*
X740255Y387043D01*
X743257Y390045D01*
X747178Y391669D01*
X751422Y391669D01*
X755343Y390045D01*
X758345Y387043D01*
X759969Y383122D01*
X759969Y378754D01*
X759965Y378740D01*
X759952Y378561D01*
X759935Y378383D01*
X759937Y378361D01*
X759935Y378339D01*
X759958Y378160D01*
X759976Y377983D01*
X759983Y377961D01*
X759986Y377939D01*
X760043Y377769D01*
X760096Y377598D01*
X760107Y377579D01*
X760114Y377557D01*
X760204Y377402D01*
X760289Y377245D01*
X760304Y377228D01*
X760315Y377209D01*
X760530Y376956D01*
X801610Y335876D01*
X801630Y335859D01*
X801648Y335838D01*
X801786Y335731D01*
X801921Y335621D01*
X801945Y335608D01*
X801966Y335592D01*
X802123Y335514D01*
X802277Y335432D01*
X802302Y335424D01*
X802326Y335412D01*
X802496Y335367D01*
X802663Y335317D01*
X802689Y335315D01*
X802715Y335308D01*
X803046Y335281D01*
X814700Y335281D01*
X814722Y335283D01*
X814744Y335281D01*
X814922Y335303D01*
X815100Y335321D01*
X815121Y335327D01*
X815144Y335330D01*
X815313Y335386D01*
X815485Y335439D01*
X815505Y335449D01*
X815526Y335456D01*
X815681Y335545D01*
X815839Y335631D01*
X815856Y335645D01*
X815876Y335656D01*
X816011Y335774D01*
X816148Y335888D01*
X816162Y335906D01*
X816179Y335920D01*
X816288Y336062D01*
X816345Y336133D01*
X819457Y339245D01*
X823378Y340869D01*
X827622Y340869D01*
X831543Y339245D01*
X834545Y336243D01*
X836169Y332322D01*
X836169Y328078D01*
X834545Y324157D01*
X831543Y321155D01*
X827622Y319531D01*
X823378Y319531D01*
G37*
%LPD*%
%LPC*%
G36*
X519209Y564006D02*
X519209Y564006D01*
X516455Y565147D01*
X514347Y567255D01*
X513206Y570009D01*
X513206Y572991D01*
X514347Y575745D01*
X516455Y577853D01*
X519209Y578994D01*
X522191Y578994D01*
X523964Y578259D01*
X523993Y578250D01*
X524021Y578236D01*
X524186Y578192D01*
X524349Y578143D01*
X524380Y578140D01*
X524410Y578132D01*
X524741Y578105D01*
X605559Y578105D01*
X605590Y578108D01*
X605621Y578106D01*
X605791Y578128D01*
X605960Y578145D01*
X605990Y578154D01*
X606021Y578158D01*
X606336Y578259D01*
X608109Y578994D01*
X611091Y578994D01*
X613845Y577853D01*
X615953Y575745D01*
X617094Y572991D01*
X617094Y570009D01*
X615953Y567255D01*
X613845Y565147D01*
X612359Y564532D01*
X611091Y564006D01*
X608109Y564006D01*
X606336Y564741D01*
X606307Y564750D01*
X606279Y564764D01*
X606114Y564808D01*
X605951Y564857D01*
X605920Y564860D01*
X605890Y564868D01*
X605559Y564895D01*
X524741Y564895D01*
X524710Y564892D01*
X524679Y564894D01*
X524509Y564872D01*
X524340Y564855D01*
X524310Y564846D01*
X524279Y564842D01*
X523964Y564741D01*
X522191Y564006D01*
X519209Y564006D01*
G37*
%LPD*%
%LPC*%
G36*
X65907Y898935D02*
X65907Y898935D01*
X59267Y901685D01*
X54185Y906767D01*
X51435Y913407D01*
X51435Y920593D01*
X54185Y927233D01*
X59267Y932315D01*
X65907Y935065D01*
X73093Y935065D01*
X79733Y932315D01*
X84815Y927233D01*
X87565Y920593D01*
X87565Y913407D01*
X84815Y906767D01*
X79733Y901685D01*
X73093Y898935D01*
X65907Y898935D01*
G37*
%LPD*%
%LPC*%
G36*
X815907Y898935D02*
X815907Y898935D01*
X809267Y901685D01*
X804185Y906767D01*
X801435Y913407D01*
X801435Y920593D01*
X804185Y927233D01*
X809267Y932315D01*
X815907Y935065D01*
X823093Y935065D01*
X829733Y932315D01*
X834815Y927233D01*
X837565Y920593D01*
X837565Y913407D01*
X834815Y906767D01*
X829733Y901685D01*
X823093Y898935D01*
X815907Y898935D01*
G37*
%LPD*%
%LPC*%
G36*
X815907Y588935D02*
X815907Y588935D01*
X809267Y591685D01*
X804185Y596767D01*
X801435Y603407D01*
X801435Y610593D01*
X804185Y617233D01*
X809267Y622315D01*
X815907Y625065D01*
X823093Y625065D01*
X829733Y622315D01*
X834815Y617233D01*
X837565Y610593D01*
X837565Y603407D01*
X834815Y596767D01*
X829733Y591685D01*
X823093Y588935D01*
X815907Y588935D01*
G37*
%LPD*%
%LPC*%
G36*
X65907Y588935D02*
X65907Y588935D01*
X59267Y591685D01*
X54185Y596767D01*
X51435Y603407D01*
X51435Y610593D01*
X54185Y617233D01*
X59267Y622315D01*
X65907Y625065D01*
X73093Y625065D01*
X79733Y622315D01*
X84815Y617233D01*
X87565Y610593D01*
X87565Y603407D01*
X84815Y596767D01*
X79733Y591685D01*
X73093Y588935D01*
X65907Y588935D01*
G37*
%LPD*%
%LPC*%
G36*
X404909Y259206D02*
X404909Y259206D01*
X402155Y260347D01*
X400047Y262455D01*
X398906Y265209D01*
X398906Y268191D01*
X400047Y270945D01*
X402155Y273053D01*
X404909Y274194D01*
X407891Y274194D01*
X409664Y273459D01*
X409693Y273450D01*
X409721Y273436D01*
X409886Y273392D01*
X410049Y273343D01*
X410080Y273340D01*
X410110Y273332D01*
X410441Y273305D01*
X428223Y273305D01*
X428249Y273307D01*
X428276Y273305D01*
X428450Y273327D01*
X428623Y273345D01*
X428649Y273352D01*
X428676Y273356D01*
X428841Y273411D01*
X429008Y273463D01*
X429032Y273476D01*
X429057Y273484D01*
X429209Y273571D01*
X429362Y273655D01*
X429383Y273672D01*
X429406Y273685D01*
X429659Y273900D01*
X436972Y281213D01*
X436992Y281237D01*
X437016Y281258D01*
X437120Y281393D01*
X437227Y281524D01*
X437242Y281552D01*
X437261Y281577D01*
X437413Y281872D01*
X438147Y283645D01*
X440255Y285753D01*
X443009Y286894D01*
X445991Y286894D01*
X448745Y285753D01*
X450853Y283645D01*
X451994Y280891D01*
X451994Y277909D01*
X450853Y275155D01*
X448745Y273047D01*
X446972Y272313D01*
X446944Y272298D01*
X446915Y272288D01*
X446767Y272203D01*
X446617Y272123D01*
X446593Y272103D01*
X446566Y272087D01*
X446313Y271872D01*
X437685Y263244D01*
X435541Y261101D01*
X433114Y260095D01*
X410441Y260095D01*
X410410Y260092D01*
X410379Y260094D01*
X410209Y260072D01*
X410040Y260055D01*
X410010Y260046D01*
X409979Y260042D01*
X409664Y259941D01*
X407891Y259206D01*
X404909Y259206D01*
G37*
%LPD*%
%LPC*%
G36*
X914182Y81149D02*
X914182Y81149D01*
X905057Y81149D01*
X905521Y82578D01*
X906206Y83921D01*
X907092Y85141D01*
X908239Y86288D01*
X908372Y86401D01*
X908387Y86420D01*
X908405Y86436D01*
X908512Y86578D01*
X908622Y86717D01*
X908633Y86739D01*
X908647Y86758D01*
X908724Y86917D01*
X908804Y87076D01*
X908811Y87099D01*
X908821Y87121D01*
X908865Y87293D01*
X908912Y87464D01*
X908914Y87488D01*
X908920Y87512D01*
X908929Y87688D01*
X908941Y87865D01*
X908938Y87889D01*
X908940Y87914D01*
X908913Y88089D01*
X908891Y88265D01*
X908883Y88288D01*
X908880Y88312D01*
X908819Y88479D01*
X908763Y88646D01*
X908751Y88667D01*
X908742Y88690D01*
X908650Y88842D01*
X908562Y88995D01*
X908544Y89016D01*
X908533Y89034D01*
X908478Y89094D01*
X908347Y89248D01*
X904986Y92610D01*
X903295Y96691D01*
X903295Y101109D01*
X904986Y105190D01*
X908110Y108314D01*
X912191Y110005D01*
X916609Y110005D01*
X920690Y108314D01*
X923814Y105190D01*
X925505Y101109D01*
X925505Y96691D01*
X923814Y92610D01*
X920453Y89248D01*
X920341Y89112D01*
X920225Y88977D01*
X920213Y88956D01*
X920198Y88937D01*
X920115Y88780D01*
X920028Y88626D01*
X920020Y88603D01*
X920009Y88581D01*
X919959Y88411D01*
X919904Y88243D01*
X919901Y88218D01*
X919894Y88195D01*
X919878Y88019D01*
X919858Y87843D01*
X919860Y87818D01*
X919858Y87794D01*
X919877Y87618D01*
X919892Y87441D01*
X919899Y87418D01*
X919901Y87394D01*
X919955Y87225D01*
X920004Y87055D01*
X920016Y87033D01*
X920023Y87010D01*
X920108Y86855D01*
X920191Y86698D01*
X920206Y86679D01*
X920218Y86658D01*
X920332Y86523D01*
X920444Y86385D01*
X920464Y86367D01*
X920478Y86351D01*
X920542Y86300D01*
X920590Y86259D01*
X921708Y85141D01*
X922594Y83921D01*
X923279Y82578D01*
X923743Y81149D01*
X914618Y81149D01*
X914600Y81147D01*
X914583Y81149D01*
X914419Y81130D01*
X914182Y81149D01*
G37*
%LPD*%
%LPC*%
G36*
X112809Y221106D02*
X112809Y221106D01*
X110055Y222247D01*
X107947Y224355D01*
X106806Y227109D01*
X106806Y230091D01*
X107947Y232845D01*
X110055Y234953D01*
X112065Y235785D01*
X112809Y236094D01*
X115791Y236094D01*
X118545Y234953D01*
X119222Y234276D01*
X119243Y234259D01*
X119260Y234238D01*
X119398Y234131D01*
X119534Y234021D01*
X119557Y234008D01*
X119578Y233992D01*
X119735Y233914D01*
X119889Y233832D01*
X119915Y233824D01*
X119939Y233812D01*
X120108Y233767D01*
X120275Y233717D01*
X120302Y233715D01*
X120328Y233708D01*
X120658Y233681D01*
X133342Y233681D01*
X133368Y233683D01*
X133395Y233681D01*
X133569Y233703D01*
X133742Y233721D01*
X133768Y233728D01*
X133794Y233732D01*
X133960Y233787D01*
X134127Y233839D01*
X134151Y233852D01*
X134176Y233860D01*
X134328Y233947D01*
X134481Y234031D01*
X134502Y234048D01*
X134525Y234061D01*
X134778Y234276D01*
X135455Y234953D01*
X137465Y235785D01*
X138209Y236094D01*
X141191Y236094D01*
X143945Y234953D01*
X146053Y232845D01*
X147194Y230091D01*
X147194Y227109D01*
X146053Y224355D01*
X143945Y222247D01*
X141191Y221106D01*
X138209Y221106D01*
X135455Y222247D01*
X134778Y222924D01*
X134757Y222941D01*
X134740Y222962D01*
X134602Y223069D01*
X134466Y223179D01*
X134443Y223192D01*
X134422Y223208D01*
X134265Y223286D01*
X134111Y223368D01*
X134085Y223376D01*
X134061Y223388D01*
X133892Y223433D01*
X133725Y223483D01*
X133698Y223485D01*
X133672Y223492D01*
X133342Y223519D01*
X120658Y223519D01*
X120632Y223517D01*
X120605Y223519D01*
X120431Y223497D01*
X120258Y223479D01*
X120232Y223472D01*
X120206Y223468D01*
X120040Y223413D01*
X119873Y223361D01*
X119849Y223348D01*
X119824Y223340D01*
X119672Y223253D01*
X119519Y223169D01*
X119498Y223152D01*
X119475Y223139D01*
X119222Y222924D01*
X118545Y222247D01*
X115791Y221106D01*
X112809Y221106D01*
G37*
%LPD*%
%LPC*%
G36*
X575601Y268795D02*
X575601Y268795D01*
X574108Y269414D01*
X572964Y270557D01*
X572345Y272051D01*
X572345Y286749D01*
X572964Y288242D01*
X574108Y289386D01*
X575601Y290005D01*
X590299Y290005D01*
X591792Y289386D01*
X592936Y288242D01*
X593555Y286749D01*
X593555Y272051D01*
X592936Y270557D01*
X591792Y269414D01*
X590299Y268795D01*
X575601Y268795D01*
G37*
%LPD*%
%LPC*%
G36*
X823378Y395731D02*
X823378Y395731D01*
X819457Y397355D01*
X816455Y400357D01*
X814831Y404278D01*
X814831Y408522D01*
X816455Y412443D01*
X819457Y415445D01*
X823378Y417069D01*
X827622Y417069D01*
X831543Y415445D01*
X834545Y412443D01*
X836169Y408522D01*
X836169Y404278D01*
X834545Y400357D01*
X831543Y397355D01*
X827622Y395731D01*
X823378Y395731D01*
G37*
%LPD*%
%LPC*%
G36*
X747178Y395731D02*
X747178Y395731D01*
X743257Y397355D01*
X740255Y400357D01*
X738631Y404278D01*
X738631Y408522D01*
X740255Y412443D01*
X743257Y415445D01*
X747178Y417069D01*
X751422Y417069D01*
X755343Y415445D01*
X758345Y412443D01*
X759969Y408522D01*
X759969Y404278D01*
X758345Y400357D01*
X755343Y397355D01*
X751422Y395731D01*
X747178Y395731D01*
G37*
%LPD*%
%LPC*%
G36*
X823378Y370331D02*
X823378Y370331D01*
X819457Y371955D01*
X816455Y374957D01*
X814831Y378878D01*
X814831Y383122D01*
X816455Y387043D01*
X819457Y390045D01*
X823378Y391669D01*
X827622Y391669D01*
X831543Y390045D01*
X834545Y387043D01*
X836169Y383122D01*
X836169Y378878D01*
X834545Y374957D01*
X831543Y371955D01*
X827622Y370331D01*
X823378Y370331D01*
G37*
%LPD*%
%LPC*%
G36*
X823378Y344931D02*
X823378Y344931D01*
X819457Y346555D01*
X816455Y349557D01*
X814831Y353478D01*
X814831Y357722D01*
X816455Y361643D01*
X819457Y364645D01*
X823378Y366269D01*
X827622Y366269D01*
X831543Y364645D01*
X834545Y361643D01*
X836169Y357722D01*
X836169Y353478D01*
X834545Y349557D01*
X831543Y346555D01*
X827622Y344931D01*
X823378Y344931D01*
G37*
%LPD*%
%LPC*%
G36*
X659541Y268795D02*
X659541Y268795D01*
X655643Y270410D01*
X652660Y273393D01*
X651045Y277291D01*
X651045Y281509D01*
X652660Y285407D01*
X655643Y288390D01*
X659541Y290005D01*
X663759Y290005D01*
X667657Y288390D01*
X670640Y285407D01*
X672255Y281509D01*
X672255Y277291D01*
X670640Y273393D01*
X667657Y270410D01*
X663759Y268795D01*
X659541Y268795D01*
G37*
%LPD*%
%LPC*%
G36*
X580841Y192595D02*
X580841Y192595D01*
X576943Y194210D01*
X573960Y197193D01*
X572345Y201091D01*
X572345Y205309D01*
X573960Y209207D01*
X576943Y212190D01*
X580841Y213805D01*
X585059Y213805D01*
X588957Y212190D01*
X591940Y209207D01*
X593555Y205309D01*
X593555Y201091D01*
X591940Y197193D01*
X588957Y194210D01*
X585059Y192595D01*
X580841Y192595D01*
G37*
%LPD*%
%LPC*%
G36*
X659541Y192595D02*
X659541Y192595D01*
X655643Y194210D01*
X652660Y197193D01*
X651045Y201091D01*
X651045Y205309D01*
X652660Y209207D01*
X655643Y212190D01*
X659541Y213805D01*
X663759Y213805D01*
X667657Y212190D01*
X670640Y209207D01*
X672255Y205309D01*
X672255Y201091D01*
X670640Y197193D01*
X667657Y194210D01*
X663759Y192595D01*
X659541Y192595D01*
G37*
%LPD*%
%LPC*%
G36*
X659541Y217995D02*
X659541Y217995D01*
X655643Y219610D01*
X652660Y222593D01*
X651045Y226491D01*
X651045Y230709D01*
X652660Y234607D01*
X655643Y237590D01*
X659541Y239205D01*
X663759Y239205D01*
X667657Y237590D01*
X670640Y234607D01*
X672255Y230709D01*
X672255Y226491D01*
X670640Y222593D01*
X667657Y219610D01*
X663759Y217995D01*
X659541Y217995D01*
G37*
%LPD*%
%LPC*%
G36*
X580841Y217995D02*
X580841Y217995D01*
X576943Y219610D01*
X573960Y222593D01*
X572345Y226491D01*
X572345Y230709D01*
X573960Y234607D01*
X576943Y237590D01*
X580841Y239205D01*
X585059Y239205D01*
X588957Y237590D01*
X591940Y234607D01*
X593555Y230709D01*
X593555Y226491D01*
X591940Y222593D01*
X588957Y219610D01*
X585059Y217995D01*
X580841Y217995D01*
G37*
%LPD*%
%LPC*%
G36*
X580841Y243395D02*
X580841Y243395D01*
X576943Y245010D01*
X573960Y247993D01*
X572345Y251891D01*
X572345Y256109D01*
X573960Y260007D01*
X576943Y262990D01*
X580841Y264605D01*
X585059Y264605D01*
X588957Y262990D01*
X591940Y260007D01*
X593555Y256109D01*
X593555Y251891D01*
X591940Y247993D01*
X588957Y245010D01*
X585059Y243395D01*
X580841Y243395D01*
G37*
%LPD*%
%LPC*%
G36*
X42963Y105663D02*
X42963Y105663D01*
X42963Y125424D01*
X45591Y124824D01*
X48149Y123929D01*
X50591Y122753D01*
X52886Y121311D01*
X55005Y119621D01*
X56921Y117705D01*
X58611Y115586D01*
X60053Y113291D01*
X61229Y110849D01*
X62124Y108291D01*
X62724Y105663D01*
X42963Y105663D01*
G37*
%LPD*%
%LPC*%
G36*
X72963Y58663D02*
X72963Y58663D01*
X72963Y78424D01*
X75591Y77824D01*
X78149Y76929D01*
X80591Y75753D01*
X82886Y74311D01*
X85005Y72621D01*
X86921Y70705D01*
X88611Y68586D01*
X90053Y66291D01*
X91229Y63849D01*
X92124Y61291D01*
X92724Y58663D01*
X72963Y58663D01*
G37*
%LPD*%
%LPC*%
G36*
X72963Y50537D02*
X72963Y50537D01*
X92724Y50537D01*
X92124Y47909D01*
X91229Y45351D01*
X90053Y42909D01*
X88611Y40614D01*
X86921Y38495D01*
X85005Y36579D01*
X82886Y34889D01*
X80591Y33447D01*
X78149Y32271D01*
X75591Y31376D01*
X72963Y30776D01*
X72963Y50537D01*
G37*
%LPD*%
%LPC*%
G36*
X45076Y58663D02*
X45076Y58663D01*
X45676Y61291D01*
X46571Y63849D01*
X47747Y66291D01*
X49189Y68586D01*
X50879Y70705D01*
X52795Y72621D01*
X54914Y74311D01*
X57209Y75753D01*
X59651Y76929D01*
X62209Y77824D01*
X64837Y78424D01*
X64837Y58663D01*
X45076Y58663D01*
G37*
%LPD*%
%LPC*%
G36*
X15076Y105663D02*
X15076Y105663D01*
X15676Y108291D01*
X16571Y110849D01*
X17747Y113291D01*
X19189Y115586D01*
X20879Y117705D01*
X22795Y119621D01*
X24914Y121311D01*
X27209Y122753D01*
X29651Y123929D01*
X32209Y124824D01*
X34837Y125424D01*
X34837Y105663D01*
X15076Y105663D01*
G37*
%LPD*%
%LPC*%
G36*
X42963Y97537D02*
X42963Y97537D01*
X62724Y97537D01*
X62124Y94909D01*
X61229Y92351D01*
X60053Y89909D01*
X58611Y87614D01*
X56921Y85495D01*
X55005Y83579D01*
X52886Y81889D01*
X50591Y80447D01*
X48149Y79271D01*
X45591Y78376D01*
X42963Y77776D01*
X42963Y97537D01*
G37*
%LPD*%
%LPC*%
G36*
X62209Y31376D02*
X62209Y31376D01*
X59651Y32271D01*
X57209Y33447D01*
X54914Y34889D01*
X52795Y36579D01*
X50879Y38495D01*
X49189Y40614D01*
X47747Y42909D01*
X46571Y45351D01*
X45676Y47909D01*
X45076Y50537D01*
X64837Y50537D01*
X64837Y30776D01*
X62209Y31376D01*
G37*
%LPD*%
%LPC*%
G36*
X32209Y78376D02*
X32209Y78376D01*
X29651Y79271D01*
X27209Y80447D01*
X24914Y81889D01*
X22795Y83579D01*
X20879Y85495D01*
X19189Y87614D01*
X17747Y89909D01*
X16571Y92351D01*
X15676Y94909D01*
X15076Y97537D01*
X34837Y97537D01*
X34837Y77776D01*
X32209Y78376D01*
G37*
%LPD*%
%LPC*%
G36*
X112561Y919539D02*
X112561Y919539D01*
X112561Y926733D01*
X112734Y927379D01*
X113069Y927958D01*
X113542Y928431D01*
X114121Y928766D01*
X114767Y928939D01*
X121961Y928939D01*
X121961Y919539D01*
X112561Y919539D01*
G37*
%LPD*%
%LPC*%
G36*
X114767Y905061D02*
X114767Y905061D01*
X114121Y905234D01*
X113542Y905569D01*
X113069Y906042D01*
X112734Y906621D01*
X112561Y907267D01*
X112561Y914461D01*
X121961Y914461D01*
X121961Y905061D01*
X114767Y905061D01*
G37*
%LPD*%
%LPC*%
G36*
X508039Y919539D02*
X508039Y919539D01*
X508039Y928685D01*
X508296Y928645D01*
X510083Y928064D01*
X511757Y927211D01*
X513278Y926106D01*
X514606Y924778D01*
X515711Y923257D01*
X516564Y921583D01*
X517145Y919796D01*
X517185Y919539D01*
X508039Y919539D01*
G37*
%LPD*%
%LPC*%
G36*
X508039Y914461D02*
X508039Y914461D01*
X517185Y914461D01*
X517145Y914204D01*
X516564Y912417D01*
X515711Y910743D01*
X514606Y909222D01*
X513278Y907894D01*
X511757Y906789D01*
X510083Y905936D01*
X508296Y905355D01*
X508039Y905315D01*
X508039Y914461D01*
G37*
%LPD*%
%LPC*%
G36*
X383249Y340651D02*
X383249Y340651D01*
X391445Y340651D01*
X391406Y340402D01*
X390887Y338805D01*
X390125Y337308D01*
X389138Y335950D01*
X387950Y334762D01*
X386592Y333775D01*
X385095Y333013D01*
X383498Y332494D01*
X383249Y332455D01*
X383249Y340651D01*
G37*
%LPD*%
%LPC*%
G36*
X916649Y76651D02*
X916649Y76651D01*
X923743Y76651D01*
X923279Y75222D01*
X922594Y73878D01*
X921708Y72659D01*
X920641Y71592D01*
X919421Y70706D01*
X918078Y70021D01*
X916649Y69557D01*
X916649Y76651D01*
G37*
%LPD*%
%LPC*%
G36*
X910722Y70021D02*
X910722Y70021D01*
X909379Y70706D01*
X908159Y71592D01*
X907092Y72659D01*
X906206Y73878D01*
X905521Y75222D01*
X905057Y76651D01*
X912151Y76651D01*
X912151Y69557D01*
X910722Y70021D01*
G37*
%LPD*%
%LPC*%
G36*
X751331Y332231D02*
X751331Y332231D01*
X751331Y339137D01*
X751441Y339120D01*
X752810Y338675D01*
X754093Y338021D01*
X755257Y337175D01*
X756275Y336157D01*
X757121Y334993D01*
X757775Y333710D01*
X758220Y332341D01*
X758237Y332231D01*
X751331Y332231D01*
G37*
%LPD*%
%LPC*%
G36*
X751331Y328169D02*
X751331Y328169D01*
X758237Y328169D01*
X758220Y328059D01*
X757775Y326690D01*
X757121Y325407D01*
X756275Y324243D01*
X755257Y323225D01*
X754093Y322379D01*
X752810Y321725D01*
X751441Y321280D01*
X751331Y321263D01*
X751331Y328169D01*
G37*
%LPD*%
%LPC*%
G36*
X740363Y332231D02*
X740363Y332231D01*
X740380Y332341D01*
X740825Y333710D01*
X741479Y334993D01*
X742325Y336157D01*
X743343Y337175D01*
X744507Y338021D01*
X745790Y338675D01*
X747159Y339120D01*
X747269Y339137D01*
X747269Y332231D01*
X740363Y332231D01*
G37*
%LPD*%
%LPC*%
G36*
X747159Y321280D02*
X747159Y321280D01*
X745790Y321725D01*
X744507Y322379D01*
X743343Y323225D01*
X742325Y324243D01*
X741479Y325407D01*
X740825Y326690D01*
X740380Y328059D01*
X740363Y328169D01*
X747269Y328169D01*
X747269Y321263D01*
X747159Y321280D01*
G37*
%LPD*%
%LPC*%
G36*
X663681Y256031D02*
X663681Y256031D01*
X663681Y262872D01*
X663776Y262857D01*
X665136Y262415D01*
X666409Y261767D01*
X667566Y260926D01*
X668576Y259916D01*
X669417Y258759D01*
X670065Y257486D01*
X670507Y256126D01*
X670522Y256031D01*
X663681Y256031D01*
G37*
%LPD*%
%LPC*%
G36*
X652778Y256031D02*
X652778Y256031D01*
X652793Y256126D01*
X653235Y257486D01*
X653883Y258759D01*
X654724Y259916D01*
X655734Y260926D01*
X656891Y261767D01*
X658164Y262415D01*
X659524Y262857D01*
X659619Y262872D01*
X659619Y256031D01*
X652778Y256031D01*
G37*
%LPD*%
%LPC*%
G36*
X663681Y251969D02*
X663681Y251969D01*
X670522Y251969D01*
X670507Y251874D01*
X670065Y250514D01*
X669417Y249241D01*
X668576Y248084D01*
X667566Y247074D01*
X666409Y246233D01*
X665136Y245585D01*
X663776Y245143D01*
X663681Y245128D01*
X663681Y251969D01*
G37*
%LPD*%
%LPC*%
G36*
X659524Y245143D02*
X659524Y245143D01*
X658164Y245585D01*
X656891Y246233D01*
X655734Y247074D01*
X654724Y248084D01*
X653883Y249241D01*
X653235Y250514D01*
X652793Y251874D01*
X652778Y251969D01*
X659619Y251969D01*
X659619Y245128D01*
X659524Y245143D01*
G37*
%LPD*%
%LPC*%
G36*
X383031Y802131D02*
X383031Y802131D01*
X383031Y805720D01*
X383828Y805390D01*
X384805Y804737D01*
X385637Y803905D01*
X386290Y802928D01*
X386620Y802131D01*
X383031Y802131D01*
G37*
%LPD*%
%LPC*%
G36*
X484631Y700531D02*
X484631Y700531D01*
X484631Y704120D01*
X485428Y703790D01*
X486405Y703137D01*
X487237Y702305D01*
X487890Y701328D01*
X488220Y700531D01*
X484631Y700531D01*
G37*
%LPD*%
%LPC*%
G36*
X154431Y535431D02*
X154431Y535431D01*
X154431Y539020D01*
X155228Y538690D01*
X156205Y538037D01*
X157037Y537205D01*
X157690Y536228D01*
X158020Y535431D01*
X154431Y535431D01*
G37*
%LPD*%
%LPC*%
G36*
X497331Y383031D02*
X497331Y383031D01*
X497331Y386620D01*
X498128Y386290D01*
X499105Y385637D01*
X499937Y384805D01*
X500590Y383828D01*
X500920Y383031D01*
X497331Y383031D01*
G37*
%LPD*%
%LPC*%
G36*
X649731Y535431D02*
X649731Y535431D01*
X649731Y539020D01*
X650528Y538690D01*
X651505Y538037D01*
X652337Y537205D01*
X652990Y536228D01*
X653320Y535431D01*
X649731Y535431D01*
G37*
%LPD*%
%LPC*%
G36*
X522731Y357631D02*
X522731Y357631D01*
X522731Y361220D01*
X523528Y360890D01*
X524505Y360237D01*
X525337Y359405D01*
X525990Y358428D01*
X526320Y357631D01*
X522731Y357631D01*
G37*
%LPD*%
%LPC*%
G36*
X814831Y535431D02*
X814831Y535431D01*
X814831Y539020D01*
X815628Y538690D01*
X816605Y538037D01*
X817437Y537205D01*
X818090Y536228D01*
X818420Y535431D01*
X814831Y535431D01*
G37*
%LPD*%
%LPC*%
G36*
X738631Y52831D02*
X738631Y52831D01*
X738631Y56420D01*
X739428Y56090D01*
X740405Y55437D01*
X741237Y54605D01*
X741890Y53628D01*
X742220Y52831D01*
X738631Y52831D01*
G37*
%LPD*%
%LPC*%
G36*
X560831Y675131D02*
X560831Y675131D01*
X560831Y678720D01*
X561628Y678390D01*
X562605Y677737D01*
X563437Y676905D01*
X564090Y675928D01*
X564420Y675131D01*
X560831Y675131D01*
G37*
%LPD*%
%LPC*%
G36*
X515080Y357631D02*
X515080Y357631D01*
X515410Y358428D01*
X516063Y359405D01*
X516895Y360237D01*
X517872Y360890D01*
X518669Y361220D01*
X518669Y357631D01*
X515080Y357631D01*
G37*
%LPD*%
%LPC*%
G36*
X522731Y353569D02*
X522731Y353569D01*
X526320Y353569D01*
X525990Y352772D01*
X525337Y351795D01*
X524505Y350963D01*
X523528Y350310D01*
X522731Y349980D01*
X522731Y353569D01*
G37*
%LPD*%
%LPC*%
G36*
X807180Y535431D02*
X807180Y535431D01*
X807510Y536228D01*
X808163Y537205D01*
X808995Y538037D01*
X809972Y538690D01*
X810769Y539020D01*
X810769Y535431D01*
X807180Y535431D01*
G37*
%LPD*%
%LPC*%
G36*
X642080Y535431D02*
X642080Y535431D01*
X642410Y536228D01*
X643063Y537205D01*
X643895Y538037D01*
X644872Y538690D01*
X645669Y539020D01*
X645669Y535431D01*
X642080Y535431D01*
G37*
%LPD*%
%LPC*%
G36*
X146780Y535431D02*
X146780Y535431D01*
X147110Y536228D01*
X147763Y537205D01*
X148595Y538037D01*
X149572Y538690D01*
X150369Y539020D01*
X150369Y535431D01*
X146780Y535431D01*
G37*
%LPD*%
%LPC*%
G36*
X383031Y798069D02*
X383031Y798069D01*
X386620Y798069D01*
X386290Y797272D01*
X385637Y796295D01*
X384805Y795463D01*
X383828Y794810D01*
X383031Y794480D01*
X383031Y798069D01*
G37*
%LPD*%
%LPC*%
G36*
X375380Y802131D02*
X375380Y802131D01*
X375710Y802928D01*
X376363Y803905D01*
X377195Y804737D01*
X378172Y805390D01*
X378969Y805720D01*
X378969Y802131D01*
X375380Y802131D01*
G37*
%LPD*%
%LPC*%
G36*
X489680Y383031D02*
X489680Y383031D01*
X490010Y383828D01*
X490663Y384805D01*
X491495Y385637D01*
X492472Y386290D01*
X493269Y386620D01*
X493269Y383031D01*
X489680Y383031D01*
G37*
%LPD*%
%LPC*%
G36*
X476980Y700531D02*
X476980Y700531D01*
X477310Y701328D01*
X477963Y702305D01*
X478795Y703137D01*
X479772Y703790D01*
X480569Y704120D01*
X480569Y700531D01*
X476980Y700531D01*
G37*
%LPD*%
%LPC*%
G36*
X484631Y696469D02*
X484631Y696469D01*
X488220Y696469D01*
X487890Y695672D01*
X487237Y694695D01*
X486405Y693863D01*
X485428Y693210D01*
X484631Y692880D01*
X484631Y696469D01*
G37*
%LPD*%
%LPC*%
G36*
X560831Y671069D02*
X560831Y671069D01*
X564420Y671069D01*
X564090Y670272D01*
X563437Y669295D01*
X562605Y668463D01*
X561628Y667810D01*
X560831Y667480D01*
X560831Y671069D01*
G37*
%LPD*%
%LPC*%
G36*
X730980Y52831D02*
X730980Y52831D01*
X731310Y53628D01*
X731963Y54605D01*
X732795Y55437D01*
X733772Y56090D01*
X734569Y56420D01*
X734569Y52831D01*
X730980Y52831D01*
G37*
%LPD*%
%LPC*%
G36*
X497331Y378969D02*
X497331Y378969D01*
X500920Y378969D01*
X500590Y378172D01*
X499937Y377195D01*
X499105Y376363D01*
X498128Y375710D01*
X497331Y375380D01*
X497331Y378969D01*
G37*
%LPD*%
%LPC*%
G36*
X738631Y48769D02*
X738631Y48769D01*
X742220Y48769D01*
X741890Y47972D01*
X741237Y46995D01*
X740405Y46163D01*
X739428Y45510D01*
X738631Y45180D01*
X738631Y48769D01*
G37*
%LPD*%
%LPC*%
G36*
X814831Y531369D02*
X814831Y531369D01*
X818420Y531369D01*
X818090Y530572D01*
X817437Y529595D01*
X816605Y528763D01*
X815628Y528110D01*
X815289Y527969D01*
X815288Y527969D01*
X814831Y527780D01*
X814831Y531369D01*
G37*
%LPD*%
%LPC*%
G36*
X154431Y531369D02*
X154431Y531369D01*
X158020Y531369D01*
X157690Y530572D01*
X157037Y529595D01*
X156205Y528763D01*
X155228Y528110D01*
X154889Y527969D01*
X154888Y527969D01*
X154431Y527780D01*
X154431Y531369D01*
G37*
%LPD*%
%LPC*%
G36*
X649731Y531369D02*
X649731Y531369D01*
X653320Y531369D01*
X652990Y530572D01*
X652337Y529595D01*
X651505Y528763D01*
X650528Y528110D01*
X650189Y527969D01*
X650188Y527969D01*
X649731Y527780D01*
X649731Y531369D01*
G37*
%LPD*%
%LPC*%
G36*
X553180Y675131D02*
X553180Y675131D01*
X553510Y675928D01*
X554163Y676905D01*
X554995Y677737D01*
X555972Y678390D01*
X556473Y678598D01*
X556769Y678720D01*
X556769Y675131D01*
X553180Y675131D01*
G37*
%LPD*%
%LPC*%
G36*
X644872Y528110D02*
X644872Y528110D01*
X643895Y528763D01*
X643063Y529595D01*
X642410Y530572D01*
X642080Y531369D01*
X645669Y531369D01*
X645669Y527780D01*
X644872Y528110D01*
G37*
%LPD*%
%LPC*%
G36*
X149572Y528110D02*
X149572Y528110D01*
X148595Y528763D01*
X147763Y529595D01*
X147110Y530572D01*
X146780Y531369D01*
X150369Y531369D01*
X150369Y527780D01*
X149572Y528110D01*
G37*
%LPD*%
%LPC*%
G36*
X555972Y667810D02*
X555972Y667810D01*
X554995Y668463D01*
X554163Y669295D01*
X553510Y670272D01*
X553180Y671069D01*
X556769Y671069D01*
X556769Y667480D01*
X555972Y667810D01*
G37*
%LPD*%
%LPC*%
G36*
X492472Y375710D02*
X492472Y375710D01*
X491495Y376363D01*
X490663Y377195D01*
X490010Y378172D01*
X489680Y378969D01*
X493269Y378969D01*
X493269Y375380D01*
X492472Y375710D01*
G37*
%LPD*%
%LPC*%
G36*
X809972Y528110D02*
X809972Y528110D01*
X808995Y528763D01*
X808163Y529595D01*
X807510Y530572D01*
X807180Y531369D01*
X810769Y531369D01*
X810769Y527780D01*
X809972Y528110D01*
G37*
%LPD*%
%LPC*%
G36*
X517872Y350310D02*
X517872Y350310D01*
X516895Y350963D01*
X516063Y351795D01*
X515410Y352772D01*
X515080Y353569D01*
X518669Y353569D01*
X518669Y349980D01*
X517872Y350310D01*
G37*
%LPD*%
%LPC*%
G36*
X378172Y794810D02*
X378172Y794810D01*
X377195Y795463D01*
X376363Y796295D01*
X375710Y797272D01*
X375380Y798069D01*
X378969Y798069D01*
X378969Y794480D01*
X378172Y794810D01*
G37*
%LPD*%
%LPC*%
G36*
X479772Y693210D02*
X479772Y693210D01*
X478795Y693863D01*
X477963Y694695D01*
X477310Y695672D01*
X476980Y696469D01*
X480569Y696469D01*
X480569Y692880D01*
X479772Y693210D01*
G37*
%LPD*%
%LPC*%
G36*
X733772Y45510D02*
X733772Y45510D01*
X732795Y46163D01*
X731963Y46995D01*
X731310Y47972D01*
X730980Y48769D01*
X734569Y48769D01*
X734569Y45180D01*
X733772Y45510D01*
G37*
%LPD*%
%LPC*%
G36*
X38899Y101599D02*
X38899Y101599D01*
X38899Y101601D01*
X38901Y101601D01*
X38901Y101599D01*
X38899Y101599D01*
G37*
%LPD*%
%LPC*%
G36*
X68899Y54599D02*
X68899Y54599D01*
X68899Y54601D01*
X68901Y54601D01*
X68901Y54599D01*
X68899Y54599D01*
G37*
%LPD*%
D10*
X749300Y406400D03*
X749300Y381000D03*
X825500Y381000D03*
X825500Y406400D03*
X749300Y355600D03*
X749300Y330200D03*
X825500Y355600D03*
X825500Y330200D03*
D11*
X355600Y368300D03*
X381000Y368300D03*
X381000Y393700D03*
X355600Y393700D03*
X355600Y342900D03*
X381000Y342900D03*
D12*
X98900Y101600D03*
X38900Y101600D03*
X68900Y54600D03*
D13*
X124500Y917000D03*
D14*
X149900Y917000D03*
X175300Y917000D03*
X200700Y917000D03*
X226100Y917000D03*
X251500Y917000D03*
X276900Y917000D03*
X302300Y917000D03*
X327700Y917000D03*
X353100Y917000D03*
X378500Y917000D03*
X403900Y917000D03*
X429300Y917000D03*
X454700Y917000D03*
X480100Y917000D03*
X505500Y917000D03*
D15*
X906780Y508000D02*
X922020Y508000D01*
X922020Y482600D02*
X906780Y482600D01*
X906780Y457200D02*
X922020Y457200D01*
D16*
X582950Y228600D03*
X582950Y254000D03*
X582950Y203200D03*
D17*
X582950Y279400D03*
D16*
X661650Y203200D03*
X661650Y279400D03*
X661650Y228600D03*
X661650Y254000D03*
D18*
X914400Y98900D03*
X914400Y78900D03*
D19*
X546100Y241300D03*
D20*
X546100Y292100D01*
D19*
X546100Y292100D03*
X381000Y800100D03*
X482600Y698500D03*
X558800Y673100D03*
X812800Y533400D03*
X152400Y533400D03*
X495300Y381000D03*
X520700Y355600D03*
X736600Y50800D03*
X647700Y533400D03*
X558800Y292100D03*
D20*
X558800Y241300D01*
D19*
X558800Y241300D03*
X660400Y165100D03*
D20*
X635000Y190500D01*
X635000Y317500D01*
D19*
X635000Y317500D03*
X647700Y304800D03*
D20*
X838200Y304800D01*
X889000Y355600D01*
D19*
X889000Y355600D03*
X444500Y355600D03*
D20*
X431800Y368300D01*
X381000Y368300D01*
D19*
X419100Y381000D03*
D20*
X419100Y393700D01*
X406400Y406400D01*
X368300Y406400D01*
X355600Y393700D01*
D19*
X469900Y304800D03*
D20*
X457200Y304800D01*
X365195Y368300D02*
X355600Y368300D01*
X376371Y357124D02*
X404876Y357124D01*
X376371Y357124D02*
X365195Y368300D01*
X404876Y357124D02*
X457200Y304800D01*
D19*
X609600Y330200D03*
D20*
X609600Y190500D01*
X596900Y177800D01*
X558800Y177800D01*
D19*
X558800Y177800D03*
X609600Y571500D03*
D21*
X520700Y571500D01*
D19*
X520700Y571500D03*
X444500Y279400D03*
D21*
X431800Y266700D01*
X406400Y266700D01*
D19*
X406400Y266700D03*
X774700Y482600D03*
D21*
X723900Y482600D01*
X685800Y444500D01*
X114300Y444500D01*
X101600Y431800D01*
D19*
X101600Y431800D03*
X622300Y177800D03*
D20*
X622300Y330200D01*
X596900Y355600D01*
X571500Y355600D01*
D19*
X571500Y355600D03*
X381000Y139700D03*
D20*
X482600Y241300D01*
X482600Y279400D01*
X508000Y304800D01*
X571500Y304800D01*
X584200Y317500D01*
X584200Y342900D01*
D19*
X584200Y342900D03*
X114300Y228600D03*
D20*
X139700Y228600D01*
D19*
X139700Y228600D03*
D20*
X800100Y330200D02*
X825500Y330200D01*
X800100Y330200D02*
X749300Y381000D01*
D19*
X876300Y533400D03*
D20*
X876300Y469900D01*
X889000Y457200D01*
D19*
X889000Y457200D03*
M02*
