G04 EAGLE Gerber RS-274X export*
G75*
%MOMM*%
%FSLAX34Y34*%
%LPD*%
%INBottom Copper*%
%IPPOS*%
%AMOC8*
5,1,8,0,0,1.08239X$1,22.5*%
G01*
%ADD10C,1.625600*%
%ADD11R,1.879600X1.879600*%
%ADD12C,1.879600*%
%ADD13C,1.508000*%
%ADD14C,3.116000*%
%ADD15C,1.524000*%
%ADD16C,4.800000*%
%ADD17C,1.408000*%
%ADD18C,0.685800*%
%ADD19C,0.203200*%
%ADD20C,0.508000*%

G36*
X971622Y4067D02*
X971622Y4067D01*
X971640Y4065D01*
X971822Y4086D01*
X972005Y4105D01*
X972022Y4110D01*
X972039Y4112D01*
X972214Y4169D01*
X972390Y4223D01*
X972405Y4231D01*
X972422Y4237D01*
X972582Y4327D01*
X972744Y4415D01*
X972757Y4426D01*
X972773Y4435D01*
X972912Y4555D01*
X973053Y4672D01*
X973064Y4686D01*
X973078Y4698D01*
X973190Y4843D01*
X973305Y4986D01*
X973313Y5002D01*
X973324Y5016D01*
X973406Y5181D01*
X973491Y5343D01*
X973496Y5360D01*
X973504Y5376D01*
X973551Y5555D01*
X973602Y5730D01*
X973604Y5748D01*
X973608Y5765D01*
X973635Y6096D01*
X973635Y943104D01*
X973633Y943122D01*
X973635Y943140D01*
X973614Y943322D01*
X973595Y943505D01*
X973590Y943522D01*
X973588Y943539D01*
X973531Y943714D01*
X973477Y943890D01*
X973469Y943905D01*
X973463Y943922D01*
X973373Y944082D01*
X973285Y944244D01*
X973274Y944257D01*
X973265Y944273D01*
X973145Y944412D01*
X973028Y944553D01*
X973014Y944564D01*
X973002Y944578D01*
X972857Y944690D01*
X972714Y944805D01*
X972698Y944813D01*
X972684Y944824D01*
X972519Y944906D01*
X972357Y944991D01*
X972340Y944996D01*
X972324Y945004D01*
X972145Y945051D01*
X971970Y945102D01*
X971952Y945104D01*
X971935Y945108D01*
X971604Y945135D01*
X6096Y945135D01*
X6078Y945133D01*
X6060Y945135D01*
X5878Y945114D01*
X5695Y945095D01*
X5678Y945090D01*
X5661Y945088D01*
X5486Y945031D01*
X5310Y944977D01*
X5295Y944969D01*
X5278Y944963D01*
X5118Y944873D01*
X4956Y944785D01*
X4943Y944774D01*
X4927Y944765D01*
X4788Y944645D01*
X4647Y944528D01*
X4636Y944514D01*
X4622Y944502D01*
X4510Y944357D01*
X4395Y944214D01*
X4387Y944198D01*
X4376Y944184D01*
X4294Y944019D01*
X4209Y943857D01*
X4204Y943840D01*
X4196Y943824D01*
X4149Y943645D01*
X4098Y943470D01*
X4096Y943452D01*
X4092Y943435D01*
X4065Y943104D01*
X4065Y6096D01*
X4067Y6078D01*
X4065Y6060D01*
X4086Y5878D01*
X4105Y5695D01*
X4110Y5678D01*
X4112Y5661D01*
X4169Y5486D01*
X4223Y5310D01*
X4231Y5295D01*
X4237Y5278D01*
X4327Y5118D01*
X4415Y4956D01*
X4426Y4943D01*
X4435Y4927D01*
X4555Y4788D01*
X4672Y4647D01*
X4686Y4636D01*
X4698Y4622D01*
X4843Y4510D01*
X4986Y4395D01*
X5002Y4387D01*
X5016Y4376D01*
X5181Y4294D01*
X5343Y4209D01*
X5360Y4204D01*
X5376Y4196D01*
X5555Y4149D01*
X5730Y4098D01*
X5748Y4096D01*
X5765Y4092D01*
X6096Y4065D01*
X971604Y4065D01*
X971622Y4067D01*
G37*
%LPC*%
G36*
X455709Y157606D02*
X455709Y157606D01*
X452955Y158747D01*
X450847Y160855D01*
X449706Y163609D01*
X449706Y166591D01*
X450847Y169345D01*
X452955Y171453D01*
X455709Y172594D01*
X456667Y172594D01*
X456694Y172596D01*
X456720Y172594D01*
X456894Y172616D01*
X457068Y172634D01*
X457093Y172641D01*
X457120Y172645D01*
X457286Y172700D01*
X457453Y172752D01*
X457476Y172765D01*
X457502Y172773D01*
X457653Y172860D01*
X457807Y172944D01*
X457827Y172961D01*
X457850Y172974D01*
X458103Y173189D01*
X467022Y182107D01*
X468889Y182881D01*
X538218Y182881D01*
X538227Y182882D01*
X538236Y182881D01*
X538426Y182901D01*
X538618Y182921D01*
X538627Y182923D01*
X538636Y182924D01*
X538818Y182982D01*
X539003Y183039D01*
X539011Y183043D01*
X539020Y183046D01*
X539187Y183138D01*
X539357Y183231D01*
X539364Y183236D01*
X539372Y183241D01*
X539520Y183366D01*
X539666Y183488D01*
X539672Y183495D01*
X539679Y183501D01*
X539799Y183653D01*
X539919Y183802D01*
X539923Y183810D01*
X539929Y183817D01*
X540017Y183990D01*
X540104Y184159D01*
X540107Y184168D01*
X540111Y184176D01*
X540163Y184363D01*
X540216Y184546D01*
X540216Y184555D01*
X540219Y184564D01*
X540233Y184755D01*
X540249Y184948D01*
X540248Y184957D01*
X540248Y184965D01*
X540224Y185157D01*
X540202Y185347D01*
X540199Y185356D01*
X540198Y185365D01*
X540136Y185548D01*
X540077Y185730D01*
X540072Y185738D01*
X540070Y185747D01*
X539974Y185913D01*
X539879Y186081D01*
X539873Y186088D01*
X539869Y186095D01*
X539761Y186223D01*
X538606Y189009D01*
X538606Y189967D01*
X538604Y189994D01*
X538606Y190020D01*
X538584Y190194D01*
X538566Y190368D01*
X538559Y190393D01*
X538555Y190420D01*
X538500Y190586D01*
X538448Y190753D01*
X538435Y190776D01*
X538427Y190802D01*
X538340Y190953D01*
X538256Y191107D01*
X538239Y191127D01*
X538226Y191150D01*
X538011Y191403D01*
X505408Y224007D01*
X503693Y225722D01*
X502919Y227589D01*
X502919Y255011D01*
X503693Y256878D01*
X543222Y296407D01*
X543984Y296723D01*
X545089Y297181D01*
X552442Y297181D01*
X552468Y297183D01*
X552495Y297181D01*
X552669Y297203D01*
X552842Y297221D01*
X552868Y297228D01*
X552894Y297232D01*
X553060Y297287D01*
X553227Y297339D01*
X553251Y297352D01*
X553276Y297360D01*
X553428Y297447D01*
X553581Y297531D01*
X553602Y297548D01*
X553625Y297561D01*
X553878Y297776D01*
X554555Y298453D01*
X557309Y299594D01*
X560291Y299594D01*
X563045Y298453D01*
X565153Y296345D01*
X566294Y293591D01*
X566294Y290609D01*
X565153Y287855D01*
X563045Y285747D01*
X560291Y284606D01*
X557309Y284606D01*
X554555Y285747D01*
X553878Y286424D01*
X553857Y286441D01*
X553840Y286462D01*
X553702Y286569D01*
X553566Y286679D01*
X553543Y286692D01*
X553522Y286708D01*
X553365Y286786D01*
X553211Y286868D01*
X553185Y286876D01*
X553161Y286888D01*
X552992Y286933D01*
X552825Y286983D01*
X552798Y286985D01*
X552772Y286992D01*
X552442Y287019D01*
X549046Y287019D01*
X549019Y287017D01*
X548993Y287019D01*
X548819Y286997D01*
X548645Y286979D01*
X548620Y286972D01*
X548593Y286968D01*
X548427Y286913D01*
X548260Y286861D01*
X548237Y286848D01*
X548211Y286840D01*
X548060Y286753D01*
X547906Y286669D01*
X547886Y286652D01*
X547863Y286639D01*
X547610Y286424D01*
X513676Y252490D01*
X513659Y252470D01*
X513638Y252452D01*
X513531Y252314D01*
X513421Y252179D01*
X513408Y252155D01*
X513392Y252134D01*
X513314Y251977D01*
X513232Y251823D01*
X513224Y251798D01*
X513212Y251774D01*
X513167Y251604D01*
X513117Y251437D01*
X513115Y251411D01*
X513108Y251385D01*
X513081Y251054D01*
X513081Y231546D01*
X513082Y231537D01*
X513081Y231529D01*
X513083Y231513D01*
X513081Y231493D01*
X513103Y231319D01*
X513121Y231145D01*
X513128Y231120D01*
X513132Y231093D01*
X513187Y230927D01*
X513239Y230760D01*
X513252Y230737D01*
X513260Y230711D01*
X513347Y230560D01*
X513431Y230406D01*
X513448Y230386D01*
X513461Y230363D01*
X513676Y230110D01*
X545197Y198589D01*
X545217Y198572D01*
X545235Y198551D01*
X545373Y198444D01*
X545508Y198334D01*
X545532Y198321D01*
X545553Y198305D01*
X545710Y198227D01*
X545864Y198145D01*
X545889Y198137D01*
X545913Y198125D01*
X546083Y198080D01*
X546250Y198030D01*
X546276Y198028D01*
X546302Y198021D01*
X546633Y197994D01*
X547591Y197994D01*
X550345Y196853D01*
X552720Y194478D01*
X552734Y194466D01*
X552745Y194453D01*
X552889Y194339D01*
X553031Y194223D01*
X553047Y194214D01*
X553061Y194203D01*
X553226Y194120D01*
X553387Y194034D01*
X553404Y194029D01*
X553420Y194021D01*
X553598Y193971D01*
X553773Y193919D01*
X553791Y193918D01*
X553808Y193913D01*
X553991Y193900D01*
X554174Y193883D01*
X554192Y193885D01*
X554210Y193884D01*
X554392Y193907D01*
X554574Y193926D01*
X554591Y193932D01*
X554609Y193934D01*
X554783Y193992D01*
X554958Y194048D01*
X554974Y194057D01*
X554991Y194062D01*
X555150Y194154D01*
X555310Y194243D01*
X555324Y194254D01*
X555340Y194263D01*
X555593Y194478D01*
X603924Y242810D01*
X603941Y242830D01*
X603962Y242848D01*
X604069Y242986D01*
X604179Y243121D01*
X604192Y243145D01*
X604208Y243166D01*
X604286Y243323D01*
X604368Y243477D01*
X604376Y243502D01*
X604388Y243526D01*
X604433Y243696D01*
X604483Y243863D01*
X604485Y243889D01*
X604492Y243915D01*
X604519Y244246D01*
X604519Y336542D01*
X604517Y336568D01*
X604519Y336595D01*
X604497Y336769D01*
X604479Y336942D01*
X604472Y336968D01*
X604468Y336994D01*
X604413Y337160D01*
X604361Y337327D01*
X604348Y337351D01*
X604340Y337376D01*
X604253Y337528D01*
X604169Y337681D01*
X604152Y337702D01*
X604139Y337725D01*
X603924Y337978D01*
X603247Y338655D01*
X602106Y341409D01*
X602106Y344391D01*
X603247Y347145D01*
X605355Y349253D01*
X608109Y350394D01*
X611091Y350394D01*
X613845Y349253D01*
X614514Y348584D01*
X614528Y348573D01*
X614539Y348559D01*
X614683Y348445D01*
X614825Y348329D01*
X614841Y348321D01*
X614855Y348310D01*
X615019Y348226D01*
X615181Y348140D01*
X615198Y348135D01*
X615214Y348127D01*
X615391Y348078D01*
X615567Y348026D01*
X615585Y348024D01*
X615602Y348019D01*
X615785Y348006D01*
X615968Y347989D01*
X615986Y347991D01*
X616003Y347990D01*
X616185Y348013D01*
X616368Y348033D01*
X616385Y348038D01*
X616403Y348040D01*
X616576Y348098D01*
X616752Y348154D01*
X616768Y348163D01*
X616784Y348168D01*
X616944Y348260D01*
X617104Y348349D01*
X617118Y348360D01*
X617133Y348369D01*
X617386Y348584D01*
X618055Y349253D01*
X620809Y350394D01*
X623791Y350394D01*
X626545Y349253D01*
X628653Y347145D01*
X629794Y344391D01*
X629794Y341409D01*
X628653Y338655D01*
X627976Y337978D01*
X627959Y337957D01*
X627938Y337940D01*
X627831Y337802D01*
X627721Y337666D01*
X627708Y337643D01*
X627692Y337622D01*
X627614Y337465D01*
X627532Y337311D01*
X627524Y337285D01*
X627512Y337261D01*
X627467Y337092D01*
X627417Y336925D01*
X627415Y336898D01*
X627408Y336872D01*
X627381Y336542D01*
X627381Y299982D01*
X627382Y299973D01*
X627381Y299964D01*
X627402Y299773D01*
X627421Y299582D01*
X627423Y299573D01*
X627424Y299564D01*
X627482Y299382D01*
X627539Y299197D01*
X627543Y299189D01*
X627546Y299180D01*
X627638Y299013D01*
X627731Y298843D01*
X627736Y298836D01*
X627741Y298828D01*
X627867Y298679D01*
X627988Y298534D01*
X627995Y298528D01*
X628001Y298521D01*
X628153Y298401D01*
X628302Y298281D01*
X628310Y298277D01*
X628317Y298271D01*
X628490Y298183D01*
X628659Y298096D01*
X628668Y298093D01*
X628676Y298089D01*
X628863Y298037D01*
X629046Y297984D01*
X629055Y297984D01*
X629064Y297981D01*
X629255Y297967D01*
X629448Y297951D01*
X629457Y297952D01*
X629465Y297952D01*
X629657Y297976D01*
X629847Y297998D01*
X629856Y298001D01*
X629865Y298002D01*
X630048Y298064D01*
X630230Y298123D01*
X630238Y298128D01*
X630247Y298130D01*
X630413Y298226D01*
X630581Y298321D01*
X630588Y298327D01*
X630595Y298331D01*
X630723Y298439D01*
X633509Y299594D01*
X634467Y299594D01*
X634494Y299596D01*
X634520Y299594D01*
X634694Y299616D01*
X634868Y299634D01*
X634893Y299641D01*
X634920Y299645D01*
X635086Y299700D01*
X635253Y299752D01*
X635276Y299765D01*
X635302Y299773D01*
X635453Y299860D01*
X635607Y299944D01*
X635627Y299961D01*
X635650Y299974D01*
X635903Y300189D01*
X642024Y306310D01*
X642041Y306330D01*
X642062Y306348D01*
X642169Y306486D01*
X642279Y306621D01*
X642292Y306645D01*
X642308Y306666D01*
X642386Y306823D01*
X642468Y306977D01*
X642476Y307002D01*
X642488Y307026D01*
X642533Y307196D01*
X642583Y307363D01*
X642585Y307389D01*
X642592Y307415D01*
X642619Y307746D01*
X642619Y343911D01*
X643393Y345778D01*
X657522Y359907D01*
X659389Y360681D01*
X699511Y360681D01*
X701378Y359907D01*
X715507Y345778D01*
X716281Y343911D01*
X716281Y320446D01*
X716283Y320419D01*
X716281Y320393D01*
X716303Y320219D01*
X716321Y320045D01*
X716328Y320020D01*
X716332Y319993D01*
X716387Y319827D01*
X716439Y319660D01*
X716452Y319637D01*
X716460Y319611D01*
X716547Y319460D01*
X716631Y319306D01*
X716648Y319286D01*
X716661Y319263D01*
X716876Y319010D01*
X725410Y310476D01*
X725430Y310459D01*
X725448Y310438D01*
X725586Y310331D01*
X725721Y310221D01*
X725745Y310208D01*
X725766Y310192D01*
X725923Y310114D01*
X726077Y310032D01*
X726102Y310024D01*
X726126Y310012D01*
X726296Y309967D01*
X726463Y309917D01*
X726489Y309915D01*
X726515Y309908D01*
X726846Y309881D01*
X797154Y309881D01*
X797181Y309883D01*
X797207Y309881D01*
X797381Y309903D01*
X797555Y309921D01*
X797580Y309928D01*
X797607Y309932D01*
X797773Y309987D01*
X797940Y310039D01*
X797963Y310052D01*
X797989Y310060D01*
X798140Y310147D01*
X798294Y310231D01*
X798314Y310248D01*
X798337Y310261D01*
X798590Y310476D01*
X807124Y319010D01*
X807141Y319030D01*
X807162Y319048D01*
X807269Y319186D01*
X807379Y319321D01*
X807392Y319345D01*
X807408Y319366D01*
X807486Y319523D01*
X807568Y319677D01*
X807576Y319702D01*
X807588Y319726D01*
X807633Y319896D01*
X807683Y320063D01*
X807685Y320089D01*
X807692Y320115D01*
X807719Y320446D01*
X807719Y349369D01*
X807717Y349395D01*
X807719Y349422D01*
X807697Y349596D01*
X807679Y349769D01*
X807672Y349795D01*
X807668Y349821D01*
X807613Y349987D01*
X807561Y350154D01*
X807548Y350178D01*
X807540Y350203D01*
X807453Y350354D01*
X807369Y350508D01*
X807352Y350529D01*
X807339Y350552D01*
X807124Y350805D01*
X806447Y351482D01*
X805306Y354236D01*
X805306Y357218D01*
X806447Y359972D01*
X808555Y362080D01*
X811309Y363221D01*
X814291Y363221D01*
X817045Y362080D01*
X819153Y359972D01*
X820294Y357218D01*
X820294Y354236D01*
X819153Y351482D01*
X818476Y350805D01*
X818474Y350802D01*
X818472Y350801D01*
X818458Y350783D01*
X818438Y350767D01*
X818331Y350629D01*
X818221Y350493D01*
X818208Y350470D01*
X818192Y350449D01*
X818114Y350292D01*
X818032Y350138D01*
X818024Y350112D01*
X818012Y350088D01*
X817967Y349919D01*
X817917Y349752D01*
X817915Y349725D01*
X817908Y349699D01*
X817881Y349369D01*
X817881Y316489D01*
X817107Y314622D01*
X802978Y300493D01*
X801111Y299719D01*
X722889Y299719D01*
X721022Y300493D01*
X706893Y314622D01*
X706119Y316489D01*
X706119Y339954D01*
X706117Y339981D01*
X706119Y340007D01*
X706097Y340181D01*
X706079Y340355D01*
X706072Y340380D01*
X706068Y340407D01*
X706013Y340573D01*
X705961Y340740D01*
X705948Y340763D01*
X705940Y340789D01*
X705853Y340940D01*
X705769Y341094D01*
X705752Y341114D01*
X705739Y341137D01*
X705524Y341390D01*
X696990Y349924D01*
X696970Y349941D01*
X696952Y349962D01*
X696814Y350069D01*
X696679Y350179D01*
X696655Y350192D01*
X696634Y350208D01*
X696477Y350286D01*
X696323Y350368D01*
X696298Y350376D01*
X696274Y350388D01*
X696104Y350433D01*
X695937Y350483D01*
X695911Y350485D01*
X695885Y350492D01*
X695554Y350519D01*
X663346Y350519D01*
X663319Y350517D01*
X663293Y350519D01*
X663119Y350497D01*
X662945Y350479D01*
X662920Y350472D01*
X662893Y350468D01*
X662727Y350413D01*
X662560Y350361D01*
X662537Y350348D01*
X662511Y350340D01*
X662360Y350253D01*
X662206Y350169D01*
X662186Y350152D01*
X662163Y350139D01*
X661910Y349924D01*
X653376Y341390D01*
X653359Y341370D01*
X653338Y341352D01*
X653231Y341214D01*
X653121Y341079D01*
X653108Y341055D01*
X653092Y341034D01*
X653014Y340877D01*
X652932Y340723D01*
X652924Y340698D01*
X652912Y340674D01*
X652867Y340504D01*
X652817Y340337D01*
X652815Y340311D01*
X652808Y340285D01*
X652781Y339954D01*
X652781Y303789D01*
X652007Y301922D01*
X643089Y293003D01*
X643072Y292983D01*
X643051Y292965D01*
X642944Y292827D01*
X642834Y292692D01*
X642821Y292668D01*
X642805Y292647D01*
X642727Y292490D01*
X642645Y292336D01*
X642637Y292311D01*
X642625Y292287D01*
X642580Y292117D01*
X642530Y291950D01*
X642528Y291924D01*
X642521Y291898D01*
X642494Y291567D01*
X642494Y290609D01*
X641353Y287855D01*
X639245Y285747D01*
X636491Y284606D01*
X633509Y284606D01*
X630715Y285764D01*
X630686Y285787D01*
X630537Y285909D01*
X630529Y285913D01*
X630522Y285919D01*
X630351Y286008D01*
X630181Y286098D01*
X630173Y286100D01*
X630165Y286104D01*
X629979Y286158D01*
X629795Y286212D01*
X629786Y286213D01*
X629778Y286216D01*
X629587Y286231D01*
X629394Y286249D01*
X629385Y286248D01*
X629376Y286249D01*
X629187Y286226D01*
X628994Y286205D01*
X628985Y286203D01*
X628977Y286202D01*
X628794Y286142D01*
X628610Y286084D01*
X628602Y286080D01*
X628594Y286077D01*
X628426Y285982D01*
X628258Y285889D01*
X628251Y285883D01*
X628243Y285879D01*
X628097Y285753D01*
X627951Y285629D01*
X627945Y285622D01*
X627938Y285616D01*
X627821Y285465D01*
X627701Y285313D01*
X627697Y285305D01*
X627692Y285298D01*
X627606Y285126D01*
X627519Y284954D01*
X627516Y284945D01*
X627512Y284937D01*
X627462Y284751D01*
X627411Y284566D01*
X627410Y284557D01*
X627408Y284548D01*
X627381Y284218D01*
X627381Y261882D01*
X627382Y261873D01*
X627381Y261864D01*
X627401Y261674D01*
X627421Y261482D01*
X627423Y261473D01*
X627424Y261464D01*
X627482Y261281D01*
X627539Y261097D01*
X627543Y261089D01*
X627546Y261080D01*
X627638Y260913D01*
X627731Y260743D01*
X627736Y260736D01*
X627741Y260728D01*
X627867Y260579D01*
X627988Y260434D01*
X627995Y260428D01*
X628001Y260421D01*
X628153Y260301D01*
X628302Y260181D01*
X628310Y260177D01*
X628317Y260171D01*
X628490Y260083D01*
X628659Y259996D01*
X628668Y259993D01*
X628676Y259989D01*
X628863Y259937D01*
X629046Y259884D01*
X629055Y259884D01*
X629064Y259881D01*
X629255Y259867D01*
X629448Y259851D01*
X629457Y259852D01*
X629465Y259852D01*
X629657Y259876D01*
X629847Y259898D01*
X629856Y259901D01*
X629865Y259902D01*
X630048Y259964D01*
X630230Y260023D01*
X630238Y260028D01*
X630247Y260030D01*
X630413Y260126D01*
X630581Y260221D01*
X630588Y260227D01*
X630595Y260231D01*
X630723Y260339D01*
X633509Y261494D01*
X636491Y261494D01*
X639245Y260353D01*
X641353Y258245D01*
X642494Y255491D01*
X642494Y252509D01*
X641353Y249755D01*
X640676Y249078D01*
X640659Y249057D01*
X640638Y249040D01*
X640531Y248902D01*
X640421Y248766D01*
X640408Y248743D01*
X640392Y248722D01*
X640314Y248565D01*
X640232Y248411D01*
X640224Y248385D01*
X640212Y248361D01*
X640167Y248192D01*
X640117Y248025D01*
X640115Y247998D01*
X640108Y247972D01*
X640081Y247642D01*
X640081Y209558D01*
X640083Y209532D01*
X640081Y209505D01*
X640103Y209331D01*
X640121Y209158D01*
X640128Y209132D01*
X640132Y209106D01*
X640187Y208940D01*
X640239Y208773D01*
X640252Y208749D01*
X640260Y208724D01*
X640347Y208572D01*
X640431Y208419D01*
X640448Y208398D01*
X640461Y208375D01*
X640676Y208122D01*
X641353Y207445D01*
X642494Y204691D01*
X642494Y201709D01*
X641353Y198955D01*
X639245Y196847D01*
X636491Y195706D01*
X633509Y195706D01*
X630755Y196847D01*
X628647Y198955D01*
X627506Y201709D01*
X627506Y204691D01*
X628647Y207445D01*
X629324Y208122D01*
X629341Y208143D01*
X629362Y208160D01*
X629469Y208298D01*
X629579Y208434D01*
X629592Y208457D01*
X629608Y208478D01*
X629686Y208635D01*
X629768Y208789D01*
X629776Y208815D01*
X629788Y208839D01*
X629833Y209008D01*
X629883Y209175D01*
X629885Y209202D01*
X629892Y209228D01*
X629919Y209558D01*
X629919Y236830D01*
X629918Y236839D01*
X629919Y236848D01*
X629898Y237041D01*
X629879Y237231D01*
X629877Y237239D01*
X629876Y237248D01*
X629817Y237433D01*
X629761Y237616D01*
X629757Y237623D01*
X629754Y237632D01*
X629661Y237801D01*
X629569Y237970D01*
X629564Y237977D01*
X629559Y237984D01*
X629435Y238131D01*
X629312Y238279D01*
X629305Y238285D01*
X629299Y238291D01*
X629147Y238411D01*
X628998Y238531D01*
X628990Y238535D01*
X628983Y238541D01*
X628810Y238629D01*
X628641Y238717D01*
X628632Y238719D01*
X628624Y238723D01*
X628438Y238775D01*
X628254Y238828D01*
X628245Y238829D01*
X628236Y238831D01*
X628043Y238845D01*
X627852Y238861D01*
X627844Y238860D01*
X627835Y238861D01*
X627642Y238836D01*
X627453Y238814D01*
X627444Y238811D01*
X627435Y238810D01*
X627252Y238749D01*
X627070Y238689D01*
X627062Y238685D01*
X627054Y238682D01*
X626887Y238586D01*
X626719Y238491D01*
X626712Y238486D01*
X626705Y238481D01*
X626452Y238266D01*
X604989Y216803D01*
X604972Y216783D01*
X604951Y216765D01*
X604844Y216627D01*
X604734Y216492D01*
X604721Y216468D01*
X604705Y216447D01*
X604627Y216290D01*
X604545Y216136D01*
X604537Y216111D01*
X604525Y216087D01*
X604480Y215917D01*
X604430Y215750D01*
X604428Y215724D01*
X604421Y215698D01*
X604394Y215367D01*
X604394Y214409D01*
X603253Y211655D01*
X601145Y209547D01*
X599976Y209063D01*
X598391Y208406D01*
X595409Y208406D01*
X592655Y209547D01*
X590280Y211922D01*
X590266Y211934D01*
X590255Y211947D01*
X590111Y212061D01*
X589969Y212177D01*
X589953Y212186D01*
X589939Y212197D01*
X589774Y212280D01*
X589613Y212366D01*
X589596Y212371D01*
X589580Y212379D01*
X589402Y212429D01*
X589227Y212481D01*
X589209Y212482D01*
X589192Y212487D01*
X589009Y212500D01*
X588826Y212517D01*
X588808Y212515D01*
X588790Y212516D01*
X588608Y212493D01*
X588426Y212474D01*
X588409Y212468D01*
X588391Y212466D01*
X588217Y212408D01*
X588042Y212352D01*
X588026Y212343D01*
X588009Y212338D01*
X587850Y212246D01*
X587690Y212157D01*
X587676Y212146D01*
X587660Y212137D01*
X587407Y211922D01*
X548978Y173493D01*
X547111Y172719D01*
X472846Y172719D01*
X472819Y172717D01*
X472793Y172719D01*
X472619Y172697D01*
X472445Y172679D01*
X472420Y172672D01*
X472393Y172668D01*
X472227Y172613D01*
X472060Y172561D01*
X472037Y172548D01*
X472011Y172540D01*
X471860Y172453D01*
X471706Y172369D01*
X471686Y172352D01*
X471663Y172339D01*
X471410Y172124D01*
X465289Y166003D01*
X465272Y165983D01*
X465251Y165965D01*
X465144Y165827D01*
X465034Y165692D01*
X465021Y165668D01*
X465005Y165647D01*
X464927Y165490D01*
X464845Y165336D01*
X464837Y165311D01*
X464825Y165287D01*
X464780Y165117D01*
X464730Y164950D01*
X464728Y164924D01*
X464721Y164898D01*
X464694Y164567D01*
X464694Y163609D01*
X463553Y160855D01*
X461445Y158747D01*
X458691Y157606D01*
X455709Y157606D01*
G37*
%LPD*%
%LPC*%
G36*
X100109Y411606D02*
X100109Y411606D01*
X97355Y412747D01*
X95247Y414855D01*
X94106Y417609D01*
X94106Y420591D01*
X94877Y422452D01*
X94880Y422460D01*
X94884Y422468D01*
X94938Y422653D01*
X94994Y422837D01*
X94994Y422846D01*
X94997Y422855D01*
X95013Y423046D01*
X95032Y423238D01*
X95031Y423247D01*
X95032Y423256D01*
X95010Y423447D01*
X94990Y423638D01*
X94987Y423647D01*
X94986Y423656D01*
X94927Y423840D01*
X94870Y424023D01*
X94866Y424030D01*
X94863Y424039D01*
X94769Y424208D01*
X94677Y424376D01*
X94671Y424383D01*
X94667Y424391D01*
X94542Y424536D01*
X94418Y424684D01*
X94411Y424690D01*
X94405Y424696D01*
X94254Y424815D01*
X94103Y424935D01*
X94095Y424939D01*
X94088Y424945D01*
X93916Y425031D01*
X93745Y425119D01*
X93736Y425121D01*
X93728Y425125D01*
X93542Y425176D01*
X93357Y425229D01*
X93349Y425229D01*
X93340Y425232D01*
X93145Y425245D01*
X92956Y425260D01*
X92947Y425259D01*
X92938Y425259D01*
X92746Y425234D01*
X92556Y425211D01*
X92548Y425208D01*
X92539Y425207D01*
X92223Y425106D01*
X86308Y422655D01*
X78492Y422655D01*
X71272Y425646D01*
X65746Y431172D01*
X62755Y438392D01*
X62755Y446208D01*
X65746Y453428D01*
X71272Y458954D01*
X71921Y459223D01*
X78492Y461945D01*
X86308Y461945D01*
X93528Y458954D01*
X99054Y453428D01*
X102045Y446208D01*
X102045Y438392D01*
X99230Y431597D01*
X99229Y431593D01*
X99227Y431589D01*
X99172Y431404D01*
X99114Y431212D01*
X99113Y431207D01*
X99112Y431203D01*
X99094Y431005D01*
X99075Y430811D01*
X99076Y430807D01*
X99075Y430802D01*
X99097Y430600D01*
X99117Y430410D01*
X99118Y430406D01*
X99119Y430402D01*
X99180Y430210D01*
X99237Y430026D01*
X99239Y430022D01*
X99240Y430018D01*
X99336Y429845D01*
X99430Y429673D01*
X99433Y429669D01*
X99435Y429665D01*
X99562Y429516D01*
X99689Y429365D01*
X99693Y429362D01*
X99696Y429358D01*
X99851Y429236D01*
X100004Y429114D01*
X100008Y429112D01*
X100012Y429109D01*
X100189Y429019D01*
X100362Y428930D01*
X100366Y428929D01*
X100371Y428927D01*
X100562Y428873D01*
X100750Y428820D01*
X100754Y428820D01*
X100758Y428819D01*
X100960Y428804D01*
X101151Y428789D01*
X101155Y428789D01*
X101160Y428789D01*
X101357Y428814D01*
X101551Y428838D01*
X101555Y428839D01*
X101559Y428840D01*
X101743Y428901D01*
X101933Y428964D01*
X101937Y428966D01*
X101941Y428968D01*
X102112Y429066D01*
X102283Y429164D01*
X102286Y429166D01*
X102290Y429169D01*
X102543Y429383D01*
X108415Y435256D01*
X110559Y437399D01*
X112986Y438405D01*
X186923Y438405D01*
X186949Y438407D01*
X186976Y438405D01*
X187150Y438427D01*
X187323Y438445D01*
X187349Y438452D01*
X187376Y438456D01*
X187541Y438511D01*
X187708Y438563D01*
X187732Y438576D01*
X187757Y438584D01*
X187909Y438671D01*
X188062Y438755D01*
X188083Y438772D01*
X188106Y438785D01*
X188359Y439000D01*
X212159Y462799D01*
X214586Y463805D01*
X694459Y463805D01*
X694490Y463808D01*
X694521Y463806D01*
X694691Y463828D01*
X694860Y463845D01*
X694890Y463854D01*
X694921Y463858D01*
X695236Y463959D01*
X697009Y464694D01*
X699991Y464694D01*
X702745Y463553D01*
X704853Y461445D01*
X705994Y458691D01*
X705994Y455709D01*
X704853Y452955D01*
X702745Y450847D01*
X699991Y449706D01*
X697009Y449706D01*
X695236Y450441D01*
X695207Y450450D01*
X695179Y450464D01*
X695014Y450508D01*
X694851Y450557D01*
X694820Y450560D01*
X694790Y450568D01*
X694459Y450595D01*
X219477Y450595D01*
X219451Y450593D01*
X219424Y450595D01*
X219250Y450573D01*
X219077Y450555D01*
X219051Y450548D01*
X219024Y450544D01*
X218859Y450489D01*
X218692Y450437D01*
X218668Y450424D01*
X218643Y450416D01*
X218491Y450329D01*
X218338Y450245D01*
X218317Y450228D01*
X218294Y450215D01*
X218041Y450000D01*
X194241Y426201D01*
X191814Y425195D01*
X117877Y425195D01*
X117851Y425193D01*
X117824Y425195D01*
X117650Y425173D01*
X117477Y425155D01*
X117451Y425148D01*
X117424Y425144D01*
X117259Y425089D01*
X117092Y425037D01*
X117068Y425024D01*
X117043Y425016D01*
X116891Y424929D01*
X116738Y424845D01*
X116717Y424828D01*
X116694Y424815D01*
X116441Y424600D01*
X109128Y417287D01*
X109108Y417263D01*
X109084Y417242D01*
X108980Y417107D01*
X108873Y416976D01*
X108858Y416948D01*
X108839Y416923D01*
X108687Y416628D01*
X107953Y414855D01*
X105845Y412747D01*
X103091Y411606D01*
X100109Y411606D01*
G37*
%LPD*%
%LPC*%
G36*
X261522Y903537D02*
X261522Y903537D01*
X256574Y905587D01*
X252787Y909374D01*
X252443Y910205D01*
X252361Y910357D01*
X252284Y910511D01*
X252266Y910534D01*
X252253Y910560D01*
X252143Y910693D01*
X252036Y910829D01*
X252014Y910848D01*
X251996Y910870D01*
X251862Y910979D01*
X251731Y911091D01*
X251706Y911106D01*
X251683Y911124D01*
X251531Y911204D01*
X251380Y911289D01*
X251352Y911297D01*
X251327Y911311D01*
X251161Y911359D01*
X250997Y911413D01*
X250968Y911416D01*
X250941Y911424D01*
X250768Y911439D01*
X250597Y911458D01*
X250568Y911456D01*
X250539Y911459D01*
X250368Y911439D01*
X250196Y911425D01*
X250168Y911417D01*
X250139Y911413D01*
X249975Y911361D01*
X249809Y911312D01*
X249784Y911299D01*
X249756Y911290D01*
X249606Y911206D01*
X249452Y911126D01*
X249430Y911108D01*
X249405Y911094D01*
X249274Y910982D01*
X249139Y910873D01*
X249118Y910849D01*
X249099Y910832D01*
X249046Y910765D01*
X248923Y910621D01*
X247906Y909222D01*
X246578Y907894D01*
X245057Y906789D01*
X243383Y905936D01*
X241596Y905355D01*
X241339Y905315D01*
X241339Y916492D01*
X241337Y916510D01*
X241339Y916527D01*
X241318Y916710D01*
X241299Y916892D01*
X241294Y916909D01*
X241292Y916927D01*
X241267Y917005D01*
X241306Y917142D01*
X241308Y917160D01*
X241312Y917177D01*
X241339Y917508D01*
X241339Y928685D01*
X241596Y928645D01*
X243383Y928064D01*
X245057Y927211D01*
X246578Y926106D01*
X247906Y924778D01*
X248923Y923379D01*
X249037Y923250D01*
X249149Y923117D01*
X249171Y923099D01*
X249191Y923078D01*
X249328Y922974D01*
X249464Y922866D01*
X249489Y922853D01*
X249512Y922836D01*
X249668Y922761D01*
X249822Y922683D01*
X249850Y922675D01*
X249876Y922662D01*
X250043Y922620D01*
X250209Y922573D01*
X250238Y922571D01*
X250266Y922564D01*
X250439Y922555D01*
X250611Y922542D01*
X250639Y922545D01*
X250668Y922544D01*
X250839Y922570D01*
X251010Y922590D01*
X251037Y922599D01*
X251066Y922604D01*
X251229Y922663D01*
X251392Y922717D01*
X251417Y922731D01*
X251445Y922741D01*
X251592Y922831D01*
X251742Y922916D01*
X251764Y922935D01*
X251789Y922950D01*
X251916Y923068D01*
X252046Y923181D01*
X252063Y923204D01*
X252085Y923223D01*
X252186Y923363D01*
X252291Y923500D01*
X252306Y923529D01*
X252321Y923549D01*
X252356Y923626D01*
X252443Y923795D01*
X252787Y924626D01*
X256574Y928413D01*
X261522Y930463D01*
X266878Y930463D01*
X271826Y928413D01*
X275464Y924775D01*
X275477Y924764D01*
X275489Y924751D01*
X275633Y924637D01*
X275775Y924520D01*
X275791Y924512D01*
X275805Y924501D01*
X275969Y924418D01*
X276131Y924332D01*
X276148Y924327D01*
X276164Y924319D01*
X276341Y924269D01*
X276517Y924217D01*
X276535Y924215D01*
X276552Y924211D01*
X276735Y924197D01*
X276918Y924181D01*
X276936Y924183D01*
X276953Y924181D01*
X277135Y924204D01*
X277318Y924224D01*
X277335Y924229D01*
X277353Y924232D01*
X277526Y924290D01*
X277702Y924346D01*
X277718Y924354D01*
X277734Y924360D01*
X277894Y924452D01*
X278054Y924540D01*
X278068Y924552D01*
X278083Y924561D01*
X278336Y924775D01*
X281974Y928413D01*
X286922Y930463D01*
X292278Y930463D01*
X297226Y928413D01*
X300864Y924775D01*
X300877Y924764D01*
X300889Y924751D01*
X301033Y924637D01*
X301175Y924520D01*
X301191Y924512D01*
X301205Y924501D01*
X301369Y924418D01*
X301531Y924332D01*
X301548Y924327D01*
X301564Y924319D01*
X301741Y924269D01*
X301917Y924217D01*
X301935Y924215D01*
X301952Y924211D01*
X302135Y924197D01*
X302318Y924181D01*
X302336Y924183D01*
X302353Y924181D01*
X302535Y924204D01*
X302718Y924224D01*
X302735Y924229D01*
X302753Y924232D01*
X302926Y924290D01*
X303102Y924346D01*
X303118Y924354D01*
X303134Y924360D01*
X303294Y924452D01*
X303454Y924540D01*
X303468Y924552D01*
X303483Y924561D01*
X303736Y924775D01*
X307374Y928413D01*
X312322Y930463D01*
X317678Y930463D01*
X322626Y928413D01*
X326264Y924775D01*
X326277Y924764D01*
X326289Y924751D01*
X326433Y924637D01*
X326575Y924520D01*
X326591Y924512D01*
X326605Y924501D01*
X326769Y924418D01*
X326931Y924332D01*
X326948Y924327D01*
X326964Y924319D01*
X327141Y924269D01*
X327317Y924217D01*
X327335Y924215D01*
X327352Y924211D01*
X327535Y924197D01*
X327718Y924181D01*
X327736Y924183D01*
X327753Y924181D01*
X327935Y924204D01*
X328118Y924224D01*
X328135Y924229D01*
X328153Y924232D01*
X328326Y924290D01*
X328502Y924346D01*
X328518Y924354D01*
X328534Y924360D01*
X328694Y924452D01*
X328854Y924540D01*
X328868Y924552D01*
X328883Y924561D01*
X329136Y924775D01*
X332774Y928413D01*
X337722Y930463D01*
X343078Y930463D01*
X348026Y928413D01*
X351664Y924775D01*
X351677Y924764D01*
X351689Y924751D01*
X351833Y924637D01*
X351975Y924520D01*
X351991Y924512D01*
X352005Y924501D01*
X352169Y924418D01*
X352331Y924332D01*
X352348Y924327D01*
X352364Y924319D01*
X352541Y924269D01*
X352717Y924217D01*
X352735Y924215D01*
X352752Y924211D01*
X352935Y924197D01*
X353118Y924181D01*
X353136Y924183D01*
X353153Y924181D01*
X353335Y924204D01*
X353518Y924224D01*
X353535Y924229D01*
X353553Y924232D01*
X353726Y924290D01*
X353902Y924346D01*
X353918Y924354D01*
X353934Y924360D01*
X354094Y924452D01*
X354254Y924540D01*
X354268Y924552D01*
X354283Y924561D01*
X354536Y924775D01*
X358174Y928413D01*
X363122Y930463D01*
X368478Y930463D01*
X373426Y928413D01*
X377064Y924775D01*
X377077Y924764D01*
X377089Y924751D01*
X377233Y924637D01*
X377375Y924520D01*
X377391Y924512D01*
X377405Y924501D01*
X377569Y924418D01*
X377731Y924332D01*
X377748Y924327D01*
X377764Y924319D01*
X377941Y924269D01*
X378117Y924217D01*
X378135Y924215D01*
X378152Y924211D01*
X378335Y924197D01*
X378518Y924181D01*
X378536Y924183D01*
X378553Y924181D01*
X378735Y924204D01*
X378918Y924224D01*
X378935Y924229D01*
X378953Y924232D01*
X379126Y924290D01*
X379302Y924346D01*
X379318Y924354D01*
X379334Y924360D01*
X379494Y924452D01*
X379654Y924540D01*
X379668Y924552D01*
X379683Y924561D01*
X379936Y924775D01*
X383574Y928413D01*
X388522Y930463D01*
X393878Y930463D01*
X398826Y928413D01*
X402464Y924775D01*
X402477Y924764D01*
X402489Y924751D01*
X402633Y924637D01*
X402775Y924520D01*
X402791Y924512D01*
X402805Y924501D01*
X402969Y924418D01*
X403131Y924332D01*
X403148Y924327D01*
X403164Y924319D01*
X403341Y924269D01*
X403517Y924217D01*
X403535Y924215D01*
X403552Y924211D01*
X403735Y924197D01*
X403918Y924181D01*
X403936Y924183D01*
X403953Y924181D01*
X404135Y924204D01*
X404318Y924224D01*
X404335Y924229D01*
X404353Y924232D01*
X404526Y924290D01*
X404702Y924346D01*
X404718Y924354D01*
X404734Y924360D01*
X404894Y924452D01*
X405054Y924540D01*
X405068Y924552D01*
X405083Y924561D01*
X405336Y924775D01*
X408974Y928413D01*
X413922Y930463D01*
X419278Y930463D01*
X424226Y928413D01*
X427864Y924775D01*
X427877Y924764D01*
X427889Y924751D01*
X428033Y924637D01*
X428175Y924520D01*
X428191Y924512D01*
X428205Y924501D01*
X428369Y924418D01*
X428531Y924332D01*
X428548Y924327D01*
X428564Y924319D01*
X428741Y924269D01*
X428917Y924217D01*
X428935Y924215D01*
X428952Y924211D01*
X429135Y924197D01*
X429318Y924181D01*
X429336Y924183D01*
X429353Y924181D01*
X429535Y924204D01*
X429718Y924224D01*
X429735Y924229D01*
X429753Y924232D01*
X429926Y924290D01*
X430102Y924346D01*
X430118Y924354D01*
X430134Y924360D01*
X430294Y924452D01*
X430454Y924540D01*
X430468Y924552D01*
X430483Y924561D01*
X430736Y924775D01*
X434374Y928413D01*
X439322Y930463D01*
X444678Y930463D01*
X449626Y928413D01*
X453264Y924775D01*
X453277Y924764D01*
X453289Y924751D01*
X453433Y924637D01*
X453575Y924520D01*
X453591Y924512D01*
X453605Y924501D01*
X453769Y924418D01*
X453931Y924332D01*
X453948Y924327D01*
X453964Y924319D01*
X454141Y924269D01*
X454317Y924217D01*
X454335Y924215D01*
X454352Y924211D01*
X454535Y924197D01*
X454718Y924181D01*
X454736Y924183D01*
X454753Y924181D01*
X454935Y924204D01*
X455118Y924224D01*
X455135Y924229D01*
X455153Y924232D01*
X455326Y924290D01*
X455502Y924346D01*
X455518Y924354D01*
X455534Y924360D01*
X455694Y924452D01*
X455854Y924540D01*
X455868Y924552D01*
X455883Y924561D01*
X456136Y924775D01*
X459774Y928413D01*
X464722Y930463D01*
X470078Y930463D01*
X475026Y928413D01*
X478664Y924775D01*
X478677Y924764D01*
X478689Y924751D01*
X478833Y924637D01*
X478975Y924520D01*
X478991Y924512D01*
X479005Y924501D01*
X479169Y924418D01*
X479331Y924332D01*
X479348Y924327D01*
X479364Y924319D01*
X479541Y924269D01*
X479717Y924217D01*
X479735Y924215D01*
X479752Y924211D01*
X479935Y924197D01*
X480118Y924181D01*
X480136Y924183D01*
X480153Y924181D01*
X480335Y924204D01*
X480518Y924224D01*
X480535Y924229D01*
X480553Y924232D01*
X480726Y924290D01*
X480902Y924346D01*
X480918Y924354D01*
X480934Y924360D01*
X481094Y924452D01*
X481254Y924540D01*
X481268Y924552D01*
X481283Y924561D01*
X481536Y924775D01*
X485174Y928413D01*
X490122Y930463D01*
X495478Y930463D01*
X500426Y928413D01*
X504213Y924626D01*
X504557Y923795D01*
X504639Y923643D01*
X504716Y923489D01*
X504734Y923466D01*
X504747Y923440D01*
X504857Y923307D01*
X504964Y923171D01*
X504986Y923152D01*
X505004Y923130D01*
X505138Y923021D01*
X505269Y922909D01*
X505294Y922894D01*
X505317Y922876D01*
X505469Y922796D01*
X505620Y922711D01*
X505648Y922703D01*
X505673Y922689D01*
X505839Y922641D01*
X506003Y922587D01*
X506032Y922584D01*
X506059Y922576D01*
X506232Y922561D01*
X506403Y922542D01*
X506432Y922544D01*
X506461Y922541D01*
X506632Y922561D01*
X506804Y922575D01*
X506832Y922583D01*
X506861Y922587D01*
X507025Y922639D01*
X507191Y922688D01*
X507216Y922701D01*
X507244Y922710D01*
X507394Y922794D01*
X507548Y922874D01*
X507570Y922892D01*
X507595Y922906D01*
X507726Y923018D01*
X507861Y923127D01*
X507882Y923151D01*
X507901Y923168D01*
X507954Y923235D01*
X508077Y923379D01*
X509094Y924778D01*
X510422Y926106D01*
X511943Y927211D01*
X513617Y928064D01*
X515404Y928645D01*
X515661Y928685D01*
X515661Y917508D01*
X515662Y917490D01*
X515661Y917473D01*
X515682Y917290D01*
X515701Y917108D01*
X515706Y917091D01*
X515708Y917073D01*
X515733Y916995D01*
X515694Y916858D01*
X515692Y916840D01*
X515688Y916823D01*
X515661Y916492D01*
X515661Y905315D01*
X515404Y905355D01*
X513617Y905936D01*
X511943Y906789D01*
X510422Y907894D01*
X509094Y909222D01*
X508077Y910621D01*
X507963Y910750D01*
X507851Y910883D01*
X507829Y910901D01*
X507809Y910922D01*
X507672Y911026D01*
X507536Y911134D01*
X507511Y911147D01*
X507488Y911164D01*
X507332Y911239D01*
X507178Y911317D01*
X507150Y911325D01*
X507124Y911338D01*
X506957Y911380D01*
X506791Y911427D01*
X506762Y911429D01*
X506734Y911436D01*
X506561Y911445D01*
X506389Y911458D01*
X506361Y911455D01*
X506332Y911456D01*
X506161Y911430D01*
X505990Y911410D01*
X505963Y911401D01*
X505934Y911396D01*
X505771Y911337D01*
X505608Y911283D01*
X505583Y911269D01*
X505555Y911259D01*
X505408Y911169D01*
X505258Y911084D01*
X505236Y911065D01*
X505211Y911050D01*
X505084Y910932D01*
X504954Y910819D01*
X504937Y910796D01*
X504915Y910777D01*
X504814Y910637D01*
X504709Y910500D01*
X504694Y910471D01*
X504679Y910451D01*
X504644Y910374D01*
X504557Y910205D01*
X504213Y909374D01*
X500426Y905587D01*
X495478Y903537D01*
X490122Y903537D01*
X485174Y905587D01*
X481536Y909225D01*
X481522Y909236D01*
X481511Y909249D01*
X481367Y909363D01*
X481225Y909480D01*
X481209Y909488D01*
X481195Y909499D01*
X481031Y909583D01*
X480869Y909668D01*
X480852Y909673D01*
X480836Y909681D01*
X480659Y909731D01*
X480483Y909783D01*
X480465Y909785D01*
X480448Y909789D01*
X480265Y909803D01*
X480082Y909819D01*
X480064Y909817D01*
X480047Y909819D01*
X479865Y909796D01*
X479682Y909776D01*
X479665Y909771D01*
X479647Y909768D01*
X479473Y909710D01*
X479298Y909654D01*
X479282Y909646D01*
X479266Y909640D01*
X479106Y909548D01*
X478946Y909460D01*
X478932Y909448D01*
X478917Y909439D01*
X478664Y909225D01*
X475026Y905587D01*
X470078Y903537D01*
X464722Y903537D01*
X459774Y905587D01*
X456136Y909225D01*
X456122Y909236D01*
X456111Y909249D01*
X455967Y909363D01*
X455825Y909480D01*
X455809Y909488D01*
X455795Y909499D01*
X455631Y909583D01*
X455469Y909668D01*
X455452Y909673D01*
X455436Y909681D01*
X455259Y909731D01*
X455083Y909783D01*
X455065Y909785D01*
X455048Y909789D01*
X454865Y909803D01*
X454682Y909819D01*
X454664Y909817D01*
X454647Y909819D01*
X454465Y909796D01*
X454282Y909776D01*
X454265Y909771D01*
X454247Y909768D01*
X454073Y909710D01*
X453898Y909654D01*
X453882Y909646D01*
X453866Y909640D01*
X453706Y909548D01*
X453546Y909460D01*
X453532Y909448D01*
X453517Y909439D01*
X453264Y909225D01*
X449626Y905587D01*
X444678Y903537D01*
X439322Y903537D01*
X434374Y905587D01*
X430736Y909225D01*
X430722Y909236D01*
X430711Y909249D01*
X430567Y909363D01*
X430425Y909480D01*
X430409Y909488D01*
X430395Y909499D01*
X430231Y909583D01*
X430069Y909668D01*
X430052Y909673D01*
X430036Y909681D01*
X429859Y909731D01*
X429683Y909783D01*
X429665Y909785D01*
X429648Y909789D01*
X429465Y909803D01*
X429282Y909819D01*
X429264Y909817D01*
X429247Y909819D01*
X429065Y909796D01*
X428882Y909776D01*
X428865Y909771D01*
X428847Y909768D01*
X428673Y909710D01*
X428498Y909654D01*
X428482Y909646D01*
X428466Y909640D01*
X428306Y909548D01*
X428146Y909460D01*
X428132Y909448D01*
X428117Y909439D01*
X427864Y909225D01*
X424226Y905587D01*
X419278Y903537D01*
X413922Y903537D01*
X408974Y905587D01*
X405336Y909225D01*
X405322Y909236D01*
X405311Y909249D01*
X405167Y909363D01*
X405025Y909480D01*
X405009Y909488D01*
X404995Y909499D01*
X404831Y909583D01*
X404669Y909668D01*
X404652Y909673D01*
X404636Y909681D01*
X404459Y909731D01*
X404283Y909783D01*
X404265Y909785D01*
X404248Y909789D01*
X404065Y909803D01*
X403882Y909819D01*
X403864Y909817D01*
X403847Y909819D01*
X403665Y909796D01*
X403482Y909776D01*
X403465Y909771D01*
X403447Y909768D01*
X403273Y909710D01*
X403098Y909654D01*
X403082Y909646D01*
X403066Y909640D01*
X402906Y909548D01*
X402746Y909460D01*
X402732Y909448D01*
X402717Y909439D01*
X402464Y909225D01*
X398826Y905587D01*
X393878Y903537D01*
X388522Y903537D01*
X383574Y905587D01*
X379936Y909225D01*
X379922Y909236D01*
X379911Y909249D01*
X379767Y909363D01*
X379625Y909480D01*
X379609Y909488D01*
X379595Y909499D01*
X379431Y909583D01*
X379269Y909668D01*
X379252Y909673D01*
X379236Y909681D01*
X379059Y909731D01*
X378883Y909783D01*
X378865Y909785D01*
X378848Y909789D01*
X378665Y909803D01*
X378482Y909819D01*
X378464Y909817D01*
X378447Y909819D01*
X378265Y909796D01*
X378082Y909776D01*
X378065Y909771D01*
X378047Y909768D01*
X377873Y909710D01*
X377698Y909654D01*
X377682Y909646D01*
X377666Y909640D01*
X377506Y909548D01*
X377346Y909460D01*
X377332Y909448D01*
X377317Y909439D01*
X377064Y909225D01*
X373426Y905587D01*
X368478Y903537D01*
X363122Y903537D01*
X358174Y905587D01*
X354536Y909225D01*
X354522Y909236D01*
X354511Y909249D01*
X354367Y909363D01*
X354225Y909480D01*
X354209Y909488D01*
X354195Y909499D01*
X354031Y909583D01*
X353869Y909668D01*
X353852Y909673D01*
X353836Y909681D01*
X353659Y909731D01*
X353483Y909783D01*
X353465Y909785D01*
X353448Y909789D01*
X353265Y909803D01*
X353082Y909819D01*
X353064Y909817D01*
X353047Y909819D01*
X352865Y909796D01*
X352682Y909776D01*
X352665Y909771D01*
X352647Y909768D01*
X352473Y909710D01*
X352298Y909654D01*
X352282Y909646D01*
X352266Y909640D01*
X352106Y909548D01*
X351946Y909460D01*
X351932Y909448D01*
X351917Y909439D01*
X351664Y909225D01*
X348026Y905587D01*
X343078Y903537D01*
X337722Y903537D01*
X332774Y905587D01*
X329136Y909225D01*
X329122Y909236D01*
X329111Y909249D01*
X328967Y909363D01*
X328825Y909480D01*
X328809Y909488D01*
X328795Y909499D01*
X328631Y909583D01*
X328469Y909668D01*
X328452Y909673D01*
X328436Y909681D01*
X328259Y909731D01*
X328083Y909783D01*
X328065Y909785D01*
X328048Y909789D01*
X327865Y909803D01*
X327682Y909819D01*
X327664Y909817D01*
X327647Y909819D01*
X327465Y909796D01*
X327282Y909776D01*
X327265Y909771D01*
X327247Y909768D01*
X327073Y909710D01*
X326898Y909654D01*
X326882Y909646D01*
X326866Y909640D01*
X326706Y909548D01*
X326546Y909460D01*
X326532Y909448D01*
X326517Y909439D01*
X326264Y909225D01*
X322626Y905587D01*
X317678Y903537D01*
X312322Y903537D01*
X307374Y905587D01*
X303736Y909225D01*
X303722Y909236D01*
X303711Y909249D01*
X303567Y909363D01*
X303425Y909480D01*
X303409Y909488D01*
X303395Y909499D01*
X303231Y909583D01*
X303069Y909668D01*
X303052Y909673D01*
X303036Y909681D01*
X302859Y909731D01*
X302683Y909783D01*
X302665Y909785D01*
X302648Y909789D01*
X302465Y909803D01*
X302282Y909819D01*
X302264Y909817D01*
X302247Y909819D01*
X302065Y909796D01*
X301882Y909776D01*
X301865Y909771D01*
X301847Y909768D01*
X301673Y909710D01*
X301498Y909654D01*
X301482Y909646D01*
X301466Y909640D01*
X301306Y909548D01*
X301146Y909460D01*
X301132Y909448D01*
X301117Y909439D01*
X300864Y909225D01*
X297226Y905587D01*
X292278Y903537D01*
X286922Y903537D01*
X281974Y905587D01*
X278336Y909225D01*
X278322Y909236D01*
X278311Y909249D01*
X278167Y909363D01*
X278025Y909480D01*
X278009Y909488D01*
X277995Y909499D01*
X277831Y909583D01*
X277669Y909668D01*
X277652Y909673D01*
X277636Y909681D01*
X277459Y909731D01*
X277283Y909783D01*
X277265Y909785D01*
X277248Y909789D01*
X277065Y909803D01*
X276882Y909819D01*
X276864Y909817D01*
X276847Y909819D01*
X276665Y909796D01*
X276482Y909776D01*
X276465Y909771D01*
X276447Y909768D01*
X276273Y909710D01*
X276098Y909654D01*
X276082Y909646D01*
X276066Y909640D01*
X275906Y909548D01*
X275746Y909460D01*
X275732Y909448D01*
X275717Y909439D01*
X275464Y909225D01*
X271826Y905587D01*
X266878Y903537D01*
X261522Y903537D01*
G37*
%LPD*%
%LPC*%
G36*
X493809Y284606D02*
X493809Y284606D01*
X491055Y285747D01*
X490378Y286424D01*
X490357Y286441D01*
X490340Y286462D01*
X490202Y286569D01*
X490066Y286679D01*
X490043Y286692D01*
X490022Y286708D01*
X489865Y286786D01*
X489711Y286868D01*
X489685Y286876D01*
X489661Y286888D01*
X489492Y286933D01*
X489325Y286983D01*
X489298Y286985D01*
X489272Y286992D01*
X488942Y287019D01*
X481589Y287019D01*
X479722Y287793D01*
X430290Y337224D01*
X430270Y337241D01*
X430252Y337262D01*
X430114Y337369D01*
X429979Y337479D01*
X429955Y337492D01*
X429934Y337508D01*
X429777Y337586D01*
X429623Y337668D01*
X429598Y337676D01*
X429574Y337688D01*
X429404Y337733D01*
X429237Y337783D01*
X429211Y337785D01*
X429185Y337792D01*
X428854Y337819D01*
X417806Y337819D01*
X417714Y337810D01*
X417620Y337811D01*
X417514Y337790D01*
X417406Y337779D01*
X417317Y337752D01*
X417225Y337734D01*
X417125Y337693D01*
X417021Y337661D01*
X416939Y337617D01*
X416853Y337581D01*
X416762Y337521D01*
X416667Y337469D01*
X416595Y337410D01*
X416518Y337358D01*
X416441Y337281D01*
X416357Y337212D01*
X416299Y337139D01*
X416233Y337073D01*
X416173Y336983D01*
X416105Y336898D01*
X416062Y336815D01*
X416011Y336738D01*
X415970Y336637D01*
X415920Y336541D01*
X415894Y336451D01*
X415859Y336365D01*
X415838Y336258D01*
X415808Y336154D01*
X415801Y336061D01*
X415783Y335969D01*
X415784Y335861D01*
X415775Y335752D01*
X415786Y335660D01*
X415787Y335567D01*
X415810Y335460D01*
X415822Y335353D01*
X415851Y335264D01*
X415870Y335173D01*
X415921Y335049D01*
X415947Y334970D01*
X415972Y334927D01*
X415996Y334866D01*
X416287Y334295D01*
X416806Y332698D01*
X416845Y332449D01*
X406618Y332449D01*
X406600Y332447D01*
X406583Y332449D01*
X406400Y332428D01*
X406218Y332409D01*
X406201Y332404D01*
X406183Y332402D01*
X406008Y332345D01*
X405833Y332291D01*
X405817Y332283D01*
X405800Y332277D01*
X405640Y332187D01*
X405479Y332099D01*
X405465Y332088D01*
X405449Y332079D01*
X405309Y331958D01*
X405169Y331842D01*
X405158Y331828D01*
X405145Y331816D01*
X405032Y331671D01*
X405002Y331633D01*
X404874Y331523D01*
X404733Y331405D01*
X404722Y331392D01*
X404708Y331380D01*
X404596Y331235D01*
X404481Y331092D01*
X404473Y331076D01*
X404462Y331062D01*
X404380Y330897D01*
X404295Y330734D01*
X404290Y330717D01*
X404282Y330701D01*
X404234Y330523D01*
X404184Y330348D01*
X404182Y330330D01*
X404178Y330313D01*
X404151Y329982D01*
X404151Y319755D01*
X403902Y319794D01*
X402305Y320313D01*
X400808Y321075D01*
X399450Y322062D01*
X398262Y323250D01*
X397275Y324608D01*
X396513Y326105D01*
X396451Y326296D01*
X396415Y326377D01*
X396389Y326462D01*
X396334Y326561D01*
X396289Y326665D01*
X396238Y326737D01*
X396195Y326815D01*
X396123Y326902D01*
X396058Y326994D01*
X395993Y327055D01*
X395936Y327123D01*
X395848Y327194D01*
X395766Y327272D01*
X395691Y327319D01*
X395621Y327374D01*
X395521Y327426D01*
X395425Y327486D01*
X395342Y327518D01*
X395263Y327558D01*
X395155Y327589D01*
X395049Y327629D01*
X394961Y327644D01*
X394876Y327668D01*
X394763Y327677D01*
X394652Y327695D01*
X394563Y327692D01*
X394474Y327699D01*
X394362Y327685D01*
X394249Y327682D01*
X394163Y327661D01*
X394075Y327650D01*
X393968Y327615D01*
X393858Y327589D01*
X393777Y327552D01*
X393693Y327524D01*
X393594Y327468D01*
X393492Y327421D01*
X393420Y327369D01*
X393343Y327325D01*
X393258Y327250D01*
X393166Y327184D01*
X393106Y327118D01*
X393039Y327060D01*
X392970Y326970D01*
X392894Y326887D01*
X392848Y326811D01*
X392794Y326741D01*
X392729Y326615D01*
X392685Y326543D01*
X392670Y326499D01*
X392642Y326446D01*
X391337Y323293D01*
X387907Y319863D01*
X383425Y318007D01*
X378575Y318007D01*
X374093Y319863D01*
X370663Y323293D01*
X368807Y327775D01*
X368807Y332625D01*
X370663Y337107D01*
X374093Y340537D01*
X375269Y341023D01*
X375277Y341028D01*
X375285Y341030D01*
X375456Y341124D01*
X375624Y341214D01*
X375630Y341219D01*
X375638Y341224D01*
X375787Y341348D01*
X375934Y341470D01*
X375940Y341477D01*
X375947Y341483D01*
X376066Y341633D01*
X376188Y341783D01*
X376192Y341791D01*
X376198Y341798D01*
X376286Y341969D01*
X376375Y342139D01*
X376377Y342148D01*
X376381Y342156D01*
X376434Y342341D01*
X376488Y342526D01*
X376489Y342534D01*
X376491Y342543D01*
X376506Y342736D01*
X376523Y342927D01*
X376522Y342936D01*
X376522Y342944D01*
X376499Y343136D01*
X376477Y343327D01*
X376475Y343335D01*
X376474Y343344D01*
X376413Y343526D01*
X376354Y343710D01*
X376350Y343718D01*
X376347Y343726D01*
X376253Y343891D01*
X376158Y344062D01*
X376152Y344068D01*
X376148Y344076D01*
X376021Y344221D01*
X375896Y344367D01*
X375889Y344373D01*
X375883Y344380D01*
X375731Y344497D01*
X375579Y344616D01*
X375571Y344620D01*
X375564Y344625D01*
X375269Y344777D01*
X374093Y345264D01*
X370663Y348693D01*
X368807Y353175D01*
X368807Y358025D01*
X370663Y362507D01*
X374093Y365936D01*
X375269Y366423D01*
X375277Y366428D01*
X375285Y366430D01*
X375453Y366522D01*
X375624Y366614D01*
X375631Y366619D01*
X375638Y366624D01*
X375786Y366747D01*
X375934Y366870D01*
X375940Y366877D01*
X375947Y366883D01*
X376066Y367032D01*
X376188Y367183D01*
X376192Y367191D01*
X376197Y367197D01*
X376285Y367368D01*
X376375Y367539D01*
X376377Y367548D01*
X376381Y367556D01*
X376433Y367739D01*
X376488Y367925D01*
X376489Y367935D01*
X376491Y367943D01*
X376506Y368134D01*
X376523Y368327D01*
X376522Y368335D01*
X376522Y368344D01*
X376499Y368534D01*
X376477Y368727D01*
X376475Y368735D01*
X376474Y368744D01*
X376413Y368927D01*
X376354Y369110D01*
X376350Y369118D01*
X376347Y369126D01*
X376251Y369294D01*
X376158Y369461D01*
X376152Y369468D01*
X376148Y369476D01*
X376021Y369621D01*
X375896Y369767D01*
X375889Y369773D01*
X375883Y369780D01*
X375730Y369897D01*
X375579Y370016D01*
X375571Y370020D01*
X375564Y370025D01*
X375269Y370177D01*
X374093Y370663D01*
X370663Y374093D01*
X368807Y378575D01*
X368807Y383425D01*
X370663Y387907D01*
X374093Y391337D01*
X374665Y391573D01*
X374685Y391584D01*
X374706Y391591D01*
X374862Y391679D01*
X375020Y391764D01*
X375037Y391778D01*
X375057Y391789D01*
X375192Y391906D01*
X375331Y392020D01*
X375345Y392037D01*
X375362Y392052D01*
X375471Y392193D01*
X375584Y392333D01*
X375595Y392352D01*
X375608Y392370D01*
X375688Y392531D01*
X375771Y392689D01*
X375778Y392710D01*
X375788Y392731D01*
X375834Y392904D01*
X375884Y393076D01*
X375886Y393098D01*
X375892Y393119D01*
X375919Y393450D01*
X375919Y394711D01*
X376693Y396578D01*
X390822Y410707D01*
X392689Y411481D01*
X420111Y411481D01*
X421978Y410707D01*
X436107Y396578D01*
X436881Y394711D01*
X436881Y387358D01*
X436883Y387332D01*
X436881Y387305D01*
X436903Y387131D01*
X436921Y386958D01*
X436928Y386932D01*
X436932Y386906D01*
X436987Y386740D01*
X437039Y386573D01*
X437052Y386549D01*
X437060Y386524D01*
X437147Y386372D01*
X437231Y386219D01*
X437248Y386198D01*
X437261Y386175D01*
X437476Y385922D01*
X438153Y385245D01*
X439294Y382491D01*
X439294Y379509D01*
X438153Y376755D01*
X436045Y374647D01*
X433503Y373594D01*
X433291Y373506D01*
X430309Y373506D01*
X427555Y374647D01*
X425447Y376755D01*
X424306Y379509D01*
X424306Y382491D01*
X425447Y385245D01*
X426124Y385922D01*
X426141Y385943D01*
X426162Y385960D01*
X426268Y386098D01*
X426379Y386234D01*
X426392Y386257D01*
X426408Y386278D01*
X426486Y386435D01*
X426568Y386589D01*
X426576Y386615D01*
X426588Y386639D01*
X426633Y386808D01*
X426683Y386975D01*
X426685Y387002D01*
X426692Y387028D01*
X426719Y387358D01*
X426719Y390754D01*
X426717Y390781D01*
X426719Y390807D01*
X426697Y390981D01*
X426679Y391155D01*
X426672Y391180D01*
X426668Y391207D01*
X426613Y391373D01*
X426561Y391540D01*
X426548Y391563D01*
X426540Y391589D01*
X426453Y391740D01*
X426369Y391894D01*
X426352Y391914D01*
X426339Y391937D01*
X426124Y392190D01*
X417590Y400724D01*
X417570Y400741D01*
X417552Y400762D01*
X417414Y400869D01*
X417279Y400979D01*
X417255Y400992D01*
X417234Y401008D01*
X417077Y401086D01*
X416923Y401168D01*
X416898Y401176D01*
X416874Y401188D01*
X416704Y401233D01*
X416537Y401283D01*
X416511Y401285D01*
X416485Y401292D01*
X416154Y401319D01*
X396646Y401319D01*
X396619Y401317D01*
X396593Y401319D01*
X396419Y401297D01*
X396245Y401279D01*
X396220Y401272D01*
X396193Y401268D01*
X396027Y401213D01*
X395860Y401161D01*
X395837Y401148D01*
X395811Y401140D01*
X395660Y401053D01*
X395506Y400969D01*
X395486Y400952D01*
X395463Y400939D01*
X395210Y400724D01*
X388300Y393815D01*
X388289Y393801D01*
X388276Y393790D01*
X388162Y393646D01*
X388045Y393504D01*
X388037Y393488D01*
X388026Y393474D01*
X387942Y393309D01*
X387857Y393148D01*
X387852Y393131D01*
X387844Y393115D01*
X387794Y392937D01*
X387742Y392762D01*
X387740Y392744D01*
X387736Y392727D01*
X387722Y392544D01*
X387706Y392361D01*
X387708Y392343D01*
X387706Y392326D01*
X387729Y392144D01*
X387749Y391961D01*
X387754Y391944D01*
X387757Y391926D01*
X387815Y391752D01*
X387871Y391577D01*
X387879Y391561D01*
X387885Y391544D01*
X387977Y391385D01*
X388065Y391225D01*
X388077Y391211D01*
X388086Y391196D01*
X388300Y390943D01*
X391337Y387907D01*
X391823Y386731D01*
X391828Y386723D01*
X391830Y386715D01*
X391924Y386544D01*
X392014Y386376D01*
X392019Y386370D01*
X392024Y386362D01*
X392148Y386213D01*
X392270Y386066D01*
X392277Y386060D01*
X392283Y386053D01*
X392433Y385934D01*
X392583Y385812D01*
X392591Y385808D01*
X392598Y385802D01*
X392769Y385714D01*
X392939Y385625D01*
X392948Y385623D01*
X392956Y385619D01*
X393141Y385566D01*
X393326Y385512D01*
X393334Y385511D01*
X393343Y385509D01*
X393536Y385494D01*
X393727Y385477D01*
X393736Y385478D01*
X393744Y385478D01*
X393936Y385501D01*
X394127Y385523D01*
X394135Y385525D01*
X394144Y385526D01*
X394326Y385587D01*
X394510Y385646D01*
X394518Y385650D01*
X394526Y385653D01*
X394693Y385748D01*
X394862Y385842D01*
X394868Y385848D01*
X394876Y385852D01*
X395021Y385979D01*
X395167Y386104D01*
X395173Y386111D01*
X395180Y386117D01*
X395298Y386270D01*
X395416Y386421D01*
X395420Y386429D01*
X395425Y386436D01*
X395577Y386731D01*
X396064Y387907D01*
X399493Y391337D01*
X403975Y393193D01*
X408825Y393193D01*
X413307Y391337D01*
X416737Y387907D01*
X418593Y383425D01*
X418593Y378575D01*
X416737Y374093D01*
X413307Y370663D01*
X412131Y370177D01*
X412123Y370172D01*
X412115Y370170D01*
X411944Y370076D01*
X411776Y369986D01*
X411770Y369981D01*
X411762Y369976D01*
X411613Y369852D01*
X411466Y369730D01*
X411460Y369723D01*
X411453Y369717D01*
X411334Y369567D01*
X411212Y369417D01*
X411208Y369409D01*
X411202Y369402D01*
X411114Y369231D01*
X411025Y369061D01*
X411023Y369052D01*
X411019Y369044D01*
X410966Y368859D01*
X410912Y368674D01*
X410911Y368666D01*
X410909Y368657D01*
X410894Y368464D01*
X410877Y368273D01*
X410878Y368264D01*
X410878Y368256D01*
X410901Y368064D01*
X410923Y367873D01*
X410925Y367865D01*
X410926Y367856D01*
X410987Y367674D01*
X411046Y367490D01*
X411050Y367482D01*
X411053Y367474D01*
X411148Y367307D01*
X411242Y367138D01*
X411248Y367132D01*
X411252Y367124D01*
X411379Y366979D01*
X411504Y366833D01*
X411511Y366827D01*
X411517Y366820D01*
X411670Y366702D01*
X411821Y366584D01*
X411829Y366580D01*
X411836Y366575D01*
X412131Y366423D01*
X413307Y365936D01*
X416737Y362507D01*
X416973Y361935D01*
X416984Y361915D01*
X416991Y361894D01*
X417079Y361738D01*
X417164Y361580D01*
X417178Y361563D01*
X417189Y361543D01*
X417306Y361408D01*
X417420Y361269D01*
X417437Y361255D01*
X417452Y361238D01*
X417593Y361129D01*
X417733Y361016D01*
X417752Y361005D01*
X417770Y360992D01*
X417931Y360912D01*
X418089Y360829D01*
X418110Y360822D01*
X418131Y360812D01*
X418304Y360766D01*
X418476Y360716D01*
X418498Y360714D01*
X418519Y360708D01*
X418850Y360681D01*
X458211Y360681D01*
X460078Y359907D01*
X468997Y350989D01*
X469017Y350972D01*
X469035Y350951D01*
X469173Y350844D01*
X469308Y350734D01*
X469332Y350721D01*
X469353Y350705D01*
X469510Y350627D01*
X469664Y350545D01*
X469689Y350537D01*
X469713Y350525D01*
X469883Y350480D01*
X470050Y350430D01*
X470076Y350428D01*
X470102Y350421D01*
X470433Y350394D01*
X471391Y350394D01*
X474145Y349253D01*
X476253Y347145D01*
X477394Y344391D01*
X477394Y341409D01*
X476253Y338655D01*
X474145Y336547D01*
X471391Y335406D01*
X468409Y335406D01*
X465655Y336547D01*
X463547Y338655D01*
X462406Y341409D01*
X462406Y342367D01*
X462404Y342394D01*
X462406Y342420D01*
X462384Y342594D01*
X462366Y342768D01*
X462359Y342793D01*
X462355Y342820D01*
X462300Y342986D01*
X462248Y343153D01*
X462235Y343176D01*
X462227Y343202D01*
X462140Y343353D01*
X462056Y343507D01*
X462039Y343527D01*
X462026Y343550D01*
X461811Y343803D01*
X455690Y349924D01*
X455670Y349941D01*
X455652Y349962D01*
X455514Y350069D01*
X455379Y350179D01*
X455355Y350192D01*
X455334Y350208D01*
X455177Y350286D01*
X455023Y350368D01*
X454998Y350376D01*
X454974Y350388D01*
X454804Y350433D01*
X454637Y350483D01*
X454611Y350485D01*
X454585Y350492D01*
X454254Y350519D01*
X436270Y350519D01*
X436261Y350518D01*
X436252Y350519D01*
X436059Y350498D01*
X435869Y350479D01*
X435861Y350477D01*
X435852Y350476D01*
X435667Y350417D01*
X435484Y350361D01*
X435476Y350357D01*
X435468Y350354D01*
X435300Y350261D01*
X435130Y350169D01*
X435123Y350164D01*
X435116Y350159D01*
X434969Y350035D01*
X434821Y349912D01*
X434815Y349905D01*
X434809Y349899D01*
X434689Y349747D01*
X434569Y349598D01*
X434565Y349590D01*
X434559Y349583D01*
X434471Y349410D01*
X434383Y349241D01*
X434381Y349232D01*
X434377Y349224D01*
X434325Y349038D01*
X434272Y348854D01*
X434271Y348845D01*
X434269Y348836D01*
X434255Y348643D01*
X434239Y348452D01*
X434240Y348444D01*
X434239Y348435D01*
X434264Y348242D01*
X434286Y348053D01*
X434289Y348044D01*
X434290Y348035D01*
X434351Y347853D01*
X434411Y347670D01*
X434415Y347662D01*
X434418Y347654D01*
X434514Y347487D01*
X434609Y347319D01*
X434614Y347312D01*
X434619Y347305D01*
X434834Y347052D01*
X484110Y297776D01*
X484130Y297759D01*
X484148Y297738D01*
X484286Y297631D01*
X484421Y297521D01*
X484445Y297508D01*
X484466Y297492D01*
X484623Y297414D01*
X484777Y297332D01*
X484802Y297324D01*
X484826Y297312D01*
X484996Y297267D01*
X485163Y297217D01*
X485189Y297215D01*
X485215Y297208D01*
X485546Y297181D01*
X488942Y297181D01*
X488968Y297183D01*
X488995Y297181D01*
X489169Y297203D01*
X489342Y297221D01*
X489368Y297228D01*
X489394Y297232D01*
X489560Y297287D01*
X489727Y297339D01*
X489751Y297352D01*
X489776Y297360D01*
X489928Y297447D01*
X490081Y297531D01*
X490102Y297548D01*
X490125Y297561D01*
X490378Y297776D01*
X491055Y298453D01*
X493809Y299594D01*
X496791Y299594D01*
X499545Y298453D01*
X501653Y296345D01*
X502794Y293591D01*
X502794Y290609D01*
X501653Y287855D01*
X499545Y285747D01*
X496791Y284606D01*
X493809Y284606D01*
G37*
%LPD*%
%LPC*%
G36*
X79663Y59663D02*
X79663Y59663D01*
X79663Y81851D01*
X80053Y81807D01*
X81797Y81409D01*
X81832Y81405D01*
X81865Y81394D01*
X82031Y81379D01*
X82196Y81359D01*
X82231Y81361D01*
X82266Y81358D01*
X82432Y81376D01*
X82598Y81388D01*
X82632Y81398D01*
X82667Y81402D01*
X82825Y81452D01*
X82985Y81496D01*
X83017Y81512D01*
X83051Y81523D01*
X83196Y81604D01*
X83344Y81679D01*
X83372Y81701D01*
X83403Y81718D01*
X83530Y81825D01*
X83660Y81929D01*
X83683Y81956D01*
X83710Y81978D01*
X83813Y82109D01*
X83921Y82236D01*
X83938Y82267D01*
X83959Y82294D01*
X84035Y82443D01*
X84115Y82588D01*
X84126Y82622D01*
X84142Y82653D01*
X84186Y82813D01*
X84237Y82972D01*
X84240Y83007D01*
X84250Y83041D01*
X84262Y83207D01*
X84280Y83372D01*
X84277Y83407D01*
X84279Y83443D01*
X84258Y83608D01*
X84243Y83773D01*
X84233Y83807D01*
X84229Y83842D01*
X84176Y84000D01*
X84128Y84159D01*
X84112Y84190D01*
X84101Y84224D01*
X84017Y84368D01*
X83940Y84515D01*
X83917Y84542D01*
X83900Y84573D01*
X83685Y84826D01*
X83143Y85368D01*
X79448Y91767D01*
X77535Y98905D01*
X77535Y106295D01*
X79448Y113433D01*
X83143Y119832D01*
X88368Y125057D01*
X94767Y128752D01*
X101905Y130665D01*
X109295Y130665D01*
X116433Y128752D01*
X122832Y125057D01*
X128057Y119832D01*
X131752Y113433D01*
X133665Y106295D01*
X133665Y98905D01*
X131752Y91767D01*
X128057Y85368D01*
X122832Y80143D01*
X116433Y76448D01*
X109295Y74535D01*
X101905Y74535D01*
X98382Y75479D01*
X98224Y75505D01*
X98066Y75538D01*
X98025Y75538D01*
X97985Y75544D01*
X97824Y75539D01*
X97664Y75539D01*
X97623Y75531D01*
X97582Y75530D01*
X97426Y75493D01*
X97269Y75462D01*
X97231Y75446D01*
X97191Y75436D01*
X97045Y75369D01*
X96897Y75307D01*
X96863Y75285D01*
X96825Y75267D01*
X96696Y75173D01*
X96562Y75083D01*
X96533Y75054D01*
X96501Y75030D01*
X96392Y74911D01*
X96279Y74797D01*
X96256Y74763D01*
X96229Y74733D01*
X96146Y74595D01*
X96058Y74461D01*
X96042Y74423D01*
X96021Y74388D01*
X95967Y74236D01*
X95907Y74087D01*
X95899Y74047D01*
X95885Y74009D01*
X95862Y73850D01*
X95833Y73692D01*
X95833Y73651D01*
X95827Y73610D01*
X95836Y73449D01*
X95838Y73289D01*
X95847Y73249D01*
X95849Y73208D01*
X95889Y73052D01*
X95923Y72895D01*
X95939Y72858D01*
X95949Y72818D01*
X96019Y72674D01*
X96083Y72526D01*
X96109Y72488D01*
X96125Y72456D01*
X96177Y72387D01*
X96268Y72251D01*
X97280Y70982D01*
X98866Y68459D01*
X100159Y65773D01*
X101144Y62959D01*
X101807Y60053D01*
X101851Y59663D01*
X79663Y59663D01*
G37*
%LPD*%
%LPC*%
G36*
X840956Y432815D02*
X840956Y432815D01*
X836661Y434594D01*
X833374Y437881D01*
X831595Y442176D01*
X831595Y446824D01*
X833374Y451119D01*
X836661Y454406D01*
X838482Y455160D01*
X838876Y455323D01*
X838884Y455328D01*
X838893Y455330D01*
X839063Y455423D01*
X839231Y455514D01*
X839238Y455519D01*
X839246Y455524D01*
X839394Y455648D01*
X839542Y455770D01*
X839547Y455777D01*
X839554Y455783D01*
X839674Y455933D01*
X839795Y456083D01*
X839799Y456091D01*
X839805Y456098D01*
X839892Y456267D01*
X839982Y456439D01*
X839985Y456448D01*
X839989Y456456D01*
X840041Y456638D01*
X840095Y456826D01*
X840096Y456835D01*
X840099Y456843D01*
X840113Y457033D01*
X840130Y457227D01*
X840129Y457236D01*
X840130Y457244D01*
X840106Y457435D01*
X840085Y457627D01*
X840082Y457635D01*
X840081Y457644D01*
X840021Y457826D01*
X839962Y458010D01*
X839957Y458018D01*
X839954Y458026D01*
X839859Y458194D01*
X839765Y458362D01*
X839760Y458368D01*
X839755Y458376D01*
X839628Y458522D01*
X839503Y458667D01*
X839496Y458673D01*
X839491Y458680D01*
X839338Y458797D01*
X839186Y458916D01*
X839178Y458920D01*
X839171Y458925D01*
X838876Y459077D01*
X836661Y459994D01*
X833374Y463281D01*
X831595Y467576D01*
X831595Y472224D01*
X833374Y476519D01*
X836661Y479806D01*
X838876Y480723D01*
X838884Y480728D01*
X838893Y480730D01*
X839063Y480823D01*
X839231Y480914D01*
X839238Y480919D01*
X839246Y480924D01*
X839394Y481048D01*
X839542Y481170D01*
X839547Y481177D01*
X839554Y481183D01*
X839674Y481333D01*
X839795Y481483D01*
X839799Y481491D01*
X839805Y481498D01*
X839892Y481667D01*
X839982Y481839D01*
X839985Y481848D01*
X839989Y481856D01*
X840040Y482037D01*
X840095Y482226D01*
X840096Y482235D01*
X840099Y482243D01*
X840113Y482434D01*
X840130Y482627D01*
X840129Y482636D01*
X840130Y482644D01*
X840106Y482835D01*
X840085Y483027D01*
X840082Y483035D01*
X840081Y483044D01*
X840021Y483226D01*
X839962Y483410D01*
X839957Y483418D01*
X839954Y483426D01*
X839859Y483594D01*
X839765Y483762D01*
X839760Y483768D01*
X839755Y483776D01*
X839628Y483922D01*
X839503Y484067D01*
X839496Y484073D01*
X839491Y484080D01*
X839338Y484197D01*
X839186Y484316D01*
X839178Y484320D01*
X839171Y484325D01*
X838876Y484477D01*
X836661Y485394D01*
X833374Y488681D01*
X831595Y492976D01*
X831595Y497624D01*
X833374Y501919D01*
X836661Y505206D01*
X838437Y505941D01*
X838437Y505942D01*
X840956Y506985D01*
X860844Y506985D01*
X865139Y505206D01*
X868426Y501919D01*
X870205Y497624D01*
X870205Y492976D01*
X868426Y488681D01*
X865139Y485394D01*
X862924Y484477D01*
X862916Y484472D01*
X862907Y484470D01*
X862739Y484378D01*
X862569Y484286D01*
X862562Y484281D01*
X862554Y484276D01*
X862408Y484153D01*
X862259Y484030D01*
X862253Y484023D01*
X862246Y484017D01*
X862126Y483867D01*
X862005Y483717D01*
X862001Y483709D01*
X861995Y483703D01*
X861907Y483532D01*
X861818Y483361D01*
X861815Y483352D01*
X861811Y483344D01*
X861759Y483160D01*
X861705Y482974D01*
X861704Y482966D01*
X861701Y482957D01*
X861687Y482765D01*
X861670Y482573D01*
X861671Y482564D01*
X861670Y482556D01*
X861693Y482366D01*
X861715Y482173D01*
X861718Y482165D01*
X861719Y482156D01*
X861780Y481972D01*
X861838Y481790D01*
X861843Y481782D01*
X861845Y481774D01*
X861941Y481606D01*
X862035Y481438D01*
X862041Y481432D01*
X862045Y481424D01*
X862171Y481279D01*
X862297Y481133D01*
X862304Y481127D01*
X862309Y481120D01*
X862463Y481003D01*
X862614Y480884D01*
X862621Y480880D01*
X862629Y480875D01*
X862924Y480723D01*
X865139Y479806D01*
X868426Y476519D01*
X870205Y472224D01*
X870205Y467576D01*
X868426Y463281D01*
X865139Y459994D01*
X862924Y459077D01*
X862916Y459072D01*
X862907Y459070D01*
X862739Y458978D01*
X862569Y458886D01*
X862562Y458881D01*
X862554Y458876D01*
X862408Y458753D01*
X862259Y458630D01*
X862253Y458623D01*
X862246Y458617D01*
X862126Y458467D01*
X862005Y458317D01*
X862001Y458309D01*
X861995Y458303D01*
X861907Y458131D01*
X861818Y457961D01*
X861815Y457952D01*
X861811Y457944D01*
X861759Y457760D01*
X861705Y457574D01*
X861704Y457566D01*
X861701Y457557D01*
X861687Y457366D01*
X861670Y457173D01*
X861671Y457164D01*
X861670Y457156D01*
X861693Y456966D01*
X861715Y456773D01*
X861718Y456765D01*
X861719Y456756D01*
X861780Y456572D01*
X861838Y456390D01*
X861843Y456382D01*
X861845Y456374D01*
X861942Y456204D01*
X862035Y456038D01*
X862040Y456032D01*
X862045Y456024D01*
X862171Y455879D01*
X862297Y455733D01*
X862304Y455727D01*
X862309Y455720D01*
X862463Y455603D01*
X862614Y455484D01*
X862621Y455480D01*
X862629Y455475D01*
X862924Y455323D01*
X865139Y454406D01*
X868426Y451119D01*
X870205Y446824D01*
X870205Y442176D01*
X868426Y437881D01*
X865139Y434594D01*
X860844Y432815D01*
X840956Y432815D01*
G37*
%LPD*%
%LPC*%
G36*
X159922Y903537D02*
X159922Y903537D01*
X154974Y905587D01*
X152504Y908056D01*
X152391Y908149D01*
X152283Y908248D01*
X152236Y908276D01*
X152193Y908311D01*
X152064Y908380D01*
X151938Y908455D01*
X151886Y908474D01*
X151837Y908500D01*
X151697Y908542D01*
X151559Y908591D01*
X151505Y908599D01*
X151451Y908615D01*
X151305Y908628D01*
X151161Y908649D01*
X151106Y908646D01*
X151050Y908651D01*
X150905Y908635D01*
X150759Y908628D01*
X150705Y908614D01*
X150650Y908608D01*
X150510Y908564D01*
X150369Y908527D01*
X150319Y908503D01*
X150266Y908486D01*
X150138Y908415D01*
X150007Y908352D01*
X149962Y908318D01*
X149914Y908291D01*
X149802Y908197D01*
X149686Y908108D01*
X149649Y908067D01*
X149607Y908031D01*
X149516Y907916D01*
X149419Y907807D01*
X149392Y907759D01*
X149357Y907715D01*
X149291Y907585D01*
X149218Y907458D01*
X149197Y907399D01*
X149175Y907356D01*
X149152Y907275D01*
X149106Y907146D01*
X148966Y906621D01*
X148631Y906042D01*
X148158Y905569D01*
X147579Y905234D01*
X146933Y905061D01*
X139739Y905061D01*
X139739Y916492D01*
X139737Y916510D01*
X139739Y916527D01*
X139718Y916710D01*
X139699Y916892D01*
X139694Y916909D01*
X139692Y916927D01*
X139667Y917005D01*
X139706Y917142D01*
X139708Y917160D01*
X139712Y917177D01*
X139739Y917508D01*
X139739Y928939D01*
X146933Y928939D01*
X147579Y928766D01*
X148158Y928431D01*
X148631Y927958D01*
X148966Y927379D01*
X149106Y926854D01*
X149158Y926718D01*
X149202Y926578D01*
X149229Y926530D01*
X149248Y926478D01*
X149326Y926354D01*
X149397Y926226D01*
X149433Y926184D01*
X149462Y926136D01*
X149563Y926030D01*
X149657Y925919D01*
X149701Y925884D01*
X149739Y925844D01*
X149858Y925760D01*
X149973Y925669D01*
X150023Y925644D01*
X150068Y925612D01*
X150202Y925553D01*
X150332Y925487D01*
X150385Y925472D01*
X150436Y925449D01*
X150579Y925418D01*
X150720Y925379D01*
X150775Y925375D01*
X150829Y925363D01*
X150975Y925360D01*
X151121Y925349D01*
X151177Y925356D01*
X151232Y925355D01*
X151376Y925381D01*
X151521Y925400D01*
X151573Y925417D01*
X151628Y925427D01*
X151764Y925481D01*
X151903Y925528D01*
X151951Y925556D01*
X152002Y925576D01*
X152124Y925656D01*
X152251Y925729D01*
X152300Y925770D01*
X152340Y925796D01*
X152399Y925854D01*
X152504Y925944D01*
X154974Y928413D01*
X159922Y930463D01*
X165278Y930463D01*
X170226Y928413D01*
X173864Y924775D01*
X173877Y924764D01*
X173889Y924751D01*
X174033Y924637D01*
X174175Y924520D01*
X174191Y924512D01*
X174205Y924501D01*
X174369Y924418D01*
X174531Y924332D01*
X174548Y924327D01*
X174564Y924319D01*
X174741Y924269D01*
X174917Y924217D01*
X174935Y924215D01*
X174952Y924211D01*
X175135Y924197D01*
X175318Y924181D01*
X175336Y924183D01*
X175353Y924181D01*
X175535Y924204D01*
X175718Y924224D01*
X175735Y924229D01*
X175753Y924232D01*
X175926Y924290D01*
X176102Y924346D01*
X176118Y924354D01*
X176134Y924360D01*
X176294Y924452D01*
X176454Y924540D01*
X176468Y924552D01*
X176483Y924561D01*
X176736Y924775D01*
X180374Y928413D01*
X185322Y930463D01*
X190678Y930463D01*
X195626Y928413D01*
X199264Y924775D01*
X199277Y924764D01*
X199289Y924751D01*
X199433Y924637D01*
X199575Y924520D01*
X199591Y924512D01*
X199605Y924501D01*
X199769Y924418D01*
X199931Y924332D01*
X199948Y924327D01*
X199964Y924319D01*
X200141Y924269D01*
X200317Y924217D01*
X200335Y924215D01*
X200352Y924211D01*
X200535Y924197D01*
X200718Y924181D01*
X200736Y924183D01*
X200753Y924181D01*
X200935Y924204D01*
X201118Y924224D01*
X201135Y924229D01*
X201153Y924232D01*
X201326Y924290D01*
X201502Y924346D01*
X201518Y924354D01*
X201534Y924360D01*
X201694Y924452D01*
X201854Y924540D01*
X201868Y924552D01*
X201883Y924561D01*
X202136Y924775D01*
X205774Y928413D01*
X210722Y930463D01*
X216078Y930463D01*
X221026Y928413D01*
X224813Y924626D01*
X225157Y923795D01*
X225239Y923643D01*
X225316Y923489D01*
X225334Y923466D01*
X225347Y923440D01*
X225457Y923307D01*
X225564Y923171D01*
X225586Y923152D01*
X225604Y923130D01*
X225738Y923021D01*
X225869Y922909D01*
X225894Y922894D01*
X225917Y922876D01*
X226069Y922796D01*
X226220Y922711D01*
X226248Y922703D01*
X226273Y922689D01*
X226439Y922641D01*
X226603Y922587D01*
X226632Y922584D01*
X226659Y922576D01*
X226832Y922561D01*
X227003Y922542D01*
X227032Y922544D01*
X227061Y922541D01*
X227232Y922561D01*
X227404Y922575D01*
X227432Y922583D01*
X227461Y922587D01*
X227625Y922639D01*
X227791Y922688D01*
X227816Y922701D01*
X227844Y922710D01*
X227994Y922794D01*
X228148Y922874D01*
X228170Y922892D01*
X228195Y922906D01*
X228326Y923018D01*
X228461Y923127D01*
X228482Y923151D01*
X228501Y923168D01*
X228554Y923235D01*
X228677Y923379D01*
X229694Y924778D01*
X231022Y926106D01*
X232543Y927211D01*
X234217Y928064D01*
X236004Y928645D01*
X236261Y928685D01*
X236261Y917508D01*
X236262Y917490D01*
X236261Y917473D01*
X236282Y917290D01*
X236301Y917108D01*
X236306Y917091D01*
X236308Y917073D01*
X236333Y916995D01*
X236294Y916858D01*
X236292Y916840D01*
X236288Y916823D01*
X236261Y916492D01*
X236261Y905315D01*
X236004Y905355D01*
X234217Y905936D01*
X232543Y906789D01*
X231022Y907894D01*
X229694Y909222D01*
X228677Y910621D01*
X228563Y910750D01*
X228451Y910883D01*
X228429Y910901D01*
X228409Y910922D01*
X228272Y911026D01*
X228136Y911134D01*
X228111Y911147D01*
X228088Y911164D01*
X227932Y911239D01*
X227778Y911317D01*
X227750Y911325D01*
X227724Y911338D01*
X227557Y911380D01*
X227391Y911427D01*
X227362Y911429D01*
X227334Y911436D01*
X227161Y911445D01*
X226989Y911458D01*
X226961Y911455D01*
X226932Y911456D01*
X226761Y911430D01*
X226590Y911410D01*
X226563Y911401D01*
X226534Y911396D01*
X226371Y911337D01*
X226208Y911283D01*
X226183Y911269D01*
X226155Y911259D01*
X226008Y911169D01*
X225858Y911084D01*
X225836Y911065D01*
X225811Y911050D01*
X225684Y910932D01*
X225554Y910819D01*
X225537Y910796D01*
X225515Y910777D01*
X225414Y910637D01*
X225309Y910500D01*
X225294Y910471D01*
X225279Y910451D01*
X225244Y910374D01*
X225157Y910205D01*
X224813Y909374D01*
X221026Y905587D01*
X216078Y903537D01*
X210722Y903537D01*
X205774Y905587D01*
X202136Y909225D01*
X202122Y909236D01*
X202111Y909249D01*
X201967Y909363D01*
X201825Y909480D01*
X201809Y909488D01*
X201795Y909499D01*
X201631Y909583D01*
X201469Y909668D01*
X201452Y909673D01*
X201436Y909681D01*
X201259Y909731D01*
X201083Y909783D01*
X201065Y909785D01*
X201048Y909789D01*
X200865Y909803D01*
X200682Y909819D01*
X200664Y909817D01*
X200647Y909819D01*
X200465Y909796D01*
X200282Y909776D01*
X200265Y909771D01*
X200247Y909768D01*
X200073Y909710D01*
X199898Y909654D01*
X199882Y909646D01*
X199866Y909640D01*
X199706Y909548D01*
X199546Y909460D01*
X199532Y909448D01*
X199517Y909439D01*
X199264Y909225D01*
X195626Y905587D01*
X190678Y903537D01*
X185322Y903537D01*
X180374Y905587D01*
X176736Y909225D01*
X176722Y909236D01*
X176711Y909249D01*
X176567Y909363D01*
X176425Y909480D01*
X176409Y909488D01*
X176395Y909499D01*
X176231Y909583D01*
X176069Y909668D01*
X176052Y909673D01*
X176036Y909681D01*
X175859Y909731D01*
X175683Y909783D01*
X175665Y909785D01*
X175648Y909789D01*
X175465Y909803D01*
X175282Y909819D01*
X175264Y909817D01*
X175247Y909819D01*
X175065Y909796D01*
X174882Y909776D01*
X174865Y909771D01*
X174847Y909768D01*
X174673Y909710D01*
X174498Y909654D01*
X174482Y909646D01*
X174466Y909640D01*
X174306Y909548D01*
X174146Y909460D01*
X174132Y909448D01*
X174117Y909439D01*
X173864Y909225D01*
X170226Y905587D01*
X165278Y903537D01*
X159922Y903537D01*
G37*
%LPD*%
%LPC*%
G36*
X684309Y94106D02*
X684309Y94106D01*
X681555Y95247D01*
X679447Y97355D01*
X678306Y100109D01*
X678306Y103091D01*
X679447Y105845D01*
X680124Y106522D01*
X680141Y106543D01*
X680162Y106560D01*
X680269Y106698D01*
X680379Y106834D01*
X680392Y106857D01*
X680408Y106878D01*
X680486Y107035D01*
X680568Y107189D01*
X680576Y107215D01*
X680588Y107239D01*
X680633Y107408D01*
X680683Y107575D01*
X680685Y107602D01*
X680692Y107628D01*
X680719Y107958D01*
X680719Y260342D01*
X680717Y260368D01*
X680719Y260395D01*
X680697Y260569D01*
X680679Y260742D01*
X680672Y260768D01*
X680668Y260794D01*
X680613Y260960D01*
X680561Y261127D01*
X680548Y261151D01*
X680540Y261176D01*
X680453Y261328D01*
X680369Y261481D01*
X680352Y261502D01*
X680339Y261525D01*
X680124Y261778D01*
X679447Y262455D01*
X678306Y265209D01*
X678306Y268191D01*
X679447Y270945D01*
X681555Y273053D01*
X684309Y274194D01*
X687291Y274194D01*
X690045Y273053D01*
X692153Y270945D01*
X693294Y268191D01*
X693294Y265209D01*
X692153Y262455D01*
X691476Y261778D01*
X691459Y261757D01*
X691438Y261740D01*
X691331Y261602D01*
X691221Y261466D01*
X691208Y261443D01*
X691192Y261422D01*
X691114Y261265D01*
X691032Y261111D01*
X691024Y261085D01*
X691012Y261061D01*
X690967Y260892D01*
X690917Y260725D01*
X690915Y260698D01*
X690908Y260672D01*
X690881Y260342D01*
X690881Y107958D01*
X690883Y107932D01*
X690881Y107905D01*
X690903Y107731D01*
X690921Y107558D01*
X690928Y107532D01*
X690932Y107506D01*
X690987Y107340D01*
X691039Y107173D01*
X691052Y107149D01*
X691060Y107124D01*
X691147Y106972D01*
X691231Y106819D01*
X691248Y106798D01*
X691261Y106775D01*
X691476Y106522D01*
X692153Y105845D01*
X693294Y103091D01*
X693294Y100109D01*
X692153Y97355D01*
X690045Y95247D01*
X687291Y94106D01*
X684309Y94106D01*
G37*
%LPD*%
%LPC*%
G36*
X658909Y144906D02*
X658909Y144906D01*
X656155Y146047D01*
X654047Y148155D01*
X652906Y150909D01*
X652906Y153891D01*
X654047Y156645D01*
X654724Y157322D01*
X654741Y157343D01*
X654762Y157360D01*
X654869Y157498D01*
X654979Y157634D01*
X654992Y157657D01*
X655008Y157678D01*
X655086Y157835D01*
X655168Y157989D01*
X655176Y158015D01*
X655188Y158039D01*
X655233Y158208D01*
X655283Y158375D01*
X655285Y158402D01*
X655292Y158428D01*
X655319Y158758D01*
X655319Y285742D01*
X655317Y285768D01*
X655319Y285795D01*
X655297Y285969D01*
X655279Y286142D01*
X655272Y286168D01*
X655268Y286194D01*
X655213Y286360D01*
X655161Y286527D01*
X655148Y286551D01*
X655140Y286576D01*
X655053Y286728D01*
X654969Y286881D01*
X654952Y286902D01*
X654939Y286925D01*
X654724Y287178D01*
X654047Y287855D01*
X652906Y290609D01*
X652906Y293591D01*
X654047Y296345D01*
X656155Y298453D01*
X658909Y299594D01*
X661891Y299594D01*
X664645Y298453D01*
X666753Y296345D01*
X667894Y293591D01*
X667894Y290609D01*
X666753Y287855D01*
X666076Y287178D01*
X666059Y287157D01*
X666038Y287140D01*
X665931Y287002D01*
X665821Y286866D01*
X665808Y286843D01*
X665792Y286822D01*
X665714Y286665D01*
X665632Y286511D01*
X665624Y286485D01*
X665612Y286461D01*
X665567Y286292D01*
X665517Y286125D01*
X665515Y286098D01*
X665508Y286072D01*
X665481Y285742D01*
X665481Y158758D01*
X665483Y158732D01*
X665481Y158705D01*
X665503Y158531D01*
X665521Y158358D01*
X665528Y158332D01*
X665532Y158306D01*
X665587Y158140D01*
X665639Y157973D01*
X665652Y157949D01*
X665660Y157924D01*
X665747Y157772D01*
X665831Y157619D01*
X665848Y157598D01*
X665861Y157575D01*
X666076Y157322D01*
X666753Y156645D01*
X667894Y153891D01*
X667894Y150909D01*
X666753Y148155D01*
X664645Y146047D01*
X661891Y144906D01*
X658909Y144906D01*
G37*
%LPD*%
%LPC*%
G36*
X544609Y551306D02*
X544609Y551306D01*
X541855Y552447D01*
X539747Y554555D01*
X538606Y557309D01*
X538606Y560291D01*
X539747Y563045D01*
X541855Y565153D01*
X544609Y566294D01*
X547591Y566294D01*
X549364Y565559D01*
X549393Y565550D01*
X549421Y565536D01*
X549586Y565492D01*
X549749Y565443D01*
X549780Y565440D01*
X549810Y565432D01*
X550141Y565405D01*
X643659Y565405D01*
X643690Y565408D01*
X643721Y565406D01*
X643891Y565428D01*
X644060Y565445D01*
X644090Y565454D01*
X644121Y565458D01*
X644436Y565559D01*
X646209Y566294D01*
X649191Y566294D01*
X651945Y565153D01*
X654053Y563045D01*
X655194Y560291D01*
X655194Y557309D01*
X654053Y554555D01*
X651945Y552447D01*
X649191Y551306D01*
X646209Y551306D01*
X644436Y552041D01*
X644407Y552050D01*
X644379Y552064D01*
X644214Y552108D01*
X644051Y552157D01*
X644020Y552160D01*
X643990Y552168D01*
X643659Y552195D01*
X550141Y552195D01*
X550110Y552192D01*
X550079Y552194D01*
X549909Y552172D01*
X549740Y552155D01*
X549710Y552146D01*
X549679Y552142D01*
X549364Y552041D01*
X547591Y551306D01*
X544609Y551306D01*
G37*
%LPD*%
%LPC*%
G36*
X152298Y472766D02*
X152298Y472766D01*
X152280Y472768D01*
X152263Y472772D01*
X151932Y472799D01*
X142613Y472799D01*
X143058Y474170D01*
X143778Y475584D01*
X144711Y476867D01*
X145833Y477989D01*
X147116Y478922D01*
X148530Y479642D01*
X149652Y480007D01*
X149734Y480042D01*
X149818Y480069D01*
X149918Y480123D01*
X150021Y480168D01*
X150094Y480219D01*
X150172Y480262D01*
X150258Y480335D01*
X150351Y480400D01*
X150412Y480464D01*
X150480Y480521D01*
X150550Y480610D01*
X150628Y480692D01*
X150675Y480767D01*
X150731Y480836D01*
X150782Y480936D01*
X150843Y481032D01*
X150874Y481115D01*
X150915Y481194D01*
X150945Y481303D01*
X150986Y481409D01*
X151000Y481496D01*
X151024Y481582D01*
X151033Y481694D01*
X151052Y481806D01*
X151049Y481895D01*
X151056Y481983D01*
X151042Y482095D01*
X151038Y482208D01*
X151018Y482295D01*
X151007Y482383D01*
X150971Y482490D01*
X150945Y482600D01*
X150908Y482681D01*
X150880Y482765D01*
X150824Y482863D01*
X150777Y482966D01*
X150725Y483038D01*
X150681Y483115D01*
X150607Y483200D01*
X150540Y483291D01*
X150475Y483351D01*
X150416Y483418D01*
X150327Y483487D01*
X150244Y483564D01*
X150168Y483609D01*
X150097Y483664D01*
X149972Y483728D01*
X149899Y483772D01*
X149856Y483788D01*
X149802Y483815D01*
X145826Y485462D01*
X142562Y488726D01*
X140795Y492992D01*
X140795Y497608D01*
X142562Y501874D01*
X145826Y505138D01*
X147722Y505923D01*
X147730Y505928D01*
X147739Y505930D01*
X147907Y506022D01*
X148077Y506114D01*
X148084Y506119D01*
X148092Y506124D01*
X148239Y506247D01*
X148388Y506370D01*
X148393Y506377D01*
X148400Y506383D01*
X148520Y506533D01*
X148641Y506683D01*
X148646Y506691D01*
X148651Y506697D01*
X148739Y506868D01*
X148828Y507039D01*
X148831Y507048D01*
X148835Y507056D01*
X148887Y507238D01*
X148942Y507425D01*
X148942Y507435D01*
X148945Y507443D01*
X148960Y507634D01*
X148976Y507827D01*
X148975Y507836D01*
X148976Y507844D01*
X148953Y508034D01*
X148931Y508227D01*
X148928Y508235D01*
X148927Y508244D01*
X148868Y508422D01*
X148808Y508610D01*
X148803Y508618D01*
X148801Y508626D01*
X148706Y508792D01*
X148612Y508961D01*
X148606Y508968D01*
X148601Y508976D01*
X148475Y509121D01*
X148350Y509267D01*
X148343Y509273D01*
X148337Y509280D01*
X148184Y509397D01*
X148033Y509516D01*
X148025Y509520D01*
X148018Y509525D01*
X147722Y509677D01*
X145826Y510462D01*
X142562Y513726D01*
X140795Y517992D01*
X140795Y522608D01*
X142562Y526874D01*
X145826Y530138D01*
X150092Y531905D01*
X154708Y531905D01*
X158974Y530138D01*
X162238Y526874D01*
X164005Y522608D01*
X164005Y518877D01*
X164007Y518851D01*
X164005Y518824D01*
X164027Y518650D01*
X164045Y518476D01*
X164052Y518451D01*
X164056Y518424D01*
X164112Y518259D01*
X164163Y518092D01*
X164176Y518068D01*
X164184Y518043D01*
X164272Y517891D01*
X164355Y517738D01*
X164372Y517717D01*
X164385Y517694D01*
X164600Y517441D01*
X166841Y515200D01*
X166862Y515183D01*
X166879Y515162D01*
X167017Y515056D01*
X167152Y514945D01*
X167176Y514932D01*
X167197Y514916D01*
X167353Y514838D01*
X167508Y514756D01*
X167534Y514748D01*
X167558Y514736D01*
X167727Y514691D01*
X167894Y514641D01*
X167921Y514639D01*
X167946Y514632D01*
X168277Y514605D01*
X186459Y514605D01*
X186490Y514608D01*
X186521Y514606D01*
X186691Y514628D01*
X186860Y514645D01*
X186890Y514654D01*
X186921Y514658D01*
X187236Y514759D01*
X189009Y515494D01*
X191991Y515494D01*
X194745Y514353D01*
X196853Y512245D01*
X197994Y509491D01*
X197994Y506509D01*
X196853Y503755D01*
X194745Y501647D01*
X194542Y501563D01*
X191991Y500506D01*
X189009Y500506D01*
X187236Y501241D01*
X187207Y501250D01*
X187179Y501264D01*
X187014Y501308D01*
X186851Y501357D01*
X186820Y501360D01*
X186790Y501368D01*
X186459Y501395D01*
X165476Y501395D01*
X165463Y501394D01*
X165449Y501395D01*
X165263Y501374D01*
X165075Y501355D01*
X165063Y501351D01*
X165049Y501350D01*
X164871Y501293D01*
X164691Y501237D01*
X164679Y501231D01*
X164666Y501227D01*
X164502Y501135D01*
X164337Y501045D01*
X164326Y501037D01*
X164315Y501030D01*
X164171Y500908D01*
X164027Y500788D01*
X164019Y500777D01*
X164009Y500769D01*
X163892Y500620D01*
X163775Y500474D01*
X163769Y500462D01*
X163761Y500452D01*
X163676Y500282D01*
X163589Y500117D01*
X163586Y500104D01*
X163580Y500092D01*
X163530Y499910D01*
X163478Y499730D01*
X163477Y499716D01*
X163473Y499703D01*
X163460Y499516D01*
X163445Y499328D01*
X163447Y499315D01*
X163446Y499302D01*
X163470Y499114D01*
X163492Y498929D01*
X163496Y498916D01*
X163498Y498903D01*
X163599Y498587D01*
X164005Y497608D01*
X164005Y492992D01*
X162238Y488726D01*
X158974Y485462D01*
X154998Y483815D01*
X154920Y483773D01*
X154837Y483740D01*
X154743Y483678D01*
X154643Y483625D01*
X154575Y483569D01*
X154500Y483520D01*
X154420Y483441D01*
X154333Y483369D01*
X154277Y483300D01*
X154213Y483237D01*
X154150Y483144D01*
X154079Y483056D01*
X154038Y482977D01*
X153988Y482904D01*
X153944Y482799D01*
X153892Y482699D01*
X153867Y482614D01*
X153833Y482532D01*
X153811Y482422D01*
X153779Y482313D01*
X153771Y482224D01*
X153754Y482138D01*
X153754Y482025D01*
X153744Y481912D01*
X153754Y481824D01*
X153754Y481735D01*
X153777Y481624D01*
X153789Y481512D01*
X153816Y481427D01*
X153834Y481340D01*
X153878Y481236D01*
X153912Y481129D01*
X153956Y481051D01*
X153990Y480969D01*
X154054Y480876D01*
X154109Y480777D01*
X154167Y480710D01*
X154216Y480636D01*
X154297Y480557D01*
X154371Y480471D01*
X154441Y480417D01*
X154504Y480354D01*
X154599Y480293D01*
X154688Y480223D01*
X154767Y480183D01*
X154841Y480135D01*
X154972Y480080D01*
X155047Y480042D01*
X155092Y480030D01*
X155148Y480007D01*
X156270Y479642D01*
X157684Y478922D01*
X158967Y477989D01*
X160089Y476867D01*
X161022Y475584D01*
X161742Y474170D01*
X162187Y472799D01*
X152868Y472799D01*
X152850Y472797D01*
X152833Y472799D01*
X152650Y472778D01*
X152468Y472759D01*
X152451Y472754D01*
X152433Y472752D01*
X152392Y472739D01*
X152298Y472766D01*
G37*
%LPD*%
%LPC*%
G36*
X78492Y528655D02*
X78492Y528655D01*
X71272Y531646D01*
X65746Y537172D01*
X62755Y544392D01*
X62755Y552208D01*
X65746Y559428D01*
X71272Y564954D01*
X75919Y566879D01*
X75920Y566879D01*
X78492Y567945D01*
X86308Y567945D01*
X93528Y564954D01*
X99054Y559428D01*
X102045Y552208D01*
X102045Y544392D01*
X99054Y537172D01*
X93528Y531646D01*
X86308Y528655D01*
X78492Y528655D01*
G37*
%LPD*%
%LPC*%
G36*
X828607Y898935D02*
X828607Y898935D01*
X821967Y901685D01*
X816885Y906767D01*
X814135Y913407D01*
X814135Y920593D01*
X816885Y927233D01*
X821967Y932315D01*
X828607Y935065D01*
X835793Y935065D01*
X842433Y932315D01*
X847515Y927233D01*
X850265Y920593D01*
X850265Y913407D01*
X847515Y906767D01*
X842433Y901685D01*
X835793Y898935D01*
X828607Y898935D01*
G37*
%LPD*%
%LPC*%
G36*
X78607Y898935D02*
X78607Y898935D01*
X71967Y901685D01*
X66885Y906767D01*
X64135Y913407D01*
X64135Y920593D01*
X66885Y927233D01*
X71967Y932315D01*
X78607Y935065D01*
X85793Y935065D01*
X92433Y932315D01*
X97515Y927233D01*
X100265Y920593D01*
X100265Y913407D01*
X97515Y906767D01*
X92433Y901685D01*
X85793Y898935D01*
X78607Y898935D01*
G37*
%LPD*%
%LPC*%
G36*
X828607Y588935D02*
X828607Y588935D01*
X821967Y591685D01*
X816885Y596767D01*
X814135Y603407D01*
X814135Y610593D01*
X816885Y617233D01*
X821967Y622315D01*
X828607Y625065D01*
X835793Y625065D01*
X842433Y622315D01*
X847515Y617233D01*
X850265Y610593D01*
X850265Y603407D01*
X847515Y596767D01*
X842433Y591685D01*
X835793Y588935D01*
X828607Y588935D01*
G37*
%LPD*%
%LPC*%
G36*
X78607Y588935D02*
X78607Y588935D01*
X71967Y591685D01*
X66885Y596767D01*
X64135Y603407D01*
X64135Y610593D01*
X66885Y617233D01*
X71967Y622315D01*
X78607Y625065D01*
X85793Y625065D01*
X92433Y622315D01*
X97515Y617233D01*
X100265Y610593D01*
X100265Y603407D01*
X97515Y596767D01*
X92433Y591685D01*
X85793Y588935D01*
X78607Y588935D01*
G37*
%LPD*%
%LPC*%
G36*
X811309Y437006D02*
X811309Y437006D01*
X808555Y438147D01*
X806447Y440255D01*
X805306Y443009D01*
X805306Y443967D01*
X805304Y443994D01*
X805306Y444020D01*
X805284Y444194D01*
X805266Y444368D01*
X805259Y444393D01*
X805255Y444420D01*
X805200Y444586D01*
X805148Y444753D01*
X805135Y444776D01*
X805127Y444802D01*
X805040Y444953D01*
X804956Y445107D01*
X804939Y445127D01*
X804926Y445150D01*
X804711Y445403D01*
X795793Y454322D01*
X795019Y456189D01*
X795019Y501642D01*
X795017Y501668D01*
X795019Y501695D01*
X794997Y501869D01*
X794979Y502042D01*
X794972Y502068D01*
X794968Y502094D01*
X794913Y502260D01*
X794861Y502427D01*
X794848Y502451D01*
X794840Y502476D01*
X794753Y502628D01*
X794669Y502781D01*
X794652Y502802D01*
X794639Y502825D01*
X794424Y503078D01*
X793747Y503755D01*
X792606Y506509D01*
X792606Y509491D01*
X793747Y512245D01*
X795855Y514353D01*
X798609Y515494D01*
X801591Y515494D01*
X804345Y514353D01*
X806453Y512245D01*
X807594Y509491D01*
X807594Y506509D01*
X806453Y503755D01*
X805776Y503078D01*
X805759Y503057D01*
X805738Y503040D01*
X805631Y502902D01*
X805521Y502766D01*
X805508Y502743D01*
X805492Y502722D01*
X805414Y502565D01*
X805332Y502411D01*
X805324Y502385D01*
X805312Y502361D01*
X805267Y502192D01*
X805217Y502025D01*
X805215Y501998D01*
X805208Y501972D01*
X805181Y501642D01*
X805181Y460146D01*
X805183Y460119D01*
X805181Y460093D01*
X805203Y459919D01*
X805221Y459745D01*
X805228Y459720D01*
X805232Y459693D01*
X805287Y459527D01*
X805339Y459360D01*
X805352Y459337D01*
X805360Y459311D01*
X805447Y459160D01*
X805531Y459006D01*
X805548Y458986D01*
X805561Y458963D01*
X805776Y458710D01*
X811897Y452589D01*
X811917Y452572D01*
X811935Y452551D01*
X812073Y452444D01*
X812208Y452334D01*
X812232Y452321D01*
X812253Y452305D01*
X812410Y452227D01*
X812564Y452145D01*
X812589Y452137D01*
X812613Y452125D01*
X812783Y452080D01*
X812950Y452030D01*
X812976Y452028D01*
X813002Y452021D01*
X813333Y451994D01*
X814291Y451994D01*
X817045Y450853D01*
X819153Y448745D01*
X820294Y445991D01*
X820294Y443009D01*
X819153Y440255D01*
X817045Y438147D01*
X814291Y437006D01*
X811309Y437006D01*
G37*
%LPD*%
%LPC*%
G36*
X49349Y59663D02*
X49349Y59663D01*
X49393Y60053D01*
X50056Y62959D01*
X51041Y65773D01*
X52334Y68459D01*
X53920Y70983D01*
X55779Y73313D01*
X56224Y73758D01*
X56318Y73873D01*
X56418Y73984D01*
X56445Y74029D01*
X56479Y74069D01*
X56548Y74201D01*
X56625Y74329D01*
X56643Y74379D01*
X56667Y74425D01*
X56710Y74568D01*
X56760Y74709D01*
X56767Y74761D01*
X56782Y74811D01*
X56796Y74960D01*
X56817Y75107D01*
X56814Y75159D01*
X56818Y75212D01*
X56802Y75361D01*
X56794Y75509D01*
X56781Y75560D01*
X56775Y75612D01*
X56730Y75755D01*
X56692Y75899D01*
X56669Y75946D01*
X56654Y75996D01*
X56582Y76126D01*
X56516Y76261D01*
X56484Y76303D01*
X56459Y76348D01*
X56363Y76462D01*
X56272Y76581D01*
X56232Y76615D01*
X56198Y76655D01*
X56081Y76748D01*
X55969Y76846D01*
X55924Y76872D01*
X55882Y76905D01*
X55749Y76973D01*
X55620Y77047D01*
X55570Y77064D01*
X55523Y77087D01*
X55380Y77127D01*
X55238Y77175D01*
X55186Y77181D01*
X55136Y77195D01*
X54987Y77206D01*
X54839Y77225D01*
X54787Y77221D01*
X54734Y77225D01*
X54586Y77206D01*
X54437Y77195D01*
X54380Y77180D01*
X54335Y77174D01*
X54254Y77147D01*
X54116Y77111D01*
X53959Y77056D01*
X51053Y76393D01*
X50663Y76349D01*
X50663Y98537D01*
X72851Y98537D01*
X72807Y98147D01*
X72144Y95241D01*
X71159Y92427D01*
X69866Y89741D01*
X68280Y87217D01*
X66421Y84887D01*
X65976Y84442D01*
X65882Y84327D01*
X65782Y84216D01*
X65755Y84171D01*
X65721Y84131D01*
X65652Y83999D01*
X65575Y83871D01*
X65557Y83821D01*
X65533Y83775D01*
X65490Y83632D01*
X65440Y83491D01*
X65433Y83439D01*
X65418Y83389D01*
X65404Y83240D01*
X65383Y83093D01*
X65386Y83041D01*
X65382Y82988D01*
X65398Y82839D01*
X65406Y82691D01*
X65419Y82640D01*
X65425Y82588D01*
X65470Y82445D01*
X65508Y82301D01*
X65531Y82254D01*
X65546Y82204D01*
X65618Y82074D01*
X65684Y81939D01*
X65716Y81897D01*
X65741Y81852D01*
X65837Y81738D01*
X65928Y81619D01*
X65968Y81585D01*
X66002Y81545D01*
X66119Y81452D01*
X66231Y81354D01*
X66276Y81328D01*
X66318Y81295D01*
X66451Y81227D01*
X66580Y81153D01*
X66630Y81136D01*
X66677Y81113D01*
X66820Y81073D01*
X66962Y81025D01*
X67014Y81019D01*
X67064Y81005D01*
X67213Y80994D01*
X67361Y80975D01*
X67413Y80979D01*
X67466Y80975D01*
X67614Y80994D01*
X67763Y81005D01*
X67820Y81020D01*
X67865Y81026D01*
X67946Y81053D01*
X68084Y81089D01*
X68241Y81144D01*
X71147Y81807D01*
X71537Y81851D01*
X71537Y59663D01*
X49349Y59663D01*
G37*
%LPD*%
%LPC*%
G36*
X443009Y233806D02*
X443009Y233806D01*
X440255Y234947D01*
X438147Y237055D01*
X437006Y239809D01*
X437006Y242791D01*
X438147Y245545D01*
X440255Y247653D01*
X442028Y248387D01*
X442056Y248402D01*
X442085Y248412D01*
X442233Y248497D01*
X442383Y248577D01*
X442407Y248597D01*
X442434Y248613D01*
X442687Y248828D01*
X454252Y260393D01*
X454272Y260417D01*
X454296Y260437D01*
X454399Y260572D01*
X454507Y260704D01*
X454522Y260732D01*
X454541Y260757D01*
X454693Y261052D01*
X455427Y262825D01*
X457535Y264933D01*
X460289Y266074D01*
X463271Y266074D01*
X466025Y264933D01*
X468133Y262825D01*
X469274Y260071D01*
X469274Y257089D01*
X468133Y254335D01*
X466025Y252227D01*
X464799Y251719D01*
X464252Y251493D01*
X464224Y251478D01*
X464195Y251468D01*
X464047Y251383D01*
X463897Y251303D01*
X463873Y251283D01*
X463846Y251267D01*
X463593Y251052D01*
X452028Y239487D01*
X452008Y239463D01*
X451984Y239442D01*
X451880Y239307D01*
X451773Y239176D01*
X451758Y239148D01*
X451739Y239123D01*
X451587Y238828D01*
X450853Y237055D01*
X448745Y234947D01*
X445991Y233806D01*
X443009Y233806D01*
G37*
%LPD*%
%LPC*%
G36*
X939582Y55749D02*
X939582Y55749D01*
X930457Y55749D01*
X930921Y57178D01*
X931606Y58521D01*
X932492Y59741D01*
X933639Y60888D01*
X933772Y61001D01*
X933787Y61020D01*
X933805Y61036D01*
X933912Y61178D01*
X934022Y61317D01*
X934033Y61339D01*
X934047Y61358D01*
X934124Y61517D01*
X934204Y61676D01*
X934211Y61699D01*
X934221Y61721D01*
X934265Y61893D01*
X934312Y62064D01*
X934314Y62088D01*
X934320Y62112D01*
X934329Y62288D01*
X934341Y62465D01*
X934338Y62489D01*
X934340Y62514D01*
X934313Y62689D01*
X934291Y62865D01*
X934283Y62888D01*
X934280Y62912D01*
X934219Y63079D01*
X934163Y63246D01*
X934151Y63267D01*
X934142Y63290D01*
X934050Y63442D01*
X933962Y63595D01*
X933944Y63616D01*
X933933Y63634D01*
X933878Y63694D01*
X933747Y63848D01*
X930386Y67210D01*
X928695Y71291D01*
X928695Y75709D01*
X930386Y79790D01*
X933510Y82914D01*
X937591Y84605D01*
X942009Y84605D01*
X946090Y82914D01*
X949214Y79790D01*
X950905Y75709D01*
X950905Y71291D01*
X949214Y67210D01*
X945853Y63848D01*
X945741Y63712D01*
X945625Y63577D01*
X945613Y63556D01*
X945598Y63537D01*
X945515Y63380D01*
X945428Y63226D01*
X945420Y63203D01*
X945409Y63181D01*
X945358Y63011D01*
X945304Y62843D01*
X945301Y62818D01*
X945294Y62795D01*
X945278Y62619D01*
X945258Y62443D01*
X945260Y62418D01*
X945258Y62394D01*
X945277Y62218D01*
X945292Y62041D01*
X945299Y62018D01*
X945301Y61994D01*
X945355Y61825D01*
X945404Y61655D01*
X945416Y61633D01*
X945423Y61610D01*
X945508Y61455D01*
X945591Y61298D01*
X945606Y61279D01*
X945618Y61258D01*
X945732Y61123D01*
X945844Y60985D01*
X945864Y60967D01*
X945878Y60951D01*
X945942Y60900D01*
X945990Y60859D01*
X947108Y59741D01*
X947994Y58521D01*
X948679Y57178D01*
X949143Y55749D01*
X940018Y55749D01*
X940000Y55747D01*
X939983Y55749D01*
X939819Y55730D01*
X939582Y55749D01*
G37*
%LPD*%
%LPC*%
G36*
X112809Y208406D02*
X112809Y208406D01*
X110055Y209547D01*
X107947Y211655D01*
X106806Y214409D01*
X106806Y217391D01*
X107947Y220145D01*
X110055Y222253D01*
X112809Y223394D01*
X115791Y223394D01*
X118545Y222253D01*
X119222Y221576D01*
X119243Y221559D01*
X119260Y221538D01*
X119398Y221431D01*
X119534Y221321D01*
X119557Y221308D01*
X119578Y221292D01*
X119735Y221214D01*
X119889Y221132D01*
X119915Y221124D01*
X119939Y221112D01*
X120108Y221067D01*
X120275Y221017D01*
X120302Y221015D01*
X120328Y221008D01*
X120658Y220981D01*
X133342Y220981D01*
X133368Y220983D01*
X133395Y220981D01*
X133569Y221003D01*
X133742Y221021D01*
X133768Y221028D01*
X133794Y221032D01*
X133960Y221087D01*
X134127Y221139D01*
X134151Y221152D01*
X134176Y221160D01*
X134328Y221247D01*
X134481Y221331D01*
X134502Y221348D01*
X134525Y221361D01*
X134778Y221576D01*
X135455Y222253D01*
X138209Y223394D01*
X141191Y223394D01*
X143945Y222253D01*
X146053Y220145D01*
X147194Y217391D01*
X147194Y214409D01*
X146053Y211655D01*
X143945Y209547D01*
X142776Y209063D01*
X141191Y208406D01*
X138209Y208406D01*
X135455Y209547D01*
X134778Y210224D01*
X134757Y210241D01*
X134740Y210262D01*
X134602Y210369D01*
X134466Y210479D01*
X134443Y210492D01*
X134422Y210508D01*
X134265Y210586D01*
X134111Y210668D01*
X134085Y210676D01*
X134061Y210688D01*
X133892Y210733D01*
X133725Y210783D01*
X133698Y210785D01*
X133672Y210792D01*
X133342Y210819D01*
X120658Y210819D01*
X120632Y210817D01*
X120605Y210819D01*
X120431Y210797D01*
X120258Y210779D01*
X120232Y210772D01*
X120206Y210768D01*
X120040Y210713D01*
X119873Y210661D01*
X119849Y210648D01*
X119824Y210640D01*
X119672Y210553D01*
X119519Y210469D01*
X119498Y210452D01*
X119475Y210439D01*
X119222Y210224D01*
X118545Y209547D01*
X117376Y209063D01*
X115791Y208406D01*
X112809Y208406D01*
G37*
%LPD*%
%LPC*%
G36*
X50663Y106663D02*
X50663Y106663D01*
X50663Y128851D01*
X51053Y128807D01*
X53959Y128144D01*
X56773Y127159D01*
X59459Y125866D01*
X61983Y124280D01*
X64313Y122421D01*
X66421Y120313D01*
X68280Y117983D01*
X69866Y115459D01*
X71159Y112773D01*
X72144Y109959D01*
X72807Y107053D01*
X72851Y106663D01*
X50663Y106663D01*
G37*
%LPD*%
%LPC*%
G36*
X79663Y51537D02*
X79663Y51537D01*
X101851Y51537D01*
X101807Y51147D01*
X101144Y48241D01*
X100159Y45427D01*
X98866Y42741D01*
X97280Y40217D01*
X95421Y37887D01*
X93313Y35779D01*
X90983Y33920D01*
X88459Y32334D01*
X85773Y31041D01*
X82959Y30056D01*
X80053Y29393D01*
X79663Y29349D01*
X79663Y51537D01*
G37*
%LPD*%
%LPC*%
G36*
X20349Y106663D02*
X20349Y106663D01*
X20393Y107053D01*
X21056Y109959D01*
X22041Y112773D01*
X23334Y115459D01*
X24920Y117983D01*
X26779Y120313D01*
X28887Y122421D01*
X31217Y124280D01*
X33741Y125866D01*
X36427Y127159D01*
X39241Y128144D01*
X42147Y128807D01*
X42537Y128851D01*
X42537Y106663D01*
X20349Y106663D01*
G37*
%LPD*%
%LPC*%
G36*
X71147Y29393D02*
X71147Y29393D01*
X68241Y30056D01*
X65427Y31041D01*
X62741Y32334D01*
X60217Y33920D01*
X57887Y35779D01*
X55779Y37887D01*
X53920Y40217D01*
X52334Y42741D01*
X51041Y45427D01*
X50056Y48241D01*
X49393Y51147D01*
X49349Y51537D01*
X71537Y51537D01*
X71537Y29349D01*
X71147Y29393D01*
G37*
%LPD*%
%LPC*%
G36*
X42147Y76393D02*
X42147Y76393D01*
X39241Y77056D01*
X36427Y78041D01*
X33741Y79334D01*
X31217Y80920D01*
X28887Y82779D01*
X26779Y84887D01*
X24920Y87217D01*
X23334Y89741D01*
X22041Y92427D01*
X21056Y95241D01*
X20393Y98147D01*
X20349Y98537D01*
X42537Y98537D01*
X42537Y76349D01*
X42147Y76393D01*
G37*
%LPD*%
%LPC*%
G36*
X125261Y919539D02*
X125261Y919539D01*
X125261Y926733D01*
X125434Y927379D01*
X125769Y927958D01*
X126242Y928431D01*
X126821Y928766D01*
X127467Y928939D01*
X134661Y928939D01*
X134661Y919539D01*
X125261Y919539D01*
G37*
%LPD*%
%LPC*%
G36*
X127467Y905061D02*
X127467Y905061D01*
X126821Y905234D01*
X126242Y905569D01*
X125769Y906042D01*
X125434Y906621D01*
X125261Y907267D01*
X125261Y914461D01*
X134661Y914461D01*
X134661Y905061D01*
X127467Y905061D01*
G37*
%LPD*%
%LPC*%
G36*
X520739Y919539D02*
X520739Y919539D01*
X520739Y928685D01*
X520996Y928645D01*
X522783Y928064D01*
X524457Y927211D01*
X525978Y926106D01*
X527306Y924778D01*
X528411Y923257D01*
X529264Y921583D01*
X529845Y919796D01*
X529885Y919539D01*
X520739Y919539D01*
G37*
%LPD*%
%LPC*%
G36*
X520739Y914461D02*
X520739Y914461D01*
X529885Y914461D01*
X529845Y914204D01*
X529264Y912417D01*
X528411Y910743D01*
X527306Y909222D01*
X525978Y907894D01*
X524457Y906789D01*
X522783Y905936D01*
X520996Y905355D01*
X520739Y905315D01*
X520739Y914461D01*
G37*
%LPD*%
%LPC*%
G36*
X408649Y327951D02*
X408649Y327951D01*
X416845Y327951D01*
X416806Y327702D01*
X416287Y326105D01*
X415525Y324608D01*
X414538Y323250D01*
X413350Y322062D01*
X411992Y321075D01*
X410495Y320313D01*
X408898Y319794D01*
X408649Y319755D01*
X408649Y327951D01*
G37*
%LPD*%
%LPC*%
G36*
X154899Y467801D02*
X154899Y467801D01*
X162187Y467801D01*
X161742Y466430D01*
X161022Y465016D01*
X160089Y463733D01*
X158967Y462611D01*
X157684Y461678D01*
X156270Y460958D01*
X154899Y460513D01*
X154899Y467801D01*
G37*
%LPD*%
%LPC*%
G36*
X148530Y460958D02*
X148530Y460958D01*
X147116Y461678D01*
X145833Y462611D01*
X144711Y463733D01*
X143778Y465016D01*
X143058Y466430D01*
X142613Y467801D01*
X149901Y467801D01*
X149901Y460513D01*
X148530Y460958D01*
G37*
%LPD*%
%LPC*%
G36*
X942049Y51251D02*
X942049Y51251D01*
X949143Y51251D01*
X948679Y49822D01*
X947994Y48478D01*
X947108Y47259D01*
X946041Y46192D01*
X944821Y45306D01*
X943478Y44621D01*
X942049Y44157D01*
X942049Y51251D01*
G37*
%LPD*%
%LPC*%
G36*
X936122Y44621D02*
X936122Y44621D01*
X934779Y45306D01*
X933559Y46192D01*
X932492Y47259D01*
X931606Y48478D01*
X930921Y49822D01*
X930457Y51251D01*
X937551Y51251D01*
X937551Y44157D01*
X936122Y44621D01*
G37*
%LPD*%
%LPC*%
G36*
X383031Y802131D02*
X383031Y802131D01*
X383031Y805720D01*
X383828Y805390D01*
X384805Y804737D01*
X385637Y803905D01*
X386290Y802928D01*
X386620Y802131D01*
X383031Y802131D01*
G37*
%LPD*%
%LPC*%
G36*
X522731Y370331D02*
X522731Y370331D01*
X522731Y373920D01*
X523528Y373590D01*
X524505Y372937D01*
X525337Y372105D01*
X525990Y371128D01*
X526320Y370331D01*
X522731Y370331D01*
G37*
%LPD*%
%LPC*%
G36*
X548131Y344931D02*
X548131Y344931D01*
X548131Y348520D01*
X548928Y348190D01*
X549905Y347537D01*
X550737Y346705D01*
X551390Y345728D01*
X551720Y344931D01*
X548131Y344931D01*
G37*
%LPD*%
%LPC*%
G36*
X586231Y510031D02*
X586231Y510031D01*
X586231Y513620D01*
X587028Y513290D01*
X588005Y512637D01*
X588837Y511805D01*
X589490Y510828D01*
X589820Y510031D01*
X586231Y510031D01*
G37*
%LPD*%
%LPC*%
G36*
X789431Y408431D02*
X789431Y408431D01*
X789431Y412020D01*
X790228Y411690D01*
X791205Y411037D01*
X792037Y410205D01*
X792690Y409228D01*
X793020Y408431D01*
X789431Y408431D01*
G37*
%LPD*%
%LPC*%
G36*
X510031Y687831D02*
X510031Y687831D01*
X510031Y691420D01*
X510828Y691090D01*
X511805Y690437D01*
X512637Y689605D01*
X513290Y688628D01*
X513620Y687831D01*
X510031Y687831D01*
G37*
%LPD*%
%LPC*%
G36*
X781780Y408431D02*
X781780Y408431D01*
X782110Y409228D01*
X782763Y410205D01*
X783595Y411037D01*
X784572Y411690D01*
X785369Y412020D01*
X785369Y408431D01*
X781780Y408431D01*
G37*
%LPD*%
%LPC*%
G36*
X789431Y404369D02*
X789431Y404369D01*
X793020Y404369D01*
X792690Y403572D01*
X792037Y402595D01*
X791205Y401763D01*
X790228Y401110D01*
X789431Y400780D01*
X789431Y404369D01*
G37*
%LPD*%
%LPC*%
G36*
X515080Y370331D02*
X515080Y370331D01*
X515410Y371128D01*
X516063Y372105D01*
X516895Y372937D01*
X517872Y373590D01*
X518669Y373920D01*
X518669Y370331D01*
X515080Y370331D01*
G37*
%LPD*%
%LPC*%
G36*
X522731Y366269D02*
X522731Y366269D01*
X526320Y366269D01*
X525990Y365472D01*
X525337Y364495D01*
X524505Y363663D01*
X523528Y363010D01*
X522731Y362680D01*
X522731Y366269D01*
G37*
%LPD*%
%LPC*%
G36*
X540480Y344931D02*
X540480Y344931D01*
X540810Y345728D01*
X541463Y346705D01*
X542295Y347537D01*
X543272Y348190D01*
X544069Y348520D01*
X544069Y344931D01*
X540480Y344931D01*
G37*
%LPD*%
%LPC*%
G36*
X548131Y340869D02*
X548131Y340869D01*
X551720Y340869D01*
X551390Y340072D01*
X550737Y339095D01*
X549905Y338263D01*
X548928Y337610D01*
X548131Y337280D01*
X548131Y340869D01*
G37*
%LPD*%
%LPC*%
G36*
X586231Y505969D02*
X586231Y505969D01*
X589820Y505969D01*
X589490Y505172D01*
X588837Y504195D01*
X588005Y503363D01*
X587028Y502710D01*
X586231Y502380D01*
X586231Y505969D01*
G37*
%LPD*%
%LPC*%
G36*
X578580Y510031D02*
X578580Y510031D01*
X578910Y510828D01*
X579563Y511805D01*
X580395Y512637D01*
X581372Y513290D01*
X582169Y513620D01*
X582169Y510031D01*
X578580Y510031D01*
G37*
%LPD*%
%LPC*%
G36*
X510031Y683769D02*
X510031Y683769D01*
X513620Y683769D01*
X513290Y682972D01*
X512637Y681995D01*
X511805Y681163D01*
X510828Y680510D01*
X510031Y680180D01*
X510031Y683769D01*
G37*
%LPD*%
%LPC*%
G36*
X502380Y687831D02*
X502380Y687831D01*
X502710Y688628D01*
X503363Y689605D01*
X504195Y690437D01*
X505172Y691090D01*
X505969Y691420D01*
X505969Y687831D01*
X502380Y687831D01*
G37*
%LPD*%
%LPC*%
G36*
X383031Y798069D02*
X383031Y798069D01*
X386620Y798069D01*
X386290Y797272D01*
X385637Y796295D01*
X384805Y795463D01*
X383828Y794810D01*
X383031Y794480D01*
X383031Y798069D01*
G37*
%LPD*%
%LPC*%
G36*
X375380Y802131D02*
X375380Y802131D01*
X375710Y802928D01*
X376363Y803905D01*
X377195Y804737D01*
X378172Y805390D01*
X378969Y805720D01*
X378969Y802131D01*
X375380Y802131D01*
G37*
%LPD*%
%LPC*%
G36*
X784572Y401110D02*
X784572Y401110D01*
X783595Y401763D01*
X782763Y402595D01*
X782110Y403572D01*
X781780Y404369D01*
X785369Y404369D01*
X785369Y400780D01*
X784572Y401110D01*
G37*
%LPD*%
%LPC*%
G36*
X517872Y363010D02*
X517872Y363010D01*
X516895Y363663D01*
X516063Y364495D01*
X515410Y365472D01*
X515080Y366269D01*
X518669Y366269D01*
X518669Y362680D01*
X517872Y363010D01*
G37*
%LPD*%
%LPC*%
G36*
X543272Y337610D02*
X543272Y337610D01*
X542295Y338263D01*
X541463Y339095D01*
X540810Y340072D01*
X540480Y340869D01*
X544069Y340869D01*
X544069Y337280D01*
X543272Y337610D01*
G37*
%LPD*%
%LPC*%
G36*
X581372Y502710D02*
X581372Y502710D01*
X580395Y503363D01*
X579563Y504195D01*
X578910Y505172D01*
X578580Y505969D01*
X582169Y505969D01*
X582169Y502380D01*
X581372Y502710D01*
G37*
%LPD*%
%LPC*%
G36*
X505172Y680510D02*
X505172Y680510D01*
X504195Y681163D01*
X503363Y681995D01*
X502710Y682972D01*
X502380Y683769D01*
X505969Y683769D01*
X505969Y680180D01*
X505172Y680510D01*
G37*
%LPD*%
%LPC*%
G36*
X378172Y794810D02*
X378172Y794810D01*
X377195Y795463D01*
X376363Y796295D01*
X375710Y797272D01*
X375380Y798069D01*
X378969Y798069D01*
X378969Y794480D01*
X378172Y794810D01*
G37*
%LPD*%
%LPC*%
G36*
X46599Y102599D02*
X46599Y102599D01*
X46599Y102601D01*
X46601Y102601D01*
X46601Y102599D01*
X46599Y102599D01*
G37*
%LPD*%
%LPC*%
G36*
X75599Y55599D02*
X75599Y55599D01*
X75599Y55601D01*
X75601Y55601D01*
X75601Y55599D01*
X75599Y55599D01*
G37*
%LPD*%
D10*
X381000Y355600D03*
X406400Y355600D03*
X406400Y381000D03*
X381000Y381000D03*
X381000Y330200D03*
X406400Y330200D03*
D11*
X137200Y917000D03*
D12*
X162600Y917000D03*
X188000Y917000D03*
X213400Y917000D03*
X238800Y917000D03*
X264200Y917000D03*
X289600Y917000D03*
X315000Y917000D03*
X340400Y917000D03*
X365800Y917000D03*
X391200Y917000D03*
X416600Y917000D03*
X442000Y917000D03*
X467400Y917000D03*
X492800Y917000D03*
X518200Y917000D03*
D13*
X152400Y495300D03*
X152400Y470300D03*
X152400Y520300D03*
D14*
X82400Y442300D03*
X82400Y548300D03*
D15*
X843280Y495300D02*
X858520Y495300D01*
X858520Y469900D02*
X843280Y469900D01*
X843280Y444500D02*
X858520Y444500D01*
D16*
X75600Y55600D03*
X105600Y102600D03*
X46600Y102600D03*
D17*
X939800Y73500D03*
X939800Y53500D03*
D18*
X635000Y203200D03*
D19*
X635000Y254000D01*
D18*
X635000Y254000D03*
X508000Y685800D03*
X381000Y800100D03*
X546100Y342900D03*
X520700Y368300D03*
X787400Y406400D03*
X584200Y508000D03*
X546100Y190500D03*
D19*
X508000Y228600D01*
X508000Y254000D01*
X546100Y292100D02*
X558800Y292100D01*
X546100Y292100D02*
X508000Y254000D01*
D18*
X558800Y292100D03*
X685800Y266700D03*
X685800Y101600D03*
D19*
X685800Y266700D01*
D18*
X635000Y292100D03*
D19*
X647700Y304800D01*
X647700Y342900D01*
X660400Y355600D01*
X698500Y355600D01*
X711200Y342900D01*
X711200Y317500D01*
X723900Y304800D01*
X800100Y304800D01*
X812800Y317500D01*
D18*
X812800Y355727D03*
D19*
X812800Y317500D01*
D18*
X469900Y342900D03*
D19*
X457200Y355600D01*
X406400Y355600D01*
X381000Y381000D02*
X381000Y393700D01*
X393700Y406400D01*
X419100Y406400D01*
X431800Y393700D01*
X431800Y381000D01*
D18*
X431800Y381000D03*
D19*
X393700Y342900D02*
X381000Y355600D01*
X393700Y342900D02*
X431800Y342900D01*
D18*
X495300Y292100D03*
D19*
X482600Y292100D02*
X431800Y342900D01*
X482600Y292100D02*
X495300Y292100D01*
D18*
X596900Y215900D03*
D19*
X622300Y241300D01*
X622300Y342900D01*
D18*
X622300Y342900D03*
X190500Y508000D03*
D20*
X164700Y508000D02*
X152400Y520300D01*
X164700Y508000D02*
X190500Y508000D01*
D18*
X647700Y558800D03*
D20*
X546100Y558800D01*
D18*
X546100Y558800D03*
X444500Y241300D03*
X461780Y258580D03*
D20*
X444500Y241300D01*
D18*
X698500Y457200D03*
D20*
X114300Y431800D02*
X101600Y419100D01*
D18*
X101600Y419100D03*
D20*
X215900Y457200D02*
X698500Y457200D01*
X215900Y457200D02*
X190500Y431800D01*
X114300Y431800D01*
D18*
X660400Y292100D03*
D19*
X660400Y152400D01*
D18*
X660400Y152400D03*
X609600Y342900D03*
D19*
X609600Y241300D01*
D18*
X457200Y165100D03*
D19*
X469900Y177800D01*
X546100Y177800D01*
X609600Y241300D01*
D18*
X114300Y215900D03*
D19*
X139700Y215900D01*
D18*
X139700Y215900D03*
X800100Y508000D03*
D19*
X800100Y457200D02*
X812800Y444500D01*
D18*
X812800Y444500D03*
D19*
X800100Y457200D02*
X800100Y508000D01*
M02*
