G04 EAGLE Gerber RS-274X export*
G75*
%MOMM*%
%FSLAX34Y34*%
%LPD*%
%INSoldermask Bottom*%
%IPPOS*%
%AMOC8*
5,1,8,0,0,1.08239X$1,22.5*%
G01*
%ADD10C,1.727200*%
%ADD11R,1.981200X1.981200*%
%ADD12C,1.981200*%
%ADD13C,2.901600*%
%ADD14C,1.609600*%
%ADD15C,3.217600*%
%ADD16C,1.625600*%
%ADD17C,4.901600*%
%ADD18C,1.509600*%


D10*
X381000Y355600D03*
X406400Y355600D03*
X406400Y381000D03*
X381000Y381000D03*
X381000Y330200D03*
X406400Y330200D03*
D11*
X137200Y917000D03*
D12*
X162600Y917000D03*
X188000Y917000D03*
X213400Y917000D03*
X238800Y917000D03*
X264200Y917000D03*
X289600Y917000D03*
X315000Y917000D03*
X340400Y917000D03*
X365800Y917000D03*
X391200Y917000D03*
X416600Y917000D03*
X442000Y917000D03*
X467400Y917000D03*
X492800Y917000D03*
X518200Y917000D03*
D13*
X82200Y917000D03*
X82200Y607000D03*
X832200Y917000D03*
X832200Y607000D03*
D14*
X152400Y495300D03*
X152400Y470300D03*
X152400Y520300D03*
D15*
X82400Y442300D03*
X82400Y548300D03*
D16*
X843280Y495300D02*
X858520Y495300D01*
X858520Y469900D02*
X843280Y469900D01*
X843280Y444500D02*
X858520Y444500D01*
D17*
X75600Y55600D03*
X105600Y102600D03*
X46600Y102600D03*
D18*
X939800Y73500D03*
X939800Y53500D03*
M02*
