G04 EAGLE Gerber RS-274X export*
G75*
%MOMM*%
%FSLAX34Y34*%
%LPD*%
%IN*%
%IPPOS*%
%AMOC8*
5,1,8,0,0,1.08239X$1,22.5*%
G01*
%ADD10C,0.254000*%


D10*
X0Y0D02*
X939600Y0D01*
X939600Y949200D01*
X0Y949200D01*
X0Y0D01*
X83500Y916500D02*
X83429Y915503D01*
X83286Y914513D01*
X83074Y913536D01*
X82792Y912576D01*
X82443Y911639D01*
X82027Y910729D01*
X81548Y909852D01*
X81007Y909010D01*
X80408Y908210D01*
X79753Y907454D01*
X79046Y906747D01*
X78290Y906092D01*
X77490Y905493D01*
X76648Y904952D01*
X75771Y904473D01*
X74861Y904057D01*
X73924Y903708D01*
X72965Y903426D01*
X71987Y903214D01*
X70998Y903071D01*
X70000Y903000D01*
X69000Y903000D01*
X68003Y903071D01*
X67013Y903214D01*
X66036Y903426D01*
X65076Y903708D01*
X64139Y904057D01*
X63229Y904473D01*
X62352Y904952D01*
X61510Y905493D01*
X60710Y906092D01*
X59954Y906747D01*
X59247Y907454D01*
X58592Y908210D01*
X57993Y909010D01*
X57452Y909852D01*
X56973Y910729D01*
X56557Y911639D01*
X56208Y912576D01*
X55926Y913536D01*
X55714Y914513D01*
X55571Y915503D01*
X55500Y916500D01*
X55500Y917500D01*
X55571Y918498D01*
X55714Y919487D01*
X55926Y920465D01*
X56208Y921424D01*
X56557Y922361D01*
X56973Y923271D01*
X57452Y924148D01*
X57993Y924990D01*
X58592Y925790D01*
X59247Y926546D01*
X59954Y927253D01*
X60710Y927908D01*
X61510Y928507D01*
X62352Y929048D01*
X63229Y929527D01*
X64139Y929943D01*
X65076Y930292D01*
X66036Y930574D01*
X67013Y930786D01*
X68003Y930929D01*
X69000Y931000D01*
X70000Y931000D01*
X70998Y930929D01*
X71987Y930786D01*
X72965Y930574D01*
X73924Y930292D01*
X74861Y929943D01*
X75771Y929527D01*
X76648Y929048D01*
X77490Y928507D01*
X78290Y927908D01*
X79046Y927253D01*
X79753Y926546D01*
X80408Y925790D01*
X81007Y924990D01*
X81548Y924148D01*
X82027Y923271D01*
X82443Y922361D01*
X82792Y921424D01*
X83074Y920465D01*
X83286Y919487D01*
X83429Y918498D01*
X83500Y917500D01*
X83500Y916500D01*
X83500Y606500D02*
X83429Y605503D01*
X83286Y604513D01*
X83074Y603536D01*
X82792Y602576D01*
X82443Y601639D01*
X82027Y600729D01*
X81548Y599852D01*
X81007Y599010D01*
X80408Y598210D01*
X79753Y597454D01*
X79046Y596747D01*
X78290Y596092D01*
X77490Y595493D01*
X76648Y594952D01*
X75771Y594473D01*
X74861Y594057D01*
X73924Y593708D01*
X72965Y593426D01*
X71987Y593214D01*
X70998Y593071D01*
X70000Y593000D01*
X69000Y593000D01*
X68003Y593071D01*
X67013Y593214D01*
X66036Y593426D01*
X65076Y593708D01*
X64139Y594057D01*
X63229Y594473D01*
X62352Y594952D01*
X61510Y595493D01*
X60710Y596092D01*
X59954Y596747D01*
X59247Y597454D01*
X58592Y598210D01*
X57993Y599010D01*
X57452Y599852D01*
X56973Y600729D01*
X56557Y601639D01*
X56208Y602576D01*
X55926Y603536D01*
X55714Y604513D01*
X55571Y605503D01*
X55500Y606500D01*
X55500Y607500D01*
X55571Y608498D01*
X55714Y609487D01*
X55926Y610465D01*
X56208Y611424D01*
X56557Y612361D01*
X56973Y613271D01*
X57452Y614148D01*
X57993Y614990D01*
X58592Y615790D01*
X59247Y616546D01*
X59954Y617253D01*
X60710Y617908D01*
X61510Y618507D01*
X62352Y619048D01*
X63229Y619527D01*
X64139Y619943D01*
X65076Y620292D01*
X66036Y620574D01*
X67013Y620786D01*
X68003Y620929D01*
X69000Y621000D01*
X70000Y621000D01*
X70998Y620929D01*
X71987Y620786D01*
X72965Y620574D01*
X73924Y620292D01*
X74861Y619943D01*
X75771Y619527D01*
X76648Y619048D01*
X77490Y618507D01*
X78290Y617908D01*
X79046Y617253D01*
X79753Y616546D01*
X80408Y615790D01*
X81007Y614990D01*
X81548Y614148D01*
X82027Y613271D01*
X82443Y612361D01*
X82792Y611424D01*
X83074Y610465D01*
X83286Y609487D01*
X83429Y608498D01*
X83500Y607500D01*
X83500Y606500D01*
X833500Y916500D02*
X833429Y915503D01*
X833286Y914513D01*
X833074Y913536D01*
X832792Y912576D01*
X832443Y911639D01*
X832027Y910729D01*
X831548Y909852D01*
X831007Y909010D01*
X830408Y908210D01*
X829753Y907454D01*
X829046Y906747D01*
X828290Y906092D01*
X827490Y905493D01*
X826648Y904952D01*
X825771Y904473D01*
X824861Y904057D01*
X823924Y903708D01*
X822965Y903426D01*
X821987Y903214D01*
X820998Y903071D01*
X820000Y903000D01*
X819000Y903000D01*
X818003Y903071D01*
X817013Y903214D01*
X816036Y903426D01*
X815076Y903708D01*
X814139Y904057D01*
X813229Y904473D01*
X812352Y904952D01*
X811510Y905493D01*
X810710Y906092D01*
X809954Y906747D01*
X809247Y907454D01*
X808592Y908210D01*
X807993Y909010D01*
X807452Y909852D01*
X806973Y910729D01*
X806557Y911639D01*
X806208Y912576D01*
X805926Y913536D01*
X805714Y914513D01*
X805571Y915503D01*
X805500Y916500D01*
X805500Y917500D01*
X805571Y918498D01*
X805714Y919487D01*
X805926Y920465D01*
X806208Y921424D01*
X806557Y922361D01*
X806973Y923271D01*
X807452Y924148D01*
X807993Y924990D01*
X808592Y925790D01*
X809247Y926546D01*
X809954Y927253D01*
X810710Y927908D01*
X811510Y928507D01*
X812352Y929048D01*
X813229Y929527D01*
X814139Y929943D01*
X815076Y930292D01*
X816036Y930574D01*
X817013Y930786D01*
X818003Y930929D01*
X819000Y931000D01*
X820000Y931000D01*
X820998Y930929D01*
X821987Y930786D01*
X822965Y930574D01*
X823924Y930292D01*
X824861Y929943D01*
X825771Y929527D01*
X826648Y929048D01*
X827490Y928507D01*
X828290Y927908D01*
X829046Y927253D01*
X829753Y926546D01*
X830408Y925790D01*
X831007Y924990D01*
X831548Y924148D01*
X832027Y923271D01*
X832443Y922361D01*
X832792Y921424D01*
X833074Y920465D01*
X833286Y919487D01*
X833429Y918498D01*
X833500Y917500D01*
X833500Y916500D01*
X833500Y606500D02*
X833429Y605503D01*
X833286Y604513D01*
X833074Y603536D01*
X832792Y602576D01*
X832443Y601639D01*
X832027Y600729D01*
X831548Y599852D01*
X831007Y599010D01*
X830408Y598210D01*
X829753Y597454D01*
X829046Y596747D01*
X828290Y596092D01*
X827490Y595493D01*
X826648Y594952D01*
X825771Y594473D01*
X824861Y594057D01*
X823924Y593708D01*
X822965Y593426D01*
X821987Y593214D01*
X820998Y593071D01*
X820000Y593000D01*
X819000Y593000D01*
X818003Y593071D01*
X817013Y593214D01*
X816036Y593426D01*
X815076Y593708D01*
X814139Y594057D01*
X813229Y594473D01*
X812352Y594952D01*
X811510Y595493D01*
X810710Y596092D01*
X809954Y596747D01*
X809247Y597454D01*
X808592Y598210D01*
X807993Y599010D01*
X807452Y599852D01*
X806973Y600729D01*
X806557Y601639D01*
X806208Y602576D01*
X805926Y603536D01*
X805714Y604513D01*
X805571Y605503D01*
X805500Y606500D01*
X805500Y607500D01*
X805571Y608498D01*
X805714Y609487D01*
X805926Y610465D01*
X806208Y611424D01*
X806557Y612361D01*
X806973Y613271D01*
X807452Y614148D01*
X807993Y614990D01*
X808592Y615790D01*
X809247Y616546D01*
X809954Y617253D01*
X810710Y617908D01*
X811510Y618507D01*
X812352Y619048D01*
X813229Y619527D01*
X814139Y619943D01*
X815076Y620292D01*
X816036Y620574D01*
X817013Y620786D01*
X818003Y620929D01*
X819000Y621000D01*
X820000Y621000D01*
X820998Y620929D01*
X821987Y620786D01*
X822965Y620574D01*
X823924Y620292D01*
X824861Y619943D01*
X825771Y619527D01*
X826648Y619048D01*
X827490Y618507D01*
X828290Y617908D01*
X829046Y617253D01*
X829753Y616546D01*
X830408Y615790D01*
X831007Y614990D01*
X831548Y614148D01*
X832027Y613271D01*
X832443Y612361D01*
X832792Y611424D01*
X833074Y610465D01*
X833286Y609487D01*
X833429Y608498D01*
X833500Y607500D01*
X833500Y606500D01*
M02*
