M48
;GenerationSoftware,Autodesk,EAGLE,9.6.2*%
;CreationDate,2020-11-12T01:04:50Z*%
FMAT,2
ICI,OFF
METRIC,TZ,000.000
T7C0.381
T6C0.900
T5C1.000
T4C1.016
T3C2.100
T2C2.800
T1C3.000
%
G90
M71
T1
X4660Y10260
X10560Y10260
X7560Y5560
T2
X83220Y91700
X83220Y60700
X8220Y91700
X8220Y60700
T3
X8240Y54830
X8240Y44230
T4
X41660Y91700
X44200Y91700
X46740Y91700
X49280Y91700
X51820Y91700
X85090Y49530
X85090Y46990
X85090Y44450
X39120Y91700
X16260Y91700
X13720Y91700
X18800Y91700
X21340Y91700
X23880Y91700
X26420Y91700
X28960Y91700
X31500Y91700
X34040Y91700
X36580Y91700
T5
X15240Y49530
X15240Y47030
X15240Y52030
T6
X38100Y35560
X93980Y5350
X40640Y35560
X40640Y38100
X38100Y38100
X38100Y33020
X40640Y33020
X93980Y7350
T7
X68580Y10160
X63500Y29210
X81280Y35573
X46990Y34290
X43180Y38100
X49530Y29210
X59690Y21590
X19050Y50800
X64770Y55880
X54610Y55880
X44450Y24130
X52070Y36830
X69850Y45720
X10160Y41910
X66040Y29210
X80010Y50800
X46178Y25858
X63500Y20320
X63500Y25400
X50800Y68580
X38100Y80010
X54610Y34290
X78740Y40640
X58420Y50800
X55880Y29210
X13970Y21590
X54610Y19050
X81280Y44450
X62230Y34290
X11430Y21590
X45720Y16510
X60960Y34290
X68580Y26670
X66040Y15240
M30