M48
;GenerationSoftware,Autodesk,EAGLE,9.6.2*%
;CreationDate,2020-11-05T22:52:58Z*%
FMAT,2
ICI,OFF
METRIC,TZ,000.000
T7C0.381
T6C0.800
T5C0.813
T4C0.900
T3C1.016
T2C2.800
T1C2.997
%
G90
M71
T1
X6990Y6320
X3990Y11020
X9990Y11020
X90830Y17980
X93830Y13280
X87830Y13280
T2
X78140Y65780
X3140Y96780
X3140Y65780
X78140Y96780
T3
X28960Y96780
X26420Y96780
X23880Y96780
X21340Y96780
X18800Y96780
X16260Y96780
X13720Y96780
X11180Y96780
X8640Y96780
X44200Y96780
X93920Y64650
X93920Y67190
X93920Y69730
X46740Y96780
X41660Y96780
X39120Y96780
X36580Y96780
X34040Y96780
X31500Y96780
T4
X45720Y29210
X40640Y26670
X43180Y26670
X43180Y29210
X40640Y29210
X45720Y26670
T5
X77470Y36830
X85090Y41910
X77470Y34290
X85090Y36830
X85090Y34290
X77470Y41910
X77470Y39370
X85090Y39370
T6
X63555Y41240
X55685Y38700
X55685Y41240
X55685Y36160
X55685Y43780
X63555Y36160
X63555Y43780
X63555Y38700
T7
X43600Y33600
X50500Y41200
X42700Y33700
X49500Y40400
X50152Y34400
X53600Y33300
X89400Y31500
X88800Y41800
X42000Y31500
X36700Y32400
X42000Y32900
X16400Y23000
X90100Y61900
X82300Y62000
X44000Y31500
X76100Y35500
X32000Y14000
X52800Y21400
X50200Y15600
X54600Y18500
X85700Y51300
X61800Y47800
X67100Y45600
X39600Y31600
X37129Y31571
X47700Y50500
X43600Y47900
X34200Y53300
X10600Y58700
X11200Y75600
X53700Y35600
X10100Y28000
X47700Y32700
X52400Y45700
X49500Y39200
X45100Y24648
X40552Y33048
X75600Y40100
X50152Y31000
X26000Y17200
X65600Y20500
X14100Y51300
X65700Y57500
X89900Y80200
X14700Y28600
M30