G04 EAGLE Gerber RS-274X export*
G75*
%MOMM*%
%FSLAX34Y34*%
%LPD*%
%INSoldermask Top*%
%IPPOS*%
%AMOC8*
5,1,8,0,0,1.08239X$1,22.5*%
G01*
%ADD10R,1.601600X1.401600*%
%ADD11R,2.601600X3.601600*%
%ADD12R,1.401600X1.601600*%
%ADD13R,2.351600X3.281600*%
%ADD14R,2.209800X1.498600*%
%ADD15R,10.901600X10.511600*%
%ADD16R,1.168400X2.260600*%
%ADD17C,1.422400*%
%ADD18C,1.727200*%
%ADD19C,4.419600*%
%ADD20R,2.001600X3.501600*%
%ADD21R,1.981200X1.981200*%
%ADD22C,1.981200*%
%ADD23C,2.901600*%
%ADD24C,1.625600*%
%ADD25R,2.101600X1.001600*%
%ADD26R,2.101600X1.401600*%
%ADD27R,6.301600X2.801600*%
%ADD28C,1.409600*%
%ADD29R,1.409600X1.409600*%
%ADD30R,0.651600X1.701600*%
%ADD31R,1.701600X0.651600*%

G36*
X955792Y963520D02*
X955792Y963520D01*
X955835Y963532D01*
X955901Y963539D01*
X957584Y963990D01*
X957625Y964009D01*
X957688Y964028D01*
X959268Y964765D01*
X959305Y964791D01*
X959364Y964820D01*
X960792Y965820D01*
X960823Y965852D01*
X960876Y965891D01*
X962109Y967124D01*
X962134Y967160D01*
X962180Y967208D01*
X963180Y968636D01*
X963198Y968677D01*
X963235Y968732D01*
X963972Y970312D01*
X963983Y970355D01*
X964010Y970416D01*
X964461Y972099D01*
X964463Y972131D01*
X964470Y972152D01*
X964470Y972167D01*
X964480Y972208D01*
X964632Y973945D01*
X964628Y973989D01*
X964632Y974055D01*
X964480Y975792D01*
X964468Y975835D01*
X964461Y975901D01*
X964010Y977584D01*
X963991Y977625D01*
X963972Y977688D01*
X963235Y979268D01*
X963209Y979305D01*
X963180Y979364D01*
X962180Y980792D01*
X962148Y980823D01*
X962109Y980876D01*
X960876Y982109D01*
X960840Y982134D01*
X960792Y982180D01*
X959364Y983180D01*
X959323Y983198D01*
X959268Y983235D01*
X957688Y983972D01*
X957645Y983983D01*
X957584Y984010D01*
X955901Y984461D01*
X955856Y984464D01*
X955792Y984480D01*
X954055Y984632D01*
X954011Y984628D01*
X953945Y984632D01*
X952208Y984480D01*
X952165Y984468D01*
X952099Y984461D01*
X950416Y984010D01*
X950375Y983991D01*
X950312Y983972D01*
X948732Y983235D01*
X948695Y983209D01*
X948636Y983180D01*
X947208Y982180D01*
X947177Y982148D01*
X947124Y982109D01*
X945891Y980876D01*
X945866Y980840D01*
X945820Y980792D01*
X944820Y979364D01*
X944802Y979323D01*
X944765Y979268D01*
X944028Y977688D01*
X944017Y977645D01*
X943990Y977584D01*
X943539Y975901D01*
X943536Y975856D01*
X943520Y975792D01*
X943368Y974055D01*
X943372Y974011D01*
X943368Y973945D01*
X943520Y972208D01*
X943532Y972165D01*
X943536Y972131D01*
X943536Y972115D01*
X943538Y972110D01*
X943539Y972099D01*
X943990Y970416D01*
X944009Y970375D01*
X944028Y970312D01*
X944765Y968732D01*
X944791Y968695D01*
X944820Y968636D01*
X945820Y967208D01*
X945852Y967177D01*
X945891Y967124D01*
X947124Y965891D01*
X947160Y965866D01*
X947208Y965820D01*
X948636Y964820D01*
X948677Y964802D01*
X948732Y964765D01*
X950312Y964028D01*
X950355Y964017D01*
X950416Y963990D01*
X952099Y963539D01*
X952144Y963536D01*
X952208Y963520D01*
X953945Y963368D01*
X953989Y963372D01*
X954055Y963368D01*
X955792Y963520D01*
G37*
G36*
X958792Y14520D02*
X958792Y14520D01*
X958835Y14532D01*
X958901Y14539D01*
X960584Y14990D01*
X960625Y15009D01*
X960688Y15028D01*
X962268Y15765D01*
X962305Y15791D01*
X962364Y15820D01*
X963792Y16820D01*
X963823Y16852D01*
X963876Y16891D01*
X965109Y18124D01*
X965134Y18160D01*
X965180Y18208D01*
X966180Y19636D01*
X966198Y19677D01*
X966235Y19732D01*
X966972Y21312D01*
X966983Y21355D01*
X967010Y21416D01*
X967461Y23099D01*
X967463Y23131D01*
X967470Y23152D01*
X967470Y23167D01*
X967480Y23208D01*
X967632Y24945D01*
X967628Y24989D01*
X967632Y25055D01*
X967480Y26792D01*
X967468Y26835D01*
X967461Y26901D01*
X967010Y28584D01*
X966991Y28625D01*
X966972Y28688D01*
X966235Y30268D01*
X966209Y30305D01*
X966180Y30364D01*
X965180Y31792D01*
X965148Y31823D01*
X965109Y31876D01*
X963876Y33109D01*
X963840Y33134D01*
X963792Y33180D01*
X962364Y34180D01*
X962323Y34198D01*
X962268Y34235D01*
X960688Y34972D01*
X960645Y34983D01*
X960584Y35010D01*
X958901Y35461D01*
X958856Y35464D01*
X958792Y35480D01*
X957055Y35632D01*
X957011Y35628D01*
X956945Y35632D01*
X955208Y35480D01*
X955165Y35468D01*
X955099Y35461D01*
X953416Y35010D01*
X953375Y34991D01*
X953312Y34972D01*
X951732Y34235D01*
X951695Y34209D01*
X951636Y34180D01*
X950208Y33180D01*
X950177Y33148D01*
X950124Y33109D01*
X948891Y31876D01*
X948866Y31840D01*
X948820Y31792D01*
X947820Y30364D01*
X947802Y30323D01*
X947765Y30268D01*
X947028Y28688D01*
X947017Y28645D01*
X946990Y28584D01*
X946539Y26901D01*
X946536Y26856D01*
X946520Y26792D01*
X946368Y25055D01*
X946372Y25011D01*
X946368Y24945D01*
X946520Y23208D01*
X946532Y23165D01*
X946536Y23131D01*
X946536Y23115D01*
X946538Y23110D01*
X946539Y23099D01*
X946990Y21416D01*
X947009Y21375D01*
X947028Y21312D01*
X947765Y19732D01*
X947791Y19695D01*
X947820Y19636D01*
X948820Y18208D01*
X948852Y18177D01*
X948891Y18124D01*
X950124Y16891D01*
X950160Y16866D01*
X950208Y16820D01*
X951636Y15820D01*
X951677Y15802D01*
X951732Y15765D01*
X953312Y15028D01*
X953355Y15017D01*
X953416Y14990D01*
X955099Y14539D01*
X955144Y14536D01*
X955208Y14520D01*
X956945Y14368D01*
X956989Y14372D01*
X957055Y14368D01*
X958792Y14520D01*
G37*
G36*
X29792Y13520D02*
X29792Y13520D01*
X29835Y13532D01*
X29901Y13539D01*
X31584Y13990D01*
X31625Y14009D01*
X31688Y14028D01*
X33268Y14765D01*
X33305Y14791D01*
X33364Y14820D01*
X34792Y15820D01*
X34823Y15852D01*
X34876Y15891D01*
X36109Y17124D01*
X36134Y17160D01*
X36180Y17208D01*
X37180Y18636D01*
X37198Y18677D01*
X37235Y18732D01*
X37972Y20312D01*
X37983Y20355D01*
X38010Y20416D01*
X38461Y22099D01*
X38463Y22131D01*
X38470Y22152D01*
X38470Y22167D01*
X38480Y22208D01*
X38632Y23945D01*
X38628Y23989D01*
X38632Y24055D01*
X38480Y25792D01*
X38468Y25835D01*
X38461Y25901D01*
X38010Y27584D01*
X37991Y27625D01*
X37972Y27688D01*
X37235Y29268D01*
X37209Y29305D01*
X37180Y29364D01*
X36180Y30792D01*
X36148Y30823D01*
X36109Y30876D01*
X34876Y32109D01*
X34840Y32134D01*
X34792Y32180D01*
X33364Y33180D01*
X33323Y33198D01*
X33268Y33235D01*
X31688Y33972D01*
X31645Y33983D01*
X31584Y34010D01*
X29901Y34461D01*
X29856Y34464D01*
X29792Y34480D01*
X28055Y34632D01*
X28011Y34628D01*
X27945Y34632D01*
X26208Y34480D01*
X26165Y34468D01*
X26099Y34461D01*
X24416Y34010D01*
X24375Y33991D01*
X24312Y33972D01*
X22732Y33235D01*
X22695Y33209D01*
X22636Y33180D01*
X21208Y32180D01*
X21177Y32148D01*
X21124Y32109D01*
X19891Y30876D01*
X19866Y30840D01*
X19820Y30792D01*
X18820Y29364D01*
X18802Y29323D01*
X18765Y29268D01*
X18028Y27688D01*
X18017Y27645D01*
X17990Y27584D01*
X17539Y25901D01*
X17536Y25856D01*
X17520Y25792D01*
X17368Y24055D01*
X17372Y24011D01*
X17368Y23945D01*
X17520Y22208D01*
X17532Y22165D01*
X17536Y22131D01*
X17536Y22115D01*
X17538Y22110D01*
X17539Y22099D01*
X17990Y20416D01*
X18009Y20375D01*
X18028Y20312D01*
X18765Y18732D01*
X18791Y18695D01*
X18820Y18636D01*
X19820Y17208D01*
X19852Y17177D01*
X19891Y17124D01*
X21124Y15891D01*
X21160Y15866D01*
X21208Y15820D01*
X22636Y14820D01*
X22677Y14802D01*
X22732Y14765D01*
X24312Y14028D01*
X24355Y14017D01*
X24416Y13990D01*
X26099Y13539D01*
X26144Y13536D01*
X26208Y13520D01*
X27945Y13368D01*
X27989Y13372D01*
X28055Y13368D01*
X29792Y13520D01*
G37*
D10*
X673100Y357500D03*
X673100Y376500D03*
D11*
X50800Y426200D03*
X50800Y361200D03*
X279400Y426200D03*
X279400Y361200D03*
D12*
X422300Y215900D03*
X441300Y215900D03*
X816000Y482600D03*
X835000Y482600D03*
D10*
X482600Y79400D03*
X482600Y98400D03*
X305800Y75400D03*
X305800Y94400D03*
D12*
X308000Y533400D03*
X327000Y533400D03*
D13*
X22950Y240300D03*
X92050Y240300D03*
D14*
X177800Y63500D03*
X268986Y63500D03*
X177800Y108458D03*
X268986Y108458D03*
D15*
X165100Y393700D03*
D16*
X131064Y310388D03*
X148082Y310388D03*
X165100Y310388D03*
X182118Y310388D03*
X199136Y310388D03*
D17*
X774700Y419100D03*
X774700Y393700D03*
X850900Y393700D03*
X850900Y419100D03*
X774700Y368300D03*
X774700Y342900D03*
X850900Y368300D03*
X850900Y342900D03*
D14*
X342900Y63500D03*
X434086Y63500D03*
X342900Y108458D03*
X434086Y108458D03*
D18*
X431800Y266700D03*
X431800Y292100D03*
X406400Y292100D03*
X406400Y266700D03*
X457200Y266700D03*
X457200Y292100D03*
D19*
X878300Y132800D03*
X938300Y132800D03*
X908300Y179800D03*
X99900Y110200D03*
X39900Y110200D03*
X69900Y63200D03*
D20*
X259900Y241300D03*
X298900Y241300D03*
D21*
X86400Y967800D03*
D22*
X111800Y967800D03*
X137200Y967800D03*
X162600Y967800D03*
X188000Y967800D03*
X213400Y967800D03*
X238800Y967800D03*
X264200Y967800D03*
X289600Y967800D03*
X315000Y967800D03*
X340400Y967800D03*
X365800Y967800D03*
X391200Y967800D03*
X416600Y967800D03*
X442000Y967800D03*
X467400Y967800D03*
D23*
X31400Y967800D03*
X31400Y657800D03*
X781400Y967800D03*
X781400Y657800D03*
D24*
X931580Y697300D02*
X946820Y697300D01*
X946820Y671900D02*
X931580Y671900D01*
X931580Y646500D02*
X946820Y646500D01*
D12*
X485800Y533400D03*
X504800Y533400D03*
D10*
X850900Y854100D03*
X850900Y873100D03*
D12*
X394500Y22600D03*
X375500Y22600D03*
X860400Y292100D03*
X841400Y292100D03*
X790600Y50800D03*
X809600Y50800D03*
X739800Y50800D03*
X758800Y50800D03*
D25*
X82200Y567800D03*
D26*
X38200Y581800D03*
D25*
X82200Y595800D03*
D27*
X941800Y419402D03*
X941800Y336598D03*
D10*
X889000Y390500D03*
X889000Y371500D03*
D12*
X676300Y482600D03*
X695300Y482600D03*
D10*
X736600Y371500D03*
X736600Y390500D03*
D12*
X752500Y584200D03*
X771500Y584200D03*
X841400Y584200D03*
X860400Y584200D03*
X681300Y50800D03*
X700300Y50800D03*
X798100Y291900D03*
X779100Y291900D03*
X238900Y24600D03*
X219900Y24600D03*
D28*
X556850Y387000D03*
X556850Y412400D03*
X556850Y361600D03*
D29*
X556850Y437800D03*
D28*
X635550Y361600D03*
X635550Y437800D03*
X635550Y387000D03*
X635550Y412400D03*
D30*
X459800Y435500D03*
X451800Y435500D03*
X443800Y435500D03*
X435800Y435500D03*
X427800Y435500D03*
X419800Y435500D03*
X411800Y435500D03*
X403800Y435500D03*
D31*
X390000Y421700D03*
X390000Y413700D03*
X390000Y405700D03*
X390000Y397700D03*
X390000Y389700D03*
X390000Y381700D03*
X390000Y373700D03*
X390000Y365700D03*
D30*
X403800Y351900D03*
X411800Y351900D03*
X419800Y351900D03*
X427800Y351900D03*
X435800Y351900D03*
X443800Y351900D03*
X451800Y351900D03*
X459800Y351900D03*
D31*
X473600Y365700D03*
X473600Y373700D03*
X473600Y381700D03*
X473600Y389700D03*
X473600Y397700D03*
X473600Y405700D03*
X473600Y413700D03*
X473600Y421700D03*
M02*
