G04 EAGLE Gerber RS-274X export*
G75*
%MOMM*%
%FSLAX34Y34*%
%LPD*%
%INSilkscreen Top*%
%IPPOS*%
%AMOC8*
5,1,8,0,0,1.08239X$1,22.5*%
G01*
%ADD10C,0.101600*%
%ADD11C,0.203200*%
%ADD12C,0.127000*%
%ADD13C,0.200000*%
%ADD14C,0.152400*%
%ADD15R,0.965200X1.676400*%
%ADD16C,0.076200*%
%ADD17C,0.508000*%
%ADD18R,0.762000X10.668000*%
%ADD19R,0.508000X1.905000*%
%ADD20R,0.508000X0.762000*%


D10*
X659892Y360001D02*
X659892Y357404D01*
X659890Y357305D01*
X659884Y357205D01*
X659875Y357106D01*
X659862Y357008D01*
X659845Y356910D01*
X659824Y356812D01*
X659799Y356716D01*
X659771Y356621D01*
X659739Y356527D01*
X659704Y356434D01*
X659665Y356342D01*
X659622Y356252D01*
X659577Y356164D01*
X659527Y356077D01*
X659475Y355993D01*
X659419Y355910D01*
X659361Y355830D01*
X659299Y355752D01*
X659234Y355677D01*
X659166Y355604D01*
X659096Y355534D01*
X659023Y355466D01*
X658948Y355401D01*
X658870Y355339D01*
X658790Y355281D01*
X658707Y355225D01*
X658623Y355173D01*
X658536Y355123D01*
X658448Y355078D01*
X658358Y355035D01*
X658266Y354996D01*
X658173Y354961D01*
X658079Y354929D01*
X657984Y354901D01*
X657888Y354876D01*
X657790Y354855D01*
X657692Y354838D01*
X657594Y354825D01*
X657495Y354816D01*
X657395Y354810D01*
X657296Y354808D01*
X650804Y354808D01*
X650705Y354810D01*
X650605Y354816D01*
X650506Y354825D01*
X650408Y354838D01*
X650310Y354856D01*
X650212Y354876D01*
X650116Y354901D01*
X650020Y354929D01*
X649926Y354961D01*
X649833Y354996D01*
X649742Y355035D01*
X649652Y355078D01*
X649563Y355123D01*
X649477Y355173D01*
X649392Y355225D01*
X649310Y355281D01*
X649230Y355340D01*
X649152Y355401D01*
X649076Y355466D01*
X649003Y355534D01*
X648933Y355604D01*
X648865Y355677D01*
X648800Y355753D01*
X648739Y355831D01*
X648680Y355911D01*
X648624Y355993D01*
X648572Y356078D01*
X648523Y356164D01*
X648477Y356253D01*
X648434Y356343D01*
X648395Y356434D01*
X648360Y356527D01*
X648328Y356621D01*
X648300Y356717D01*
X648275Y356813D01*
X648255Y356911D01*
X648237Y357009D01*
X648224Y357107D01*
X648215Y357206D01*
X648209Y357305D01*
X648207Y357405D01*
X648208Y357404D02*
X648208Y360001D01*
X650804Y364366D02*
X648208Y367612D01*
X659892Y367612D01*
X659892Y370857D02*
X659892Y364366D01*
D11*
X8800Y345200D02*
X8800Y427700D01*
X23300Y442200D02*
X36300Y442200D01*
X65300Y442200D02*
X78300Y442200D01*
X92800Y427700D02*
X92800Y345200D01*
X65300Y345200D01*
X36300Y345200D02*
X8800Y345200D01*
X8800Y427700D02*
X23300Y442200D01*
X78300Y442200D02*
X92800Y427700D01*
X36800Y430200D02*
X35916Y429849D01*
X35041Y429476D01*
X34175Y429082D01*
X33319Y428667D01*
X32473Y428231D01*
X31639Y427775D01*
X30815Y427299D01*
X30004Y426802D01*
X29204Y426287D01*
X28418Y425752D01*
X27645Y425197D01*
X26885Y424625D01*
X26140Y424034D01*
X25409Y423425D01*
X24693Y422798D01*
X23993Y422154D01*
X23308Y421493D01*
X22640Y420816D01*
X21989Y420123D01*
X21355Y419414D01*
X20738Y418690D01*
X20138Y417951D01*
X19557Y417198D01*
X18995Y416431D01*
X18451Y415650D01*
X17927Y414857D01*
X17422Y414051D01*
X16936Y413232D01*
X16471Y412403D01*
X16026Y411562D01*
X15602Y410711D01*
X15198Y409849D01*
X14816Y408978D01*
X14455Y408098D01*
X14115Y407209D01*
X13798Y406313D01*
X13502Y405409D01*
X13228Y404498D01*
X12976Y403580D01*
X12747Y402657D01*
X12540Y401728D01*
X12356Y400795D01*
X12195Y399858D01*
X12057Y398917D01*
X11941Y397972D01*
X11849Y397026D01*
X11779Y396077D01*
X11733Y395127D01*
X11710Y394176D01*
X11710Y393224D01*
X11733Y392273D01*
X11779Y391323D01*
X11849Y390374D01*
X11941Y389428D01*
X12057Y388483D01*
X12195Y387542D01*
X12356Y386605D01*
X12540Y385672D01*
X12747Y384743D01*
X12976Y383820D01*
X13228Y382902D01*
X13502Y381991D01*
X13798Y381087D01*
X14115Y380191D01*
X14455Y379302D01*
X14816Y378422D01*
X15198Y377551D01*
X15602Y376689D01*
X16026Y375838D01*
X16471Y374997D01*
X16936Y374168D01*
X17422Y373349D01*
X17927Y372543D01*
X18451Y371750D01*
X18995Y370969D01*
X19557Y370202D01*
X20138Y369449D01*
X20738Y368710D01*
X21355Y367986D01*
X21989Y367277D01*
X22640Y366584D01*
X23308Y365907D01*
X23993Y365246D01*
X24693Y364602D01*
X25409Y363975D01*
X26140Y363366D01*
X26885Y362775D01*
X27645Y362203D01*
X28418Y361648D01*
X29204Y361113D01*
X30004Y360598D01*
X30815Y360101D01*
X31639Y359625D01*
X32473Y359169D01*
X33319Y358733D01*
X34175Y358318D01*
X35041Y357924D01*
X35916Y357551D01*
X36800Y357200D01*
X64800Y357200D02*
X65684Y357551D01*
X66559Y357924D01*
X67425Y358318D01*
X68281Y358733D01*
X69127Y359169D01*
X69961Y359625D01*
X70785Y360101D01*
X71596Y360598D01*
X72396Y361113D01*
X73182Y361648D01*
X73955Y362203D01*
X74715Y362775D01*
X75460Y363366D01*
X76191Y363975D01*
X76907Y364602D01*
X77607Y365246D01*
X78292Y365907D01*
X78960Y366584D01*
X79611Y367277D01*
X80245Y367986D01*
X80862Y368710D01*
X81462Y369449D01*
X82043Y370202D01*
X82605Y370969D01*
X83149Y371750D01*
X83673Y372543D01*
X84178Y373349D01*
X84664Y374168D01*
X85129Y374997D01*
X85574Y375838D01*
X85998Y376689D01*
X86402Y377551D01*
X86784Y378422D01*
X87145Y379302D01*
X87485Y380191D01*
X87802Y381087D01*
X88098Y381991D01*
X88372Y382902D01*
X88624Y383820D01*
X88853Y384743D01*
X89060Y385672D01*
X89244Y386605D01*
X89405Y387542D01*
X89543Y388483D01*
X89659Y389428D01*
X89751Y390374D01*
X89821Y391323D01*
X89867Y392273D01*
X89890Y393224D01*
X89890Y394176D01*
X89867Y395127D01*
X89821Y396077D01*
X89751Y397026D01*
X89659Y397972D01*
X89543Y398917D01*
X89405Y399858D01*
X89244Y400795D01*
X89060Y401728D01*
X88853Y402657D01*
X88624Y403580D01*
X88372Y404498D01*
X88098Y405409D01*
X87802Y406313D01*
X87485Y407209D01*
X87145Y408098D01*
X86784Y408978D01*
X86402Y409849D01*
X85998Y410711D01*
X85574Y411562D01*
X85129Y412403D01*
X84664Y413232D01*
X84178Y414051D01*
X83673Y414857D01*
X83149Y415650D01*
X82605Y416431D01*
X82043Y417198D01*
X81462Y417951D01*
X80862Y418690D01*
X80245Y419414D01*
X79611Y420123D01*
X78960Y420816D01*
X78292Y421493D01*
X77607Y422154D01*
X76907Y422798D01*
X76191Y423425D01*
X75460Y424034D01*
X74715Y424625D01*
X73955Y425197D01*
X73182Y425752D01*
X72396Y426287D01*
X71596Y426802D01*
X70785Y427299D01*
X69961Y427775D01*
X69127Y428231D01*
X68281Y428667D01*
X67425Y429082D01*
X66559Y429476D01*
X65684Y429849D01*
X64800Y430200D01*
D10*
X64239Y327708D02*
X66836Y327708D01*
X64239Y327708D02*
X64140Y327710D01*
X64040Y327716D01*
X63941Y327725D01*
X63843Y327738D01*
X63745Y327755D01*
X63647Y327776D01*
X63551Y327801D01*
X63456Y327829D01*
X63362Y327861D01*
X63269Y327896D01*
X63177Y327935D01*
X63087Y327978D01*
X62999Y328023D01*
X62912Y328073D01*
X62828Y328125D01*
X62745Y328181D01*
X62665Y328239D01*
X62587Y328301D01*
X62512Y328366D01*
X62439Y328434D01*
X62369Y328504D01*
X62301Y328577D01*
X62236Y328652D01*
X62174Y328730D01*
X62116Y328810D01*
X62060Y328893D01*
X62008Y328977D01*
X61958Y329064D01*
X61913Y329152D01*
X61870Y329242D01*
X61831Y329334D01*
X61796Y329427D01*
X61764Y329521D01*
X61736Y329616D01*
X61711Y329712D01*
X61690Y329810D01*
X61673Y329908D01*
X61660Y330006D01*
X61651Y330105D01*
X61645Y330205D01*
X61643Y330304D01*
X61643Y336796D01*
X61645Y336895D01*
X61651Y336995D01*
X61660Y337094D01*
X61673Y337192D01*
X61690Y337290D01*
X61711Y337388D01*
X61736Y337484D01*
X61764Y337579D01*
X61796Y337673D01*
X61831Y337766D01*
X61870Y337858D01*
X61913Y337948D01*
X61958Y338036D01*
X62008Y338123D01*
X62060Y338207D01*
X62116Y338290D01*
X62174Y338370D01*
X62236Y338448D01*
X62301Y338523D01*
X62369Y338596D01*
X62439Y338666D01*
X62512Y338734D01*
X62587Y338799D01*
X62665Y338861D01*
X62745Y338919D01*
X62828Y338975D01*
X62912Y339027D01*
X62999Y339077D01*
X63087Y339122D01*
X63177Y339165D01*
X63269Y339204D01*
X63361Y339239D01*
X63456Y339271D01*
X63551Y339299D01*
X63647Y339324D01*
X63745Y339345D01*
X63843Y339362D01*
X63941Y339375D01*
X64040Y339384D01*
X64140Y339390D01*
X64239Y339392D01*
X66836Y339392D01*
X74771Y339392D02*
X74878Y339390D01*
X74984Y339384D01*
X75090Y339374D01*
X75196Y339361D01*
X75302Y339343D01*
X75406Y339322D01*
X75510Y339297D01*
X75613Y339268D01*
X75714Y339236D01*
X75814Y339199D01*
X75913Y339159D01*
X76011Y339116D01*
X76107Y339069D01*
X76201Y339018D01*
X76293Y338964D01*
X76383Y338907D01*
X76471Y338847D01*
X76556Y338783D01*
X76639Y338716D01*
X76720Y338646D01*
X76798Y338574D01*
X76874Y338498D01*
X76946Y338420D01*
X77016Y338339D01*
X77083Y338256D01*
X77147Y338171D01*
X77207Y338083D01*
X77264Y337993D01*
X77318Y337901D01*
X77369Y337807D01*
X77416Y337711D01*
X77459Y337613D01*
X77499Y337514D01*
X77536Y337414D01*
X77568Y337313D01*
X77597Y337210D01*
X77622Y337106D01*
X77643Y337002D01*
X77661Y336896D01*
X77674Y336790D01*
X77684Y336684D01*
X77690Y336578D01*
X77692Y336471D01*
X74771Y339392D02*
X74650Y339390D01*
X74529Y339384D01*
X74409Y339374D01*
X74288Y339361D01*
X74169Y339343D01*
X74049Y339322D01*
X73931Y339297D01*
X73814Y339268D01*
X73697Y339235D01*
X73582Y339199D01*
X73468Y339158D01*
X73355Y339115D01*
X73243Y339067D01*
X73134Y339016D01*
X73026Y338961D01*
X72919Y338903D01*
X72815Y338842D01*
X72713Y338777D01*
X72613Y338709D01*
X72515Y338638D01*
X72419Y338564D01*
X72326Y338487D01*
X72236Y338406D01*
X72148Y338323D01*
X72063Y338237D01*
X71980Y338148D01*
X71901Y338057D01*
X71824Y337963D01*
X71751Y337867D01*
X71681Y337769D01*
X71614Y337668D01*
X71550Y337565D01*
X71490Y337460D01*
X71433Y337353D01*
X71379Y337245D01*
X71329Y337135D01*
X71283Y337023D01*
X71240Y336910D01*
X71201Y336795D01*
X76719Y334199D02*
X76798Y334276D01*
X76874Y334357D01*
X76947Y334440D01*
X77017Y334525D01*
X77084Y334613D01*
X77148Y334703D01*
X77208Y334795D01*
X77265Y334890D01*
X77319Y334986D01*
X77370Y335084D01*
X77417Y335184D01*
X77461Y335286D01*
X77501Y335389D01*
X77537Y335493D01*
X77569Y335599D01*
X77598Y335705D01*
X77623Y335813D01*
X77645Y335921D01*
X77662Y336031D01*
X77676Y336140D01*
X77685Y336250D01*
X77691Y336361D01*
X77693Y336471D01*
X76718Y334199D02*
X71201Y327708D01*
X77692Y327708D01*
D11*
X237400Y345200D02*
X237400Y427700D01*
X251900Y442200D02*
X264900Y442200D01*
X293900Y442200D02*
X306900Y442200D01*
X321400Y427700D02*
X321400Y345200D01*
X293900Y345200D01*
X264900Y345200D02*
X237400Y345200D01*
X237400Y427700D02*
X251900Y442200D01*
X306900Y442200D02*
X321400Y427700D01*
X265400Y430200D02*
X264516Y429849D01*
X263641Y429476D01*
X262775Y429082D01*
X261919Y428667D01*
X261073Y428231D01*
X260239Y427775D01*
X259415Y427299D01*
X258604Y426802D01*
X257804Y426287D01*
X257018Y425752D01*
X256245Y425197D01*
X255485Y424625D01*
X254740Y424034D01*
X254009Y423425D01*
X253293Y422798D01*
X252593Y422154D01*
X251908Y421493D01*
X251240Y420816D01*
X250589Y420123D01*
X249955Y419414D01*
X249338Y418690D01*
X248738Y417951D01*
X248157Y417198D01*
X247595Y416431D01*
X247051Y415650D01*
X246527Y414857D01*
X246022Y414051D01*
X245536Y413232D01*
X245071Y412403D01*
X244626Y411562D01*
X244202Y410711D01*
X243798Y409849D01*
X243416Y408978D01*
X243055Y408098D01*
X242715Y407209D01*
X242398Y406313D01*
X242102Y405409D01*
X241828Y404498D01*
X241576Y403580D01*
X241347Y402657D01*
X241140Y401728D01*
X240956Y400795D01*
X240795Y399858D01*
X240657Y398917D01*
X240541Y397972D01*
X240449Y397026D01*
X240379Y396077D01*
X240333Y395127D01*
X240310Y394176D01*
X240310Y393224D01*
X240333Y392273D01*
X240379Y391323D01*
X240449Y390374D01*
X240541Y389428D01*
X240657Y388483D01*
X240795Y387542D01*
X240956Y386605D01*
X241140Y385672D01*
X241347Y384743D01*
X241576Y383820D01*
X241828Y382902D01*
X242102Y381991D01*
X242398Y381087D01*
X242715Y380191D01*
X243055Y379302D01*
X243416Y378422D01*
X243798Y377551D01*
X244202Y376689D01*
X244626Y375838D01*
X245071Y374997D01*
X245536Y374168D01*
X246022Y373349D01*
X246527Y372543D01*
X247051Y371750D01*
X247595Y370969D01*
X248157Y370202D01*
X248738Y369449D01*
X249338Y368710D01*
X249955Y367986D01*
X250589Y367277D01*
X251240Y366584D01*
X251908Y365907D01*
X252593Y365246D01*
X253293Y364602D01*
X254009Y363975D01*
X254740Y363366D01*
X255485Y362775D01*
X256245Y362203D01*
X257018Y361648D01*
X257804Y361113D01*
X258604Y360598D01*
X259415Y360101D01*
X260239Y359625D01*
X261073Y359169D01*
X261919Y358733D01*
X262775Y358318D01*
X263641Y357924D01*
X264516Y357551D01*
X265400Y357200D01*
X293400Y357200D02*
X294284Y357551D01*
X295159Y357924D01*
X296025Y358318D01*
X296881Y358733D01*
X297727Y359169D01*
X298561Y359625D01*
X299385Y360101D01*
X300196Y360598D01*
X300996Y361113D01*
X301782Y361648D01*
X302555Y362203D01*
X303315Y362775D01*
X304060Y363366D01*
X304791Y363975D01*
X305507Y364602D01*
X306207Y365246D01*
X306892Y365907D01*
X307560Y366584D01*
X308211Y367277D01*
X308845Y367986D01*
X309462Y368710D01*
X310062Y369449D01*
X310643Y370202D01*
X311205Y370969D01*
X311749Y371750D01*
X312273Y372543D01*
X312778Y373349D01*
X313264Y374168D01*
X313729Y374997D01*
X314174Y375838D01*
X314598Y376689D01*
X315002Y377551D01*
X315384Y378422D01*
X315745Y379302D01*
X316085Y380191D01*
X316402Y381087D01*
X316698Y381991D01*
X316972Y382902D01*
X317224Y383820D01*
X317453Y384743D01*
X317660Y385672D01*
X317844Y386605D01*
X318005Y387542D01*
X318143Y388483D01*
X318259Y389428D01*
X318351Y390374D01*
X318421Y391323D01*
X318467Y392273D01*
X318490Y393224D01*
X318490Y394176D01*
X318467Y395127D01*
X318421Y396077D01*
X318351Y397026D01*
X318259Y397972D01*
X318143Y398917D01*
X318005Y399858D01*
X317844Y400795D01*
X317660Y401728D01*
X317453Y402657D01*
X317224Y403580D01*
X316972Y404498D01*
X316698Y405409D01*
X316402Y406313D01*
X316085Y407209D01*
X315745Y408098D01*
X315384Y408978D01*
X315002Y409849D01*
X314598Y410711D01*
X314174Y411562D01*
X313729Y412403D01*
X313264Y413232D01*
X312778Y414051D01*
X312273Y414857D01*
X311749Y415650D01*
X311205Y416431D01*
X310643Y417198D01*
X310062Y417951D01*
X309462Y418690D01*
X308845Y419414D01*
X308211Y420123D01*
X307560Y420816D01*
X306892Y421493D01*
X306207Y422154D01*
X305507Y422798D01*
X304791Y423425D01*
X304060Y424034D01*
X303315Y424625D01*
X302555Y425197D01*
X301782Y425752D01*
X300996Y426287D01*
X300196Y426802D01*
X299385Y427299D01*
X298561Y427775D01*
X297727Y428231D01*
X296881Y428667D01*
X296025Y429082D01*
X295159Y429476D01*
X294284Y429849D01*
X293400Y430200D01*
D10*
X292839Y327708D02*
X295436Y327708D01*
X292839Y327708D02*
X292740Y327710D01*
X292640Y327716D01*
X292541Y327725D01*
X292443Y327738D01*
X292345Y327755D01*
X292247Y327776D01*
X292151Y327801D01*
X292056Y327829D01*
X291962Y327861D01*
X291869Y327896D01*
X291777Y327935D01*
X291687Y327978D01*
X291599Y328023D01*
X291512Y328073D01*
X291428Y328125D01*
X291345Y328181D01*
X291265Y328239D01*
X291187Y328301D01*
X291112Y328366D01*
X291039Y328434D01*
X290969Y328504D01*
X290901Y328577D01*
X290836Y328652D01*
X290774Y328730D01*
X290716Y328810D01*
X290660Y328893D01*
X290608Y328977D01*
X290558Y329064D01*
X290513Y329152D01*
X290470Y329242D01*
X290431Y329334D01*
X290396Y329427D01*
X290364Y329521D01*
X290336Y329616D01*
X290311Y329712D01*
X290290Y329810D01*
X290273Y329908D01*
X290260Y330006D01*
X290251Y330105D01*
X290245Y330205D01*
X290243Y330304D01*
X290243Y336796D01*
X290245Y336895D01*
X290251Y336995D01*
X290260Y337094D01*
X290273Y337192D01*
X290290Y337290D01*
X290311Y337388D01*
X290336Y337484D01*
X290364Y337579D01*
X290396Y337673D01*
X290431Y337766D01*
X290470Y337858D01*
X290513Y337948D01*
X290558Y338036D01*
X290608Y338123D01*
X290660Y338207D01*
X290716Y338290D01*
X290774Y338370D01*
X290836Y338448D01*
X290901Y338523D01*
X290969Y338596D01*
X291039Y338666D01*
X291112Y338734D01*
X291187Y338799D01*
X291265Y338861D01*
X291345Y338919D01*
X291428Y338975D01*
X291512Y339027D01*
X291599Y339077D01*
X291687Y339122D01*
X291777Y339165D01*
X291869Y339204D01*
X291961Y339239D01*
X292056Y339271D01*
X292151Y339299D01*
X292247Y339324D01*
X292345Y339345D01*
X292443Y339362D01*
X292541Y339375D01*
X292640Y339384D01*
X292740Y339390D01*
X292839Y339392D01*
X295436Y339392D01*
X299801Y327708D02*
X303046Y327708D01*
X303159Y327710D01*
X303272Y327716D01*
X303385Y327726D01*
X303498Y327740D01*
X303610Y327757D01*
X303721Y327779D01*
X303831Y327804D01*
X303941Y327834D01*
X304049Y327867D01*
X304156Y327904D01*
X304262Y327944D01*
X304366Y327989D01*
X304469Y328037D01*
X304570Y328088D01*
X304669Y328143D01*
X304766Y328201D01*
X304861Y328263D01*
X304954Y328328D01*
X305044Y328396D01*
X305132Y328467D01*
X305218Y328542D01*
X305301Y328619D01*
X305381Y328699D01*
X305458Y328782D01*
X305533Y328868D01*
X305604Y328956D01*
X305672Y329046D01*
X305737Y329139D01*
X305799Y329234D01*
X305857Y329331D01*
X305912Y329430D01*
X305963Y329531D01*
X306011Y329634D01*
X306056Y329738D01*
X306096Y329844D01*
X306133Y329951D01*
X306166Y330059D01*
X306196Y330169D01*
X306221Y330279D01*
X306243Y330390D01*
X306260Y330502D01*
X306274Y330615D01*
X306284Y330728D01*
X306290Y330841D01*
X306292Y330954D01*
X306290Y331067D01*
X306284Y331180D01*
X306274Y331293D01*
X306260Y331406D01*
X306243Y331518D01*
X306221Y331629D01*
X306196Y331739D01*
X306166Y331849D01*
X306133Y331957D01*
X306096Y332064D01*
X306056Y332170D01*
X306011Y332274D01*
X305963Y332377D01*
X305912Y332478D01*
X305857Y332577D01*
X305799Y332674D01*
X305737Y332769D01*
X305672Y332862D01*
X305604Y332952D01*
X305533Y333040D01*
X305458Y333126D01*
X305381Y333209D01*
X305301Y333289D01*
X305218Y333366D01*
X305132Y333441D01*
X305044Y333512D01*
X304954Y333580D01*
X304861Y333645D01*
X304766Y333707D01*
X304669Y333765D01*
X304570Y333820D01*
X304469Y333871D01*
X304366Y333919D01*
X304262Y333964D01*
X304156Y334004D01*
X304049Y334041D01*
X303941Y334074D01*
X303831Y334104D01*
X303721Y334129D01*
X303610Y334151D01*
X303498Y334168D01*
X303385Y334182D01*
X303272Y334192D01*
X303159Y334198D01*
X303046Y334200D01*
X303696Y339392D02*
X299801Y339392D01*
X303696Y339392D02*
X303797Y339390D01*
X303897Y339384D01*
X303997Y339374D01*
X304097Y339361D01*
X304196Y339343D01*
X304295Y339322D01*
X304392Y339297D01*
X304489Y339268D01*
X304584Y339235D01*
X304678Y339199D01*
X304770Y339159D01*
X304861Y339116D01*
X304950Y339069D01*
X305037Y339019D01*
X305123Y338965D01*
X305206Y338908D01*
X305286Y338848D01*
X305365Y338785D01*
X305441Y338718D01*
X305514Y338649D01*
X305584Y338577D01*
X305652Y338503D01*
X305717Y338426D01*
X305778Y338346D01*
X305837Y338264D01*
X305892Y338180D01*
X305944Y338094D01*
X305993Y338006D01*
X306038Y337916D01*
X306080Y337824D01*
X306118Y337731D01*
X306152Y337636D01*
X306183Y337541D01*
X306210Y337444D01*
X306233Y337346D01*
X306253Y337247D01*
X306268Y337147D01*
X306280Y337047D01*
X306288Y336947D01*
X306292Y336846D01*
X306292Y336746D01*
X306288Y336645D01*
X306280Y336545D01*
X306268Y336445D01*
X306253Y336345D01*
X306233Y336246D01*
X306210Y336148D01*
X306183Y336051D01*
X306152Y335956D01*
X306118Y335861D01*
X306080Y335768D01*
X306038Y335676D01*
X305993Y335586D01*
X305944Y335498D01*
X305892Y335412D01*
X305837Y335328D01*
X305778Y335246D01*
X305717Y335166D01*
X305652Y335089D01*
X305584Y335015D01*
X305514Y334943D01*
X305441Y334874D01*
X305365Y334807D01*
X305286Y334744D01*
X305206Y334684D01*
X305123Y334627D01*
X305037Y334573D01*
X304950Y334523D01*
X304861Y334476D01*
X304770Y334433D01*
X304678Y334393D01*
X304584Y334357D01*
X304489Y334324D01*
X304392Y334295D01*
X304295Y334270D01*
X304196Y334249D01*
X304097Y334231D01*
X303997Y334218D01*
X303897Y334208D01*
X303797Y334202D01*
X303696Y334200D01*
X303696Y334199D02*
X301099Y334199D01*
X422204Y229108D02*
X424801Y229108D01*
X422204Y229108D02*
X422105Y229110D01*
X422005Y229116D01*
X421906Y229125D01*
X421808Y229138D01*
X421710Y229155D01*
X421612Y229176D01*
X421516Y229201D01*
X421421Y229229D01*
X421327Y229261D01*
X421234Y229296D01*
X421142Y229335D01*
X421052Y229378D01*
X420964Y229423D01*
X420877Y229473D01*
X420793Y229525D01*
X420710Y229581D01*
X420630Y229639D01*
X420552Y229701D01*
X420477Y229766D01*
X420404Y229834D01*
X420334Y229904D01*
X420266Y229977D01*
X420201Y230052D01*
X420139Y230130D01*
X420081Y230210D01*
X420025Y230293D01*
X419973Y230377D01*
X419923Y230464D01*
X419878Y230552D01*
X419835Y230642D01*
X419796Y230734D01*
X419761Y230827D01*
X419729Y230921D01*
X419701Y231016D01*
X419676Y231112D01*
X419655Y231210D01*
X419638Y231308D01*
X419625Y231406D01*
X419616Y231505D01*
X419610Y231605D01*
X419608Y231704D01*
X419608Y238196D01*
X419610Y238295D01*
X419616Y238395D01*
X419625Y238494D01*
X419638Y238592D01*
X419655Y238690D01*
X419676Y238788D01*
X419701Y238884D01*
X419729Y238979D01*
X419761Y239073D01*
X419796Y239166D01*
X419835Y239258D01*
X419878Y239348D01*
X419923Y239436D01*
X419973Y239523D01*
X420025Y239607D01*
X420081Y239690D01*
X420139Y239770D01*
X420201Y239848D01*
X420266Y239923D01*
X420334Y239996D01*
X420404Y240066D01*
X420477Y240134D01*
X420552Y240199D01*
X420630Y240261D01*
X420710Y240319D01*
X420793Y240375D01*
X420877Y240427D01*
X420964Y240477D01*
X421052Y240522D01*
X421142Y240565D01*
X421234Y240604D01*
X421326Y240639D01*
X421421Y240671D01*
X421516Y240699D01*
X421612Y240724D01*
X421710Y240745D01*
X421808Y240762D01*
X421906Y240775D01*
X422005Y240784D01*
X422105Y240790D01*
X422204Y240792D01*
X424801Y240792D01*
X431763Y240792D02*
X429166Y231704D01*
X435657Y231704D01*
X433710Y234301D02*
X433710Y229108D01*
X815904Y495808D02*
X818501Y495808D01*
X815904Y495808D02*
X815805Y495810D01*
X815705Y495816D01*
X815606Y495825D01*
X815508Y495838D01*
X815410Y495855D01*
X815312Y495876D01*
X815216Y495901D01*
X815121Y495929D01*
X815027Y495961D01*
X814934Y495996D01*
X814842Y496035D01*
X814752Y496078D01*
X814664Y496123D01*
X814577Y496173D01*
X814493Y496225D01*
X814410Y496281D01*
X814330Y496339D01*
X814252Y496401D01*
X814177Y496466D01*
X814104Y496534D01*
X814034Y496604D01*
X813966Y496677D01*
X813901Y496752D01*
X813839Y496830D01*
X813781Y496910D01*
X813725Y496993D01*
X813673Y497077D01*
X813623Y497164D01*
X813578Y497252D01*
X813535Y497342D01*
X813496Y497434D01*
X813461Y497527D01*
X813429Y497621D01*
X813401Y497716D01*
X813376Y497812D01*
X813355Y497910D01*
X813338Y498008D01*
X813325Y498106D01*
X813316Y498205D01*
X813310Y498305D01*
X813308Y498404D01*
X813308Y504896D01*
X813310Y504995D01*
X813316Y505095D01*
X813325Y505194D01*
X813338Y505292D01*
X813355Y505390D01*
X813376Y505488D01*
X813401Y505584D01*
X813429Y505679D01*
X813461Y505773D01*
X813496Y505866D01*
X813535Y505958D01*
X813578Y506048D01*
X813623Y506136D01*
X813673Y506223D01*
X813725Y506307D01*
X813781Y506390D01*
X813839Y506470D01*
X813901Y506548D01*
X813966Y506623D01*
X814034Y506696D01*
X814104Y506766D01*
X814177Y506834D01*
X814252Y506899D01*
X814330Y506961D01*
X814410Y507019D01*
X814493Y507075D01*
X814577Y507127D01*
X814664Y507177D01*
X814752Y507222D01*
X814842Y507265D01*
X814934Y507304D01*
X815026Y507339D01*
X815121Y507371D01*
X815216Y507399D01*
X815312Y507424D01*
X815410Y507445D01*
X815508Y507462D01*
X815606Y507475D01*
X815705Y507484D01*
X815805Y507490D01*
X815904Y507492D01*
X818501Y507492D01*
X822866Y495808D02*
X826761Y495808D01*
X826860Y495810D01*
X826960Y495816D01*
X827059Y495825D01*
X827157Y495838D01*
X827255Y495855D01*
X827353Y495876D01*
X827449Y495901D01*
X827544Y495929D01*
X827638Y495961D01*
X827731Y495996D01*
X827823Y496035D01*
X827913Y496078D01*
X828001Y496123D01*
X828088Y496173D01*
X828172Y496225D01*
X828255Y496281D01*
X828335Y496339D01*
X828413Y496401D01*
X828488Y496466D01*
X828561Y496534D01*
X828631Y496604D01*
X828699Y496677D01*
X828764Y496752D01*
X828826Y496830D01*
X828884Y496910D01*
X828940Y496993D01*
X828992Y497077D01*
X829042Y497164D01*
X829087Y497252D01*
X829130Y497342D01*
X829169Y497434D01*
X829204Y497527D01*
X829236Y497621D01*
X829264Y497716D01*
X829289Y497812D01*
X829310Y497910D01*
X829327Y498008D01*
X829340Y498106D01*
X829349Y498205D01*
X829355Y498305D01*
X829357Y498404D01*
X829357Y499703D01*
X829355Y499802D01*
X829349Y499902D01*
X829340Y500001D01*
X829327Y500099D01*
X829310Y500197D01*
X829289Y500295D01*
X829264Y500391D01*
X829236Y500486D01*
X829204Y500580D01*
X829169Y500673D01*
X829130Y500765D01*
X829087Y500855D01*
X829042Y500943D01*
X828992Y501030D01*
X828940Y501114D01*
X828884Y501197D01*
X828826Y501277D01*
X828764Y501355D01*
X828699Y501430D01*
X828631Y501503D01*
X828561Y501573D01*
X828488Y501641D01*
X828413Y501706D01*
X828335Y501768D01*
X828255Y501826D01*
X828172Y501882D01*
X828088Y501934D01*
X828001Y501984D01*
X827913Y502029D01*
X827823Y502072D01*
X827731Y502111D01*
X827638Y502146D01*
X827544Y502178D01*
X827449Y502206D01*
X827353Y502231D01*
X827255Y502252D01*
X827157Y502269D01*
X827059Y502282D01*
X826960Y502291D01*
X826860Y502297D01*
X826761Y502299D01*
X822866Y502299D01*
X822866Y507492D01*
X829357Y507492D01*
X469392Y81901D02*
X469392Y79304D01*
X469390Y79205D01*
X469384Y79105D01*
X469375Y79006D01*
X469362Y78908D01*
X469345Y78810D01*
X469324Y78712D01*
X469299Y78616D01*
X469271Y78521D01*
X469239Y78427D01*
X469204Y78334D01*
X469165Y78242D01*
X469122Y78152D01*
X469077Y78064D01*
X469027Y77977D01*
X468975Y77893D01*
X468919Y77810D01*
X468861Y77730D01*
X468799Y77652D01*
X468734Y77577D01*
X468666Y77504D01*
X468596Y77434D01*
X468523Y77366D01*
X468448Y77301D01*
X468370Y77239D01*
X468290Y77181D01*
X468207Y77125D01*
X468123Y77073D01*
X468036Y77023D01*
X467948Y76978D01*
X467858Y76935D01*
X467766Y76896D01*
X467673Y76861D01*
X467579Y76829D01*
X467484Y76801D01*
X467388Y76776D01*
X467290Y76755D01*
X467192Y76738D01*
X467094Y76725D01*
X466995Y76716D01*
X466895Y76710D01*
X466796Y76708D01*
X460304Y76708D01*
X460205Y76710D01*
X460105Y76716D01*
X460006Y76725D01*
X459908Y76738D01*
X459810Y76756D01*
X459712Y76776D01*
X459616Y76801D01*
X459520Y76829D01*
X459426Y76861D01*
X459333Y76896D01*
X459242Y76935D01*
X459152Y76978D01*
X459063Y77023D01*
X458977Y77073D01*
X458892Y77125D01*
X458810Y77181D01*
X458730Y77240D01*
X458652Y77301D01*
X458576Y77366D01*
X458503Y77434D01*
X458433Y77504D01*
X458365Y77577D01*
X458300Y77653D01*
X458239Y77731D01*
X458180Y77811D01*
X458124Y77893D01*
X458072Y77978D01*
X458023Y78064D01*
X457977Y78153D01*
X457934Y78243D01*
X457895Y78334D01*
X457860Y78427D01*
X457828Y78521D01*
X457800Y78617D01*
X457775Y78713D01*
X457755Y78811D01*
X457737Y78909D01*
X457724Y79007D01*
X457715Y79106D01*
X457709Y79205D01*
X457707Y79305D01*
X457708Y79304D02*
X457708Y81901D01*
X462901Y86266D02*
X462901Y90161D01*
X462903Y90260D01*
X462909Y90360D01*
X462918Y90459D01*
X462931Y90557D01*
X462948Y90655D01*
X462969Y90753D01*
X462994Y90849D01*
X463022Y90944D01*
X463054Y91038D01*
X463089Y91131D01*
X463128Y91223D01*
X463171Y91313D01*
X463216Y91401D01*
X463266Y91488D01*
X463318Y91572D01*
X463374Y91655D01*
X463432Y91735D01*
X463494Y91813D01*
X463559Y91888D01*
X463627Y91961D01*
X463697Y92031D01*
X463770Y92099D01*
X463845Y92164D01*
X463923Y92226D01*
X464003Y92284D01*
X464086Y92340D01*
X464170Y92392D01*
X464257Y92442D01*
X464345Y92487D01*
X464435Y92530D01*
X464527Y92569D01*
X464620Y92604D01*
X464714Y92636D01*
X464809Y92664D01*
X464905Y92689D01*
X465003Y92710D01*
X465101Y92727D01*
X465199Y92740D01*
X465298Y92749D01*
X465398Y92755D01*
X465497Y92757D01*
X466146Y92757D01*
X466146Y92758D02*
X466259Y92756D01*
X466372Y92750D01*
X466485Y92740D01*
X466598Y92726D01*
X466710Y92709D01*
X466821Y92687D01*
X466931Y92662D01*
X467041Y92632D01*
X467149Y92599D01*
X467256Y92562D01*
X467362Y92522D01*
X467466Y92477D01*
X467569Y92429D01*
X467670Y92378D01*
X467769Y92323D01*
X467866Y92265D01*
X467961Y92203D01*
X468054Y92138D01*
X468144Y92070D01*
X468232Y91999D01*
X468318Y91924D01*
X468401Y91847D01*
X468481Y91767D01*
X468558Y91684D01*
X468633Y91598D01*
X468704Y91510D01*
X468772Y91420D01*
X468837Y91327D01*
X468899Y91232D01*
X468957Y91135D01*
X469012Y91036D01*
X469063Y90935D01*
X469111Y90832D01*
X469156Y90728D01*
X469196Y90622D01*
X469233Y90515D01*
X469266Y90407D01*
X469296Y90297D01*
X469321Y90187D01*
X469343Y90076D01*
X469360Y89964D01*
X469374Y89851D01*
X469384Y89738D01*
X469390Y89625D01*
X469392Y89512D01*
X469390Y89399D01*
X469384Y89286D01*
X469374Y89173D01*
X469360Y89060D01*
X469343Y88948D01*
X469321Y88837D01*
X469296Y88727D01*
X469266Y88617D01*
X469233Y88509D01*
X469196Y88402D01*
X469156Y88296D01*
X469111Y88192D01*
X469063Y88089D01*
X469012Y87988D01*
X468957Y87889D01*
X468899Y87792D01*
X468837Y87697D01*
X468772Y87604D01*
X468704Y87514D01*
X468633Y87426D01*
X468558Y87340D01*
X468481Y87257D01*
X468401Y87177D01*
X468318Y87100D01*
X468232Y87025D01*
X468144Y86954D01*
X468054Y86886D01*
X467961Y86821D01*
X467866Y86759D01*
X467769Y86701D01*
X467670Y86646D01*
X467569Y86595D01*
X467466Y86547D01*
X467362Y86502D01*
X467256Y86462D01*
X467149Y86425D01*
X467041Y86392D01*
X466931Y86362D01*
X466821Y86337D01*
X466710Y86315D01*
X466598Y86298D01*
X466485Y86284D01*
X466372Y86274D01*
X466259Y86268D01*
X466146Y86266D01*
X462901Y86266D01*
X462758Y86268D01*
X462615Y86274D01*
X462472Y86284D01*
X462330Y86298D01*
X462188Y86315D01*
X462046Y86337D01*
X461905Y86362D01*
X461765Y86392D01*
X461626Y86425D01*
X461488Y86462D01*
X461351Y86503D01*
X461215Y86547D01*
X461080Y86596D01*
X460947Y86648D01*
X460815Y86703D01*
X460685Y86763D01*
X460556Y86826D01*
X460429Y86892D01*
X460305Y86962D01*
X460182Y87035D01*
X460061Y87112D01*
X459942Y87191D01*
X459826Y87275D01*
X459711Y87361D01*
X459600Y87450D01*
X459491Y87543D01*
X459384Y87638D01*
X459280Y87737D01*
X459179Y87838D01*
X459080Y87942D01*
X458985Y88048D01*
X458892Y88158D01*
X458803Y88269D01*
X458717Y88383D01*
X458634Y88500D01*
X458554Y88619D01*
X458477Y88740D01*
X458404Y88862D01*
X458334Y88987D01*
X458268Y89114D01*
X458205Y89243D01*
X458145Y89373D01*
X458090Y89505D01*
X458038Y89638D01*
X457989Y89773D01*
X457945Y89909D01*
X457904Y90046D01*
X457867Y90184D01*
X457834Y90323D01*
X457804Y90463D01*
X457779Y90604D01*
X457757Y90746D01*
X457740Y90888D01*
X457726Y91030D01*
X457716Y91173D01*
X457710Y91316D01*
X457708Y91459D01*
X292592Y77901D02*
X292592Y75304D01*
X292590Y75205D01*
X292584Y75105D01*
X292575Y75006D01*
X292562Y74908D01*
X292545Y74810D01*
X292524Y74712D01*
X292499Y74616D01*
X292471Y74521D01*
X292439Y74427D01*
X292404Y74334D01*
X292365Y74242D01*
X292322Y74152D01*
X292277Y74064D01*
X292227Y73977D01*
X292175Y73893D01*
X292119Y73810D01*
X292061Y73730D01*
X291999Y73652D01*
X291934Y73577D01*
X291866Y73504D01*
X291796Y73434D01*
X291723Y73366D01*
X291648Y73301D01*
X291570Y73239D01*
X291490Y73181D01*
X291407Y73125D01*
X291323Y73073D01*
X291236Y73023D01*
X291148Y72978D01*
X291058Y72935D01*
X290966Y72896D01*
X290873Y72861D01*
X290779Y72829D01*
X290684Y72801D01*
X290588Y72776D01*
X290490Y72755D01*
X290392Y72738D01*
X290294Y72725D01*
X290195Y72716D01*
X290095Y72710D01*
X289996Y72708D01*
X283504Y72708D01*
X283405Y72710D01*
X283305Y72716D01*
X283206Y72725D01*
X283108Y72738D01*
X283010Y72756D01*
X282912Y72776D01*
X282816Y72801D01*
X282720Y72829D01*
X282626Y72861D01*
X282533Y72896D01*
X282442Y72935D01*
X282352Y72978D01*
X282263Y73023D01*
X282177Y73073D01*
X282092Y73125D01*
X282010Y73181D01*
X281930Y73240D01*
X281852Y73301D01*
X281776Y73366D01*
X281703Y73434D01*
X281633Y73504D01*
X281565Y73577D01*
X281500Y73653D01*
X281439Y73731D01*
X281380Y73811D01*
X281324Y73893D01*
X281272Y73978D01*
X281223Y74064D01*
X281177Y74153D01*
X281134Y74243D01*
X281095Y74334D01*
X281060Y74427D01*
X281028Y74521D01*
X281000Y74617D01*
X280975Y74713D01*
X280955Y74811D01*
X280937Y74909D01*
X280924Y75007D01*
X280915Y75106D01*
X280909Y75205D01*
X280907Y75305D01*
X280908Y75304D02*
X280908Y77901D01*
X280908Y82266D02*
X282206Y82266D01*
X280908Y82266D02*
X280908Y88757D01*
X292592Y85512D01*
X307904Y546608D02*
X310501Y546608D01*
X307904Y546608D02*
X307805Y546610D01*
X307705Y546616D01*
X307606Y546625D01*
X307508Y546638D01*
X307410Y546655D01*
X307312Y546676D01*
X307216Y546701D01*
X307121Y546729D01*
X307027Y546761D01*
X306934Y546796D01*
X306842Y546835D01*
X306752Y546878D01*
X306664Y546923D01*
X306577Y546973D01*
X306493Y547025D01*
X306410Y547081D01*
X306330Y547139D01*
X306252Y547201D01*
X306177Y547266D01*
X306104Y547334D01*
X306034Y547404D01*
X305966Y547477D01*
X305901Y547552D01*
X305839Y547630D01*
X305781Y547710D01*
X305725Y547793D01*
X305673Y547877D01*
X305623Y547964D01*
X305578Y548052D01*
X305535Y548142D01*
X305496Y548234D01*
X305461Y548327D01*
X305429Y548421D01*
X305401Y548516D01*
X305376Y548612D01*
X305355Y548710D01*
X305338Y548808D01*
X305325Y548906D01*
X305316Y549005D01*
X305310Y549105D01*
X305308Y549204D01*
X305308Y555696D01*
X305310Y555795D01*
X305316Y555895D01*
X305325Y555994D01*
X305338Y556092D01*
X305355Y556190D01*
X305376Y556288D01*
X305401Y556384D01*
X305429Y556479D01*
X305461Y556573D01*
X305496Y556666D01*
X305535Y556758D01*
X305578Y556848D01*
X305623Y556936D01*
X305673Y557023D01*
X305725Y557107D01*
X305781Y557190D01*
X305839Y557270D01*
X305901Y557348D01*
X305966Y557423D01*
X306034Y557496D01*
X306104Y557566D01*
X306177Y557634D01*
X306252Y557699D01*
X306330Y557761D01*
X306410Y557819D01*
X306493Y557875D01*
X306577Y557927D01*
X306664Y557977D01*
X306752Y558022D01*
X306842Y558065D01*
X306934Y558104D01*
X307026Y558139D01*
X307121Y558171D01*
X307216Y558199D01*
X307312Y558224D01*
X307410Y558245D01*
X307508Y558262D01*
X307606Y558275D01*
X307705Y558284D01*
X307805Y558290D01*
X307904Y558292D01*
X310501Y558292D01*
X314866Y549854D02*
X314868Y549967D01*
X314874Y550080D01*
X314884Y550193D01*
X314898Y550306D01*
X314915Y550418D01*
X314937Y550529D01*
X314962Y550639D01*
X314992Y550749D01*
X315025Y550857D01*
X315062Y550964D01*
X315102Y551070D01*
X315147Y551174D01*
X315195Y551277D01*
X315246Y551378D01*
X315301Y551477D01*
X315359Y551574D01*
X315421Y551669D01*
X315486Y551762D01*
X315554Y551852D01*
X315625Y551940D01*
X315700Y552026D01*
X315777Y552109D01*
X315857Y552189D01*
X315940Y552266D01*
X316026Y552341D01*
X316114Y552412D01*
X316204Y552480D01*
X316297Y552545D01*
X316392Y552607D01*
X316489Y552665D01*
X316588Y552720D01*
X316689Y552771D01*
X316792Y552819D01*
X316896Y552864D01*
X317002Y552904D01*
X317109Y552941D01*
X317217Y552974D01*
X317327Y553004D01*
X317437Y553029D01*
X317548Y553051D01*
X317660Y553068D01*
X317773Y553082D01*
X317886Y553092D01*
X317999Y553098D01*
X318112Y553100D01*
X318225Y553098D01*
X318338Y553092D01*
X318451Y553082D01*
X318564Y553068D01*
X318676Y553051D01*
X318787Y553029D01*
X318897Y553004D01*
X319007Y552974D01*
X319115Y552941D01*
X319222Y552904D01*
X319328Y552864D01*
X319432Y552819D01*
X319535Y552771D01*
X319636Y552720D01*
X319735Y552665D01*
X319832Y552607D01*
X319927Y552545D01*
X320020Y552480D01*
X320110Y552412D01*
X320198Y552341D01*
X320284Y552266D01*
X320367Y552189D01*
X320447Y552109D01*
X320524Y552026D01*
X320599Y551940D01*
X320670Y551852D01*
X320738Y551762D01*
X320803Y551669D01*
X320865Y551574D01*
X320923Y551477D01*
X320978Y551378D01*
X321029Y551277D01*
X321077Y551174D01*
X321122Y551070D01*
X321162Y550964D01*
X321199Y550857D01*
X321232Y550749D01*
X321262Y550639D01*
X321287Y550529D01*
X321309Y550418D01*
X321326Y550306D01*
X321340Y550193D01*
X321350Y550080D01*
X321356Y549967D01*
X321358Y549854D01*
X321356Y549741D01*
X321350Y549628D01*
X321340Y549515D01*
X321326Y549402D01*
X321309Y549290D01*
X321287Y549179D01*
X321262Y549069D01*
X321232Y548959D01*
X321199Y548851D01*
X321162Y548744D01*
X321122Y548638D01*
X321077Y548534D01*
X321029Y548431D01*
X320978Y548330D01*
X320923Y548231D01*
X320865Y548134D01*
X320803Y548039D01*
X320738Y547946D01*
X320670Y547856D01*
X320599Y547768D01*
X320524Y547682D01*
X320447Y547599D01*
X320367Y547519D01*
X320284Y547442D01*
X320198Y547367D01*
X320110Y547296D01*
X320020Y547228D01*
X319927Y547163D01*
X319832Y547101D01*
X319735Y547043D01*
X319636Y546988D01*
X319535Y546937D01*
X319432Y546889D01*
X319328Y546844D01*
X319222Y546804D01*
X319115Y546767D01*
X319007Y546734D01*
X318897Y546704D01*
X318787Y546679D01*
X318676Y546657D01*
X318564Y546640D01*
X318451Y546626D01*
X318338Y546616D01*
X318225Y546610D01*
X318112Y546608D01*
X317999Y546610D01*
X317886Y546616D01*
X317773Y546626D01*
X317660Y546640D01*
X317548Y546657D01*
X317437Y546679D01*
X317327Y546704D01*
X317217Y546734D01*
X317109Y546767D01*
X317002Y546804D01*
X316896Y546844D01*
X316792Y546889D01*
X316689Y546937D01*
X316588Y546988D01*
X316489Y547043D01*
X316392Y547101D01*
X316297Y547163D01*
X316204Y547228D01*
X316114Y547296D01*
X316026Y547367D01*
X315940Y547442D01*
X315857Y547519D01*
X315777Y547599D01*
X315700Y547682D01*
X315625Y547768D01*
X315554Y547856D01*
X315486Y547946D01*
X315421Y548039D01*
X315359Y548134D01*
X315301Y548231D01*
X315246Y548330D01*
X315195Y548431D01*
X315147Y548534D01*
X315102Y548638D01*
X315062Y548744D01*
X315025Y548851D01*
X314992Y548959D01*
X314962Y549069D01*
X314937Y549179D01*
X314915Y549290D01*
X314898Y549402D01*
X314884Y549515D01*
X314874Y549628D01*
X314868Y549741D01*
X314866Y549854D01*
X315516Y555696D02*
X315518Y555797D01*
X315524Y555897D01*
X315534Y555997D01*
X315547Y556097D01*
X315565Y556196D01*
X315586Y556295D01*
X315611Y556392D01*
X315640Y556489D01*
X315673Y556584D01*
X315709Y556678D01*
X315749Y556770D01*
X315792Y556861D01*
X315839Y556950D01*
X315889Y557037D01*
X315943Y557123D01*
X316000Y557206D01*
X316060Y557286D01*
X316123Y557365D01*
X316190Y557441D01*
X316259Y557514D01*
X316331Y557584D01*
X316405Y557652D01*
X316482Y557717D01*
X316562Y557778D01*
X316644Y557837D01*
X316728Y557892D01*
X316814Y557944D01*
X316902Y557993D01*
X316992Y558038D01*
X317084Y558080D01*
X317177Y558118D01*
X317272Y558152D01*
X317367Y558183D01*
X317464Y558210D01*
X317562Y558233D01*
X317661Y558253D01*
X317761Y558268D01*
X317861Y558280D01*
X317961Y558288D01*
X318062Y558292D01*
X318162Y558292D01*
X318263Y558288D01*
X318363Y558280D01*
X318463Y558268D01*
X318563Y558253D01*
X318662Y558233D01*
X318760Y558210D01*
X318857Y558183D01*
X318952Y558152D01*
X319047Y558118D01*
X319140Y558080D01*
X319232Y558038D01*
X319322Y557993D01*
X319410Y557944D01*
X319496Y557892D01*
X319580Y557837D01*
X319662Y557778D01*
X319742Y557717D01*
X319819Y557652D01*
X319893Y557584D01*
X319965Y557514D01*
X320034Y557441D01*
X320101Y557365D01*
X320164Y557286D01*
X320224Y557206D01*
X320281Y557123D01*
X320335Y557037D01*
X320385Y556950D01*
X320432Y556861D01*
X320475Y556770D01*
X320515Y556678D01*
X320551Y556584D01*
X320584Y556489D01*
X320613Y556392D01*
X320638Y556295D01*
X320659Y556196D01*
X320677Y556097D01*
X320690Y555997D01*
X320700Y555897D01*
X320706Y555797D01*
X320708Y555696D01*
X320706Y555595D01*
X320700Y555495D01*
X320690Y555395D01*
X320677Y555295D01*
X320659Y555196D01*
X320638Y555097D01*
X320613Y555000D01*
X320584Y554903D01*
X320551Y554808D01*
X320515Y554714D01*
X320475Y554622D01*
X320432Y554531D01*
X320385Y554442D01*
X320335Y554355D01*
X320281Y554269D01*
X320224Y554186D01*
X320164Y554106D01*
X320101Y554027D01*
X320034Y553951D01*
X319965Y553878D01*
X319893Y553808D01*
X319819Y553740D01*
X319742Y553675D01*
X319662Y553614D01*
X319580Y553555D01*
X319496Y553500D01*
X319410Y553448D01*
X319322Y553399D01*
X319232Y553354D01*
X319140Y553312D01*
X319047Y553274D01*
X318952Y553240D01*
X318857Y553209D01*
X318760Y553182D01*
X318662Y553159D01*
X318563Y553139D01*
X318463Y553124D01*
X318363Y553112D01*
X318263Y553104D01*
X318162Y553100D01*
X318062Y553100D01*
X317961Y553104D01*
X317861Y553112D01*
X317761Y553124D01*
X317661Y553139D01*
X317562Y553159D01*
X317464Y553182D01*
X317367Y553209D01*
X317272Y553240D01*
X317177Y553274D01*
X317084Y553312D01*
X316992Y553354D01*
X316902Y553399D01*
X316814Y553448D01*
X316728Y553500D01*
X316644Y553555D01*
X316562Y553614D01*
X316482Y553675D01*
X316405Y553740D01*
X316331Y553808D01*
X316259Y553878D01*
X316190Y553951D01*
X316123Y554027D01*
X316060Y554106D01*
X316000Y554186D01*
X315943Y554269D01*
X315889Y554355D01*
X315839Y554442D01*
X315792Y554531D01*
X315749Y554622D01*
X315709Y554714D01*
X315673Y554808D01*
X315640Y554903D01*
X315611Y555000D01*
X315586Y555097D01*
X315565Y555196D01*
X315547Y555295D01*
X315534Y555395D01*
X315524Y555495D01*
X315518Y555595D01*
X315516Y555696D01*
D12*
X23125Y269800D02*
X23125Y259400D01*
X91875Y259400D02*
X91875Y269800D01*
X23125Y269800D01*
X91875Y221200D02*
X91875Y210800D01*
X23125Y210800D02*
X23125Y221200D01*
X23125Y210800D02*
X91875Y210800D01*
D13*
X4500Y240300D02*
X4502Y240363D01*
X4508Y240425D01*
X4518Y240487D01*
X4531Y240549D01*
X4549Y240609D01*
X4570Y240668D01*
X4595Y240726D01*
X4624Y240782D01*
X4656Y240836D01*
X4691Y240888D01*
X4729Y240937D01*
X4771Y240985D01*
X4815Y241029D01*
X4863Y241071D01*
X4912Y241109D01*
X4964Y241144D01*
X5018Y241176D01*
X5074Y241205D01*
X5132Y241230D01*
X5191Y241251D01*
X5251Y241269D01*
X5313Y241282D01*
X5375Y241292D01*
X5437Y241298D01*
X5500Y241300D01*
X5563Y241298D01*
X5625Y241292D01*
X5687Y241282D01*
X5749Y241269D01*
X5809Y241251D01*
X5868Y241230D01*
X5926Y241205D01*
X5982Y241176D01*
X6036Y241144D01*
X6088Y241109D01*
X6137Y241071D01*
X6185Y241029D01*
X6229Y240985D01*
X6271Y240937D01*
X6309Y240888D01*
X6344Y240836D01*
X6376Y240782D01*
X6405Y240726D01*
X6430Y240668D01*
X6451Y240609D01*
X6469Y240549D01*
X6482Y240487D01*
X6492Y240425D01*
X6498Y240363D01*
X6500Y240300D01*
X6498Y240237D01*
X6492Y240175D01*
X6482Y240113D01*
X6469Y240051D01*
X6451Y239991D01*
X6430Y239932D01*
X6405Y239874D01*
X6376Y239818D01*
X6344Y239764D01*
X6309Y239712D01*
X6271Y239663D01*
X6229Y239615D01*
X6185Y239571D01*
X6137Y239529D01*
X6088Y239491D01*
X6036Y239456D01*
X5982Y239424D01*
X5926Y239395D01*
X5868Y239370D01*
X5809Y239349D01*
X5749Y239331D01*
X5687Y239318D01*
X5625Y239308D01*
X5563Y239302D01*
X5500Y239300D01*
X5437Y239302D01*
X5375Y239308D01*
X5313Y239318D01*
X5251Y239331D01*
X5191Y239349D01*
X5132Y239370D01*
X5074Y239395D01*
X5018Y239424D01*
X4964Y239456D01*
X4912Y239491D01*
X4863Y239529D01*
X4815Y239571D01*
X4771Y239615D01*
X4729Y239663D01*
X4691Y239712D01*
X4656Y239764D01*
X4624Y239818D01*
X4595Y239874D01*
X4570Y239932D01*
X4549Y239991D01*
X4531Y240051D01*
X4518Y240113D01*
X4508Y240175D01*
X4502Y240237D01*
X4500Y240300D01*
D14*
X8262Y281062D02*
X8262Y297318D01*
X12778Y297318D01*
X12909Y297316D01*
X13041Y297310D01*
X13172Y297301D01*
X13302Y297287D01*
X13433Y297270D01*
X13562Y297249D01*
X13691Y297225D01*
X13819Y297196D01*
X13947Y297164D01*
X14073Y297128D01*
X14198Y297089D01*
X14323Y297046D01*
X14445Y296999D01*
X14567Y296949D01*
X14687Y296895D01*
X14805Y296838D01*
X14921Y296777D01*
X15036Y296713D01*
X15149Y296646D01*
X15260Y296575D01*
X15368Y296501D01*
X15475Y296424D01*
X15579Y296344D01*
X15681Y296261D01*
X15780Y296176D01*
X15877Y296087D01*
X15971Y295995D01*
X16063Y295901D01*
X16152Y295804D01*
X16237Y295705D01*
X16320Y295603D01*
X16400Y295499D01*
X16477Y295392D01*
X16551Y295284D01*
X16622Y295173D01*
X16689Y295060D01*
X16753Y294945D01*
X16814Y294829D01*
X16871Y294711D01*
X16925Y294591D01*
X16975Y294469D01*
X17022Y294347D01*
X17065Y294222D01*
X17104Y294097D01*
X17140Y293971D01*
X17172Y293843D01*
X17201Y293715D01*
X17225Y293586D01*
X17246Y293457D01*
X17263Y293326D01*
X17277Y293196D01*
X17286Y293065D01*
X17292Y292933D01*
X17294Y292802D01*
X17293Y292802D02*
X17293Y285578D01*
X17294Y285578D02*
X17292Y285447D01*
X17286Y285315D01*
X17277Y285184D01*
X17263Y285054D01*
X17246Y284923D01*
X17225Y284794D01*
X17201Y284665D01*
X17172Y284537D01*
X17140Y284409D01*
X17104Y284283D01*
X17065Y284158D01*
X17022Y284033D01*
X16975Y283911D01*
X16925Y283789D01*
X16871Y283669D01*
X16814Y283551D01*
X16753Y283435D01*
X16689Y283320D01*
X16622Y283207D01*
X16551Y283096D01*
X16477Y282988D01*
X16400Y282881D01*
X16320Y282777D01*
X16237Y282675D01*
X16152Y282576D01*
X16063Y282479D01*
X15971Y282385D01*
X15877Y282293D01*
X15780Y282204D01*
X15681Y282119D01*
X15579Y282036D01*
X15475Y281956D01*
X15368Y281879D01*
X15260Y281805D01*
X15149Y281734D01*
X15036Y281667D01*
X14921Y281603D01*
X14805Y281542D01*
X14687Y281485D01*
X14567Y281431D01*
X14445Y281381D01*
X14323Y281334D01*
X14198Y281291D01*
X14073Y281252D01*
X13947Y281216D01*
X13819Y281184D01*
X13691Y281155D01*
X13562Y281131D01*
X13432Y281110D01*
X13302Y281093D01*
X13172Y281079D01*
X13041Y281070D01*
X12909Y281064D01*
X12778Y281062D01*
X8262Y281062D01*
X24414Y293706D02*
X28930Y297318D01*
X28930Y281062D01*
X33445Y281062D02*
X24414Y281062D01*
D12*
X193421Y116078D02*
X193421Y101600D01*
X193421Y116078D02*
X203200Y116078D01*
X237871Y56007D02*
X253365Y56007D01*
X253368Y56007D01*
X253365Y56007D02*
X253365Y76200D01*
D10*
X197358Y76708D02*
X197358Y88392D01*
X200604Y88392D01*
X200717Y88390D01*
X200830Y88384D01*
X200943Y88374D01*
X201056Y88360D01*
X201168Y88343D01*
X201279Y88321D01*
X201389Y88296D01*
X201499Y88266D01*
X201607Y88233D01*
X201714Y88196D01*
X201820Y88156D01*
X201924Y88111D01*
X202027Y88063D01*
X202128Y88012D01*
X202227Y87957D01*
X202324Y87899D01*
X202419Y87837D01*
X202512Y87772D01*
X202602Y87704D01*
X202690Y87633D01*
X202776Y87558D01*
X202859Y87481D01*
X202939Y87401D01*
X203016Y87318D01*
X203091Y87232D01*
X203162Y87144D01*
X203230Y87054D01*
X203295Y86961D01*
X203357Y86866D01*
X203415Y86769D01*
X203470Y86670D01*
X203521Y86569D01*
X203569Y86466D01*
X203614Y86362D01*
X203654Y86256D01*
X203691Y86149D01*
X203724Y86041D01*
X203754Y85931D01*
X203779Y85821D01*
X203801Y85710D01*
X203818Y85598D01*
X203832Y85485D01*
X203842Y85372D01*
X203848Y85259D01*
X203850Y85146D01*
X203849Y85146D02*
X203849Y79954D01*
X203850Y79954D02*
X203848Y79841D01*
X203842Y79728D01*
X203832Y79615D01*
X203818Y79502D01*
X203801Y79390D01*
X203779Y79279D01*
X203754Y79169D01*
X203724Y79059D01*
X203691Y78951D01*
X203654Y78844D01*
X203614Y78738D01*
X203569Y78634D01*
X203521Y78531D01*
X203470Y78430D01*
X203415Y78331D01*
X203357Y78234D01*
X203295Y78139D01*
X203230Y78046D01*
X203162Y77956D01*
X203091Y77868D01*
X203016Y77782D01*
X202939Y77699D01*
X202859Y77619D01*
X202776Y77542D01*
X202690Y77467D01*
X202602Y77396D01*
X202512Y77328D01*
X202419Y77263D01*
X202324Y77201D01*
X202227Y77143D01*
X202128Y77088D01*
X202027Y77037D01*
X201924Y76989D01*
X201820Y76944D01*
X201714Y76904D01*
X201607Y76867D01*
X201499Y76834D01*
X201389Y76804D01*
X201279Y76779D01*
X201168Y76757D01*
X201056Y76740D01*
X200943Y76726D01*
X200830Y76716D01*
X200717Y76710D01*
X200604Y76708D01*
X197358Y76708D01*
X209573Y76708D02*
X214765Y76708D01*
X209573Y76708D02*
X209573Y88392D01*
X214765Y88392D01*
X213467Y83199D02*
X209573Y83199D01*
X221638Y76708D02*
X224235Y76708D01*
X221638Y76708D02*
X221539Y76710D01*
X221439Y76716D01*
X221340Y76725D01*
X221242Y76738D01*
X221144Y76755D01*
X221046Y76776D01*
X220950Y76801D01*
X220855Y76829D01*
X220761Y76861D01*
X220668Y76896D01*
X220576Y76935D01*
X220486Y76978D01*
X220398Y77023D01*
X220311Y77073D01*
X220227Y77125D01*
X220144Y77181D01*
X220064Y77239D01*
X219986Y77301D01*
X219911Y77366D01*
X219838Y77434D01*
X219768Y77504D01*
X219700Y77577D01*
X219635Y77652D01*
X219573Y77730D01*
X219515Y77810D01*
X219459Y77893D01*
X219407Y77977D01*
X219357Y78064D01*
X219312Y78152D01*
X219269Y78242D01*
X219230Y78334D01*
X219195Y78427D01*
X219163Y78521D01*
X219135Y78616D01*
X219110Y78712D01*
X219089Y78810D01*
X219072Y78908D01*
X219059Y79006D01*
X219050Y79105D01*
X219044Y79205D01*
X219042Y79304D01*
X219042Y85796D01*
X219044Y85895D01*
X219050Y85995D01*
X219059Y86094D01*
X219072Y86192D01*
X219089Y86290D01*
X219110Y86388D01*
X219135Y86484D01*
X219163Y86579D01*
X219195Y86673D01*
X219230Y86766D01*
X219269Y86858D01*
X219312Y86948D01*
X219357Y87036D01*
X219407Y87123D01*
X219459Y87207D01*
X219515Y87290D01*
X219573Y87370D01*
X219635Y87448D01*
X219700Y87523D01*
X219768Y87596D01*
X219838Y87666D01*
X219911Y87734D01*
X219986Y87799D01*
X220064Y87861D01*
X220144Y87919D01*
X220227Y87975D01*
X220311Y88027D01*
X220398Y88077D01*
X220486Y88122D01*
X220576Y88165D01*
X220668Y88204D01*
X220760Y88239D01*
X220855Y88271D01*
X220950Y88299D01*
X221046Y88324D01*
X221144Y88345D01*
X221242Y88362D01*
X221340Y88375D01*
X221439Y88384D01*
X221539Y88390D01*
X221638Y88392D01*
X224235Y88392D01*
X229055Y88392D02*
X229055Y76708D01*
X229055Y88392D02*
X232300Y88392D01*
X232413Y88390D01*
X232526Y88384D01*
X232639Y88374D01*
X232752Y88360D01*
X232864Y88343D01*
X232975Y88321D01*
X233085Y88296D01*
X233195Y88266D01*
X233303Y88233D01*
X233410Y88196D01*
X233516Y88156D01*
X233620Y88111D01*
X233723Y88063D01*
X233824Y88012D01*
X233923Y87957D01*
X234020Y87899D01*
X234115Y87837D01*
X234208Y87772D01*
X234298Y87704D01*
X234386Y87633D01*
X234472Y87558D01*
X234555Y87481D01*
X234635Y87401D01*
X234712Y87318D01*
X234787Y87232D01*
X234858Y87144D01*
X234926Y87054D01*
X234991Y86961D01*
X235053Y86866D01*
X235111Y86769D01*
X235166Y86670D01*
X235217Y86569D01*
X235265Y86466D01*
X235310Y86362D01*
X235350Y86256D01*
X235387Y86149D01*
X235420Y86041D01*
X235450Y85931D01*
X235475Y85821D01*
X235497Y85710D01*
X235514Y85598D01*
X235528Y85485D01*
X235538Y85372D01*
X235544Y85259D01*
X235546Y85146D01*
X235544Y85033D01*
X235538Y84920D01*
X235528Y84807D01*
X235514Y84694D01*
X235497Y84582D01*
X235475Y84471D01*
X235450Y84361D01*
X235420Y84251D01*
X235387Y84143D01*
X235350Y84036D01*
X235310Y83930D01*
X235265Y83826D01*
X235217Y83723D01*
X235166Y83622D01*
X235111Y83523D01*
X235053Y83426D01*
X234991Y83331D01*
X234926Y83238D01*
X234858Y83148D01*
X234787Y83060D01*
X234712Y82974D01*
X234635Y82891D01*
X234555Y82811D01*
X234472Y82734D01*
X234386Y82659D01*
X234298Y82588D01*
X234208Y82520D01*
X234115Y82455D01*
X234020Y82393D01*
X233923Y82335D01*
X233824Y82280D01*
X233723Y82229D01*
X233620Y82181D01*
X233516Y82136D01*
X233410Y82096D01*
X233303Y82059D01*
X233195Y82026D01*
X233085Y81996D01*
X232975Y81971D01*
X232864Y81949D01*
X232752Y81932D01*
X232639Y81918D01*
X232526Y81908D01*
X232413Y81902D01*
X232300Y81900D01*
X232300Y81901D02*
X229055Y81901D01*
X232949Y81901D02*
X235546Y76708D01*
X240815Y76708D02*
X246007Y76708D01*
X240815Y76708D02*
X240815Y88392D01*
X246007Y88392D01*
X244709Y83199D02*
X240815Y83199D01*
X249668Y76708D02*
X253563Y88392D01*
X257457Y76708D01*
X256484Y79629D02*
X250642Y79629D01*
X265261Y76708D02*
X265360Y76710D01*
X265460Y76716D01*
X265559Y76725D01*
X265657Y76738D01*
X265755Y76755D01*
X265853Y76776D01*
X265949Y76801D01*
X266044Y76829D01*
X266138Y76861D01*
X266231Y76896D01*
X266323Y76935D01*
X266413Y76978D01*
X266501Y77023D01*
X266588Y77073D01*
X266672Y77125D01*
X266755Y77181D01*
X266835Y77239D01*
X266913Y77301D01*
X266988Y77366D01*
X267061Y77434D01*
X267131Y77504D01*
X267199Y77577D01*
X267264Y77652D01*
X267326Y77730D01*
X267384Y77810D01*
X267440Y77893D01*
X267492Y77977D01*
X267542Y78064D01*
X267587Y78152D01*
X267630Y78242D01*
X267669Y78334D01*
X267704Y78427D01*
X267736Y78521D01*
X267764Y78616D01*
X267789Y78712D01*
X267810Y78810D01*
X267827Y78908D01*
X267840Y79006D01*
X267849Y79105D01*
X267855Y79205D01*
X267857Y79304D01*
X265261Y76708D02*
X265117Y76710D01*
X264972Y76716D01*
X264828Y76725D01*
X264685Y76738D01*
X264541Y76755D01*
X264398Y76776D01*
X264256Y76801D01*
X264115Y76829D01*
X263974Y76861D01*
X263834Y76897D01*
X263695Y76936D01*
X263557Y76979D01*
X263421Y77026D01*
X263285Y77076D01*
X263151Y77130D01*
X263019Y77187D01*
X262888Y77248D01*
X262759Y77312D01*
X262631Y77380D01*
X262505Y77450D01*
X262381Y77525D01*
X262260Y77602D01*
X262140Y77683D01*
X262022Y77766D01*
X261907Y77853D01*
X261794Y77943D01*
X261683Y78036D01*
X261575Y78131D01*
X261469Y78230D01*
X261366Y78331D01*
X261691Y85796D02*
X261693Y85895D01*
X261699Y85995D01*
X261708Y86094D01*
X261721Y86192D01*
X261738Y86290D01*
X261759Y86388D01*
X261784Y86484D01*
X261812Y86579D01*
X261844Y86673D01*
X261879Y86766D01*
X261918Y86858D01*
X261961Y86948D01*
X262006Y87036D01*
X262056Y87123D01*
X262108Y87207D01*
X262164Y87290D01*
X262222Y87370D01*
X262284Y87448D01*
X262349Y87523D01*
X262417Y87596D01*
X262487Y87666D01*
X262560Y87734D01*
X262635Y87799D01*
X262713Y87861D01*
X262793Y87919D01*
X262876Y87975D01*
X262960Y88027D01*
X263047Y88077D01*
X263135Y88122D01*
X263225Y88165D01*
X263317Y88204D01*
X263410Y88239D01*
X263504Y88271D01*
X263599Y88299D01*
X263696Y88324D01*
X263793Y88345D01*
X263891Y88362D01*
X263989Y88375D01*
X264088Y88384D01*
X264188Y88390D01*
X264287Y88392D01*
X264423Y88390D01*
X264559Y88384D01*
X264695Y88375D01*
X264831Y88362D01*
X264966Y88344D01*
X265100Y88324D01*
X265234Y88299D01*
X265368Y88271D01*
X265500Y88238D01*
X265631Y88203D01*
X265762Y88163D01*
X265891Y88120D01*
X266019Y88074D01*
X266145Y88023D01*
X266271Y87970D01*
X266394Y87912D01*
X266516Y87852D01*
X266636Y87788D01*
X266755Y87720D01*
X266871Y87650D01*
X266985Y87576D01*
X267098Y87499D01*
X267208Y87418D01*
X262988Y83524D02*
X262902Y83577D01*
X262818Y83634D01*
X262736Y83693D01*
X262656Y83756D01*
X262579Y83822D01*
X262504Y83890D01*
X262432Y83962D01*
X262363Y84036D01*
X262297Y84113D01*
X262234Y84192D01*
X262174Y84274D01*
X262117Y84358D01*
X262063Y84444D01*
X262013Y84532D01*
X261966Y84622D01*
X261922Y84713D01*
X261883Y84807D01*
X261846Y84901D01*
X261814Y84997D01*
X261785Y85095D01*
X261760Y85193D01*
X261739Y85292D01*
X261721Y85392D01*
X261708Y85492D01*
X261698Y85593D01*
X261692Y85695D01*
X261690Y85796D01*
X266559Y81576D02*
X266645Y81523D01*
X266729Y81466D01*
X266811Y81407D01*
X266891Y81344D01*
X266968Y81278D01*
X267043Y81210D01*
X267115Y81138D01*
X267184Y81064D01*
X267250Y80987D01*
X267313Y80908D01*
X267373Y80826D01*
X267430Y80742D01*
X267484Y80656D01*
X267534Y80568D01*
X267581Y80478D01*
X267625Y80387D01*
X267664Y80293D01*
X267701Y80199D01*
X267733Y80103D01*
X267762Y80005D01*
X267787Y79907D01*
X267808Y79808D01*
X267826Y79708D01*
X267839Y79608D01*
X267849Y79507D01*
X267855Y79405D01*
X267857Y79304D01*
X266559Y81576D02*
X262989Y83524D01*
X272819Y76708D02*
X278011Y76708D01*
X272819Y76708D02*
X272819Y88392D01*
X278011Y88392D01*
X276713Y83199D02*
X272819Y83199D01*
D11*
X216040Y339500D02*
X114160Y339500D01*
D15*
X131064Y331978D03*
X148082Y331978D03*
X165100Y331978D03*
X182118Y331978D03*
X199136Y331978D03*
D10*
X108712Y314226D02*
X97028Y314226D01*
X108712Y312928D02*
X108712Y315524D01*
X97028Y315524D02*
X97028Y312928D01*
X108712Y322688D02*
X108712Y325284D01*
X108712Y322688D02*
X108710Y322589D01*
X108704Y322489D01*
X108695Y322390D01*
X108682Y322292D01*
X108665Y322194D01*
X108644Y322096D01*
X108619Y322000D01*
X108591Y321905D01*
X108559Y321811D01*
X108524Y321718D01*
X108485Y321626D01*
X108442Y321536D01*
X108397Y321448D01*
X108347Y321361D01*
X108295Y321277D01*
X108239Y321194D01*
X108181Y321114D01*
X108119Y321036D01*
X108054Y320961D01*
X107986Y320888D01*
X107916Y320818D01*
X107843Y320750D01*
X107768Y320685D01*
X107690Y320623D01*
X107610Y320565D01*
X107527Y320509D01*
X107443Y320457D01*
X107356Y320407D01*
X107268Y320362D01*
X107178Y320319D01*
X107086Y320280D01*
X106993Y320245D01*
X106899Y320213D01*
X106804Y320185D01*
X106708Y320160D01*
X106610Y320139D01*
X106512Y320122D01*
X106414Y320109D01*
X106315Y320100D01*
X106215Y320094D01*
X106116Y320092D01*
X106116Y320091D02*
X99624Y320091D01*
X99525Y320093D01*
X99425Y320099D01*
X99326Y320108D01*
X99228Y320121D01*
X99130Y320139D01*
X99032Y320159D01*
X98936Y320184D01*
X98840Y320212D01*
X98746Y320244D01*
X98653Y320279D01*
X98562Y320318D01*
X98472Y320361D01*
X98383Y320406D01*
X98297Y320456D01*
X98212Y320508D01*
X98130Y320564D01*
X98050Y320623D01*
X97972Y320684D01*
X97896Y320749D01*
X97823Y320817D01*
X97753Y320887D01*
X97685Y320960D01*
X97620Y321036D01*
X97559Y321114D01*
X97500Y321194D01*
X97444Y321276D01*
X97392Y321361D01*
X97343Y321447D01*
X97297Y321536D01*
X97254Y321626D01*
X97215Y321717D01*
X97180Y321810D01*
X97148Y321904D01*
X97120Y322000D01*
X97095Y322096D01*
X97075Y322194D01*
X97057Y322292D01*
X97044Y322390D01*
X97035Y322489D01*
X97029Y322588D01*
X97027Y322688D01*
X97028Y322688D02*
X97028Y325284D01*
X99624Y329650D02*
X97028Y332895D01*
X108712Y332895D01*
X108712Y329650D02*
X108712Y336141D01*
D14*
X842010Y330200D02*
X842010Y431800D01*
X783590Y431800D02*
X783590Y330200D01*
X842010Y330200D01*
X842010Y431800D02*
X822960Y431800D01*
X802640Y431800D02*
X783590Y431800D01*
X802640Y431800D02*
X802643Y431553D01*
X802652Y431305D01*
X802667Y431058D01*
X802688Y430812D01*
X802715Y430566D01*
X802748Y430321D01*
X802787Y430076D01*
X802832Y429833D01*
X802883Y429591D01*
X802940Y429350D01*
X803002Y429111D01*
X803071Y428873D01*
X803145Y428637D01*
X803225Y428403D01*
X803310Y428171D01*
X803402Y427941D01*
X803498Y427713D01*
X803601Y427488D01*
X803708Y427265D01*
X803822Y427045D01*
X803940Y426828D01*
X804064Y426613D01*
X804193Y426402D01*
X804327Y426194D01*
X804466Y425989D01*
X804610Y425788D01*
X804758Y425590D01*
X804912Y425396D01*
X805070Y425206D01*
X805233Y425020D01*
X805400Y424838D01*
X805572Y424660D01*
X805748Y424486D01*
X805928Y424316D01*
X806113Y424151D01*
X806301Y423991D01*
X806493Y423835D01*
X806689Y423683D01*
X806888Y423537D01*
X807091Y423395D01*
X807298Y423259D01*
X807507Y423127D01*
X807720Y423001D01*
X807936Y422880D01*
X808154Y422764D01*
X808376Y422654D01*
X808600Y422549D01*
X808826Y422449D01*
X809055Y422355D01*
X809286Y422267D01*
X809520Y422184D01*
X809755Y422107D01*
X809992Y422036D01*
X810230Y421970D01*
X810470Y421911D01*
X810712Y421857D01*
X810955Y421809D01*
X811198Y421767D01*
X811443Y421731D01*
X811689Y421701D01*
X811935Y421677D01*
X812182Y421659D01*
X812429Y421647D01*
X812676Y421641D01*
X812924Y421641D01*
X813171Y421647D01*
X813418Y421659D01*
X813665Y421677D01*
X813911Y421701D01*
X814157Y421731D01*
X814402Y421767D01*
X814645Y421809D01*
X814888Y421857D01*
X815130Y421911D01*
X815370Y421970D01*
X815608Y422036D01*
X815845Y422107D01*
X816080Y422184D01*
X816314Y422267D01*
X816545Y422355D01*
X816774Y422449D01*
X817000Y422549D01*
X817224Y422654D01*
X817446Y422764D01*
X817664Y422880D01*
X817880Y423001D01*
X818093Y423127D01*
X818302Y423259D01*
X818509Y423395D01*
X818712Y423537D01*
X818911Y423683D01*
X819107Y423835D01*
X819299Y423991D01*
X819487Y424151D01*
X819672Y424316D01*
X819852Y424486D01*
X820028Y424660D01*
X820200Y424838D01*
X820367Y425020D01*
X820530Y425206D01*
X820688Y425396D01*
X820842Y425590D01*
X820990Y425788D01*
X821134Y425989D01*
X821273Y426194D01*
X821407Y426402D01*
X821536Y426613D01*
X821660Y426828D01*
X821778Y427045D01*
X821892Y427265D01*
X821999Y427488D01*
X822102Y427713D01*
X822198Y427941D01*
X822290Y428171D01*
X822375Y428403D01*
X822455Y428637D01*
X822529Y428873D01*
X822598Y429111D01*
X822660Y429350D01*
X822717Y429591D01*
X822768Y429833D01*
X822813Y430076D01*
X822852Y430321D01*
X822885Y430566D01*
X822912Y430812D01*
X822933Y431058D01*
X822948Y431305D01*
X822957Y431553D01*
X822960Y431800D01*
D12*
X785495Y434975D02*
X785495Y446405D01*
X784225Y434975D02*
X786765Y434975D01*
X786765Y446405D02*
X784225Y446405D01*
X793967Y434975D02*
X796507Y434975D01*
X793967Y434975D02*
X793867Y434977D01*
X793768Y434983D01*
X793668Y434993D01*
X793570Y435006D01*
X793471Y435024D01*
X793374Y435045D01*
X793278Y435070D01*
X793182Y435099D01*
X793088Y435132D01*
X792995Y435168D01*
X792904Y435208D01*
X792814Y435252D01*
X792726Y435299D01*
X792640Y435349D01*
X792556Y435403D01*
X792474Y435460D01*
X792395Y435520D01*
X792317Y435584D01*
X792243Y435650D01*
X792171Y435719D01*
X792102Y435791D01*
X792036Y435865D01*
X791972Y435943D01*
X791912Y436022D01*
X791855Y436104D01*
X791801Y436188D01*
X791751Y436274D01*
X791704Y436362D01*
X791660Y436452D01*
X791620Y436543D01*
X791584Y436636D01*
X791551Y436730D01*
X791522Y436826D01*
X791497Y436922D01*
X791476Y437019D01*
X791458Y437118D01*
X791445Y437216D01*
X791435Y437316D01*
X791429Y437415D01*
X791427Y437515D01*
X791427Y443865D01*
X791429Y443965D01*
X791435Y444064D01*
X791445Y444164D01*
X791458Y444262D01*
X791476Y444361D01*
X791497Y444458D01*
X791522Y444554D01*
X791551Y444650D01*
X791584Y444744D01*
X791620Y444837D01*
X791660Y444928D01*
X791704Y445018D01*
X791751Y445106D01*
X791801Y445192D01*
X791855Y445276D01*
X791912Y445358D01*
X791972Y445437D01*
X792036Y445515D01*
X792102Y445589D01*
X792171Y445661D01*
X792243Y445730D01*
X792317Y445796D01*
X792395Y445860D01*
X792474Y445920D01*
X792556Y445977D01*
X792640Y446031D01*
X792726Y446081D01*
X792814Y446128D01*
X792904Y446172D01*
X792995Y446212D01*
X793088Y446248D01*
X793182Y446281D01*
X793278Y446310D01*
X793374Y446335D01*
X793471Y446356D01*
X793570Y446374D01*
X793668Y446387D01*
X793768Y446397D01*
X793867Y446403D01*
X793967Y446405D01*
X796507Y446405D01*
X800989Y434975D02*
X804164Y434975D01*
X804275Y434977D01*
X804385Y434983D01*
X804496Y434992D01*
X804606Y435006D01*
X804715Y435023D01*
X804824Y435044D01*
X804932Y435069D01*
X805039Y435098D01*
X805145Y435130D01*
X805250Y435166D01*
X805353Y435206D01*
X805455Y435249D01*
X805556Y435296D01*
X805655Y435347D01*
X805752Y435400D01*
X805846Y435457D01*
X805939Y435518D01*
X806030Y435581D01*
X806119Y435648D01*
X806205Y435718D01*
X806288Y435791D01*
X806370Y435866D01*
X806448Y435944D01*
X806523Y436026D01*
X806596Y436109D01*
X806666Y436195D01*
X806733Y436284D01*
X806796Y436375D01*
X806857Y436468D01*
X806914Y436562D01*
X806967Y436659D01*
X807018Y436758D01*
X807065Y436859D01*
X807108Y436961D01*
X807148Y437064D01*
X807184Y437169D01*
X807216Y437275D01*
X807245Y437382D01*
X807270Y437490D01*
X807291Y437599D01*
X807308Y437708D01*
X807322Y437818D01*
X807331Y437929D01*
X807337Y438039D01*
X807339Y438150D01*
X807337Y438261D01*
X807331Y438371D01*
X807322Y438482D01*
X807308Y438592D01*
X807291Y438701D01*
X807270Y438810D01*
X807245Y438918D01*
X807216Y439025D01*
X807184Y439131D01*
X807148Y439236D01*
X807108Y439339D01*
X807065Y439441D01*
X807018Y439542D01*
X806967Y439641D01*
X806914Y439737D01*
X806857Y439832D01*
X806796Y439925D01*
X806733Y440016D01*
X806666Y440105D01*
X806596Y440191D01*
X806523Y440274D01*
X806448Y440356D01*
X806370Y440434D01*
X806288Y440509D01*
X806205Y440582D01*
X806119Y440652D01*
X806030Y440719D01*
X805939Y440782D01*
X805846Y440843D01*
X805752Y440900D01*
X805655Y440953D01*
X805556Y441004D01*
X805455Y441051D01*
X805353Y441094D01*
X805250Y441134D01*
X805145Y441170D01*
X805039Y441202D01*
X804932Y441231D01*
X804824Y441256D01*
X804715Y441277D01*
X804606Y441294D01*
X804496Y441308D01*
X804385Y441317D01*
X804275Y441323D01*
X804164Y441325D01*
X804799Y446405D02*
X800989Y446405D01*
X804799Y446405D02*
X804899Y446403D01*
X804998Y446397D01*
X805098Y446387D01*
X805196Y446374D01*
X805295Y446356D01*
X805392Y446335D01*
X805488Y446310D01*
X805584Y446281D01*
X805678Y446248D01*
X805771Y446212D01*
X805862Y446172D01*
X805952Y446128D01*
X806040Y446081D01*
X806126Y446031D01*
X806210Y445977D01*
X806292Y445920D01*
X806371Y445860D01*
X806449Y445796D01*
X806523Y445730D01*
X806595Y445661D01*
X806664Y445589D01*
X806730Y445515D01*
X806794Y445437D01*
X806854Y445358D01*
X806911Y445276D01*
X806965Y445192D01*
X807015Y445106D01*
X807062Y445018D01*
X807106Y444928D01*
X807146Y444837D01*
X807182Y444744D01*
X807215Y444650D01*
X807244Y444554D01*
X807269Y444458D01*
X807290Y444361D01*
X807308Y444262D01*
X807321Y444164D01*
X807331Y444064D01*
X807337Y443965D01*
X807339Y443865D01*
X807337Y443765D01*
X807331Y443666D01*
X807321Y443566D01*
X807308Y443468D01*
X807290Y443369D01*
X807269Y443272D01*
X807244Y443176D01*
X807215Y443080D01*
X807182Y442986D01*
X807146Y442893D01*
X807106Y442802D01*
X807062Y442712D01*
X807015Y442624D01*
X806965Y442538D01*
X806911Y442454D01*
X806854Y442372D01*
X806794Y442293D01*
X806730Y442215D01*
X806664Y442141D01*
X806595Y442069D01*
X806523Y442000D01*
X806449Y441934D01*
X806371Y441870D01*
X806292Y441810D01*
X806210Y441753D01*
X806126Y441699D01*
X806040Y441649D01*
X805952Y441602D01*
X805862Y441558D01*
X805771Y441518D01*
X805678Y441482D01*
X805584Y441449D01*
X805488Y441420D01*
X805392Y441395D01*
X805295Y441374D01*
X805196Y441356D01*
X805098Y441343D01*
X804998Y441333D01*
X804899Y441327D01*
X804799Y441325D01*
X802259Y441325D01*
X358521Y116078D02*
X358521Y101600D01*
X358521Y116078D02*
X368300Y116078D01*
X402971Y56007D02*
X418465Y56007D01*
X418468Y56007D01*
X418465Y56007D02*
X418465Y76200D01*
D10*
X363756Y76708D02*
X363756Y88392D01*
X362458Y76708D02*
X365054Y76708D01*
X365054Y88392D02*
X362458Y88392D01*
X370036Y88392D02*
X370036Y76708D01*
X376527Y76708D02*
X370036Y88392D01*
X376527Y88392D02*
X376527Y76708D01*
X384410Y76708D02*
X387006Y76708D01*
X384410Y76708D02*
X384311Y76710D01*
X384211Y76716D01*
X384112Y76725D01*
X384014Y76738D01*
X383916Y76755D01*
X383818Y76776D01*
X383722Y76801D01*
X383627Y76829D01*
X383533Y76861D01*
X383440Y76896D01*
X383348Y76935D01*
X383258Y76978D01*
X383170Y77023D01*
X383083Y77073D01*
X382999Y77125D01*
X382916Y77181D01*
X382836Y77239D01*
X382758Y77301D01*
X382683Y77366D01*
X382610Y77434D01*
X382540Y77504D01*
X382472Y77577D01*
X382407Y77652D01*
X382345Y77730D01*
X382287Y77810D01*
X382231Y77893D01*
X382179Y77977D01*
X382129Y78064D01*
X382084Y78152D01*
X382041Y78242D01*
X382002Y78334D01*
X381967Y78427D01*
X381935Y78521D01*
X381907Y78616D01*
X381882Y78712D01*
X381861Y78810D01*
X381844Y78908D01*
X381831Y79006D01*
X381822Y79105D01*
X381816Y79205D01*
X381814Y79304D01*
X381813Y79304D02*
X381813Y85796D01*
X381814Y85796D02*
X381816Y85895D01*
X381822Y85995D01*
X381831Y86094D01*
X381844Y86192D01*
X381861Y86290D01*
X381882Y86388D01*
X381907Y86484D01*
X381935Y86579D01*
X381967Y86673D01*
X382002Y86766D01*
X382041Y86858D01*
X382084Y86948D01*
X382129Y87036D01*
X382179Y87123D01*
X382231Y87207D01*
X382287Y87290D01*
X382345Y87370D01*
X382407Y87448D01*
X382472Y87523D01*
X382540Y87596D01*
X382610Y87666D01*
X382683Y87734D01*
X382758Y87799D01*
X382836Y87861D01*
X382916Y87919D01*
X382999Y87975D01*
X383083Y88027D01*
X383170Y88077D01*
X383258Y88122D01*
X383348Y88165D01*
X383440Y88204D01*
X383532Y88239D01*
X383627Y88271D01*
X383722Y88299D01*
X383818Y88324D01*
X383916Y88345D01*
X384014Y88362D01*
X384112Y88375D01*
X384211Y88384D01*
X384311Y88390D01*
X384410Y88392D01*
X387006Y88392D01*
X391826Y88392D02*
X391826Y76708D01*
X391826Y88392D02*
X395072Y88392D01*
X395185Y88390D01*
X395298Y88384D01*
X395411Y88374D01*
X395524Y88360D01*
X395636Y88343D01*
X395747Y88321D01*
X395857Y88296D01*
X395967Y88266D01*
X396075Y88233D01*
X396182Y88196D01*
X396288Y88156D01*
X396392Y88111D01*
X396495Y88063D01*
X396596Y88012D01*
X396695Y87957D01*
X396792Y87899D01*
X396887Y87837D01*
X396980Y87772D01*
X397070Y87704D01*
X397158Y87633D01*
X397244Y87558D01*
X397327Y87481D01*
X397407Y87401D01*
X397484Y87318D01*
X397559Y87232D01*
X397630Y87144D01*
X397698Y87054D01*
X397763Y86961D01*
X397825Y86866D01*
X397883Y86769D01*
X397938Y86670D01*
X397989Y86569D01*
X398037Y86466D01*
X398082Y86362D01*
X398122Y86256D01*
X398159Y86149D01*
X398192Y86041D01*
X398222Y85931D01*
X398247Y85821D01*
X398269Y85710D01*
X398286Y85598D01*
X398300Y85485D01*
X398310Y85372D01*
X398316Y85259D01*
X398318Y85146D01*
X398316Y85033D01*
X398310Y84920D01*
X398300Y84807D01*
X398286Y84694D01*
X398269Y84582D01*
X398247Y84471D01*
X398222Y84361D01*
X398192Y84251D01*
X398159Y84143D01*
X398122Y84036D01*
X398082Y83930D01*
X398037Y83826D01*
X397989Y83723D01*
X397938Y83622D01*
X397883Y83523D01*
X397825Y83426D01*
X397763Y83331D01*
X397698Y83238D01*
X397630Y83148D01*
X397559Y83060D01*
X397484Y82974D01*
X397407Y82891D01*
X397327Y82811D01*
X397244Y82734D01*
X397158Y82659D01*
X397070Y82588D01*
X396980Y82520D01*
X396887Y82455D01*
X396792Y82393D01*
X396695Y82335D01*
X396596Y82280D01*
X396495Y82229D01*
X396392Y82181D01*
X396288Y82136D01*
X396182Y82096D01*
X396075Y82059D01*
X395967Y82026D01*
X395857Y81996D01*
X395747Y81971D01*
X395636Y81949D01*
X395524Y81932D01*
X395411Y81918D01*
X395298Y81908D01*
X395185Y81902D01*
X395072Y81900D01*
X395072Y81901D02*
X391826Y81901D01*
X395721Y81901D02*
X398317Y76708D01*
X403586Y76708D02*
X408779Y76708D01*
X403586Y76708D02*
X403586Y88392D01*
X408779Y88392D01*
X407481Y83199D02*
X403586Y83199D01*
X412440Y76708D02*
X416334Y88392D01*
X420229Y76708D01*
X419255Y79629D02*
X413413Y79629D01*
X428032Y76708D02*
X428131Y76710D01*
X428231Y76716D01*
X428330Y76725D01*
X428428Y76738D01*
X428526Y76755D01*
X428624Y76776D01*
X428720Y76801D01*
X428815Y76829D01*
X428909Y76861D01*
X429002Y76896D01*
X429094Y76935D01*
X429184Y76978D01*
X429272Y77023D01*
X429359Y77073D01*
X429443Y77125D01*
X429526Y77181D01*
X429606Y77239D01*
X429684Y77301D01*
X429759Y77366D01*
X429832Y77434D01*
X429902Y77504D01*
X429970Y77577D01*
X430035Y77652D01*
X430097Y77730D01*
X430155Y77810D01*
X430211Y77893D01*
X430263Y77977D01*
X430313Y78064D01*
X430358Y78152D01*
X430401Y78242D01*
X430440Y78334D01*
X430475Y78427D01*
X430507Y78521D01*
X430535Y78616D01*
X430560Y78712D01*
X430581Y78810D01*
X430598Y78908D01*
X430611Y79006D01*
X430620Y79105D01*
X430626Y79205D01*
X430628Y79304D01*
X428032Y76708D02*
X427888Y76710D01*
X427743Y76716D01*
X427599Y76725D01*
X427456Y76738D01*
X427312Y76755D01*
X427169Y76776D01*
X427027Y76801D01*
X426886Y76829D01*
X426745Y76861D01*
X426605Y76897D01*
X426466Y76936D01*
X426328Y76979D01*
X426192Y77026D01*
X426056Y77076D01*
X425922Y77130D01*
X425790Y77187D01*
X425659Y77248D01*
X425530Y77312D01*
X425402Y77380D01*
X425276Y77450D01*
X425152Y77525D01*
X425031Y77602D01*
X424911Y77683D01*
X424793Y77766D01*
X424678Y77853D01*
X424565Y77943D01*
X424454Y78036D01*
X424346Y78131D01*
X424240Y78230D01*
X424137Y78331D01*
X424463Y85796D02*
X424465Y85895D01*
X424471Y85995D01*
X424480Y86094D01*
X424493Y86192D01*
X424510Y86290D01*
X424531Y86388D01*
X424556Y86484D01*
X424584Y86579D01*
X424616Y86673D01*
X424651Y86766D01*
X424690Y86858D01*
X424733Y86948D01*
X424778Y87036D01*
X424828Y87123D01*
X424880Y87207D01*
X424936Y87290D01*
X424994Y87370D01*
X425056Y87448D01*
X425121Y87523D01*
X425189Y87596D01*
X425259Y87666D01*
X425332Y87734D01*
X425407Y87799D01*
X425485Y87861D01*
X425565Y87919D01*
X425648Y87975D01*
X425732Y88027D01*
X425819Y88077D01*
X425907Y88122D01*
X425997Y88165D01*
X426089Y88204D01*
X426182Y88239D01*
X426276Y88271D01*
X426371Y88299D01*
X426468Y88324D01*
X426565Y88345D01*
X426663Y88362D01*
X426761Y88375D01*
X426860Y88384D01*
X426960Y88390D01*
X427059Y88392D01*
X427195Y88390D01*
X427331Y88384D01*
X427467Y88375D01*
X427603Y88362D01*
X427738Y88344D01*
X427872Y88324D01*
X428006Y88299D01*
X428140Y88271D01*
X428272Y88238D01*
X428403Y88203D01*
X428534Y88163D01*
X428663Y88120D01*
X428791Y88074D01*
X428917Y88023D01*
X429043Y87970D01*
X429166Y87912D01*
X429288Y87852D01*
X429408Y87788D01*
X429527Y87720D01*
X429643Y87650D01*
X429757Y87576D01*
X429870Y87499D01*
X429980Y87418D01*
X425760Y83524D02*
X425674Y83577D01*
X425590Y83634D01*
X425508Y83693D01*
X425428Y83756D01*
X425351Y83822D01*
X425276Y83890D01*
X425204Y83962D01*
X425135Y84036D01*
X425069Y84113D01*
X425006Y84192D01*
X424946Y84274D01*
X424889Y84358D01*
X424835Y84444D01*
X424785Y84532D01*
X424738Y84622D01*
X424694Y84713D01*
X424655Y84807D01*
X424618Y84901D01*
X424586Y84997D01*
X424557Y85095D01*
X424532Y85193D01*
X424511Y85292D01*
X424493Y85392D01*
X424480Y85492D01*
X424470Y85593D01*
X424464Y85695D01*
X424462Y85796D01*
X429331Y81576D02*
X429417Y81523D01*
X429501Y81466D01*
X429583Y81407D01*
X429663Y81344D01*
X429740Y81278D01*
X429815Y81210D01*
X429887Y81138D01*
X429956Y81064D01*
X430022Y80987D01*
X430085Y80908D01*
X430145Y80826D01*
X430202Y80742D01*
X430256Y80656D01*
X430306Y80568D01*
X430353Y80478D01*
X430397Y80387D01*
X430436Y80293D01*
X430473Y80199D01*
X430505Y80103D01*
X430534Y80005D01*
X430559Y79907D01*
X430580Y79808D01*
X430598Y79708D01*
X430611Y79608D01*
X430621Y79507D01*
X430627Y79405D01*
X430629Y79304D01*
X429330Y81576D02*
X425760Y83524D01*
X435590Y76708D02*
X440783Y76708D01*
X435590Y76708D02*
X435590Y88392D01*
X440783Y88392D01*
X439485Y83199D02*
X435590Y83199D01*
D12*
X401320Y254000D02*
X393700Y261620D01*
X393700Y297180D01*
X401320Y304800D01*
X414020Y304800D01*
X419100Y299720D01*
X424180Y304800D01*
X439420Y304800D01*
X444500Y299720D01*
X449580Y304800D01*
X462280Y304800D01*
X469900Y297180D01*
X469900Y261620D01*
X462280Y254000D01*
X449580Y254000D01*
X444500Y259080D01*
X439420Y254000D01*
X424180Y254000D01*
X419100Y259080D01*
X414020Y254000D01*
X401320Y254000D01*
D16*
X388549Y249301D02*
X386461Y251912D01*
X395859Y251912D01*
X395859Y254522D02*
X395859Y249301D01*
D10*
X427285Y248412D02*
X427285Y236728D01*
X428583Y236728D02*
X425986Y236728D01*
X425986Y248412D02*
X428583Y248412D01*
X439293Y239324D02*
X439291Y239225D01*
X439285Y239125D01*
X439276Y239026D01*
X439263Y238928D01*
X439246Y238830D01*
X439225Y238732D01*
X439200Y238636D01*
X439172Y238541D01*
X439140Y238447D01*
X439105Y238354D01*
X439066Y238262D01*
X439023Y238172D01*
X438978Y238084D01*
X438928Y237997D01*
X438876Y237913D01*
X438820Y237830D01*
X438762Y237750D01*
X438700Y237672D01*
X438635Y237597D01*
X438567Y237524D01*
X438497Y237454D01*
X438424Y237386D01*
X438349Y237321D01*
X438271Y237259D01*
X438191Y237201D01*
X438108Y237145D01*
X438024Y237093D01*
X437937Y237043D01*
X437849Y236998D01*
X437759Y236955D01*
X437667Y236916D01*
X437574Y236881D01*
X437480Y236849D01*
X437385Y236821D01*
X437289Y236796D01*
X437191Y236775D01*
X437093Y236758D01*
X436995Y236745D01*
X436896Y236736D01*
X436796Y236730D01*
X436697Y236728D01*
X436553Y236730D01*
X436408Y236736D01*
X436264Y236745D01*
X436121Y236758D01*
X435977Y236775D01*
X435834Y236796D01*
X435692Y236821D01*
X435551Y236849D01*
X435410Y236881D01*
X435270Y236917D01*
X435131Y236956D01*
X434993Y236999D01*
X434857Y237046D01*
X434721Y237096D01*
X434587Y237150D01*
X434455Y237207D01*
X434324Y237268D01*
X434195Y237332D01*
X434067Y237400D01*
X433941Y237470D01*
X433817Y237545D01*
X433696Y237622D01*
X433576Y237703D01*
X433458Y237786D01*
X433343Y237873D01*
X433230Y237963D01*
X433119Y238056D01*
X433011Y238151D01*
X432905Y238250D01*
X432802Y238351D01*
X433127Y245816D02*
X433129Y245915D01*
X433135Y246015D01*
X433144Y246114D01*
X433157Y246212D01*
X433174Y246310D01*
X433195Y246408D01*
X433220Y246504D01*
X433248Y246599D01*
X433280Y246693D01*
X433315Y246786D01*
X433354Y246878D01*
X433397Y246968D01*
X433442Y247056D01*
X433492Y247143D01*
X433544Y247227D01*
X433600Y247310D01*
X433658Y247390D01*
X433720Y247468D01*
X433785Y247543D01*
X433853Y247616D01*
X433923Y247686D01*
X433996Y247754D01*
X434071Y247819D01*
X434149Y247881D01*
X434229Y247939D01*
X434312Y247995D01*
X434396Y248047D01*
X434483Y248097D01*
X434571Y248142D01*
X434661Y248185D01*
X434753Y248224D01*
X434846Y248259D01*
X434940Y248291D01*
X435035Y248319D01*
X435132Y248344D01*
X435229Y248365D01*
X435327Y248382D01*
X435425Y248395D01*
X435524Y248404D01*
X435624Y248410D01*
X435723Y248412D01*
X435859Y248410D01*
X435995Y248404D01*
X436131Y248395D01*
X436267Y248382D01*
X436402Y248364D01*
X436536Y248344D01*
X436670Y248319D01*
X436804Y248291D01*
X436936Y248258D01*
X437067Y248223D01*
X437198Y248183D01*
X437327Y248140D01*
X437455Y248094D01*
X437581Y248043D01*
X437707Y247990D01*
X437830Y247932D01*
X437952Y247872D01*
X438072Y247808D01*
X438191Y247740D01*
X438307Y247670D01*
X438421Y247596D01*
X438534Y247519D01*
X438644Y247438D01*
X434424Y243544D02*
X434338Y243597D01*
X434254Y243654D01*
X434172Y243713D01*
X434092Y243776D01*
X434015Y243842D01*
X433940Y243910D01*
X433868Y243982D01*
X433799Y244056D01*
X433733Y244133D01*
X433670Y244212D01*
X433610Y244294D01*
X433553Y244378D01*
X433499Y244464D01*
X433449Y244552D01*
X433402Y244642D01*
X433358Y244733D01*
X433319Y244827D01*
X433282Y244921D01*
X433250Y245017D01*
X433221Y245115D01*
X433196Y245213D01*
X433175Y245312D01*
X433157Y245412D01*
X433144Y245512D01*
X433134Y245613D01*
X433128Y245715D01*
X433126Y245816D01*
X437995Y241596D02*
X438081Y241543D01*
X438165Y241486D01*
X438247Y241427D01*
X438327Y241364D01*
X438404Y241298D01*
X438479Y241230D01*
X438551Y241158D01*
X438620Y241084D01*
X438686Y241007D01*
X438749Y240928D01*
X438809Y240846D01*
X438866Y240762D01*
X438920Y240676D01*
X438970Y240588D01*
X439017Y240498D01*
X439061Y240407D01*
X439100Y240313D01*
X439137Y240219D01*
X439169Y240123D01*
X439198Y240025D01*
X439223Y239927D01*
X439244Y239828D01*
X439262Y239728D01*
X439275Y239628D01*
X439285Y239527D01*
X439291Y239425D01*
X439293Y239324D01*
X437995Y241596D02*
X434425Y243544D01*
X444401Y248412D02*
X444401Y236728D01*
X444401Y248412D02*
X447647Y248412D01*
X447760Y248410D01*
X447873Y248404D01*
X447986Y248394D01*
X448099Y248380D01*
X448211Y248363D01*
X448322Y248341D01*
X448432Y248316D01*
X448542Y248286D01*
X448650Y248253D01*
X448757Y248216D01*
X448863Y248176D01*
X448967Y248131D01*
X449070Y248083D01*
X449171Y248032D01*
X449270Y247977D01*
X449367Y247919D01*
X449462Y247857D01*
X449555Y247792D01*
X449645Y247724D01*
X449733Y247653D01*
X449819Y247578D01*
X449902Y247501D01*
X449982Y247421D01*
X450059Y247338D01*
X450134Y247252D01*
X450205Y247164D01*
X450273Y247074D01*
X450338Y246981D01*
X450400Y246886D01*
X450458Y246789D01*
X450513Y246690D01*
X450564Y246589D01*
X450612Y246486D01*
X450657Y246382D01*
X450697Y246276D01*
X450734Y246169D01*
X450767Y246061D01*
X450797Y245951D01*
X450822Y245841D01*
X450844Y245730D01*
X450861Y245618D01*
X450875Y245505D01*
X450885Y245392D01*
X450891Y245279D01*
X450893Y245166D01*
X450891Y245053D01*
X450885Y244940D01*
X450875Y244827D01*
X450861Y244714D01*
X450844Y244602D01*
X450822Y244491D01*
X450797Y244381D01*
X450767Y244271D01*
X450734Y244163D01*
X450697Y244056D01*
X450657Y243950D01*
X450612Y243846D01*
X450564Y243743D01*
X450513Y243642D01*
X450458Y243543D01*
X450400Y243446D01*
X450338Y243351D01*
X450273Y243258D01*
X450205Y243168D01*
X450134Y243080D01*
X450059Y242994D01*
X449982Y242911D01*
X449902Y242831D01*
X449819Y242754D01*
X449733Y242679D01*
X449645Y242608D01*
X449555Y242540D01*
X449462Y242475D01*
X449367Y242413D01*
X449270Y242355D01*
X449171Y242300D01*
X449070Y242249D01*
X448967Y242201D01*
X448863Y242156D01*
X448757Y242116D01*
X448650Y242079D01*
X448542Y242046D01*
X448432Y242016D01*
X448322Y241991D01*
X448211Y241969D01*
X448099Y241952D01*
X447986Y241938D01*
X447873Y241928D01*
X447760Y241922D01*
X447647Y241920D01*
X447647Y241921D02*
X444401Y241921D01*
X455281Y245816D02*
X458526Y248412D01*
X458526Y236728D01*
X455281Y236728D02*
X461772Y236728D01*
D11*
X878300Y177800D02*
X878300Y156800D01*
X932300Y177800D02*
X985300Y177800D01*
X885300Y177800D02*
X878300Y177800D01*
X878300Y87800D02*
X985300Y87800D01*
X878300Y87800D02*
X878300Y108800D01*
X985300Y87800D02*
X985300Y177800D01*
D12*
X991551Y121328D02*
X995305Y121328D01*
X995305Y121327D02*
X995370Y121325D01*
X995434Y121319D01*
X995498Y121309D01*
X995562Y121296D01*
X995624Y121278D01*
X995685Y121257D01*
X995745Y121233D01*
X995803Y121204D01*
X995860Y121172D01*
X995914Y121137D01*
X995966Y121099D01*
X996016Y121057D01*
X996063Y121013D01*
X996107Y120966D01*
X996149Y120916D01*
X996187Y120864D01*
X996222Y120810D01*
X996254Y120753D01*
X996283Y120695D01*
X996307Y120635D01*
X996328Y120574D01*
X996346Y120512D01*
X996359Y120448D01*
X996369Y120384D01*
X996375Y120320D01*
X996377Y120255D01*
X996377Y119719D01*
X992623Y124276D02*
X991551Y125616D01*
X996377Y125616D01*
X996377Y124276D02*
X996377Y126957D01*
D11*
X99900Y86200D02*
X99900Y65200D01*
X45900Y65200D02*
X-7100Y65200D01*
X92900Y65200D02*
X99900Y65200D01*
X99900Y155200D02*
X-7100Y155200D01*
X99900Y155200D02*
X99900Y134200D01*
X-7100Y155200D02*
X-7100Y65200D01*
D12*
X-14423Y117652D02*
X-18177Y117652D01*
X-14423Y117652D02*
X-14358Y117650D01*
X-14294Y117644D01*
X-14230Y117634D01*
X-14166Y117621D01*
X-14104Y117603D01*
X-14043Y117582D01*
X-13983Y117558D01*
X-13925Y117529D01*
X-13868Y117497D01*
X-13814Y117462D01*
X-13762Y117424D01*
X-13712Y117382D01*
X-13665Y117338D01*
X-13621Y117291D01*
X-13579Y117241D01*
X-13541Y117189D01*
X-13506Y117135D01*
X-13474Y117078D01*
X-13445Y117020D01*
X-13421Y116960D01*
X-13400Y116899D01*
X-13382Y116837D01*
X-13369Y116773D01*
X-13359Y116709D01*
X-13353Y116645D01*
X-13351Y116580D01*
X-13351Y116043D01*
X-18177Y122074D02*
X-18175Y122142D01*
X-18169Y122209D01*
X-18160Y122276D01*
X-18147Y122343D01*
X-18130Y122408D01*
X-18109Y122473D01*
X-18085Y122536D01*
X-18057Y122598D01*
X-18026Y122658D01*
X-17992Y122716D01*
X-17954Y122772D01*
X-17914Y122827D01*
X-17870Y122878D01*
X-17823Y122927D01*
X-17774Y122974D01*
X-17723Y123018D01*
X-17668Y123058D01*
X-17612Y123096D01*
X-17554Y123130D01*
X-17494Y123161D01*
X-17432Y123189D01*
X-17369Y123213D01*
X-17304Y123234D01*
X-17239Y123251D01*
X-17172Y123264D01*
X-17105Y123273D01*
X-17038Y123279D01*
X-16970Y123281D01*
X-18177Y122074D02*
X-18175Y121996D01*
X-18169Y121918D01*
X-18159Y121841D01*
X-18146Y121764D01*
X-18128Y121688D01*
X-18107Y121613D01*
X-18082Y121539D01*
X-18053Y121467D01*
X-18021Y121396D01*
X-17985Y121327D01*
X-17946Y121259D01*
X-17903Y121194D01*
X-17857Y121131D01*
X-17808Y121070D01*
X-17756Y121012D01*
X-17701Y120957D01*
X-17644Y120904D01*
X-17584Y120855D01*
X-17521Y120808D01*
X-17456Y120765D01*
X-17390Y120725D01*
X-17321Y120688D01*
X-17250Y120655D01*
X-17178Y120625D01*
X-17105Y120599D01*
X-16032Y122879D02*
X-16081Y122928D01*
X-16133Y122975D01*
X-16188Y123018D01*
X-16245Y123059D01*
X-16304Y123097D01*
X-16365Y123131D01*
X-16428Y123162D01*
X-16492Y123190D01*
X-16558Y123214D01*
X-16624Y123234D01*
X-16692Y123251D01*
X-16761Y123264D01*
X-16830Y123273D01*
X-16900Y123279D01*
X-16970Y123281D01*
X-16032Y122879D02*
X-13351Y120600D01*
X-13351Y123281D01*
D10*
X260858Y260858D02*
X260858Y272542D01*
X260858Y260858D02*
X266051Y260858D01*
X270360Y269946D02*
X273606Y272542D01*
X273606Y260858D01*
X270360Y260858D02*
X276852Y260858D01*
D11*
X6400Y992800D02*
X806400Y992800D01*
X806400Y632800D01*
X6400Y632800D01*
X6400Y992800D01*
X49900Y944300D02*
X762900Y944300D01*
X762900Y681300D01*
X49900Y681300D01*
X49900Y944300D01*
D12*
X89535Y1003935D02*
X89535Y1008761D01*
X89535Y1003935D02*
X91680Y1003935D01*
X95131Y1003935D02*
X96204Y1003935D01*
X95131Y1003935D02*
X95066Y1003937D01*
X95002Y1003943D01*
X94938Y1003953D01*
X94874Y1003966D01*
X94812Y1003984D01*
X94751Y1004005D01*
X94691Y1004029D01*
X94633Y1004058D01*
X94576Y1004090D01*
X94522Y1004125D01*
X94470Y1004163D01*
X94420Y1004205D01*
X94373Y1004249D01*
X94329Y1004296D01*
X94287Y1004346D01*
X94249Y1004398D01*
X94214Y1004452D01*
X94182Y1004509D01*
X94153Y1004567D01*
X94129Y1004627D01*
X94108Y1004688D01*
X94090Y1004750D01*
X94077Y1004814D01*
X94067Y1004878D01*
X94061Y1004942D01*
X94059Y1005007D01*
X94059Y1007689D01*
X94061Y1007754D01*
X94067Y1007818D01*
X94077Y1007882D01*
X94090Y1007946D01*
X94108Y1008008D01*
X94129Y1008069D01*
X94153Y1008129D01*
X94182Y1008187D01*
X94214Y1008244D01*
X94249Y1008298D01*
X94287Y1008350D01*
X94329Y1008400D01*
X94373Y1008447D01*
X94420Y1008491D01*
X94470Y1008533D01*
X94522Y1008571D01*
X94576Y1008606D01*
X94633Y1008638D01*
X94691Y1008667D01*
X94751Y1008691D01*
X94812Y1008712D01*
X94874Y1008730D01*
X94938Y1008743D01*
X95002Y1008753D01*
X95066Y1008759D01*
X95131Y1008761D01*
X96204Y1008761D01*
X98842Y1008761D02*
X98842Y1003935D01*
X98842Y1008761D02*
X100183Y1008761D01*
X100253Y1008759D01*
X100323Y1008754D01*
X100393Y1008744D01*
X100462Y1008732D01*
X100530Y1008715D01*
X100597Y1008695D01*
X100664Y1008672D01*
X100728Y1008645D01*
X100792Y1008615D01*
X100854Y1008581D01*
X100913Y1008545D01*
X100971Y1008505D01*
X101027Y1008462D01*
X101080Y1008417D01*
X101131Y1008368D01*
X101180Y1008317D01*
X101225Y1008264D01*
X101268Y1008208D01*
X101308Y1008150D01*
X101344Y1008091D01*
X101378Y1008029D01*
X101408Y1007965D01*
X101435Y1007901D01*
X101458Y1007834D01*
X101478Y1007767D01*
X101495Y1007699D01*
X101507Y1007630D01*
X101517Y1007560D01*
X101522Y1007490D01*
X101524Y1007420D01*
X101523Y1007420D02*
X101523Y1005276D01*
X101524Y1005276D02*
X101522Y1005206D01*
X101517Y1005136D01*
X101507Y1005066D01*
X101495Y1004997D01*
X101478Y1004929D01*
X101458Y1004862D01*
X101435Y1004795D01*
X101408Y1004731D01*
X101378Y1004667D01*
X101344Y1004605D01*
X101308Y1004546D01*
X101268Y1004488D01*
X101225Y1004432D01*
X101180Y1004379D01*
X101131Y1004328D01*
X101080Y1004279D01*
X101027Y1004234D01*
X100971Y1004191D01*
X100913Y1004151D01*
X100853Y1004115D01*
X100792Y1004081D01*
X100728Y1004051D01*
X100664Y1004024D01*
X100597Y1004001D01*
X100530Y1003981D01*
X100462Y1003964D01*
X100393Y1003952D01*
X100323Y1003942D01*
X100253Y1003937D01*
X100183Y1003935D01*
X98842Y1003935D01*
X104512Y1007689D02*
X105852Y1008761D01*
X105852Y1003935D01*
X104512Y1003935D02*
X107193Y1003935D01*
D14*
X921420Y624910D02*
X923960Y622370D01*
X921420Y624910D02*
X921420Y718890D01*
X923960Y721430D01*
X923960Y622370D02*
X953170Y621100D01*
X953170Y722700D02*
X923960Y721430D01*
D17*
X927516Y716858D03*
D18*
X960790Y671900D03*
D19*
X954440Y715715D03*
D20*
X954440Y684600D03*
X954440Y659200D03*
D19*
X954440Y628085D03*
D12*
X913038Y704654D02*
X907958Y704654D01*
X907847Y704656D01*
X907737Y704662D01*
X907626Y704671D01*
X907516Y704685D01*
X907407Y704702D01*
X907298Y704723D01*
X907190Y704748D01*
X907083Y704777D01*
X906977Y704809D01*
X906872Y704845D01*
X906769Y704885D01*
X906667Y704928D01*
X906566Y704975D01*
X906467Y705026D01*
X906371Y705079D01*
X906276Y705136D01*
X906183Y705197D01*
X906092Y705260D01*
X906003Y705327D01*
X905917Y705397D01*
X905834Y705470D01*
X905752Y705545D01*
X905674Y705623D01*
X905599Y705705D01*
X905526Y705788D01*
X905456Y705874D01*
X905389Y705963D01*
X905326Y706054D01*
X905265Y706147D01*
X905208Y706242D01*
X905155Y706338D01*
X905104Y706437D01*
X905057Y706538D01*
X905014Y706640D01*
X904974Y706743D01*
X904938Y706848D01*
X904906Y706954D01*
X904877Y707061D01*
X904852Y707169D01*
X904831Y707278D01*
X904814Y707387D01*
X904800Y707497D01*
X904791Y707608D01*
X904785Y707718D01*
X904783Y707829D01*
X904785Y707940D01*
X904791Y708050D01*
X904800Y708161D01*
X904814Y708271D01*
X904831Y708380D01*
X904852Y708489D01*
X904877Y708597D01*
X904906Y708704D01*
X904938Y708810D01*
X904974Y708915D01*
X905014Y709018D01*
X905057Y709120D01*
X905104Y709221D01*
X905155Y709320D01*
X905208Y709417D01*
X905265Y709511D01*
X905326Y709604D01*
X905389Y709695D01*
X905456Y709784D01*
X905526Y709870D01*
X905599Y709953D01*
X905674Y710035D01*
X905752Y710113D01*
X905834Y710188D01*
X905917Y710261D01*
X906003Y710331D01*
X906092Y710398D01*
X906183Y710461D01*
X906276Y710522D01*
X906371Y710579D01*
X906467Y710632D01*
X906566Y710683D01*
X906667Y710730D01*
X906769Y710773D01*
X906872Y710813D01*
X906977Y710849D01*
X907083Y710881D01*
X907190Y710910D01*
X907298Y710935D01*
X907407Y710956D01*
X907516Y710973D01*
X907626Y710987D01*
X907737Y710996D01*
X907847Y711002D01*
X907958Y711004D01*
X913038Y711004D01*
X913149Y711002D01*
X913259Y710996D01*
X913370Y710987D01*
X913480Y710973D01*
X913589Y710956D01*
X913698Y710935D01*
X913806Y710910D01*
X913913Y710881D01*
X914019Y710849D01*
X914124Y710813D01*
X914227Y710773D01*
X914329Y710730D01*
X914430Y710683D01*
X914529Y710632D01*
X914626Y710579D01*
X914720Y710522D01*
X914813Y710461D01*
X914904Y710398D01*
X914993Y710331D01*
X915079Y710261D01*
X915162Y710188D01*
X915244Y710113D01*
X915322Y710035D01*
X915397Y709953D01*
X915470Y709870D01*
X915540Y709784D01*
X915607Y709695D01*
X915670Y709604D01*
X915731Y709511D01*
X915788Y709416D01*
X915841Y709320D01*
X915892Y709221D01*
X915939Y709120D01*
X915982Y709018D01*
X916022Y708915D01*
X916058Y708810D01*
X916090Y708704D01*
X916119Y708597D01*
X916144Y708489D01*
X916165Y708380D01*
X916182Y708271D01*
X916196Y708161D01*
X916205Y708050D01*
X916211Y707940D01*
X916213Y707829D01*
X916211Y707718D01*
X916205Y707608D01*
X916196Y707497D01*
X916182Y707387D01*
X916165Y707278D01*
X916144Y707169D01*
X916119Y707061D01*
X916090Y706954D01*
X916058Y706848D01*
X916022Y706743D01*
X915982Y706640D01*
X915939Y706538D01*
X915892Y706437D01*
X915841Y706338D01*
X915788Y706242D01*
X915731Y706147D01*
X915670Y706054D01*
X915607Y705963D01*
X915540Y705874D01*
X915470Y705788D01*
X915397Y705705D01*
X915322Y705623D01*
X915244Y705545D01*
X915162Y705470D01*
X915079Y705397D01*
X914993Y705327D01*
X914904Y705260D01*
X914813Y705197D01*
X914720Y705136D01*
X914626Y705079D01*
X914529Y705026D01*
X914430Y704975D01*
X914329Y704928D01*
X914227Y704885D01*
X914124Y704845D01*
X914019Y704809D01*
X913913Y704777D01*
X913806Y704748D01*
X913698Y704723D01*
X913589Y704702D01*
X913480Y704685D01*
X913370Y704671D01*
X913259Y704662D01*
X913149Y704656D01*
X913038Y704654D01*
X913673Y709734D02*
X916213Y712274D01*
X907323Y715715D02*
X904783Y718890D01*
X916213Y718890D01*
X916213Y715715D02*
X916213Y722065D01*
D10*
X489458Y558292D02*
X489458Y546608D01*
X489458Y558292D02*
X492704Y558292D01*
X492817Y558290D01*
X492930Y558284D01*
X493043Y558274D01*
X493156Y558260D01*
X493268Y558243D01*
X493379Y558221D01*
X493489Y558196D01*
X493599Y558166D01*
X493707Y558133D01*
X493814Y558096D01*
X493920Y558056D01*
X494024Y558011D01*
X494127Y557963D01*
X494228Y557912D01*
X494327Y557857D01*
X494424Y557799D01*
X494519Y557737D01*
X494612Y557672D01*
X494702Y557604D01*
X494790Y557533D01*
X494876Y557458D01*
X494959Y557381D01*
X495039Y557301D01*
X495116Y557218D01*
X495191Y557132D01*
X495262Y557044D01*
X495330Y556954D01*
X495395Y556861D01*
X495457Y556766D01*
X495515Y556669D01*
X495570Y556570D01*
X495621Y556469D01*
X495669Y556366D01*
X495714Y556262D01*
X495754Y556156D01*
X495791Y556049D01*
X495824Y555941D01*
X495854Y555831D01*
X495879Y555721D01*
X495901Y555610D01*
X495918Y555498D01*
X495932Y555385D01*
X495942Y555272D01*
X495948Y555159D01*
X495950Y555046D01*
X495948Y554933D01*
X495942Y554820D01*
X495932Y554707D01*
X495918Y554594D01*
X495901Y554482D01*
X495879Y554371D01*
X495854Y554261D01*
X495824Y554151D01*
X495791Y554043D01*
X495754Y553936D01*
X495714Y553830D01*
X495669Y553726D01*
X495621Y553623D01*
X495570Y553522D01*
X495515Y553423D01*
X495457Y553326D01*
X495395Y553231D01*
X495330Y553138D01*
X495262Y553048D01*
X495191Y552960D01*
X495116Y552874D01*
X495039Y552791D01*
X494959Y552711D01*
X494876Y552634D01*
X494790Y552559D01*
X494702Y552488D01*
X494612Y552420D01*
X494519Y552355D01*
X494424Y552293D01*
X494327Y552235D01*
X494228Y552180D01*
X494127Y552129D01*
X494024Y552081D01*
X493920Y552036D01*
X493814Y551996D01*
X493707Y551959D01*
X493599Y551926D01*
X493489Y551896D01*
X493379Y551871D01*
X493268Y551849D01*
X493156Y551832D01*
X493043Y551818D01*
X492930Y551808D01*
X492817Y551802D01*
X492704Y551800D01*
X492704Y551801D02*
X489458Y551801D01*
X493353Y551801D02*
X495949Y546608D01*
X500814Y555696D02*
X504060Y558292D01*
X504060Y546608D01*
X507305Y546608D02*
X500814Y546608D01*
X826008Y857758D02*
X837692Y857758D01*
X826008Y857758D02*
X826008Y861004D01*
X826010Y861117D01*
X826016Y861230D01*
X826026Y861343D01*
X826040Y861456D01*
X826057Y861568D01*
X826079Y861679D01*
X826104Y861789D01*
X826134Y861899D01*
X826167Y862007D01*
X826204Y862114D01*
X826244Y862220D01*
X826289Y862324D01*
X826337Y862427D01*
X826388Y862528D01*
X826443Y862627D01*
X826501Y862724D01*
X826563Y862819D01*
X826628Y862912D01*
X826696Y863002D01*
X826767Y863090D01*
X826842Y863176D01*
X826919Y863259D01*
X826999Y863339D01*
X827082Y863416D01*
X827168Y863491D01*
X827256Y863562D01*
X827346Y863630D01*
X827439Y863695D01*
X827534Y863757D01*
X827631Y863815D01*
X827730Y863870D01*
X827831Y863921D01*
X827934Y863969D01*
X828038Y864014D01*
X828144Y864054D01*
X828251Y864091D01*
X828359Y864124D01*
X828469Y864154D01*
X828579Y864179D01*
X828690Y864201D01*
X828802Y864218D01*
X828915Y864232D01*
X829028Y864242D01*
X829141Y864248D01*
X829254Y864250D01*
X829367Y864248D01*
X829480Y864242D01*
X829593Y864232D01*
X829706Y864218D01*
X829818Y864201D01*
X829929Y864179D01*
X830039Y864154D01*
X830149Y864124D01*
X830257Y864091D01*
X830364Y864054D01*
X830470Y864014D01*
X830574Y863969D01*
X830677Y863921D01*
X830778Y863870D01*
X830877Y863815D01*
X830974Y863757D01*
X831069Y863695D01*
X831162Y863630D01*
X831252Y863562D01*
X831340Y863491D01*
X831426Y863416D01*
X831509Y863339D01*
X831589Y863259D01*
X831666Y863176D01*
X831741Y863090D01*
X831812Y863002D01*
X831880Y862912D01*
X831945Y862819D01*
X832007Y862724D01*
X832065Y862627D01*
X832120Y862528D01*
X832171Y862427D01*
X832219Y862324D01*
X832264Y862220D01*
X832304Y862114D01*
X832341Y862007D01*
X832374Y861899D01*
X832404Y861789D01*
X832429Y861679D01*
X832451Y861568D01*
X832468Y861456D01*
X832482Y861343D01*
X832492Y861230D01*
X832498Y861117D01*
X832500Y861004D01*
X832499Y861004D02*
X832499Y857758D01*
X832499Y861653D02*
X837692Y864249D01*
X828604Y869114D02*
X826008Y872360D01*
X837692Y872360D01*
X837692Y875605D02*
X837692Y869114D01*
X831850Y880544D02*
X831620Y880547D01*
X831390Y880555D01*
X831161Y880569D01*
X830932Y880588D01*
X830703Y880613D01*
X830475Y880643D01*
X830248Y880678D01*
X830022Y880719D01*
X829797Y880765D01*
X829573Y880817D01*
X829350Y880874D01*
X829129Y880936D01*
X828909Y881004D01*
X828691Y881077D01*
X828475Y881155D01*
X828261Y881238D01*
X828049Y881326D01*
X827838Y881419D01*
X827631Y881518D01*
X827541Y881551D01*
X827452Y881587D01*
X827364Y881627D01*
X827279Y881671D01*
X827195Y881718D01*
X827113Y881768D01*
X827033Y881822D01*
X826956Y881878D01*
X826880Y881938D01*
X826807Y882001D01*
X826737Y882066D01*
X826669Y882135D01*
X826605Y882206D01*
X826543Y882279D01*
X826484Y882355D01*
X826428Y882433D01*
X826375Y882514D01*
X826326Y882596D01*
X826280Y882680D01*
X826237Y882767D01*
X826198Y882854D01*
X826162Y882944D01*
X826130Y883034D01*
X826102Y883126D01*
X826077Y883219D01*
X826056Y883313D01*
X826039Y883407D01*
X826025Y883502D01*
X826016Y883598D01*
X826010Y883694D01*
X826008Y883790D01*
X826010Y883886D01*
X826016Y883982D01*
X826025Y884078D01*
X826039Y884173D01*
X826056Y884267D01*
X826077Y884361D01*
X826102Y884454D01*
X826130Y884546D01*
X826162Y884636D01*
X826198Y884726D01*
X826237Y884814D01*
X826280Y884900D01*
X826326Y884984D01*
X826375Y885066D01*
X826428Y885147D01*
X826484Y885225D01*
X826543Y885301D01*
X826605Y885374D01*
X826669Y885445D01*
X826737Y885514D01*
X826807Y885579D01*
X826880Y885642D01*
X826956Y885702D01*
X827033Y885758D01*
X827113Y885812D01*
X827195Y885862D01*
X827279Y885909D01*
X827364Y885953D01*
X827452Y885993D01*
X827541Y886029D01*
X827631Y886062D01*
X827838Y886161D01*
X828049Y886254D01*
X828261Y886342D01*
X828475Y886425D01*
X828691Y886503D01*
X828909Y886576D01*
X829129Y886644D01*
X829350Y886706D01*
X829573Y886763D01*
X829797Y886815D01*
X830022Y886861D01*
X830248Y886902D01*
X830475Y886937D01*
X830703Y886967D01*
X830932Y886992D01*
X831161Y887011D01*
X831390Y887025D01*
X831620Y887033D01*
X831850Y887036D01*
X831850Y880544D02*
X832080Y880547D01*
X832310Y880555D01*
X832539Y880569D01*
X832768Y880588D01*
X832997Y880613D01*
X833225Y880643D01*
X833452Y880678D01*
X833678Y880719D01*
X833903Y880765D01*
X834127Y880817D01*
X834350Y880874D01*
X834571Y880936D01*
X834791Y881004D01*
X835009Y881077D01*
X835225Y881155D01*
X835439Y881238D01*
X835651Y881326D01*
X835862Y881419D01*
X836069Y881518D01*
X836159Y881551D01*
X836248Y881587D01*
X836336Y881628D01*
X836421Y881671D01*
X836505Y881718D01*
X836587Y881768D01*
X836667Y881822D01*
X836744Y881878D01*
X836820Y881938D01*
X836893Y882001D01*
X836963Y882066D01*
X837031Y882135D01*
X837095Y882206D01*
X837157Y882279D01*
X837216Y882355D01*
X837272Y882433D01*
X837325Y882514D01*
X837374Y882596D01*
X837420Y882680D01*
X837463Y882767D01*
X837502Y882854D01*
X837538Y882944D01*
X837570Y883034D01*
X837598Y883126D01*
X837623Y883219D01*
X837644Y883313D01*
X837661Y883407D01*
X837675Y883502D01*
X837684Y883598D01*
X837690Y883694D01*
X837692Y883790D01*
X836069Y886062D02*
X835862Y886161D01*
X835651Y886254D01*
X835439Y886342D01*
X835225Y886425D01*
X835009Y886503D01*
X834791Y886576D01*
X834571Y886644D01*
X834350Y886706D01*
X834127Y886763D01*
X833903Y886815D01*
X833678Y886861D01*
X833452Y886902D01*
X833225Y886937D01*
X832997Y886967D01*
X832768Y886992D01*
X832539Y887011D01*
X832310Y887025D01*
X832080Y887033D01*
X831850Y887036D01*
X836069Y886062D02*
X836159Y886029D01*
X836248Y885993D01*
X836336Y885953D01*
X836421Y885909D01*
X836505Y885862D01*
X836587Y885812D01*
X836667Y885758D01*
X836744Y885702D01*
X836820Y885642D01*
X836893Y885579D01*
X836963Y885514D01*
X837031Y885445D01*
X837095Y885374D01*
X837157Y885301D01*
X837216Y885225D01*
X837272Y885147D01*
X837325Y885066D01*
X837374Y884984D01*
X837420Y884900D01*
X837463Y884813D01*
X837502Y884726D01*
X837538Y884636D01*
X837570Y884546D01*
X837598Y884454D01*
X837623Y884361D01*
X837644Y884267D01*
X837661Y884173D01*
X837675Y884078D01*
X837684Y883982D01*
X837690Y883886D01*
X837692Y883790D01*
X835096Y881193D02*
X828604Y886386D01*
X361565Y9392D02*
X361565Y-2292D01*
X361565Y9392D02*
X364810Y9392D01*
X364923Y9390D01*
X365036Y9384D01*
X365149Y9374D01*
X365262Y9360D01*
X365374Y9343D01*
X365485Y9321D01*
X365595Y9296D01*
X365705Y9266D01*
X365813Y9233D01*
X365920Y9196D01*
X366026Y9156D01*
X366130Y9111D01*
X366233Y9063D01*
X366334Y9012D01*
X366433Y8957D01*
X366530Y8899D01*
X366625Y8837D01*
X366718Y8772D01*
X366808Y8704D01*
X366896Y8633D01*
X366982Y8558D01*
X367065Y8481D01*
X367145Y8401D01*
X367222Y8318D01*
X367297Y8232D01*
X367368Y8144D01*
X367436Y8054D01*
X367501Y7961D01*
X367563Y7866D01*
X367621Y7769D01*
X367676Y7670D01*
X367727Y7569D01*
X367775Y7466D01*
X367820Y7362D01*
X367860Y7256D01*
X367897Y7149D01*
X367930Y7041D01*
X367960Y6931D01*
X367985Y6821D01*
X368007Y6710D01*
X368024Y6598D01*
X368038Y6485D01*
X368048Y6372D01*
X368054Y6259D01*
X368056Y6146D01*
X368054Y6033D01*
X368048Y5920D01*
X368038Y5807D01*
X368024Y5694D01*
X368007Y5582D01*
X367985Y5471D01*
X367960Y5361D01*
X367930Y5251D01*
X367897Y5143D01*
X367860Y5036D01*
X367820Y4930D01*
X367775Y4826D01*
X367727Y4723D01*
X367676Y4622D01*
X367621Y4523D01*
X367563Y4426D01*
X367501Y4331D01*
X367436Y4238D01*
X367368Y4148D01*
X367297Y4060D01*
X367222Y3974D01*
X367145Y3891D01*
X367065Y3811D01*
X366982Y3734D01*
X366896Y3659D01*
X366808Y3588D01*
X366718Y3520D01*
X366625Y3455D01*
X366530Y3393D01*
X366433Y3335D01*
X366334Y3280D01*
X366233Y3229D01*
X366130Y3181D01*
X366026Y3136D01*
X365920Y3096D01*
X365813Y3059D01*
X365705Y3026D01*
X365595Y2996D01*
X365485Y2971D01*
X365374Y2949D01*
X365262Y2932D01*
X365149Y2918D01*
X365036Y2908D01*
X364923Y2902D01*
X364810Y2900D01*
X364810Y2901D02*
X361565Y2901D01*
X365459Y2901D02*
X368056Y-2292D01*
X372921Y6796D02*
X376166Y9392D01*
X376166Y-2292D01*
X372921Y-2292D02*
X379412Y-2292D01*
X384351Y6796D02*
X387596Y9392D01*
X387596Y-2292D01*
X384351Y-2292D02*
X390842Y-2292D01*
X827465Y267208D02*
X827465Y278892D01*
X830710Y278892D01*
X830823Y278890D01*
X830936Y278884D01*
X831049Y278874D01*
X831162Y278860D01*
X831274Y278843D01*
X831385Y278821D01*
X831495Y278796D01*
X831605Y278766D01*
X831713Y278733D01*
X831820Y278696D01*
X831926Y278656D01*
X832030Y278611D01*
X832133Y278563D01*
X832234Y278512D01*
X832333Y278457D01*
X832430Y278399D01*
X832525Y278337D01*
X832618Y278272D01*
X832708Y278204D01*
X832796Y278133D01*
X832882Y278058D01*
X832965Y277981D01*
X833045Y277901D01*
X833122Y277818D01*
X833197Y277732D01*
X833268Y277644D01*
X833336Y277554D01*
X833401Y277461D01*
X833463Y277366D01*
X833521Y277269D01*
X833576Y277170D01*
X833627Y277069D01*
X833675Y276966D01*
X833720Y276862D01*
X833760Y276756D01*
X833797Y276649D01*
X833830Y276541D01*
X833860Y276431D01*
X833885Y276321D01*
X833907Y276210D01*
X833924Y276098D01*
X833938Y275985D01*
X833948Y275872D01*
X833954Y275759D01*
X833956Y275646D01*
X833954Y275533D01*
X833948Y275420D01*
X833938Y275307D01*
X833924Y275194D01*
X833907Y275082D01*
X833885Y274971D01*
X833860Y274861D01*
X833830Y274751D01*
X833797Y274643D01*
X833760Y274536D01*
X833720Y274430D01*
X833675Y274326D01*
X833627Y274223D01*
X833576Y274122D01*
X833521Y274023D01*
X833463Y273926D01*
X833401Y273831D01*
X833336Y273738D01*
X833268Y273648D01*
X833197Y273560D01*
X833122Y273474D01*
X833045Y273391D01*
X832965Y273311D01*
X832882Y273234D01*
X832796Y273159D01*
X832708Y273088D01*
X832618Y273020D01*
X832525Y272955D01*
X832430Y272893D01*
X832333Y272835D01*
X832234Y272780D01*
X832133Y272729D01*
X832030Y272681D01*
X831926Y272636D01*
X831820Y272596D01*
X831713Y272559D01*
X831605Y272526D01*
X831495Y272496D01*
X831385Y272471D01*
X831274Y272449D01*
X831162Y272432D01*
X831049Y272418D01*
X830936Y272408D01*
X830823Y272402D01*
X830710Y272400D01*
X830710Y272401D02*
X827465Y272401D01*
X831359Y272401D02*
X833956Y267208D01*
X838821Y276296D02*
X842066Y278892D01*
X842066Y267208D01*
X838821Y267208D02*
X845312Y267208D01*
X856742Y275971D02*
X856740Y276078D01*
X856734Y276184D01*
X856724Y276290D01*
X856711Y276396D01*
X856693Y276502D01*
X856672Y276606D01*
X856647Y276710D01*
X856618Y276813D01*
X856586Y276914D01*
X856549Y277014D01*
X856509Y277113D01*
X856466Y277211D01*
X856419Y277307D01*
X856368Y277401D01*
X856314Y277493D01*
X856257Y277583D01*
X856197Y277671D01*
X856133Y277756D01*
X856066Y277839D01*
X855996Y277920D01*
X855924Y277998D01*
X855848Y278074D01*
X855770Y278146D01*
X855689Y278216D01*
X855606Y278283D01*
X855521Y278347D01*
X855433Y278407D01*
X855343Y278464D01*
X855251Y278518D01*
X855157Y278569D01*
X855061Y278616D01*
X854963Y278659D01*
X854864Y278699D01*
X854764Y278736D01*
X854663Y278768D01*
X854560Y278797D01*
X854456Y278822D01*
X854352Y278843D01*
X854246Y278861D01*
X854140Y278874D01*
X854034Y278884D01*
X853928Y278890D01*
X853821Y278892D01*
X853700Y278890D01*
X853579Y278884D01*
X853459Y278874D01*
X853338Y278861D01*
X853219Y278843D01*
X853099Y278822D01*
X852981Y278797D01*
X852864Y278768D01*
X852747Y278735D01*
X852632Y278699D01*
X852518Y278658D01*
X852405Y278615D01*
X852293Y278567D01*
X852184Y278516D01*
X852076Y278461D01*
X851969Y278403D01*
X851865Y278342D01*
X851763Y278277D01*
X851663Y278209D01*
X851565Y278138D01*
X851469Y278064D01*
X851376Y277987D01*
X851286Y277906D01*
X851198Y277823D01*
X851113Y277737D01*
X851030Y277648D01*
X850951Y277557D01*
X850874Y277463D01*
X850801Y277367D01*
X850731Y277269D01*
X850664Y277168D01*
X850600Y277065D01*
X850540Y276960D01*
X850483Y276853D01*
X850429Y276745D01*
X850379Y276635D01*
X850333Y276523D01*
X850290Y276410D01*
X850251Y276295D01*
X855769Y273699D02*
X855848Y273776D01*
X855924Y273857D01*
X855997Y273940D01*
X856067Y274025D01*
X856134Y274113D01*
X856198Y274203D01*
X856258Y274295D01*
X856315Y274390D01*
X856369Y274486D01*
X856420Y274584D01*
X856467Y274684D01*
X856511Y274786D01*
X856551Y274889D01*
X856587Y274993D01*
X856619Y275099D01*
X856648Y275205D01*
X856673Y275313D01*
X856695Y275421D01*
X856712Y275531D01*
X856726Y275640D01*
X856735Y275750D01*
X856741Y275861D01*
X856743Y275971D01*
X855768Y273699D02*
X850251Y267208D01*
X856742Y267208D01*
X794258Y75692D02*
X794258Y64008D01*
X794258Y75692D02*
X797504Y75692D01*
X797617Y75690D01*
X797730Y75684D01*
X797843Y75674D01*
X797956Y75660D01*
X798068Y75643D01*
X798179Y75621D01*
X798289Y75596D01*
X798399Y75566D01*
X798507Y75533D01*
X798614Y75496D01*
X798720Y75456D01*
X798824Y75411D01*
X798927Y75363D01*
X799028Y75312D01*
X799127Y75257D01*
X799224Y75199D01*
X799319Y75137D01*
X799412Y75072D01*
X799502Y75004D01*
X799590Y74933D01*
X799676Y74858D01*
X799759Y74781D01*
X799839Y74701D01*
X799916Y74618D01*
X799991Y74532D01*
X800062Y74444D01*
X800130Y74354D01*
X800195Y74261D01*
X800257Y74166D01*
X800315Y74069D01*
X800370Y73970D01*
X800421Y73869D01*
X800469Y73766D01*
X800514Y73662D01*
X800554Y73556D01*
X800591Y73449D01*
X800624Y73341D01*
X800654Y73231D01*
X800679Y73121D01*
X800701Y73010D01*
X800718Y72898D01*
X800732Y72785D01*
X800742Y72672D01*
X800748Y72559D01*
X800750Y72446D01*
X800748Y72333D01*
X800742Y72220D01*
X800732Y72107D01*
X800718Y71994D01*
X800701Y71882D01*
X800679Y71771D01*
X800654Y71661D01*
X800624Y71551D01*
X800591Y71443D01*
X800554Y71336D01*
X800514Y71230D01*
X800469Y71126D01*
X800421Y71023D01*
X800370Y70922D01*
X800315Y70823D01*
X800257Y70726D01*
X800195Y70631D01*
X800130Y70538D01*
X800062Y70448D01*
X799991Y70360D01*
X799916Y70274D01*
X799839Y70191D01*
X799759Y70111D01*
X799676Y70034D01*
X799590Y69959D01*
X799502Y69888D01*
X799412Y69820D01*
X799319Y69755D01*
X799224Y69693D01*
X799127Y69635D01*
X799028Y69580D01*
X798927Y69529D01*
X798824Y69481D01*
X798720Y69436D01*
X798614Y69396D01*
X798507Y69359D01*
X798399Y69326D01*
X798289Y69296D01*
X798179Y69271D01*
X798068Y69249D01*
X797956Y69232D01*
X797843Y69218D01*
X797730Y69208D01*
X797617Y69202D01*
X797504Y69200D01*
X797504Y69201D02*
X794258Y69201D01*
X798153Y69201D02*
X800749Y64008D01*
X805614Y73096D02*
X808860Y75692D01*
X808860Y64008D01*
X812105Y64008D02*
X805614Y64008D01*
X817044Y64008D02*
X820290Y64008D01*
X820403Y64010D01*
X820516Y64016D01*
X820629Y64026D01*
X820742Y64040D01*
X820854Y64057D01*
X820965Y64079D01*
X821075Y64104D01*
X821185Y64134D01*
X821293Y64167D01*
X821400Y64204D01*
X821506Y64244D01*
X821610Y64289D01*
X821713Y64337D01*
X821814Y64388D01*
X821913Y64443D01*
X822010Y64501D01*
X822105Y64563D01*
X822198Y64628D01*
X822288Y64696D01*
X822376Y64767D01*
X822462Y64842D01*
X822545Y64919D01*
X822625Y64999D01*
X822702Y65082D01*
X822777Y65168D01*
X822848Y65256D01*
X822916Y65346D01*
X822981Y65439D01*
X823043Y65534D01*
X823101Y65631D01*
X823156Y65730D01*
X823207Y65831D01*
X823255Y65934D01*
X823300Y66038D01*
X823340Y66144D01*
X823377Y66251D01*
X823410Y66359D01*
X823440Y66469D01*
X823465Y66579D01*
X823487Y66690D01*
X823504Y66802D01*
X823518Y66915D01*
X823528Y67028D01*
X823534Y67141D01*
X823536Y67254D01*
X823534Y67367D01*
X823528Y67480D01*
X823518Y67593D01*
X823504Y67706D01*
X823487Y67818D01*
X823465Y67929D01*
X823440Y68039D01*
X823410Y68149D01*
X823377Y68257D01*
X823340Y68364D01*
X823300Y68470D01*
X823255Y68574D01*
X823207Y68677D01*
X823156Y68778D01*
X823101Y68877D01*
X823043Y68974D01*
X822981Y69069D01*
X822916Y69162D01*
X822848Y69252D01*
X822777Y69340D01*
X822702Y69426D01*
X822625Y69509D01*
X822545Y69589D01*
X822462Y69666D01*
X822376Y69741D01*
X822288Y69812D01*
X822198Y69880D01*
X822105Y69945D01*
X822010Y70007D01*
X821913Y70065D01*
X821814Y70120D01*
X821713Y70171D01*
X821610Y70219D01*
X821506Y70264D01*
X821400Y70304D01*
X821293Y70341D01*
X821185Y70374D01*
X821075Y70404D01*
X820965Y70429D01*
X820854Y70451D01*
X820742Y70468D01*
X820629Y70482D01*
X820516Y70492D01*
X820403Y70498D01*
X820290Y70500D01*
X820939Y75692D02*
X817044Y75692D01*
X820939Y75692D02*
X821040Y75690D01*
X821140Y75684D01*
X821240Y75674D01*
X821340Y75661D01*
X821439Y75643D01*
X821538Y75622D01*
X821635Y75597D01*
X821732Y75568D01*
X821827Y75535D01*
X821921Y75499D01*
X822013Y75459D01*
X822104Y75416D01*
X822193Y75369D01*
X822280Y75319D01*
X822366Y75265D01*
X822449Y75208D01*
X822529Y75148D01*
X822608Y75085D01*
X822684Y75018D01*
X822757Y74949D01*
X822827Y74877D01*
X822895Y74803D01*
X822960Y74726D01*
X823021Y74646D01*
X823080Y74564D01*
X823135Y74480D01*
X823187Y74394D01*
X823236Y74306D01*
X823281Y74216D01*
X823323Y74124D01*
X823361Y74031D01*
X823395Y73936D01*
X823426Y73841D01*
X823453Y73744D01*
X823476Y73646D01*
X823496Y73547D01*
X823511Y73447D01*
X823523Y73347D01*
X823531Y73247D01*
X823535Y73146D01*
X823535Y73046D01*
X823531Y72945D01*
X823523Y72845D01*
X823511Y72745D01*
X823496Y72645D01*
X823476Y72546D01*
X823453Y72448D01*
X823426Y72351D01*
X823395Y72256D01*
X823361Y72161D01*
X823323Y72068D01*
X823281Y71976D01*
X823236Y71886D01*
X823187Y71798D01*
X823135Y71712D01*
X823080Y71628D01*
X823021Y71546D01*
X822960Y71466D01*
X822895Y71389D01*
X822827Y71315D01*
X822757Y71243D01*
X822684Y71174D01*
X822608Y71107D01*
X822529Y71044D01*
X822449Y70984D01*
X822366Y70927D01*
X822280Y70873D01*
X822193Y70823D01*
X822104Y70776D01*
X822013Y70733D01*
X821921Y70693D01*
X821827Y70657D01*
X821732Y70624D01*
X821635Y70595D01*
X821538Y70570D01*
X821439Y70549D01*
X821340Y70531D01*
X821240Y70518D01*
X821140Y70508D01*
X821040Y70502D01*
X820939Y70500D01*
X820939Y70499D02*
X818343Y70499D01*
X743458Y75692D02*
X743458Y64008D01*
X743458Y75692D02*
X746704Y75692D01*
X746817Y75690D01*
X746930Y75684D01*
X747043Y75674D01*
X747156Y75660D01*
X747268Y75643D01*
X747379Y75621D01*
X747489Y75596D01*
X747599Y75566D01*
X747707Y75533D01*
X747814Y75496D01*
X747920Y75456D01*
X748024Y75411D01*
X748127Y75363D01*
X748228Y75312D01*
X748327Y75257D01*
X748424Y75199D01*
X748519Y75137D01*
X748612Y75072D01*
X748702Y75004D01*
X748790Y74933D01*
X748876Y74858D01*
X748959Y74781D01*
X749039Y74701D01*
X749116Y74618D01*
X749191Y74532D01*
X749262Y74444D01*
X749330Y74354D01*
X749395Y74261D01*
X749457Y74166D01*
X749515Y74069D01*
X749570Y73970D01*
X749621Y73869D01*
X749669Y73766D01*
X749714Y73662D01*
X749754Y73556D01*
X749791Y73449D01*
X749824Y73341D01*
X749854Y73231D01*
X749879Y73121D01*
X749901Y73010D01*
X749918Y72898D01*
X749932Y72785D01*
X749942Y72672D01*
X749948Y72559D01*
X749950Y72446D01*
X749948Y72333D01*
X749942Y72220D01*
X749932Y72107D01*
X749918Y71994D01*
X749901Y71882D01*
X749879Y71771D01*
X749854Y71661D01*
X749824Y71551D01*
X749791Y71443D01*
X749754Y71336D01*
X749714Y71230D01*
X749669Y71126D01*
X749621Y71023D01*
X749570Y70922D01*
X749515Y70823D01*
X749457Y70726D01*
X749395Y70631D01*
X749330Y70538D01*
X749262Y70448D01*
X749191Y70360D01*
X749116Y70274D01*
X749039Y70191D01*
X748959Y70111D01*
X748876Y70034D01*
X748790Y69959D01*
X748702Y69888D01*
X748612Y69820D01*
X748519Y69755D01*
X748424Y69693D01*
X748327Y69635D01*
X748228Y69580D01*
X748127Y69529D01*
X748024Y69481D01*
X747920Y69436D01*
X747814Y69396D01*
X747707Y69359D01*
X747599Y69326D01*
X747489Y69296D01*
X747379Y69271D01*
X747268Y69249D01*
X747156Y69232D01*
X747043Y69218D01*
X746930Y69208D01*
X746817Y69202D01*
X746704Y69200D01*
X746704Y69201D02*
X743458Y69201D01*
X747353Y69201D02*
X749949Y64008D01*
X754814Y73096D02*
X758060Y75692D01*
X758060Y64008D01*
X761305Y64008D02*
X754814Y64008D01*
X766244Y66604D02*
X768841Y75692D01*
X766244Y66604D02*
X772735Y66604D01*
X770788Y69201D02*
X770788Y64008D01*
D11*
X69175Y563300D02*
X41700Y563300D01*
X41700Y571725D01*
X41700Y600300D02*
X69175Y600300D01*
X41700Y600300D02*
X41700Y591875D01*
X78700Y587600D02*
X78700Y576000D01*
D10*
X46290Y559067D02*
X46290Y547383D01*
X46290Y559067D02*
X49535Y559067D01*
X49648Y559065D01*
X49761Y559059D01*
X49874Y559049D01*
X49987Y559035D01*
X50099Y559018D01*
X50210Y558996D01*
X50320Y558971D01*
X50430Y558941D01*
X50538Y558908D01*
X50645Y558871D01*
X50751Y558831D01*
X50855Y558786D01*
X50958Y558738D01*
X51059Y558687D01*
X51158Y558632D01*
X51255Y558574D01*
X51350Y558512D01*
X51443Y558447D01*
X51533Y558379D01*
X51621Y558308D01*
X51707Y558233D01*
X51790Y558156D01*
X51870Y558076D01*
X51947Y557993D01*
X52022Y557907D01*
X52093Y557819D01*
X52161Y557729D01*
X52226Y557636D01*
X52288Y557541D01*
X52346Y557444D01*
X52401Y557345D01*
X52452Y557244D01*
X52500Y557141D01*
X52545Y557037D01*
X52585Y556931D01*
X52622Y556824D01*
X52655Y556716D01*
X52685Y556606D01*
X52710Y556496D01*
X52732Y556385D01*
X52749Y556273D01*
X52763Y556160D01*
X52773Y556047D01*
X52779Y555934D01*
X52781Y555821D01*
X52779Y555708D01*
X52773Y555595D01*
X52763Y555482D01*
X52749Y555369D01*
X52732Y555257D01*
X52710Y555146D01*
X52685Y555036D01*
X52655Y554926D01*
X52622Y554818D01*
X52585Y554711D01*
X52545Y554605D01*
X52500Y554501D01*
X52452Y554398D01*
X52401Y554297D01*
X52346Y554198D01*
X52288Y554101D01*
X52226Y554006D01*
X52161Y553913D01*
X52093Y553823D01*
X52022Y553735D01*
X51947Y553649D01*
X51870Y553566D01*
X51790Y553486D01*
X51707Y553409D01*
X51621Y553334D01*
X51533Y553263D01*
X51443Y553195D01*
X51350Y553130D01*
X51255Y553068D01*
X51158Y553010D01*
X51059Y552955D01*
X50958Y552904D01*
X50855Y552856D01*
X50751Y552811D01*
X50645Y552771D01*
X50538Y552734D01*
X50430Y552701D01*
X50320Y552671D01*
X50210Y552646D01*
X50099Y552624D01*
X49987Y552607D01*
X49874Y552593D01*
X49761Y552583D01*
X49648Y552577D01*
X49535Y552575D01*
X49535Y552576D02*
X46290Y552576D01*
X50184Y552576D02*
X52781Y547383D01*
X57646Y556471D02*
X60891Y559067D01*
X60891Y547383D01*
X57646Y547383D02*
X64137Y547383D01*
X69076Y547383D02*
X72971Y547383D01*
X73070Y547385D01*
X73170Y547391D01*
X73269Y547400D01*
X73367Y547413D01*
X73465Y547430D01*
X73563Y547451D01*
X73659Y547476D01*
X73754Y547504D01*
X73848Y547536D01*
X73941Y547571D01*
X74033Y547610D01*
X74123Y547653D01*
X74211Y547698D01*
X74298Y547748D01*
X74382Y547800D01*
X74465Y547856D01*
X74545Y547914D01*
X74623Y547976D01*
X74698Y548041D01*
X74771Y548109D01*
X74841Y548179D01*
X74909Y548252D01*
X74974Y548327D01*
X75036Y548405D01*
X75094Y548485D01*
X75150Y548568D01*
X75202Y548652D01*
X75252Y548739D01*
X75297Y548827D01*
X75340Y548917D01*
X75379Y549009D01*
X75414Y549102D01*
X75446Y549196D01*
X75474Y549291D01*
X75499Y549387D01*
X75520Y549485D01*
X75537Y549583D01*
X75550Y549681D01*
X75559Y549780D01*
X75565Y549880D01*
X75567Y549979D01*
X75567Y551278D01*
X75565Y551377D01*
X75559Y551477D01*
X75550Y551576D01*
X75537Y551674D01*
X75520Y551772D01*
X75499Y551870D01*
X75474Y551966D01*
X75446Y552061D01*
X75414Y552155D01*
X75379Y552248D01*
X75340Y552340D01*
X75297Y552430D01*
X75252Y552518D01*
X75202Y552605D01*
X75150Y552689D01*
X75094Y552772D01*
X75036Y552852D01*
X74974Y552930D01*
X74909Y553005D01*
X74841Y553078D01*
X74771Y553148D01*
X74698Y553216D01*
X74623Y553281D01*
X74545Y553343D01*
X74465Y553401D01*
X74382Y553457D01*
X74298Y553509D01*
X74211Y553559D01*
X74123Y553604D01*
X74033Y553647D01*
X73941Y553686D01*
X73848Y553721D01*
X73754Y553753D01*
X73659Y553781D01*
X73563Y553806D01*
X73465Y553827D01*
X73367Y553844D01*
X73269Y553857D01*
X73170Y553866D01*
X73070Y553872D01*
X72971Y553874D01*
X69076Y553874D01*
X69076Y559067D01*
X75567Y559067D01*
D11*
X916800Y403000D02*
X916800Y353000D01*
X966800Y353000D02*
X966800Y403000D01*
X916800Y403000D01*
X916800Y353000D02*
X966800Y353000D01*
D10*
X961866Y369551D02*
X950182Y369551D01*
X950182Y372796D01*
X950184Y372909D01*
X950190Y373022D01*
X950200Y373135D01*
X950214Y373248D01*
X950231Y373360D01*
X950253Y373471D01*
X950278Y373581D01*
X950308Y373691D01*
X950341Y373799D01*
X950378Y373906D01*
X950418Y374012D01*
X950463Y374116D01*
X950511Y374219D01*
X950562Y374320D01*
X950617Y374419D01*
X950675Y374516D01*
X950737Y374611D01*
X950802Y374704D01*
X950870Y374794D01*
X950941Y374882D01*
X951016Y374968D01*
X951093Y375051D01*
X951173Y375131D01*
X951256Y375208D01*
X951342Y375283D01*
X951430Y375354D01*
X951520Y375422D01*
X951613Y375487D01*
X951708Y375549D01*
X951805Y375607D01*
X951904Y375662D01*
X952005Y375713D01*
X952108Y375761D01*
X952212Y375806D01*
X952318Y375846D01*
X952425Y375883D01*
X952533Y375916D01*
X952643Y375946D01*
X952753Y375971D01*
X952864Y375993D01*
X952976Y376010D01*
X953089Y376024D01*
X953202Y376034D01*
X953315Y376040D01*
X953428Y376042D01*
X953541Y376040D01*
X953654Y376034D01*
X953767Y376024D01*
X953880Y376010D01*
X953992Y375993D01*
X954103Y375971D01*
X954213Y375946D01*
X954323Y375916D01*
X954431Y375883D01*
X954538Y375846D01*
X954644Y375806D01*
X954748Y375761D01*
X954851Y375713D01*
X954952Y375662D01*
X955051Y375607D01*
X955148Y375549D01*
X955243Y375487D01*
X955336Y375422D01*
X955426Y375354D01*
X955514Y375283D01*
X955600Y375208D01*
X955683Y375131D01*
X955763Y375051D01*
X955840Y374968D01*
X955915Y374882D01*
X955986Y374794D01*
X956054Y374704D01*
X956119Y374611D01*
X956181Y374516D01*
X956239Y374419D01*
X956294Y374320D01*
X956345Y374219D01*
X956393Y374116D01*
X956438Y374012D01*
X956478Y373906D01*
X956515Y373799D01*
X956548Y373691D01*
X956578Y373581D01*
X956603Y373471D01*
X956625Y373360D01*
X956642Y373248D01*
X956656Y373135D01*
X956666Y373022D01*
X956672Y372909D01*
X956674Y372796D01*
X956673Y372796D02*
X956673Y369551D01*
X956673Y373445D02*
X961866Y376042D01*
X952778Y380907D02*
X950182Y384152D01*
X961866Y384152D01*
X961866Y380907D02*
X961866Y387398D01*
X956673Y394933D02*
X956673Y398828D01*
X956673Y394933D02*
X956671Y394834D01*
X956665Y394734D01*
X956656Y394635D01*
X956643Y394537D01*
X956626Y394439D01*
X956605Y394341D01*
X956580Y394245D01*
X956552Y394150D01*
X956520Y394056D01*
X956485Y393963D01*
X956446Y393871D01*
X956403Y393781D01*
X956358Y393693D01*
X956308Y393606D01*
X956256Y393522D01*
X956200Y393439D01*
X956142Y393359D01*
X956080Y393281D01*
X956015Y393206D01*
X955947Y393133D01*
X955877Y393063D01*
X955804Y392995D01*
X955729Y392930D01*
X955651Y392868D01*
X955571Y392810D01*
X955488Y392754D01*
X955404Y392702D01*
X955317Y392652D01*
X955229Y392607D01*
X955139Y392564D01*
X955047Y392525D01*
X954954Y392490D01*
X954860Y392458D01*
X954765Y392430D01*
X954669Y392405D01*
X954571Y392384D01*
X954473Y392367D01*
X954375Y392354D01*
X954276Y392345D01*
X954176Y392339D01*
X954077Y392337D01*
X953428Y392337D01*
X953428Y392336D02*
X953315Y392338D01*
X953202Y392344D01*
X953089Y392354D01*
X952976Y392368D01*
X952864Y392385D01*
X952753Y392407D01*
X952643Y392432D01*
X952533Y392462D01*
X952425Y392495D01*
X952318Y392532D01*
X952212Y392572D01*
X952108Y392617D01*
X952005Y392665D01*
X951904Y392716D01*
X951805Y392771D01*
X951708Y392829D01*
X951613Y392891D01*
X951520Y392956D01*
X951430Y393024D01*
X951342Y393095D01*
X951256Y393170D01*
X951173Y393247D01*
X951093Y393327D01*
X951016Y393410D01*
X950941Y393496D01*
X950870Y393584D01*
X950802Y393674D01*
X950737Y393767D01*
X950675Y393862D01*
X950617Y393959D01*
X950562Y394058D01*
X950511Y394159D01*
X950463Y394262D01*
X950418Y394366D01*
X950378Y394472D01*
X950341Y394579D01*
X950308Y394687D01*
X950278Y394797D01*
X950253Y394907D01*
X950231Y395018D01*
X950214Y395130D01*
X950200Y395243D01*
X950190Y395356D01*
X950184Y395469D01*
X950182Y395582D01*
X950184Y395695D01*
X950190Y395808D01*
X950200Y395921D01*
X950214Y396034D01*
X950231Y396146D01*
X950253Y396257D01*
X950278Y396367D01*
X950308Y396477D01*
X950341Y396585D01*
X950378Y396692D01*
X950418Y396798D01*
X950463Y396902D01*
X950511Y397005D01*
X950562Y397106D01*
X950617Y397205D01*
X950675Y397302D01*
X950737Y397397D01*
X950802Y397490D01*
X950870Y397580D01*
X950941Y397668D01*
X951016Y397754D01*
X951093Y397837D01*
X951173Y397917D01*
X951256Y397994D01*
X951342Y398069D01*
X951430Y398140D01*
X951520Y398208D01*
X951613Y398273D01*
X951708Y398335D01*
X951805Y398393D01*
X951904Y398448D01*
X952005Y398499D01*
X952108Y398547D01*
X952212Y398592D01*
X952318Y398632D01*
X952425Y398669D01*
X952533Y398702D01*
X952643Y398732D01*
X952753Y398757D01*
X952864Y398779D01*
X952976Y398796D01*
X953089Y398810D01*
X953202Y398820D01*
X953315Y398826D01*
X953428Y398828D01*
X956673Y398828D01*
X956816Y398826D01*
X956959Y398820D01*
X957102Y398810D01*
X957244Y398796D01*
X957386Y398779D01*
X957528Y398757D01*
X957669Y398732D01*
X957809Y398702D01*
X957948Y398669D01*
X958086Y398632D01*
X958223Y398591D01*
X958359Y398547D01*
X958494Y398498D01*
X958627Y398446D01*
X958759Y398391D01*
X958889Y398331D01*
X959018Y398268D01*
X959145Y398202D01*
X959270Y398132D01*
X959392Y398059D01*
X959513Y397982D01*
X959632Y397902D01*
X959748Y397819D01*
X959863Y397733D01*
X959974Y397644D01*
X960084Y397551D01*
X960190Y397456D01*
X960294Y397357D01*
X960395Y397256D01*
X960494Y397152D01*
X960589Y397046D01*
X960682Y396936D01*
X960771Y396825D01*
X960857Y396710D01*
X960940Y396594D01*
X961020Y396475D01*
X961097Y396354D01*
X961170Y396232D01*
X961240Y396107D01*
X961306Y395980D01*
X961369Y395851D01*
X961429Y395721D01*
X961484Y395589D01*
X961536Y395456D01*
X961585Y395321D01*
X961629Y395185D01*
X961670Y395048D01*
X961707Y394910D01*
X961740Y394771D01*
X961770Y394631D01*
X961795Y394490D01*
X961817Y394348D01*
X961834Y394206D01*
X961848Y394064D01*
X961858Y393921D01*
X961864Y393778D01*
X961866Y393635D01*
X913892Y368995D02*
X902208Y368995D01*
X902208Y372240D01*
X902210Y372353D01*
X902216Y372466D01*
X902226Y372579D01*
X902240Y372692D01*
X902257Y372804D01*
X902279Y372915D01*
X902304Y373025D01*
X902334Y373135D01*
X902367Y373243D01*
X902404Y373350D01*
X902444Y373456D01*
X902489Y373560D01*
X902537Y373663D01*
X902588Y373764D01*
X902643Y373863D01*
X902701Y373960D01*
X902763Y374055D01*
X902828Y374148D01*
X902896Y374238D01*
X902967Y374326D01*
X903042Y374412D01*
X903119Y374495D01*
X903199Y374575D01*
X903282Y374652D01*
X903368Y374727D01*
X903456Y374798D01*
X903546Y374866D01*
X903639Y374931D01*
X903734Y374993D01*
X903831Y375051D01*
X903930Y375106D01*
X904031Y375157D01*
X904134Y375205D01*
X904238Y375250D01*
X904344Y375290D01*
X904451Y375327D01*
X904559Y375360D01*
X904669Y375390D01*
X904779Y375415D01*
X904890Y375437D01*
X905002Y375454D01*
X905115Y375468D01*
X905228Y375478D01*
X905341Y375484D01*
X905454Y375486D01*
X905567Y375484D01*
X905680Y375478D01*
X905793Y375468D01*
X905906Y375454D01*
X906018Y375437D01*
X906129Y375415D01*
X906239Y375390D01*
X906349Y375360D01*
X906457Y375327D01*
X906564Y375290D01*
X906670Y375250D01*
X906774Y375205D01*
X906877Y375157D01*
X906978Y375106D01*
X907077Y375051D01*
X907174Y374993D01*
X907269Y374931D01*
X907362Y374866D01*
X907452Y374798D01*
X907540Y374727D01*
X907626Y374652D01*
X907709Y374575D01*
X907789Y374495D01*
X907866Y374412D01*
X907941Y374326D01*
X908012Y374238D01*
X908080Y374148D01*
X908145Y374055D01*
X908207Y373960D01*
X908265Y373863D01*
X908320Y373764D01*
X908371Y373663D01*
X908419Y373560D01*
X908464Y373456D01*
X908504Y373350D01*
X908541Y373243D01*
X908574Y373135D01*
X908604Y373025D01*
X908629Y372915D01*
X908651Y372804D01*
X908668Y372692D01*
X908682Y372579D01*
X908692Y372466D01*
X908698Y372353D01*
X908700Y372240D01*
X908699Y372240D02*
X908699Y368995D01*
X908699Y372889D02*
X913892Y375486D01*
X905129Y386842D02*
X905022Y386840D01*
X904916Y386834D01*
X904810Y386824D01*
X904704Y386811D01*
X904598Y386793D01*
X904494Y386772D01*
X904390Y386747D01*
X904287Y386718D01*
X904186Y386686D01*
X904086Y386649D01*
X903987Y386609D01*
X903889Y386566D01*
X903793Y386519D01*
X903699Y386468D01*
X903607Y386414D01*
X903517Y386357D01*
X903429Y386297D01*
X903344Y386233D01*
X903261Y386166D01*
X903180Y386096D01*
X903102Y386024D01*
X903026Y385948D01*
X902954Y385870D01*
X902884Y385789D01*
X902817Y385706D01*
X902753Y385621D01*
X902693Y385533D01*
X902636Y385443D01*
X902582Y385351D01*
X902531Y385257D01*
X902484Y385161D01*
X902441Y385063D01*
X902401Y384964D01*
X902364Y384864D01*
X902332Y384763D01*
X902303Y384660D01*
X902278Y384556D01*
X902257Y384452D01*
X902239Y384346D01*
X902226Y384240D01*
X902216Y384134D01*
X902210Y384028D01*
X902208Y383921D01*
X902210Y383800D01*
X902216Y383679D01*
X902226Y383559D01*
X902239Y383438D01*
X902257Y383319D01*
X902278Y383199D01*
X902303Y383081D01*
X902332Y382964D01*
X902365Y382847D01*
X902401Y382732D01*
X902442Y382618D01*
X902485Y382505D01*
X902533Y382393D01*
X902584Y382284D01*
X902639Y382176D01*
X902697Y382069D01*
X902758Y381965D01*
X902823Y381863D01*
X902891Y381763D01*
X902962Y381665D01*
X903036Y381569D01*
X903113Y381476D01*
X903194Y381386D01*
X903277Y381298D01*
X903363Y381213D01*
X903452Y381130D01*
X903543Y381051D01*
X903637Y380974D01*
X903733Y380901D01*
X903831Y380831D01*
X903932Y380764D01*
X904035Y380700D01*
X904140Y380640D01*
X904247Y380582D01*
X904355Y380529D01*
X904465Y380479D01*
X904577Y380433D01*
X904690Y380390D01*
X904805Y380351D01*
X907401Y385868D02*
X907323Y385947D01*
X907243Y386023D01*
X907160Y386096D01*
X907074Y386166D01*
X906987Y386233D01*
X906896Y386297D01*
X906804Y386357D01*
X906710Y386415D01*
X906613Y386469D01*
X906515Y386519D01*
X906415Y386566D01*
X906314Y386610D01*
X906211Y386650D01*
X906106Y386686D01*
X906001Y386718D01*
X905894Y386747D01*
X905787Y386772D01*
X905678Y386794D01*
X905569Y386811D01*
X905460Y386825D01*
X905350Y386834D01*
X905239Y386840D01*
X905129Y386842D01*
X907401Y385868D02*
X913892Y380351D01*
X913892Y386842D01*
X679958Y495808D02*
X679958Y507492D01*
X683204Y507492D01*
X683317Y507490D01*
X683430Y507484D01*
X683543Y507474D01*
X683656Y507460D01*
X683768Y507443D01*
X683879Y507421D01*
X683989Y507396D01*
X684099Y507366D01*
X684207Y507333D01*
X684314Y507296D01*
X684420Y507256D01*
X684524Y507211D01*
X684627Y507163D01*
X684728Y507112D01*
X684827Y507057D01*
X684924Y506999D01*
X685019Y506937D01*
X685112Y506872D01*
X685202Y506804D01*
X685290Y506733D01*
X685376Y506658D01*
X685459Y506581D01*
X685539Y506501D01*
X685616Y506418D01*
X685691Y506332D01*
X685762Y506244D01*
X685830Y506154D01*
X685895Y506061D01*
X685957Y505966D01*
X686015Y505869D01*
X686070Y505770D01*
X686121Y505669D01*
X686169Y505566D01*
X686214Y505462D01*
X686254Y505356D01*
X686291Y505249D01*
X686324Y505141D01*
X686354Y505031D01*
X686379Y504921D01*
X686401Y504810D01*
X686418Y504698D01*
X686432Y504585D01*
X686442Y504472D01*
X686448Y504359D01*
X686450Y504246D01*
X686448Y504133D01*
X686442Y504020D01*
X686432Y503907D01*
X686418Y503794D01*
X686401Y503682D01*
X686379Y503571D01*
X686354Y503461D01*
X686324Y503351D01*
X686291Y503243D01*
X686254Y503136D01*
X686214Y503030D01*
X686169Y502926D01*
X686121Y502823D01*
X686070Y502722D01*
X686015Y502623D01*
X685957Y502526D01*
X685895Y502431D01*
X685830Y502338D01*
X685762Y502248D01*
X685691Y502160D01*
X685616Y502074D01*
X685539Y501991D01*
X685459Y501911D01*
X685376Y501834D01*
X685290Y501759D01*
X685202Y501688D01*
X685112Y501620D01*
X685019Y501555D01*
X684924Y501493D01*
X684827Y501435D01*
X684728Y501380D01*
X684627Y501329D01*
X684524Y501281D01*
X684420Y501236D01*
X684314Y501196D01*
X684207Y501159D01*
X684099Y501126D01*
X683989Y501096D01*
X683879Y501071D01*
X683768Y501049D01*
X683656Y501032D01*
X683543Y501018D01*
X683430Y501008D01*
X683317Y501002D01*
X683204Y501000D01*
X683204Y501001D02*
X679958Y501001D01*
X683853Y501001D02*
X686449Y495808D01*
X691314Y495808D02*
X694560Y495808D01*
X694673Y495810D01*
X694786Y495816D01*
X694899Y495826D01*
X695012Y495840D01*
X695124Y495857D01*
X695235Y495879D01*
X695345Y495904D01*
X695455Y495934D01*
X695563Y495967D01*
X695670Y496004D01*
X695776Y496044D01*
X695880Y496089D01*
X695983Y496137D01*
X696084Y496188D01*
X696183Y496243D01*
X696280Y496301D01*
X696375Y496363D01*
X696468Y496428D01*
X696558Y496496D01*
X696646Y496567D01*
X696732Y496642D01*
X696815Y496719D01*
X696895Y496799D01*
X696972Y496882D01*
X697047Y496968D01*
X697118Y497056D01*
X697186Y497146D01*
X697251Y497239D01*
X697313Y497334D01*
X697371Y497431D01*
X697426Y497530D01*
X697477Y497631D01*
X697525Y497734D01*
X697570Y497838D01*
X697610Y497944D01*
X697647Y498051D01*
X697680Y498159D01*
X697710Y498269D01*
X697735Y498379D01*
X697757Y498490D01*
X697774Y498602D01*
X697788Y498715D01*
X697798Y498828D01*
X697804Y498941D01*
X697806Y499054D01*
X697804Y499167D01*
X697798Y499280D01*
X697788Y499393D01*
X697774Y499506D01*
X697757Y499618D01*
X697735Y499729D01*
X697710Y499839D01*
X697680Y499949D01*
X697647Y500057D01*
X697610Y500164D01*
X697570Y500270D01*
X697525Y500374D01*
X697477Y500477D01*
X697426Y500578D01*
X697371Y500677D01*
X697313Y500774D01*
X697251Y500869D01*
X697186Y500962D01*
X697118Y501052D01*
X697047Y501140D01*
X696972Y501226D01*
X696895Y501309D01*
X696815Y501389D01*
X696732Y501466D01*
X696646Y501541D01*
X696558Y501612D01*
X696468Y501680D01*
X696375Y501745D01*
X696280Y501807D01*
X696183Y501865D01*
X696084Y501920D01*
X695983Y501971D01*
X695880Y502019D01*
X695776Y502064D01*
X695670Y502104D01*
X695563Y502141D01*
X695455Y502174D01*
X695345Y502204D01*
X695235Y502229D01*
X695124Y502251D01*
X695012Y502268D01*
X694899Y502282D01*
X694786Y502292D01*
X694673Y502298D01*
X694560Y502300D01*
X695209Y507492D02*
X691314Y507492D01*
X695209Y507492D02*
X695310Y507490D01*
X695410Y507484D01*
X695510Y507474D01*
X695610Y507461D01*
X695709Y507443D01*
X695808Y507422D01*
X695905Y507397D01*
X696002Y507368D01*
X696097Y507335D01*
X696191Y507299D01*
X696283Y507259D01*
X696374Y507216D01*
X696463Y507169D01*
X696550Y507119D01*
X696636Y507065D01*
X696719Y507008D01*
X696799Y506948D01*
X696878Y506885D01*
X696954Y506818D01*
X697027Y506749D01*
X697097Y506677D01*
X697165Y506603D01*
X697230Y506526D01*
X697291Y506446D01*
X697350Y506364D01*
X697405Y506280D01*
X697457Y506194D01*
X697506Y506106D01*
X697551Y506016D01*
X697593Y505924D01*
X697631Y505831D01*
X697665Y505736D01*
X697696Y505641D01*
X697723Y505544D01*
X697746Y505446D01*
X697766Y505347D01*
X697781Y505247D01*
X697793Y505147D01*
X697801Y505047D01*
X697805Y504946D01*
X697805Y504846D01*
X697801Y504745D01*
X697793Y504645D01*
X697781Y504545D01*
X697766Y504445D01*
X697746Y504346D01*
X697723Y504248D01*
X697696Y504151D01*
X697665Y504056D01*
X697631Y503961D01*
X697593Y503868D01*
X697551Y503776D01*
X697506Y503686D01*
X697457Y503598D01*
X697405Y503512D01*
X697350Y503428D01*
X697291Y503346D01*
X697230Y503266D01*
X697165Y503189D01*
X697097Y503115D01*
X697027Y503043D01*
X696954Y502974D01*
X696878Y502907D01*
X696799Y502844D01*
X696719Y502784D01*
X696636Y502727D01*
X696550Y502673D01*
X696463Y502623D01*
X696374Y502576D01*
X696283Y502533D01*
X696191Y502493D01*
X696097Y502457D01*
X696002Y502424D01*
X695905Y502395D01*
X695808Y502370D01*
X695709Y502349D01*
X695610Y502331D01*
X695510Y502318D01*
X695410Y502308D01*
X695310Y502302D01*
X695209Y502300D01*
X695209Y502299D02*
X692613Y502299D01*
X711708Y375158D02*
X723392Y375158D01*
X711708Y375158D02*
X711708Y378404D01*
X711710Y378517D01*
X711716Y378630D01*
X711726Y378743D01*
X711740Y378856D01*
X711757Y378968D01*
X711779Y379079D01*
X711804Y379189D01*
X711834Y379299D01*
X711867Y379407D01*
X711904Y379514D01*
X711944Y379620D01*
X711989Y379724D01*
X712037Y379827D01*
X712088Y379928D01*
X712143Y380027D01*
X712201Y380124D01*
X712263Y380219D01*
X712328Y380312D01*
X712396Y380402D01*
X712467Y380490D01*
X712542Y380576D01*
X712619Y380659D01*
X712699Y380739D01*
X712782Y380816D01*
X712868Y380891D01*
X712956Y380962D01*
X713046Y381030D01*
X713139Y381095D01*
X713234Y381157D01*
X713331Y381215D01*
X713430Y381270D01*
X713531Y381321D01*
X713634Y381369D01*
X713738Y381414D01*
X713844Y381454D01*
X713951Y381491D01*
X714059Y381524D01*
X714169Y381554D01*
X714279Y381579D01*
X714390Y381601D01*
X714502Y381618D01*
X714615Y381632D01*
X714728Y381642D01*
X714841Y381648D01*
X714954Y381650D01*
X715067Y381648D01*
X715180Y381642D01*
X715293Y381632D01*
X715406Y381618D01*
X715518Y381601D01*
X715629Y381579D01*
X715739Y381554D01*
X715849Y381524D01*
X715957Y381491D01*
X716064Y381454D01*
X716170Y381414D01*
X716274Y381369D01*
X716377Y381321D01*
X716478Y381270D01*
X716577Y381215D01*
X716674Y381157D01*
X716769Y381095D01*
X716862Y381030D01*
X716952Y380962D01*
X717040Y380891D01*
X717126Y380816D01*
X717209Y380739D01*
X717289Y380659D01*
X717366Y380576D01*
X717441Y380490D01*
X717512Y380402D01*
X717580Y380312D01*
X717645Y380219D01*
X717707Y380124D01*
X717765Y380027D01*
X717820Y379928D01*
X717871Y379827D01*
X717919Y379724D01*
X717964Y379620D01*
X718004Y379514D01*
X718041Y379407D01*
X718074Y379299D01*
X718104Y379189D01*
X718129Y379079D01*
X718151Y378968D01*
X718168Y378856D01*
X718182Y378743D01*
X718192Y378630D01*
X718198Y378517D01*
X718200Y378404D01*
X718199Y378404D02*
X718199Y375158D01*
X718199Y379053D02*
X723392Y381649D01*
X720796Y386514D02*
X711708Y389111D01*
X720796Y386514D02*
X720796Y393005D01*
X718199Y391058D02*
X723392Y391058D01*
X756158Y597408D02*
X756158Y609092D01*
X759404Y609092D01*
X759517Y609090D01*
X759630Y609084D01*
X759743Y609074D01*
X759856Y609060D01*
X759968Y609043D01*
X760079Y609021D01*
X760189Y608996D01*
X760299Y608966D01*
X760407Y608933D01*
X760514Y608896D01*
X760620Y608856D01*
X760724Y608811D01*
X760827Y608763D01*
X760928Y608712D01*
X761027Y608657D01*
X761124Y608599D01*
X761219Y608537D01*
X761312Y608472D01*
X761402Y608404D01*
X761490Y608333D01*
X761576Y608258D01*
X761659Y608181D01*
X761739Y608101D01*
X761816Y608018D01*
X761891Y607932D01*
X761962Y607844D01*
X762030Y607754D01*
X762095Y607661D01*
X762157Y607566D01*
X762215Y607469D01*
X762270Y607370D01*
X762321Y607269D01*
X762369Y607166D01*
X762414Y607062D01*
X762454Y606956D01*
X762491Y606849D01*
X762524Y606741D01*
X762554Y606631D01*
X762579Y606521D01*
X762601Y606410D01*
X762618Y606298D01*
X762632Y606185D01*
X762642Y606072D01*
X762648Y605959D01*
X762650Y605846D01*
X762648Y605733D01*
X762642Y605620D01*
X762632Y605507D01*
X762618Y605394D01*
X762601Y605282D01*
X762579Y605171D01*
X762554Y605061D01*
X762524Y604951D01*
X762491Y604843D01*
X762454Y604736D01*
X762414Y604630D01*
X762369Y604526D01*
X762321Y604423D01*
X762270Y604322D01*
X762215Y604223D01*
X762157Y604126D01*
X762095Y604031D01*
X762030Y603938D01*
X761962Y603848D01*
X761891Y603760D01*
X761816Y603674D01*
X761739Y603591D01*
X761659Y603511D01*
X761576Y603434D01*
X761490Y603359D01*
X761402Y603288D01*
X761312Y603220D01*
X761219Y603155D01*
X761124Y603093D01*
X761027Y603035D01*
X760928Y602980D01*
X760827Y602929D01*
X760724Y602881D01*
X760620Y602836D01*
X760514Y602796D01*
X760407Y602759D01*
X760299Y602726D01*
X760189Y602696D01*
X760079Y602671D01*
X759968Y602649D01*
X759856Y602632D01*
X759743Y602618D01*
X759630Y602608D01*
X759517Y602602D01*
X759404Y602600D01*
X759404Y602601D02*
X756158Y602601D01*
X760053Y602601D02*
X762649Y597408D01*
X767514Y597408D02*
X771409Y597408D01*
X771508Y597410D01*
X771608Y597416D01*
X771707Y597425D01*
X771805Y597438D01*
X771903Y597455D01*
X772001Y597476D01*
X772097Y597501D01*
X772192Y597529D01*
X772286Y597561D01*
X772379Y597596D01*
X772471Y597635D01*
X772561Y597678D01*
X772649Y597723D01*
X772736Y597773D01*
X772820Y597825D01*
X772903Y597881D01*
X772983Y597939D01*
X773061Y598001D01*
X773136Y598066D01*
X773209Y598134D01*
X773279Y598204D01*
X773347Y598277D01*
X773412Y598352D01*
X773474Y598430D01*
X773532Y598510D01*
X773588Y598593D01*
X773640Y598677D01*
X773690Y598764D01*
X773735Y598852D01*
X773778Y598942D01*
X773817Y599034D01*
X773852Y599127D01*
X773884Y599221D01*
X773912Y599316D01*
X773937Y599412D01*
X773958Y599510D01*
X773975Y599608D01*
X773988Y599706D01*
X773997Y599805D01*
X774003Y599905D01*
X774005Y600004D01*
X774005Y601303D01*
X774003Y601402D01*
X773997Y601502D01*
X773988Y601601D01*
X773975Y601699D01*
X773958Y601797D01*
X773937Y601895D01*
X773912Y601991D01*
X773884Y602086D01*
X773852Y602180D01*
X773817Y602273D01*
X773778Y602365D01*
X773735Y602455D01*
X773690Y602543D01*
X773640Y602630D01*
X773588Y602714D01*
X773532Y602797D01*
X773474Y602877D01*
X773412Y602955D01*
X773347Y603030D01*
X773279Y603103D01*
X773209Y603173D01*
X773136Y603241D01*
X773061Y603306D01*
X772983Y603368D01*
X772903Y603426D01*
X772820Y603482D01*
X772736Y603534D01*
X772649Y603584D01*
X772561Y603629D01*
X772471Y603672D01*
X772379Y603711D01*
X772286Y603746D01*
X772192Y603778D01*
X772097Y603806D01*
X772001Y603831D01*
X771903Y603852D01*
X771805Y603869D01*
X771707Y603882D01*
X771608Y603891D01*
X771508Y603897D01*
X771409Y603899D01*
X767514Y603899D01*
X767514Y609092D01*
X774005Y609092D01*
X845058Y609092D02*
X845058Y597408D01*
X845058Y609092D02*
X848304Y609092D01*
X848417Y609090D01*
X848530Y609084D01*
X848643Y609074D01*
X848756Y609060D01*
X848868Y609043D01*
X848979Y609021D01*
X849089Y608996D01*
X849199Y608966D01*
X849307Y608933D01*
X849414Y608896D01*
X849520Y608856D01*
X849624Y608811D01*
X849727Y608763D01*
X849828Y608712D01*
X849927Y608657D01*
X850024Y608599D01*
X850119Y608537D01*
X850212Y608472D01*
X850302Y608404D01*
X850390Y608333D01*
X850476Y608258D01*
X850559Y608181D01*
X850639Y608101D01*
X850716Y608018D01*
X850791Y607932D01*
X850862Y607844D01*
X850930Y607754D01*
X850995Y607661D01*
X851057Y607566D01*
X851115Y607469D01*
X851170Y607370D01*
X851221Y607269D01*
X851269Y607166D01*
X851314Y607062D01*
X851354Y606956D01*
X851391Y606849D01*
X851424Y606741D01*
X851454Y606631D01*
X851479Y606521D01*
X851501Y606410D01*
X851518Y606298D01*
X851532Y606185D01*
X851542Y606072D01*
X851548Y605959D01*
X851550Y605846D01*
X851548Y605733D01*
X851542Y605620D01*
X851532Y605507D01*
X851518Y605394D01*
X851501Y605282D01*
X851479Y605171D01*
X851454Y605061D01*
X851424Y604951D01*
X851391Y604843D01*
X851354Y604736D01*
X851314Y604630D01*
X851269Y604526D01*
X851221Y604423D01*
X851170Y604322D01*
X851115Y604223D01*
X851057Y604126D01*
X850995Y604031D01*
X850930Y603938D01*
X850862Y603848D01*
X850791Y603760D01*
X850716Y603674D01*
X850639Y603591D01*
X850559Y603511D01*
X850476Y603434D01*
X850390Y603359D01*
X850302Y603288D01*
X850212Y603220D01*
X850119Y603155D01*
X850024Y603093D01*
X849927Y603035D01*
X849828Y602980D01*
X849727Y602929D01*
X849624Y602881D01*
X849520Y602836D01*
X849414Y602796D01*
X849307Y602759D01*
X849199Y602726D01*
X849089Y602696D01*
X848979Y602671D01*
X848868Y602649D01*
X848756Y602632D01*
X848643Y602618D01*
X848530Y602608D01*
X848417Y602602D01*
X848304Y602600D01*
X848304Y602601D02*
X845058Y602601D01*
X848953Y602601D02*
X851549Y597408D01*
X856414Y603899D02*
X860309Y603899D01*
X860408Y603897D01*
X860508Y603891D01*
X860607Y603882D01*
X860705Y603869D01*
X860803Y603852D01*
X860901Y603831D01*
X860997Y603806D01*
X861092Y603778D01*
X861186Y603746D01*
X861279Y603711D01*
X861371Y603672D01*
X861461Y603629D01*
X861549Y603584D01*
X861636Y603534D01*
X861720Y603482D01*
X861803Y603426D01*
X861883Y603368D01*
X861961Y603306D01*
X862036Y603241D01*
X862109Y603173D01*
X862179Y603103D01*
X862247Y603030D01*
X862312Y602955D01*
X862374Y602877D01*
X862432Y602797D01*
X862488Y602714D01*
X862540Y602630D01*
X862590Y602543D01*
X862635Y602455D01*
X862678Y602365D01*
X862717Y602273D01*
X862752Y602180D01*
X862784Y602086D01*
X862812Y601991D01*
X862837Y601895D01*
X862858Y601797D01*
X862875Y601699D01*
X862888Y601601D01*
X862897Y601502D01*
X862903Y601402D01*
X862905Y601303D01*
X862905Y600654D01*
X862906Y600654D02*
X862904Y600541D01*
X862898Y600428D01*
X862888Y600315D01*
X862874Y600202D01*
X862857Y600090D01*
X862835Y599979D01*
X862810Y599869D01*
X862780Y599759D01*
X862747Y599651D01*
X862710Y599544D01*
X862670Y599438D01*
X862625Y599334D01*
X862577Y599231D01*
X862526Y599130D01*
X862471Y599031D01*
X862413Y598934D01*
X862351Y598839D01*
X862286Y598746D01*
X862218Y598656D01*
X862147Y598568D01*
X862072Y598482D01*
X861995Y598399D01*
X861915Y598319D01*
X861832Y598242D01*
X861746Y598167D01*
X861658Y598096D01*
X861568Y598028D01*
X861475Y597963D01*
X861380Y597901D01*
X861283Y597843D01*
X861184Y597788D01*
X861083Y597737D01*
X860980Y597689D01*
X860876Y597644D01*
X860770Y597604D01*
X860663Y597567D01*
X860555Y597534D01*
X860445Y597504D01*
X860335Y597479D01*
X860224Y597457D01*
X860112Y597440D01*
X859999Y597426D01*
X859886Y597416D01*
X859773Y597410D01*
X859660Y597408D01*
X859547Y597410D01*
X859434Y597416D01*
X859321Y597426D01*
X859208Y597440D01*
X859096Y597457D01*
X858985Y597479D01*
X858875Y597504D01*
X858765Y597534D01*
X858657Y597567D01*
X858550Y597604D01*
X858444Y597644D01*
X858340Y597689D01*
X858237Y597737D01*
X858136Y597788D01*
X858037Y597843D01*
X857940Y597901D01*
X857845Y597963D01*
X857752Y598028D01*
X857662Y598096D01*
X857574Y598167D01*
X857488Y598242D01*
X857405Y598319D01*
X857325Y598399D01*
X857248Y598482D01*
X857173Y598568D01*
X857102Y598656D01*
X857034Y598746D01*
X856969Y598839D01*
X856907Y598934D01*
X856849Y599031D01*
X856794Y599130D01*
X856743Y599231D01*
X856695Y599334D01*
X856650Y599438D01*
X856610Y599544D01*
X856573Y599651D01*
X856540Y599759D01*
X856510Y599869D01*
X856485Y599979D01*
X856463Y600090D01*
X856446Y600202D01*
X856432Y600315D01*
X856422Y600428D01*
X856416Y600541D01*
X856414Y600654D01*
X856414Y603899D01*
X856416Y604042D01*
X856422Y604185D01*
X856432Y604328D01*
X856446Y604470D01*
X856463Y604612D01*
X856485Y604754D01*
X856510Y604895D01*
X856540Y605035D01*
X856573Y605174D01*
X856610Y605312D01*
X856651Y605449D01*
X856695Y605585D01*
X856744Y605720D01*
X856796Y605853D01*
X856851Y605985D01*
X856911Y606115D01*
X856974Y606244D01*
X857040Y606371D01*
X857110Y606495D01*
X857183Y606618D01*
X857260Y606739D01*
X857340Y606858D01*
X857423Y606974D01*
X857509Y607089D01*
X857598Y607200D01*
X857691Y607310D01*
X857786Y607416D01*
X857885Y607520D01*
X857986Y607621D01*
X858090Y607720D01*
X858196Y607815D01*
X858306Y607908D01*
X858417Y607997D01*
X858532Y608083D01*
X858648Y608166D01*
X858767Y608246D01*
X858888Y608323D01*
X859010Y608396D01*
X859135Y608466D01*
X859262Y608532D01*
X859391Y608595D01*
X859521Y608655D01*
X859653Y608710D01*
X859786Y608762D01*
X859921Y608811D01*
X860057Y608855D01*
X860194Y608896D01*
X860332Y608933D01*
X860471Y608966D01*
X860611Y608996D01*
X860752Y609021D01*
X860894Y609043D01*
X861036Y609060D01*
X861178Y609074D01*
X861321Y609084D01*
X861464Y609090D01*
X861607Y609092D01*
X684958Y75692D02*
X684958Y64008D01*
X684958Y75692D02*
X688204Y75692D01*
X688317Y75690D01*
X688430Y75684D01*
X688543Y75674D01*
X688656Y75660D01*
X688768Y75643D01*
X688879Y75621D01*
X688989Y75596D01*
X689099Y75566D01*
X689207Y75533D01*
X689314Y75496D01*
X689420Y75456D01*
X689524Y75411D01*
X689627Y75363D01*
X689728Y75312D01*
X689827Y75257D01*
X689924Y75199D01*
X690019Y75137D01*
X690112Y75072D01*
X690202Y75004D01*
X690290Y74933D01*
X690376Y74858D01*
X690459Y74781D01*
X690539Y74701D01*
X690616Y74618D01*
X690691Y74532D01*
X690762Y74444D01*
X690830Y74354D01*
X690895Y74261D01*
X690957Y74166D01*
X691015Y74069D01*
X691070Y73970D01*
X691121Y73869D01*
X691169Y73766D01*
X691214Y73662D01*
X691254Y73556D01*
X691291Y73449D01*
X691324Y73341D01*
X691354Y73231D01*
X691379Y73121D01*
X691401Y73010D01*
X691418Y72898D01*
X691432Y72785D01*
X691442Y72672D01*
X691448Y72559D01*
X691450Y72446D01*
X691448Y72333D01*
X691442Y72220D01*
X691432Y72107D01*
X691418Y71994D01*
X691401Y71882D01*
X691379Y71771D01*
X691354Y71661D01*
X691324Y71551D01*
X691291Y71443D01*
X691254Y71336D01*
X691214Y71230D01*
X691169Y71126D01*
X691121Y71023D01*
X691070Y70922D01*
X691015Y70823D01*
X690957Y70726D01*
X690895Y70631D01*
X690830Y70538D01*
X690762Y70448D01*
X690691Y70360D01*
X690616Y70274D01*
X690539Y70191D01*
X690459Y70111D01*
X690376Y70034D01*
X690290Y69959D01*
X690202Y69888D01*
X690112Y69820D01*
X690019Y69755D01*
X689924Y69693D01*
X689827Y69635D01*
X689728Y69580D01*
X689627Y69529D01*
X689524Y69481D01*
X689420Y69436D01*
X689314Y69396D01*
X689207Y69359D01*
X689099Y69326D01*
X688989Y69296D01*
X688879Y69271D01*
X688768Y69249D01*
X688656Y69232D01*
X688543Y69218D01*
X688430Y69208D01*
X688317Y69202D01*
X688204Y69200D01*
X688204Y69201D02*
X684958Y69201D01*
X688853Y69201D02*
X691449Y64008D01*
X696314Y74394D02*
X696314Y75692D01*
X702805Y75692D01*
X699560Y64008D01*
X776595Y267008D02*
X776595Y278692D01*
X779840Y278692D01*
X779953Y278690D01*
X780066Y278684D01*
X780179Y278674D01*
X780292Y278660D01*
X780404Y278643D01*
X780515Y278621D01*
X780625Y278596D01*
X780735Y278566D01*
X780843Y278533D01*
X780950Y278496D01*
X781056Y278456D01*
X781160Y278411D01*
X781263Y278363D01*
X781364Y278312D01*
X781463Y278257D01*
X781560Y278199D01*
X781655Y278137D01*
X781748Y278072D01*
X781838Y278004D01*
X781926Y277933D01*
X782012Y277858D01*
X782095Y277781D01*
X782175Y277701D01*
X782252Y277618D01*
X782327Y277532D01*
X782398Y277444D01*
X782466Y277354D01*
X782531Y277261D01*
X782593Y277166D01*
X782651Y277069D01*
X782706Y276970D01*
X782757Y276869D01*
X782805Y276766D01*
X782850Y276662D01*
X782890Y276556D01*
X782927Y276449D01*
X782960Y276341D01*
X782990Y276231D01*
X783015Y276121D01*
X783037Y276010D01*
X783054Y275898D01*
X783068Y275785D01*
X783078Y275672D01*
X783084Y275559D01*
X783086Y275446D01*
X783084Y275333D01*
X783078Y275220D01*
X783068Y275107D01*
X783054Y274994D01*
X783037Y274882D01*
X783015Y274771D01*
X782990Y274661D01*
X782960Y274551D01*
X782927Y274443D01*
X782890Y274336D01*
X782850Y274230D01*
X782805Y274126D01*
X782757Y274023D01*
X782706Y273922D01*
X782651Y273823D01*
X782593Y273726D01*
X782531Y273631D01*
X782466Y273538D01*
X782398Y273448D01*
X782327Y273360D01*
X782252Y273274D01*
X782175Y273191D01*
X782095Y273111D01*
X782012Y273034D01*
X781926Y272959D01*
X781838Y272888D01*
X781748Y272820D01*
X781655Y272755D01*
X781560Y272693D01*
X781463Y272635D01*
X781364Y272580D01*
X781263Y272529D01*
X781160Y272481D01*
X781056Y272436D01*
X780950Y272396D01*
X780843Y272359D01*
X780735Y272326D01*
X780625Y272296D01*
X780515Y272271D01*
X780404Y272249D01*
X780292Y272232D01*
X780179Y272218D01*
X780066Y272208D01*
X779953Y272202D01*
X779840Y272200D01*
X779840Y272201D02*
X776595Y272201D01*
X780489Y272201D02*
X783086Y267008D01*
X787950Y270254D02*
X787952Y270367D01*
X787958Y270480D01*
X787968Y270593D01*
X787982Y270706D01*
X787999Y270818D01*
X788021Y270929D01*
X788046Y271039D01*
X788076Y271149D01*
X788109Y271257D01*
X788146Y271364D01*
X788186Y271470D01*
X788231Y271574D01*
X788279Y271677D01*
X788330Y271778D01*
X788385Y271877D01*
X788443Y271974D01*
X788505Y272069D01*
X788570Y272162D01*
X788638Y272252D01*
X788709Y272340D01*
X788784Y272426D01*
X788861Y272509D01*
X788941Y272589D01*
X789024Y272666D01*
X789110Y272741D01*
X789198Y272812D01*
X789288Y272880D01*
X789381Y272945D01*
X789476Y273007D01*
X789573Y273065D01*
X789672Y273120D01*
X789773Y273171D01*
X789876Y273219D01*
X789980Y273264D01*
X790086Y273304D01*
X790193Y273341D01*
X790301Y273374D01*
X790411Y273404D01*
X790521Y273429D01*
X790632Y273451D01*
X790744Y273468D01*
X790857Y273482D01*
X790970Y273492D01*
X791083Y273498D01*
X791196Y273500D01*
X791309Y273498D01*
X791422Y273492D01*
X791535Y273482D01*
X791648Y273468D01*
X791760Y273451D01*
X791871Y273429D01*
X791981Y273404D01*
X792091Y273374D01*
X792199Y273341D01*
X792306Y273304D01*
X792412Y273264D01*
X792516Y273219D01*
X792619Y273171D01*
X792720Y273120D01*
X792819Y273065D01*
X792916Y273007D01*
X793011Y272945D01*
X793104Y272880D01*
X793194Y272812D01*
X793282Y272741D01*
X793368Y272666D01*
X793451Y272589D01*
X793531Y272509D01*
X793608Y272426D01*
X793683Y272340D01*
X793754Y272252D01*
X793822Y272162D01*
X793887Y272069D01*
X793949Y271974D01*
X794007Y271877D01*
X794062Y271778D01*
X794113Y271677D01*
X794161Y271574D01*
X794206Y271470D01*
X794246Y271364D01*
X794283Y271257D01*
X794316Y271149D01*
X794346Y271039D01*
X794371Y270929D01*
X794393Y270818D01*
X794410Y270706D01*
X794424Y270593D01*
X794434Y270480D01*
X794440Y270367D01*
X794442Y270254D01*
X794440Y270141D01*
X794434Y270028D01*
X794424Y269915D01*
X794410Y269802D01*
X794393Y269690D01*
X794371Y269579D01*
X794346Y269469D01*
X794316Y269359D01*
X794283Y269251D01*
X794246Y269144D01*
X794206Y269038D01*
X794161Y268934D01*
X794113Y268831D01*
X794062Y268730D01*
X794007Y268631D01*
X793949Y268534D01*
X793887Y268439D01*
X793822Y268346D01*
X793754Y268256D01*
X793683Y268168D01*
X793608Y268082D01*
X793531Y267999D01*
X793451Y267919D01*
X793368Y267842D01*
X793282Y267767D01*
X793194Y267696D01*
X793104Y267628D01*
X793011Y267563D01*
X792916Y267501D01*
X792819Y267443D01*
X792720Y267388D01*
X792619Y267337D01*
X792516Y267289D01*
X792412Y267244D01*
X792306Y267204D01*
X792199Y267167D01*
X792091Y267134D01*
X791981Y267104D01*
X791871Y267079D01*
X791760Y267057D01*
X791648Y267040D01*
X791535Y267026D01*
X791422Y267016D01*
X791309Y267010D01*
X791196Y267008D01*
X791083Y267010D01*
X790970Y267016D01*
X790857Y267026D01*
X790744Y267040D01*
X790632Y267057D01*
X790521Y267079D01*
X790411Y267104D01*
X790301Y267134D01*
X790193Y267167D01*
X790086Y267204D01*
X789980Y267244D01*
X789876Y267289D01*
X789773Y267337D01*
X789672Y267388D01*
X789573Y267443D01*
X789476Y267501D01*
X789381Y267563D01*
X789288Y267628D01*
X789198Y267696D01*
X789110Y267767D01*
X789024Y267842D01*
X788941Y267919D01*
X788861Y267999D01*
X788784Y268082D01*
X788709Y268168D01*
X788638Y268256D01*
X788570Y268346D01*
X788505Y268439D01*
X788443Y268534D01*
X788385Y268631D01*
X788330Y268730D01*
X788279Y268831D01*
X788231Y268934D01*
X788186Y269038D01*
X788146Y269144D01*
X788109Y269251D01*
X788076Y269359D01*
X788046Y269469D01*
X788021Y269579D01*
X787999Y269690D01*
X787982Y269802D01*
X787968Y269915D01*
X787958Y270028D01*
X787952Y270141D01*
X787950Y270254D01*
X788600Y276096D02*
X788602Y276197D01*
X788608Y276297D01*
X788618Y276397D01*
X788631Y276497D01*
X788649Y276596D01*
X788670Y276695D01*
X788695Y276792D01*
X788724Y276889D01*
X788757Y276984D01*
X788793Y277078D01*
X788833Y277170D01*
X788876Y277261D01*
X788923Y277350D01*
X788973Y277437D01*
X789027Y277523D01*
X789084Y277606D01*
X789144Y277686D01*
X789207Y277765D01*
X789274Y277841D01*
X789343Y277914D01*
X789415Y277984D01*
X789489Y278052D01*
X789566Y278117D01*
X789646Y278178D01*
X789728Y278237D01*
X789812Y278292D01*
X789898Y278344D01*
X789986Y278393D01*
X790076Y278438D01*
X790168Y278480D01*
X790261Y278518D01*
X790356Y278552D01*
X790451Y278583D01*
X790548Y278610D01*
X790646Y278633D01*
X790745Y278653D01*
X790845Y278668D01*
X790945Y278680D01*
X791045Y278688D01*
X791146Y278692D01*
X791246Y278692D01*
X791347Y278688D01*
X791447Y278680D01*
X791547Y278668D01*
X791647Y278653D01*
X791746Y278633D01*
X791844Y278610D01*
X791941Y278583D01*
X792036Y278552D01*
X792131Y278518D01*
X792224Y278480D01*
X792316Y278438D01*
X792406Y278393D01*
X792494Y278344D01*
X792580Y278292D01*
X792664Y278237D01*
X792746Y278178D01*
X792826Y278117D01*
X792903Y278052D01*
X792977Y277984D01*
X793049Y277914D01*
X793118Y277841D01*
X793185Y277765D01*
X793248Y277686D01*
X793308Y277606D01*
X793365Y277523D01*
X793419Y277437D01*
X793469Y277350D01*
X793516Y277261D01*
X793559Y277170D01*
X793599Y277078D01*
X793635Y276984D01*
X793668Y276889D01*
X793697Y276792D01*
X793722Y276695D01*
X793743Y276596D01*
X793761Y276497D01*
X793774Y276397D01*
X793784Y276297D01*
X793790Y276197D01*
X793792Y276096D01*
X793790Y275995D01*
X793784Y275895D01*
X793774Y275795D01*
X793761Y275695D01*
X793743Y275596D01*
X793722Y275497D01*
X793697Y275400D01*
X793668Y275303D01*
X793635Y275208D01*
X793599Y275114D01*
X793559Y275022D01*
X793516Y274931D01*
X793469Y274842D01*
X793419Y274755D01*
X793365Y274669D01*
X793308Y274586D01*
X793248Y274506D01*
X793185Y274427D01*
X793118Y274351D01*
X793049Y274278D01*
X792977Y274208D01*
X792903Y274140D01*
X792826Y274075D01*
X792746Y274014D01*
X792664Y273955D01*
X792580Y273900D01*
X792494Y273848D01*
X792406Y273799D01*
X792316Y273754D01*
X792224Y273712D01*
X792131Y273674D01*
X792036Y273640D01*
X791941Y273609D01*
X791844Y273582D01*
X791746Y273559D01*
X791647Y273539D01*
X791547Y273524D01*
X791447Y273512D01*
X791347Y273504D01*
X791246Y273500D01*
X791146Y273500D01*
X791045Y273504D01*
X790945Y273512D01*
X790845Y273524D01*
X790745Y273539D01*
X790646Y273559D01*
X790548Y273582D01*
X790451Y273609D01*
X790356Y273640D01*
X790261Y273674D01*
X790168Y273712D01*
X790076Y273754D01*
X789986Y273799D01*
X789898Y273848D01*
X789812Y273900D01*
X789728Y273955D01*
X789646Y274014D01*
X789566Y274075D01*
X789489Y274140D01*
X789415Y274208D01*
X789343Y274278D01*
X789274Y274351D01*
X789207Y274427D01*
X789144Y274506D01*
X789084Y274586D01*
X789027Y274669D01*
X788973Y274755D01*
X788923Y274842D01*
X788876Y274931D01*
X788833Y275022D01*
X788793Y275114D01*
X788757Y275208D01*
X788724Y275303D01*
X788695Y275400D01*
X788670Y275497D01*
X788649Y275596D01*
X788631Y275695D01*
X788618Y275795D01*
X788608Y275895D01*
X788602Y275995D01*
X788600Y276096D01*
X217395Y11392D02*
X217395Y-292D01*
X217395Y11392D02*
X220640Y11392D01*
X220753Y11390D01*
X220866Y11384D01*
X220979Y11374D01*
X221092Y11360D01*
X221204Y11343D01*
X221315Y11321D01*
X221425Y11296D01*
X221535Y11266D01*
X221643Y11233D01*
X221750Y11196D01*
X221856Y11156D01*
X221960Y11111D01*
X222063Y11063D01*
X222164Y11012D01*
X222263Y10957D01*
X222360Y10899D01*
X222455Y10837D01*
X222548Y10772D01*
X222638Y10704D01*
X222726Y10633D01*
X222812Y10558D01*
X222895Y10481D01*
X222975Y10401D01*
X223052Y10318D01*
X223127Y10232D01*
X223198Y10144D01*
X223266Y10054D01*
X223331Y9961D01*
X223393Y9866D01*
X223451Y9769D01*
X223506Y9670D01*
X223557Y9569D01*
X223605Y9466D01*
X223650Y9362D01*
X223690Y9256D01*
X223727Y9149D01*
X223760Y9041D01*
X223790Y8931D01*
X223815Y8821D01*
X223837Y8710D01*
X223854Y8598D01*
X223868Y8485D01*
X223878Y8372D01*
X223884Y8259D01*
X223886Y8146D01*
X223884Y8033D01*
X223878Y7920D01*
X223868Y7807D01*
X223854Y7694D01*
X223837Y7582D01*
X223815Y7471D01*
X223790Y7361D01*
X223760Y7251D01*
X223727Y7143D01*
X223690Y7036D01*
X223650Y6930D01*
X223605Y6826D01*
X223557Y6723D01*
X223506Y6622D01*
X223451Y6523D01*
X223393Y6426D01*
X223331Y6331D01*
X223266Y6238D01*
X223198Y6148D01*
X223127Y6060D01*
X223052Y5974D01*
X222975Y5891D01*
X222895Y5811D01*
X222812Y5734D01*
X222726Y5659D01*
X222638Y5588D01*
X222548Y5520D01*
X222455Y5455D01*
X222360Y5393D01*
X222263Y5335D01*
X222164Y5280D01*
X222063Y5229D01*
X221960Y5181D01*
X221856Y5136D01*
X221750Y5096D01*
X221643Y5059D01*
X221535Y5026D01*
X221425Y4996D01*
X221315Y4971D01*
X221204Y4949D01*
X221092Y4932D01*
X220979Y4918D01*
X220866Y4908D01*
X220753Y4902D01*
X220640Y4900D01*
X220640Y4901D02*
X217395Y4901D01*
X221289Y4901D02*
X223886Y-292D01*
X231347Y4901D02*
X235242Y4901D01*
X231347Y4901D02*
X231248Y4903D01*
X231148Y4909D01*
X231049Y4918D01*
X230951Y4931D01*
X230853Y4948D01*
X230755Y4969D01*
X230659Y4994D01*
X230564Y5022D01*
X230470Y5054D01*
X230377Y5089D01*
X230285Y5128D01*
X230195Y5171D01*
X230107Y5216D01*
X230020Y5266D01*
X229936Y5318D01*
X229853Y5374D01*
X229773Y5432D01*
X229695Y5494D01*
X229620Y5559D01*
X229547Y5627D01*
X229477Y5697D01*
X229409Y5770D01*
X229344Y5845D01*
X229282Y5923D01*
X229224Y6003D01*
X229168Y6086D01*
X229116Y6170D01*
X229066Y6257D01*
X229021Y6345D01*
X228978Y6435D01*
X228939Y6527D01*
X228904Y6620D01*
X228872Y6714D01*
X228844Y6809D01*
X228819Y6905D01*
X228798Y7003D01*
X228781Y7101D01*
X228768Y7199D01*
X228759Y7298D01*
X228753Y7398D01*
X228751Y7497D01*
X228751Y8146D01*
X228750Y8146D02*
X228752Y8259D01*
X228758Y8372D01*
X228768Y8485D01*
X228782Y8598D01*
X228799Y8710D01*
X228821Y8821D01*
X228846Y8931D01*
X228876Y9041D01*
X228909Y9149D01*
X228946Y9256D01*
X228986Y9362D01*
X229031Y9466D01*
X229079Y9569D01*
X229130Y9670D01*
X229185Y9769D01*
X229243Y9866D01*
X229305Y9961D01*
X229370Y10054D01*
X229438Y10144D01*
X229509Y10232D01*
X229584Y10318D01*
X229661Y10401D01*
X229741Y10481D01*
X229824Y10558D01*
X229910Y10633D01*
X229998Y10704D01*
X230088Y10772D01*
X230181Y10837D01*
X230276Y10899D01*
X230373Y10957D01*
X230472Y11012D01*
X230573Y11063D01*
X230676Y11111D01*
X230780Y11156D01*
X230886Y11196D01*
X230993Y11233D01*
X231101Y11266D01*
X231211Y11296D01*
X231321Y11321D01*
X231432Y11343D01*
X231544Y11360D01*
X231657Y11374D01*
X231770Y11384D01*
X231883Y11390D01*
X231996Y11392D01*
X232109Y11390D01*
X232222Y11384D01*
X232335Y11374D01*
X232448Y11360D01*
X232560Y11343D01*
X232671Y11321D01*
X232781Y11296D01*
X232891Y11266D01*
X232999Y11233D01*
X233106Y11196D01*
X233212Y11156D01*
X233316Y11111D01*
X233419Y11063D01*
X233520Y11012D01*
X233619Y10957D01*
X233716Y10899D01*
X233811Y10837D01*
X233904Y10772D01*
X233994Y10704D01*
X234082Y10633D01*
X234168Y10558D01*
X234251Y10481D01*
X234331Y10401D01*
X234408Y10318D01*
X234483Y10232D01*
X234554Y10144D01*
X234622Y10054D01*
X234687Y9961D01*
X234749Y9866D01*
X234807Y9769D01*
X234862Y9670D01*
X234913Y9569D01*
X234961Y9466D01*
X235006Y9362D01*
X235046Y9256D01*
X235083Y9149D01*
X235116Y9041D01*
X235146Y8931D01*
X235171Y8821D01*
X235193Y8710D01*
X235210Y8598D01*
X235224Y8485D01*
X235234Y8372D01*
X235240Y8259D01*
X235242Y8146D01*
X235242Y4901D01*
X235240Y4758D01*
X235234Y4615D01*
X235224Y4472D01*
X235210Y4330D01*
X235193Y4188D01*
X235171Y4046D01*
X235146Y3905D01*
X235116Y3765D01*
X235083Y3626D01*
X235046Y3488D01*
X235005Y3351D01*
X234961Y3215D01*
X234912Y3080D01*
X234860Y2947D01*
X234805Y2815D01*
X234745Y2685D01*
X234682Y2556D01*
X234616Y2429D01*
X234546Y2304D01*
X234473Y2182D01*
X234396Y2061D01*
X234316Y1942D01*
X234233Y1826D01*
X234147Y1711D01*
X234058Y1600D01*
X233965Y1490D01*
X233870Y1384D01*
X233771Y1280D01*
X233670Y1179D01*
X233566Y1080D01*
X233460Y985D01*
X233350Y892D01*
X233239Y803D01*
X233124Y717D01*
X233008Y634D01*
X232889Y554D01*
X232768Y477D01*
X232645Y404D01*
X232521Y334D01*
X232394Y268D01*
X232265Y205D01*
X232135Y145D01*
X232003Y90D01*
X231870Y38D01*
X231735Y-11D01*
X231599Y-55D01*
X231462Y-96D01*
X231324Y-133D01*
X231185Y-166D01*
X231045Y-196D01*
X230904Y-221D01*
X230762Y-243D01*
X230620Y-260D01*
X230478Y-274D01*
X230335Y-284D01*
X230192Y-290D01*
X230049Y-292D01*
D12*
X564400Y447700D02*
X628000Y447700D01*
X628000Y351700D02*
X564400Y351700D01*
D13*
X546700Y448200D02*
X546702Y448263D01*
X546708Y448325D01*
X546718Y448387D01*
X546731Y448449D01*
X546749Y448509D01*
X546770Y448568D01*
X546795Y448626D01*
X546824Y448682D01*
X546856Y448736D01*
X546891Y448788D01*
X546929Y448837D01*
X546971Y448885D01*
X547015Y448929D01*
X547063Y448971D01*
X547112Y449009D01*
X547164Y449044D01*
X547218Y449076D01*
X547274Y449105D01*
X547332Y449130D01*
X547391Y449151D01*
X547451Y449169D01*
X547513Y449182D01*
X547575Y449192D01*
X547637Y449198D01*
X547700Y449200D01*
X547763Y449198D01*
X547825Y449192D01*
X547887Y449182D01*
X547949Y449169D01*
X548009Y449151D01*
X548068Y449130D01*
X548126Y449105D01*
X548182Y449076D01*
X548236Y449044D01*
X548288Y449009D01*
X548337Y448971D01*
X548385Y448929D01*
X548429Y448885D01*
X548471Y448837D01*
X548509Y448788D01*
X548544Y448736D01*
X548576Y448682D01*
X548605Y448626D01*
X548630Y448568D01*
X548651Y448509D01*
X548669Y448449D01*
X548682Y448387D01*
X548692Y448325D01*
X548698Y448263D01*
X548700Y448200D01*
X548698Y448137D01*
X548692Y448075D01*
X548682Y448013D01*
X548669Y447951D01*
X548651Y447891D01*
X548630Y447832D01*
X548605Y447774D01*
X548576Y447718D01*
X548544Y447664D01*
X548509Y447612D01*
X548471Y447563D01*
X548429Y447515D01*
X548385Y447471D01*
X548337Y447429D01*
X548288Y447391D01*
X548236Y447356D01*
X548182Y447324D01*
X548126Y447295D01*
X548068Y447270D01*
X548009Y447249D01*
X547949Y447231D01*
X547887Y447218D01*
X547825Y447208D01*
X547763Y447202D01*
X547700Y447200D01*
X547637Y447202D01*
X547575Y447208D01*
X547513Y447218D01*
X547451Y447231D01*
X547391Y447249D01*
X547332Y447270D01*
X547274Y447295D01*
X547218Y447324D01*
X547164Y447356D01*
X547112Y447391D01*
X547063Y447429D01*
X547015Y447471D01*
X546971Y447515D01*
X546929Y447563D01*
X546891Y447612D01*
X546856Y447664D01*
X546824Y447718D01*
X546795Y447774D01*
X546770Y447832D01*
X546749Y447891D01*
X546731Y447951D01*
X546718Y448013D01*
X546708Y448075D01*
X546702Y448137D01*
X546700Y448200D01*
D10*
X570188Y457858D02*
X570188Y466296D01*
X570188Y457858D02*
X570190Y457745D01*
X570196Y457632D01*
X570206Y457519D01*
X570220Y457406D01*
X570237Y457294D01*
X570259Y457183D01*
X570284Y457073D01*
X570314Y456963D01*
X570347Y456855D01*
X570384Y456748D01*
X570424Y456642D01*
X570469Y456538D01*
X570517Y456435D01*
X570568Y456334D01*
X570623Y456235D01*
X570681Y456138D01*
X570743Y456043D01*
X570808Y455950D01*
X570876Y455860D01*
X570947Y455772D01*
X571022Y455686D01*
X571099Y455603D01*
X571179Y455523D01*
X571262Y455446D01*
X571348Y455371D01*
X571436Y455300D01*
X571526Y455232D01*
X571619Y455167D01*
X571714Y455105D01*
X571811Y455047D01*
X571910Y454992D01*
X572011Y454941D01*
X572114Y454893D01*
X572218Y454848D01*
X572324Y454808D01*
X572431Y454771D01*
X572539Y454738D01*
X572649Y454708D01*
X572759Y454683D01*
X572870Y454661D01*
X572982Y454644D01*
X573095Y454630D01*
X573208Y454620D01*
X573321Y454614D01*
X573434Y454612D01*
X573547Y454614D01*
X573660Y454620D01*
X573773Y454630D01*
X573886Y454644D01*
X573998Y454661D01*
X574109Y454683D01*
X574219Y454708D01*
X574329Y454738D01*
X574437Y454771D01*
X574544Y454808D01*
X574650Y454848D01*
X574754Y454893D01*
X574857Y454941D01*
X574958Y454992D01*
X575057Y455047D01*
X575154Y455105D01*
X575249Y455167D01*
X575342Y455232D01*
X575432Y455300D01*
X575520Y455371D01*
X575606Y455446D01*
X575689Y455523D01*
X575769Y455603D01*
X575846Y455686D01*
X575921Y455772D01*
X575992Y455860D01*
X576060Y455950D01*
X576125Y456043D01*
X576187Y456138D01*
X576245Y456235D01*
X576300Y456334D01*
X576351Y456435D01*
X576399Y456538D01*
X576444Y456642D01*
X576484Y456748D01*
X576521Y456855D01*
X576554Y456963D01*
X576584Y457073D01*
X576609Y457183D01*
X576631Y457294D01*
X576648Y457406D01*
X576662Y457519D01*
X576672Y457632D01*
X576678Y457745D01*
X576680Y457858D01*
X576679Y457858D02*
X576679Y466296D01*
X584483Y466296D02*
X584483Y454612D01*
X584483Y460454D02*
X582860Y461428D01*
X582859Y461427D02*
X582786Y461474D01*
X582715Y461523D01*
X582645Y461576D01*
X582579Y461632D01*
X582515Y461691D01*
X582453Y461752D01*
X582395Y461816D01*
X582339Y461883D01*
X582287Y461952D01*
X582237Y462024D01*
X582191Y462098D01*
X582148Y462173D01*
X582109Y462251D01*
X582073Y462330D01*
X582041Y462411D01*
X582012Y462493D01*
X581987Y462576D01*
X581966Y462660D01*
X581949Y462745D01*
X581935Y462831D01*
X581926Y462917D01*
X581920Y463004D01*
X581918Y463091D01*
X581920Y463178D01*
X581926Y463265D01*
X581936Y463351D01*
X581949Y463437D01*
X581967Y463522D01*
X581988Y463606D01*
X582013Y463689D01*
X582042Y463772D01*
X582074Y463852D01*
X582110Y463931D01*
X582149Y464009D01*
X582192Y464084D01*
X582239Y464158D01*
X582288Y464229D01*
X582341Y464299D01*
X582396Y464365D01*
X582455Y464429D01*
X582516Y464491D01*
X582581Y464550D01*
X582647Y464605D01*
X582716Y464658D01*
X582788Y464708D01*
X582861Y464754D01*
X582937Y464797D01*
X583014Y464836D01*
X583093Y464872D01*
X583174Y464905D01*
X583256Y464933D01*
X583339Y464959D01*
X583423Y464980D01*
X583509Y464997D01*
X583509Y464998D02*
X583649Y465022D01*
X583791Y465042D01*
X583932Y465058D01*
X584074Y465069D01*
X584217Y465077D01*
X584359Y465081D01*
X584502Y465082D01*
X584645Y465078D01*
X584787Y465070D01*
X584929Y465058D01*
X585071Y465042D01*
X585212Y465023D01*
X585353Y464999D01*
X585493Y464972D01*
X585632Y464940D01*
X585770Y464905D01*
X585908Y464866D01*
X586044Y464823D01*
X586178Y464777D01*
X586312Y464726D01*
X586444Y464673D01*
X586574Y464615D01*
X586703Y464554D01*
X586830Y464489D01*
X586956Y464421D01*
X587079Y464349D01*
X584483Y460454D02*
X586105Y459480D01*
X586106Y459481D02*
X586179Y459434D01*
X586250Y459385D01*
X586320Y459332D01*
X586386Y459276D01*
X586450Y459217D01*
X586512Y459156D01*
X586570Y459092D01*
X586626Y459025D01*
X586678Y458956D01*
X586728Y458884D01*
X586774Y458810D01*
X586817Y458735D01*
X586856Y458657D01*
X586892Y458578D01*
X586924Y458497D01*
X586953Y458415D01*
X586978Y458332D01*
X586999Y458248D01*
X587016Y458163D01*
X587030Y458077D01*
X587039Y457991D01*
X587045Y457904D01*
X587047Y457817D01*
X587045Y457730D01*
X587039Y457643D01*
X587029Y457557D01*
X587016Y457471D01*
X586998Y457386D01*
X586977Y457302D01*
X586952Y457219D01*
X586923Y457136D01*
X586891Y457056D01*
X586855Y456977D01*
X586816Y456899D01*
X586773Y456824D01*
X586726Y456750D01*
X586677Y456679D01*
X586624Y456609D01*
X586569Y456543D01*
X586510Y456479D01*
X586449Y456417D01*
X586384Y456358D01*
X586318Y456303D01*
X586249Y456250D01*
X586177Y456200D01*
X586104Y456154D01*
X586028Y456111D01*
X585951Y456072D01*
X585872Y456036D01*
X585791Y456003D01*
X585709Y455975D01*
X585626Y455949D01*
X585542Y455928D01*
X585457Y455911D01*
X585456Y455910D02*
X585316Y455886D01*
X585174Y455866D01*
X585033Y455850D01*
X584891Y455839D01*
X584748Y455831D01*
X584606Y455827D01*
X584463Y455826D01*
X584320Y455830D01*
X584178Y455838D01*
X584036Y455850D01*
X583894Y455866D01*
X583753Y455885D01*
X583612Y455909D01*
X583472Y455936D01*
X583333Y455968D01*
X583195Y456003D01*
X583057Y456042D01*
X582921Y456085D01*
X582787Y456131D01*
X582653Y456182D01*
X582521Y456235D01*
X582391Y456293D01*
X582262Y456354D01*
X582135Y456419D01*
X582009Y456487D01*
X581886Y456559D01*
X591905Y463700D02*
X595151Y466296D01*
X595151Y454612D01*
X598396Y454612D02*
X591905Y454612D01*
D17*
X459800Y447590D03*
D14*
X464300Y429200D02*
X467300Y429200D01*
X467300Y426200D01*
X467300Y361200D02*
X467300Y358200D01*
X464300Y358200D01*
X396300Y358200D02*
X396300Y361200D01*
X396300Y358200D02*
X399300Y358200D01*
X399300Y429200D02*
X396300Y429200D01*
X396300Y426200D01*
D16*
X488598Y437522D02*
X493941Y437522D01*
X494031Y437524D01*
X494120Y437530D01*
X494209Y437540D01*
X494298Y437553D01*
X494386Y437571D01*
X494473Y437592D01*
X494559Y437617D01*
X494644Y437646D01*
X494727Y437678D01*
X494809Y437715D01*
X494890Y437754D01*
X494969Y437797D01*
X495045Y437844D01*
X495120Y437894D01*
X495192Y437947D01*
X495262Y438003D01*
X495329Y438062D01*
X495394Y438124D01*
X495456Y438189D01*
X495515Y438256D01*
X495571Y438326D01*
X495624Y438398D01*
X495674Y438473D01*
X495721Y438550D01*
X495764Y438628D01*
X495803Y438709D01*
X495840Y438791D01*
X495872Y438874D01*
X495901Y438959D01*
X495926Y439045D01*
X495947Y439132D01*
X495965Y439220D01*
X495978Y439309D01*
X495988Y439398D01*
X495994Y439487D01*
X495996Y439577D01*
X495994Y439667D01*
X495988Y439756D01*
X495978Y439845D01*
X495965Y439934D01*
X495947Y440022D01*
X495926Y440109D01*
X495901Y440195D01*
X495872Y440280D01*
X495840Y440363D01*
X495803Y440445D01*
X495764Y440526D01*
X495721Y440605D01*
X495674Y440681D01*
X495624Y440756D01*
X495571Y440828D01*
X495515Y440898D01*
X495456Y440965D01*
X495394Y441030D01*
X495329Y441092D01*
X495262Y441151D01*
X495192Y441207D01*
X495120Y441260D01*
X495045Y441310D01*
X494969Y441357D01*
X494890Y441400D01*
X494809Y441439D01*
X494727Y441476D01*
X494644Y441508D01*
X494559Y441537D01*
X494473Y441562D01*
X494386Y441583D01*
X494298Y441601D01*
X494209Y441614D01*
X494120Y441624D01*
X494031Y441630D01*
X493941Y441632D01*
X488598Y441632D01*
X490242Y445111D02*
X488598Y447165D01*
X495996Y447165D01*
X495996Y445111D02*
X495996Y449220D01*
M02*
