G04 EAGLE Gerber RS-274X export*
G75*
%MOMM*%
%FSLAX34Y34*%
%LPD*%
%INBottom Copper*%
%IPPOS*%
%AMOC8*
5,1,8,0,0,1.08239X$1,22.5*%
G01*
%ADD10C,1.320800*%
%ADD11C,1.625600*%
%ADD12C,4.318000*%
%ADD13R,1.879600X1.879600*%
%ADD14C,1.879600*%
%ADD15C,1.524000*%
%ADD16C,1.308000*%
%ADD17R,1.308000X1.308000*%
%ADD18C,0.685800*%
%ADD19C,0.203200*%

G36*
X974365Y2542D02*
X974365Y2542D01*
X974370Y2541D01*
X974490Y2562D01*
X974609Y2580D01*
X974613Y2583D01*
X974619Y2584D01*
X974726Y2641D01*
X974833Y2696D01*
X974837Y2699D01*
X974841Y2702D01*
X974924Y2788D01*
X975010Y2875D01*
X975013Y2880D01*
X975016Y2883D01*
X975068Y2992D01*
X975123Y3101D01*
X975123Y3106D01*
X975126Y3110D01*
X975159Y3340D01*
X975159Y996660D01*
X975158Y996665D01*
X975159Y996670D01*
X975138Y996790D01*
X975120Y996909D01*
X975117Y996913D01*
X975116Y996919D01*
X975059Y997026D01*
X975004Y997133D01*
X975001Y997137D01*
X974998Y997141D01*
X974912Y997224D01*
X974825Y997310D01*
X974820Y997313D01*
X974817Y997316D01*
X974708Y997368D01*
X974599Y997423D01*
X974594Y997423D01*
X974590Y997426D01*
X974360Y997459D01*
X3340Y997459D01*
X3335Y997458D01*
X3330Y997459D01*
X3210Y997438D01*
X3091Y997420D01*
X3087Y997417D01*
X3081Y997416D01*
X2974Y997359D01*
X2867Y997304D01*
X2863Y997301D01*
X2859Y997298D01*
X2776Y997212D01*
X2690Y997125D01*
X2687Y997120D01*
X2684Y997117D01*
X2632Y997008D01*
X2577Y996899D01*
X2577Y996894D01*
X2574Y996890D01*
X2541Y996660D01*
X2541Y3340D01*
X2542Y3335D01*
X2541Y3330D01*
X2562Y3210D01*
X2580Y3091D01*
X2583Y3087D01*
X2584Y3081D01*
X2641Y2974D01*
X2696Y2867D01*
X2699Y2863D01*
X2702Y2859D01*
X2788Y2776D01*
X2875Y2690D01*
X2880Y2687D01*
X2883Y2684D01*
X2992Y2632D01*
X3101Y2577D01*
X3106Y2577D01*
X3110Y2574D01*
X3340Y2541D01*
X974360Y2541D01*
X974365Y2542D01*
G37*
%LPC*%
G36*
X457737Y228951D02*
X457737Y228951D01*
X447951Y238737D01*
X447951Y241471D01*
X447940Y241541D01*
X447939Y241612D01*
X447920Y241664D01*
X447912Y241720D01*
X447879Y241783D01*
X447856Y241850D01*
X447820Y241898D01*
X447796Y241944D01*
X447757Y241983D01*
X447717Y242036D01*
X446370Y243383D01*
X445538Y245391D01*
X445538Y247563D01*
X446370Y249571D01*
X447906Y251107D01*
X449914Y251939D01*
X452086Y251939D01*
X454094Y251107D01*
X455630Y249571D01*
X456462Y247563D01*
X456462Y245391D01*
X455630Y243383D01*
X454344Y242097D01*
X454341Y242093D01*
X454337Y242090D01*
X454267Y241991D01*
X454197Y241893D01*
X454195Y241888D01*
X454192Y241884D01*
X454157Y241769D01*
X454120Y241653D01*
X454120Y241648D01*
X454118Y241643D01*
X454120Y241523D01*
X454121Y241401D01*
X454123Y241396D01*
X454123Y241391D01*
X454163Y241277D01*
X454169Y241258D01*
X454201Y241162D01*
X454204Y241158D01*
X454206Y241153D01*
X454271Y241066D01*
X454287Y241035D01*
X454310Y241013D01*
X454344Y240967D01*
X459935Y235377D01*
X459939Y235374D01*
X459942Y235370D01*
X460041Y235300D01*
X460139Y235229D01*
X460144Y235227D01*
X460148Y235224D01*
X460263Y235189D01*
X460379Y235152D01*
X460384Y235152D01*
X460389Y235150D01*
X460509Y235153D01*
X460631Y235153D01*
X460636Y235155D01*
X460641Y235155D01*
X460754Y235195D01*
X460870Y235233D01*
X460874Y235237D01*
X460879Y235238D01*
X461065Y235377D01*
X491717Y266029D01*
X491759Y266086D01*
X491808Y266137D01*
X491832Y266188D01*
X491865Y266233D01*
X491887Y266300D01*
X491918Y266364D01*
X491926Y266424D01*
X491942Y266473D01*
X491942Y266529D01*
X491951Y266594D01*
X491951Y386994D01*
X491940Y387064D01*
X491939Y387135D01*
X491920Y387187D01*
X491912Y387243D01*
X491879Y387306D01*
X491856Y387373D01*
X491820Y387421D01*
X491796Y387467D01*
X491757Y387506D01*
X491717Y387559D01*
X490370Y388906D01*
X489538Y390914D01*
X489538Y393086D01*
X490370Y395094D01*
X491906Y396630D01*
X493430Y397262D01*
X493487Y397296D01*
X493547Y397322D01*
X493593Y397362D01*
X493645Y397394D01*
X493688Y397444D01*
X493738Y397487D01*
X493769Y397539D01*
X493808Y397586D01*
X493833Y397647D01*
X493867Y397704D01*
X493880Y397763D01*
X493903Y397819D01*
X493908Y397885D01*
X493922Y397949D01*
X493916Y398010D01*
X493921Y398071D01*
X493905Y398135D01*
X493898Y398200D01*
X493874Y398256D01*
X493859Y398315D01*
X493824Y398371D01*
X493797Y398431D01*
X493757Y398477D01*
X493724Y398528D01*
X493674Y398570D01*
X493630Y398619D01*
X493573Y398653D01*
X493530Y398689D01*
X493482Y398708D01*
X493430Y398738D01*
X491906Y399370D01*
X490559Y400717D01*
X490501Y400759D01*
X490450Y400808D01*
X490400Y400832D01*
X490355Y400865D01*
X490287Y400887D01*
X490223Y400918D01*
X490164Y400926D01*
X490115Y400942D01*
X490059Y400942D01*
X489994Y400951D01*
X455594Y400951D01*
X455524Y400940D01*
X455453Y400939D01*
X455400Y400920D01*
X455345Y400912D01*
X455282Y400879D01*
X455215Y400856D01*
X455167Y400820D01*
X455121Y400796D01*
X455082Y400757D01*
X455029Y400717D01*
X453283Y398971D01*
X453241Y398914D01*
X453192Y398863D01*
X453168Y398812D01*
X453135Y398767D01*
X453113Y398700D01*
X453082Y398636D01*
X453074Y398576D01*
X453058Y398527D01*
X453058Y398471D01*
X453049Y398406D01*
X453049Y376594D01*
X453060Y376524D01*
X453061Y376453D01*
X453080Y376400D01*
X453088Y376345D01*
X453121Y376282D01*
X453144Y376215D01*
X453180Y376167D01*
X453204Y376121D01*
X453212Y376113D01*
X453214Y376108D01*
X453247Y376076D01*
X453283Y376029D01*
X480049Y349263D01*
X480049Y332006D01*
X480060Y331936D01*
X480061Y331865D01*
X480080Y331813D01*
X480088Y331757D01*
X480121Y331694D01*
X480144Y331627D01*
X480180Y331579D01*
X480204Y331533D01*
X480243Y331494D01*
X480283Y331441D01*
X481630Y330094D01*
X482462Y328086D01*
X482462Y325914D01*
X481630Y323906D01*
X480094Y322370D01*
X478086Y321538D01*
X475914Y321538D01*
X473906Y322370D01*
X472370Y323906D01*
X471538Y325914D01*
X471538Y328086D01*
X472370Y330094D01*
X473717Y331441D01*
X473759Y331499D01*
X473808Y331550D01*
X473832Y331600D01*
X473865Y331645D01*
X473887Y331713D01*
X473918Y331777D01*
X473926Y331836D01*
X473942Y331885D01*
X473942Y331941D01*
X473951Y332006D01*
X473951Y346406D01*
X473940Y346476D01*
X473939Y346547D01*
X473920Y346600D01*
X473912Y346655D01*
X473879Y346718D01*
X473856Y346785D01*
X473820Y346833D01*
X473796Y346879D01*
X473757Y346918D01*
X473717Y346971D01*
X446951Y373737D01*
X446951Y401263D01*
X448971Y403283D01*
X452737Y407049D01*
X489994Y407049D01*
X490064Y407060D01*
X490135Y407061D01*
X490187Y407080D01*
X490243Y407088D01*
X490306Y407121D01*
X490373Y407144D01*
X490421Y407180D01*
X490467Y407204D01*
X490506Y407243D01*
X490559Y407283D01*
X490863Y407587D01*
X490901Y407640D01*
X490948Y407687D01*
X490975Y407742D01*
X491011Y407791D01*
X491031Y407854D01*
X491060Y407913D01*
X491069Y407973D01*
X491088Y408031D01*
X491087Y408097D01*
X491097Y408162D01*
X491086Y408222D01*
X491086Y408283D01*
X491065Y408346D01*
X491054Y408411D01*
X491025Y408464D01*
X491006Y408522D01*
X490967Y408575D01*
X490936Y408633D01*
X490892Y408675D01*
X490856Y408724D01*
X490802Y408762D01*
X490754Y408808D01*
X490699Y408834D01*
X490650Y408870D01*
X490587Y408889D01*
X490527Y408918D01*
X490462Y408927D01*
X490409Y408944D01*
X490357Y408943D01*
X490298Y408951D01*
X444594Y408951D01*
X444524Y408940D01*
X444453Y408939D01*
X444400Y408920D01*
X444345Y408912D01*
X444282Y408879D01*
X444215Y408856D01*
X444167Y408820D01*
X444121Y408796D01*
X444082Y408757D01*
X444029Y408717D01*
X423283Y387971D01*
X423241Y387914D01*
X423192Y387863D01*
X423168Y387812D01*
X423135Y387767D01*
X423113Y387700D01*
X423082Y387636D01*
X423074Y387576D01*
X423058Y387527D01*
X423058Y387471D01*
X423049Y387406D01*
X423049Y345594D01*
X423060Y345524D01*
X423061Y345453D01*
X423080Y345400D01*
X423088Y345345D01*
X423121Y345282D01*
X423144Y345215D01*
X423180Y345167D01*
X423204Y345121D01*
X423243Y345082D01*
X423283Y345029D01*
X425616Y342696D01*
X425673Y342654D01*
X425724Y342605D01*
X425775Y342581D01*
X425820Y342548D01*
X425887Y342526D01*
X425951Y342495D01*
X426011Y342487D01*
X426060Y342471D01*
X426116Y342471D01*
X426181Y342462D01*
X428086Y342462D01*
X430094Y341630D01*
X431076Y340648D01*
X431080Y340645D01*
X431083Y340641D01*
X431182Y340571D01*
X431280Y340501D01*
X431285Y340499D01*
X431289Y340496D01*
X431404Y340461D01*
X431520Y340424D01*
X431525Y340424D01*
X431530Y340422D01*
X431650Y340424D01*
X431772Y340425D01*
X431777Y340427D01*
X431782Y340427D01*
X431895Y340466D01*
X432011Y340505D01*
X432015Y340508D01*
X432020Y340510D01*
X432156Y340611D01*
X433172Y341290D01*
X434259Y341740D01*
X435048Y341897D01*
X435048Y336153D01*
X435049Y336148D01*
X435048Y336143D01*
X435069Y336023D01*
X435072Y336007D01*
X435048Y335847D01*
X435048Y330103D01*
X434259Y330260D01*
X433172Y330710D01*
X432195Y331363D01*
X431363Y332194D01*
X431326Y332251D01*
X431269Y332312D01*
X431219Y332379D01*
X431184Y332404D01*
X431154Y332435D01*
X431081Y332476D01*
X431013Y332524D01*
X430972Y332537D01*
X430934Y332558D01*
X430852Y332574D01*
X430772Y332598D01*
X430729Y332597D01*
X430686Y332605D01*
X430603Y332595D01*
X430520Y332593D01*
X430479Y332579D01*
X430436Y332574D01*
X430361Y332538D01*
X430282Y332510D01*
X430245Y332483D01*
X430209Y332466D01*
X430161Y332420D01*
X430096Y332372D01*
X430094Y332370D01*
X428086Y331538D01*
X426056Y331538D01*
X426021Y331533D01*
X425986Y331535D01*
X425897Y331513D01*
X425808Y331499D01*
X425776Y331482D01*
X425741Y331473D01*
X425664Y331425D01*
X425583Y331383D01*
X425558Y331358D01*
X425528Y331339D01*
X425470Y331269D01*
X425406Y331204D01*
X425390Y331172D01*
X425368Y331144D01*
X425334Y331060D01*
X425294Y330978D01*
X425289Y330943D01*
X425276Y330910D01*
X425271Y330819D01*
X425257Y330729D01*
X425263Y330694D01*
X425261Y330658D01*
X425287Y330555D01*
X425300Y330480D01*
X425312Y330459D01*
X425318Y330433D01*
X425462Y330086D01*
X425462Y327914D01*
X424630Y325906D01*
X423094Y324370D01*
X421086Y323538D01*
X418914Y323538D01*
X417265Y324221D01*
X417172Y324243D01*
X417080Y324273D01*
X417050Y324273D01*
X417020Y324280D01*
X416924Y324272D01*
X416828Y324271D01*
X416799Y324261D01*
X416769Y324259D01*
X416680Y324222D01*
X416589Y324191D01*
X416565Y324173D01*
X416536Y324161D01*
X416464Y324098D01*
X416387Y324041D01*
X416369Y324016D01*
X416346Y323996D01*
X416297Y323913D01*
X416242Y323835D01*
X416233Y323805D01*
X416217Y323779D01*
X416196Y323685D01*
X416168Y323594D01*
X416168Y323563D01*
X416161Y323533D01*
X416171Y323437D01*
X416172Y323342D01*
X416182Y323313D01*
X416185Y323282D01*
X416224Y323194D01*
X416255Y323104D01*
X416275Y323078D01*
X416286Y323051D01*
X416335Y322996D01*
X416394Y322918D01*
X418616Y320696D01*
X418673Y320654D01*
X418724Y320605D01*
X418775Y320581D01*
X418820Y320548D01*
X418887Y320526D01*
X418951Y320495D01*
X419011Y320487D01*
X419060Y320471D01*
X419116Y320471D01*
X419181Y320462D01*
X421086Y320462D01*
X423094Y319630D01*
X424630Y318094D01*
X425462Y316086D01*
X425462Y313914D01*
X424630Y311906D01*
X423094Y310370D01*
X421086Y309538D01*
X418914Y309538D01*
X416906Y310370D01*
X415370Y311906D01*
X414538Y313914D01*
X414538Y315819D01*
X414527Y315889D01*
X414526Y315960D01*
X414507Y316013D01*
X414499Y316068D01*
X414466Y316131D01*
X414443Y316198D01*
X414407Y316246D01*
X414383Y316292D01*
X414352Y316323D01*
X414350Y316328D01*
X414337Y316340D01*
X414304Y316384D01*
X409971Y320717D01*
X409914Y320759D01*
X409863Y320808D01*
X409812Y320832D01*
X409767Y320865D01*
X409700Y320887D01*
X409636Y320918D01*
X409576Y320926D01*
X409527Y320942D01*
X409471Y320942D01*
X409406Y320951D01*
X400702Y320951D01*
X400637Y320941D01*
X400571Y320940D01*
X400513Y320921D01*
X400453Y320912D01*
X400395Y320881D01*
X400332Y320860D01*
X400283Y320824D01*
X400229Y320796D01*
X400183Y320749D01*
X400130Y320710D01*
X400095Y320660D01*
X400052Y320617D01*
X400023Y320558D01*
X399985Y320504D01*
X399967Y320446D01*
X399940Y320391D01*
X399930Y320326D01*
X399911Y320263D01*
X399912Y320202D01*
X399903Y320142D01*
X399914Y320077D01*
X399916Y320011D01*
X399936Y319953D01*
X399946Y319893D01*
X399977Y319835D01*
X399999Y319773D01*
X400038Y319720D01*
X400064Y319671D01*
X400101Y319635D01*
X400137Y319587D01*
X400630Y319094D01*
X401462Y317086D01*
X401462Y314914D01*
X400630Y312906D01*
X399094Y311370D01*
X397086Y310538D01*
X394914Y310538D01*
X392906Y311370D01*
X391370Y312906D01*
X390538Y314914D01*
X390538Y316088D01*
X390537Y316093D01*
X390538Y316098D01*
X390517Y316218D01*
X390499Y316337D01*
X390496Y316341D01*
X390495Y316347D01*
X390438Y316454D01*
X390383Y316561D01*
X390380Y316565D01*
X390377Y316569D01*
X390291Y316652D01*
X390204Y316738D01*
X390199Y316741D01*
X390196Y316744D01*
X390087Y316796D01*
X389978Y316851D01*
X389973Y316851D01*
X389969Y316854D01*
X389739Y316887D01*
X377547Y316887D01*
X377542Y316886D01*
X377537Y316887D01*
X377417Y316866D01*
X377298Y316848D01*
X377294Y316845D01*
X377289Y316844D01*
X377181Y316787D01*
X377074Y316732D01*
X377070Y316729D01*
X377066Y316726D01*
X376983Y316640D01*
X376897Y316553D01*
X376895Y316548D01*
X376891Y316545D01*
X376839Y316436D01*
X376785Y316327D01*
X376784Y316322D01*
X376782Y316318D01*
X376748Y316088D01*
X376748Y314627D01*
X375916Y312620D01*
X374380Y311084D01*
X372373Y310252D01*
X370200Y310252D01*
X368192Y311084D01*
X366656Y312620D01*
X365824Y314627D01*
X365824Y316800D01*
X366146Y317577D01*
X366147Y317582D01*
X366150Y317586D01*
X366176Y317703D01*
X366205Y317822D01*
X366204Y317827D01*
X366205Y317832D01*
X366194Y317953D01*
X366184Y318073D01*
X366182Y318078D01*
X366181Y318083D01*
X366133Y318194D01*
X366086Y318306D01*
X366083Y318309D01*
X366081Y318314D01*
X366000Y318405D01*
X365921Y318496D01*
X365916Y318498D01*
X365913Y318502D01*
X365714Y318621D01*
X363906Y319370D01*
X362370Y320906D01*
X361538Y322914D01*
X361538Y325086D01*
X362370Y327094D01*
X363906Y328630D01*
X365914Y329462D01*
X368086Y329462D01*
X370094Y328630D01*
X371441Y327283D01*
X371499Y327241D01*
X371550Y327192D01*
X371600Y327168D01*
X371645Y327135D01*
X371713Y327113D01*
X371777Y327082D01*
X371836Y327074D01*
X371885Y327058D01*
X371941Y327058D01*
X372006Y327049D01*
X399835Y327049D01*
X399870Y327054D01*
X399906Y327052D01*
X399994Y327074D01*
X400084Y327088D01*
X400116Y327105D01*
X400150Y327114D01*
X400227Y327162D01*
X400308Y327204D01*
X400333Y327229D01*
X400363Y327248D01*
X400421Y327318D01*
X400485Y327383D01*
X400501Y327415D01*
X400524Y327443D01*
X400557Y327527D01*
X400598Y327609D01*
X400603Y327644D01*
X400616Y327677D01*
X400621Y327768D01*
X400634Y327858D01*
X400628Y327893D01*
X400630Y327929D01*
X400604Y328032D01*
X400591Y328107D01*
X400580Y328128D01*
X400574Y328154D01*
X400061Y329391D01*
X400061Y331563D01*
X400893Y333571D01*
X402429Y335107D01*
X404437Y335939D01*
X406609Y335939D01*
X408617Y335107D01*
X410153Y333571D01*
X410579Y332542D01*
X410632Y332456D01*
X410680Y332367D01*
X410698Y332349D01*
X410711Y332327D01*
X410789Y332262D01*
X410861Y332192D01*
X410884Y332181D01*
X410904Y332164D01*
X410997Y332126D01*
X411088Y332082D01*
X411115Y332079D01*
X411137Y332069D01*
X411213Y332064D01*
X411318Y332049D01*
X414994Y332049D01*
X415064Y332060D01*
X415135Y332061D01*
X415187Y332080D01*
X415243Y332088D01*
X415306Y332121D01*
X415373Y332144D01*
X415421Y332180D01*
X415467Y332204D01*
X415506Y332243D01*
X415559Y332283D01*
X416906Y333630D01*
X418914Y334462D01*
X420944Y334462D01*
X420979Y334467D01*
X421014Y334465D01*
X421103Y334487D01*
X421192Y334501D01*
X421224Y334518D01*
X421259Y334527D01*
X421336Y334575D01*
X421417Y334617D01*
X421442Y334642D01*
X421472Y334661D01*
X421530Y334731D01*
X421594Y334796D01*
X421610Y334828D01*
X421632Y334856D01*
X421666Y334940D01*
X421706Y335022D01*
X421711Y335057D01*
X421724Y335090D01*
X421729Y335181D01*
X421743Y335271D01*
X421737Y335306D01*
X421739Y335342D01*
X421713Y335445D01*
X421700Y335520D01*
X421688Y335541D01*
X421682Y335567D01*
X421538Y335914D01*
X421538Y337819D01*
X421527Y337889D01*
X421526Y337960D01*
X421507Y338013D01*
X421499Y338068D01*
X421466Y338131D01*
X421443Y338198D01*
X421407Y338246D01*
X421383Y338292D01*
X421344Y338331D01*
X421304Y338384D01*
X416951Y342737D01*
X416951Y390263D01*
X441737Y415049D01*
X499994Y415049D01*
X500064Y415060D01*
X500135Y415061D01*
X500187Y415080D01*
X500243Y415088D01*
X500306Y415121D01*
X500373Y415144D01*
X500421Y415180D01*
X500467Y415204D01*
X500506Y415243D01*
X500559Y415283D01*
X501906Y416630D01*
X503914Y417462D01*
X506086Y417462D01*
X508094Y416630D01*
X509630Y415094D01*
X510389Y413263D01*
X510407Y413233D01*
X510419Y413199D01*
X510473Y413126D01*
X510521Y413048D01*
X510548Y413025D01*
X510569Y412997D01*
X510643Y412944D01*
X510713Y412885D01*
X510746Y412872D01*
X510775Y412851D01*
X510862Y412825D01*
X510946Y412790D01*
X510982Y412788D01*
X511016Y412777D01*
X511107Y412779D01*
X511198Y412773D01*
X511232Y412781D01*
X511268Y412782D01*
X511354Y412812D01*
X511442Y412834D01*
X511472Y412853D01*
X511506Y412865D01*
X511591Y412929D01*
X511655Y412969D01*
X511671Y412988D01*
X511692Y413004D01*
X520717Y422029D01*
X520759Y422086D01*
X520808Y422137D01*
X520832Y422188D01*
X520865Y422233D01*
X520887Y422300D01*
X520918Y422364D01*
X520926Y422424D01*
X520942Y422473D01*
X520942Y422529D01*
X520951Y422594D01*
X520951Y451994D01*
X520940Y452064D01*
X520939Y452135D01*
X520920Y452187D01*
X520912Y452243D01*
X520879Y452306D01*
X520856Y452373D01*
X520820Y452421D01*
X520796Y452467D01*
X520757Y452506D01*
X520717Y452559D01*
X519370Y453906D01*
X518538Y455914D01*
X518538Y458086D01*
X519370Y460094D01*
X520906Y461630D01*
X522914Y462462D01*
X525086Y462462D01*
X527094Y461630D01*
X528630Y460094D01*
X529462Y458086D01*
X529462Y455914D01*
X528630Y453906D01*
X527283Y452559D01*
X527241Y452501D01*
X527192Y452450D01*
X527168Y452400D01*
X527135Y452355D01*
X527113Y452287D01*
X527082Y452223D01*
X527074Y452164D01*
X527058Y452115D01*
X527058Y452059D01*
X527049Y451994D01*
X527049Y419737D01*
X500696Y393384D01*
X500654Y393327D01*
X500605Y393276D01*
X500581Y393225D01*
X500548Y393180D01*
X500526Y393113D01*
X500495Y393049D01*
X500487Y392989D01*
X500471Y392940D01*
X500471Y392884D01*
X500462Y392819D01*
X500462Y390914D01*
X499630Y388906D01*
X498283Y387559D01*
X498241Y387501D01*
X498192Y387450D01*
X498168Y387400D01*
X498135Y387355D01*
X498113Y387287D01*
X498082Y387223D01*
X498074Y387164D01*
X498058Y387115D01*
X498058Y387059D01*
X498049Y386994D01*
X498049Y349669D01*
X498054Y349634D01*
X498052Y349598D01*
X498074Y349510D01*
X498088Y349420D01*
X498105Y349388D01*
X498114Y349354D01*
X498162Y349277D01*
X498204Y349196D01*
X498229Y349171D01*
X498248Y349140D01*
X498318Y349083D01*
X498383Y349019D01*
X498415Y349003D01*
X498443Y348980D01*
X498527Y348947D01*
X498609Y348906D01*
X498644Y348901D01*
X498677Y348888D01*
X498768Y348883D01*
X498858Y348870D01*
X498893Y348876D01*
X498929Y348874D01*
X499032Y348900D01*
X499107Y348913D01*
X499128Y348924D01*
X499154Y348930D01*
X500437Y349462D01*
X502609Y349462D01*
X504617Y348630D01*
X505964Y347283D01*
X506022Y347241D01*
X506073Y347192D01*
X506123Y347168D01*
X506168Y347135D01*
X506236Y347113D01*
X506300Y347082D01*
X506359Y347074D01*
X506408Y347058D01*
X506464Y347058D01*
X506529Y347049D01*
X525263Y347049D01*
X529587Y342725D01*
X529640Y342686D01*
X529687Y342640D01*
X529742Y342612D01*
X529791Y342577D01*
X529854Y342557D01*
X529913Y342527D01*
X529973Y342518D01*
X530031Y342500D01*
X530097Y342500D01*
X530162Y342491D01*
X530222Y342501D01*
X530283Y342501D01*
X530346Y342522D01*
X530411Y342534D01*
X530464Y342562D01*
X530522Y342581D01*
X530575Y342621D01*
X530633Y342652D01*
X530675Y342696D01*
X530724Y342732D01*
X530762Y342786D01*
X530808Y342833D01*
X530834Y342888D01*
X530870Y342938D01*
X530889Y343001D01*
X530918Y343060D01*
X530927Y343126D01*
X530944Y343179D01*
X530943Y343230D01*
X530951Y343290D01*
X530951Y354263D01*
X531304Y354616D01*
X531346Y354673D01*
X531395Y354724D01*
X531419Y354775D01*
X531452Y354820D01*
X531474Y354887D01*
X531505Y354951D01*
X531513Y355011D01*
X531529Y355060D01*
X531529Y355116D01*
X531538Y355181D01*
X531538Y357086D01*
X532370Y359094D01*
X533906Y360630D01*
X535914Y361462D01*
X538086Y361462D01*
X540094Y360630D01*
X541630Y359094D01*
X542462Y357086D01*
X542462Y354914D01*
X541630Y352906D01*
X540094Y351370D01*
X538086Y350538D01*
X537848Y350538D01*
X537843Y350537D01*
X537838Y350538D01*
X537718Y350517D01*
X537599Y350499D01*
X537595Y350496D01*
X537589Y350495D01*
X537482Y350438D01*
X537375Y350383D01*
X537371Y350380D01*
X537367Y350377D01*
X537284Y350291D01*
X537198Y350204D01*
X537195Y350199D01*
X537192Y350196D01*
X537140Y350087D01*
X537085Y349978D01*
X537085Y349973D01*
X537082Y349969D01*
X537049Y349739D01*
X537049Y345754D01*
X537060Y345684D01*
X537061Y345613D01*
X537080Y345560D01*
X537088Y345505D01*
X537121Y345442D01*
X537144Y345375D01*
X537180Y345326D01*
X537204Y345281D01*
X537243Y345242D01*
X537283Y345189D01*
X547189Y335283D01*
X547246Y335241D01*
X547297Y335192D01*
X547347Y335168D01*
X547393Y335135D01*
X547460Y335113D01*
X547524Y335082D01*
X547584Y335074D01*
X547633Y335058D01*
X547689Y335058D01*
X547754Y335049D01*
X557263Y335049D01*
X563049Y329263D01*
X563049Y307737D01*
X554263Y298951D01*
X509737Y298951D01*
X504077Y304612D01*
X503995Y304671D01*
X503917Y304736D01*
X503893Y304745D01*
X503872Y304760D01*
X503776Y304791D01*
X503682Y304828D01*
X503657Y304829D01*
X503632Y304837D01*
X503531Y304836D01*
X503430Y304842D01*
X503404Y304835D01*
X503380Y304835D01*
X503308Y304811D01*
X503205Y304785D01*
X502609Y304538D01*
X500437Y304538D01*
X499154Y305070D01*
X499119Y305078D01*
X499087Y305094D01*
X498997Y305107D01*
X498909Y305128D01*
X498873Y305125D01*
X498838Y305130D01*
X498748Y305115D01*
X498657Y305107D01*
X498625Y305094D01*
X498589Y305087D01*
X498509Y305045D01*
X498425Y305009D01*
X498398Y304986D01*
X498367Y304969D01*
X498304Y304904D01*
X498235Y304844D01*
X498217Y304813D01*
X498192Y304788D01*
X498152Y304706D01*
X498106Y304628D01*
X498098Y304593D01*
X498082Y304561D01*
X498067Y304456D01*
X498050Y304382D01*
X498053Y304358D01*
X498049Y304331D01*
X498049Y263737D01*
X463263Y228951D01*
X457737Y228951D01*
G37*
%LPD*%
%LPC*%
G36*
X162914Y224538D02*
X162914Y224538D01*
X160906Y225370D01*
X159370Y226906D01*
X158538Y228914D01*
X158538Y231086D01*
X159370Y233094D01*
X160906Y234630D01*
X162914Y235462D01*
X164819Y235462D01*
X164889Y235473D01*
X164960Y235474D01*
X165013Y235493D01*
X165068Y235501D01*
X165131Y235534D01*
X165198Y235557D01*
X165246Y235593D01*
X165292Y235617D01*
X165331Y235656D01*
X165384Y235696D01*
X223717Y294029D01*
X223759Y294086D01*
X223808Y294137D01*
X223832Y294188D01*
X223865Y294233D01*
X223887Y294300D01*
X223918Y294364D01*
X223926Y294424D01*
X223942Y294473D01*
X223942Y294529D01*
X223951Y294594D01*
X223951Y560263D01*
X257737Y594049D01*
X549263Y594049D01*
X604029Y539283D01*
X604086Y539241D01*
X604137Y539192D01*
X604188Y539168D01*
X604233Y539135D01*
X604300Y539113D01*
X604364Y539082D01*
X604424Y539074D01*
X604473Y539058D01*
X604529Y539058D01*
X604594Y539049D01*
X835263Y539049D01*
X855616Y518696D01*
X855673Y518654D01*
X855724Y518605D01*
X855775Y518581D01*
X855820Y518548D01*
X855887Y518526D01*
X855951Y518495D01*
X856011Y518487D01*
X856060Y518471D01*
X856116Y518471D01*
X856181Y518462D01*
X858086Y518462D01*
X860094Y517630D01*
X861630Y516094D01*
X862462Y514086D01*
X862462Y511914D01*
X861630Y509906D01*
X860094Y508370D01*
X858086Y507538D01*
X855914Y507538D01*
X853906Y508370D01*
X852370Y509906D01*
X851538Y511914D01*
X851538Y513819D01*
X851527Y513889D01*
X851526Y513960D01*
X851507Y514013D01*
X851499Y514068D01*
X851466Y514131D01*
X851443Y514198D01*
X851407Y514246D01*
X851383Y514292D01*
X851344Y514331D01*
X851304Y514384D01*
X832971Y532717D01*
X832914Y532759D01*
X832863Y532808D01*
X832812Y532832D01*
X832767Y532865D01*
X832700Y532887D01*
X832636Y532918D01*
X832576Y532926D01*
X832527Y532942D01*
X832471Y532942D01*
X832406Y532951D01*
X601737Y532951D01*
X546971Y587717D01*
X546914Y587759D01*
X546863Y587808D01*
X546812Y587832D01*
X546767Y587865D01*
X546700Y587887D01*
X546636Y587918D01*
X546576Y587926D01*
X546527Y587942D01*
X546471Y587942D01*
X546406Y587951D01*
X260594Y587951D01*
X260524Y587940D01*
X260453Y587939D01*
X260400Y587920D01*
X260345Y587912D01*
X260282Y587879D01*
X260215Y587856D01*
X260167Y587820D01*
X260121Y587796D01*
X260082Y587757D01*
X260029Y587717D01*
X230283Y557971D01*
X230241Y557914D01*
X230192Y557863D01*
X230168Y557812D01*
X230135Y557767D01*
X230113Y557700D01*
X230082Y557636D01*
X230074Y557576D01*
X230058Y557527D01*
X230058Y557471D01*
X230049Y557406D01*
X230049Y291737D01*
X169696Y231384D01*
X169654Y231327D01*
X169605Y231276D01*
X169581Y231225D01*
X169548Y231180D01*
X169526Y231113D01*
X169495Y231049D01*
X169487Y230989D01*
X169471Y230940D01*
X169471Y230884D01*
X169462Y230819D01*
X169462Y228914D01*
X168630Y226906D01*
X167094Y225370D01*
X165086Y224538D01*
X162914Y224538D01*
G37*
%LPD*%
%LPC*%
G36*
X95201Y86577D02*
X95201Y86577D01*
X86519Y90174D01*
X79874Y96819D01*
X76277Y105501D01*
X76277Y114899D01*
X79874Y123581D01*
X86519Y130226D01*
X95201Y133823D01*
X104599Y133823D01*
X113281Y130226D01*
X119926Y123581D01*
X123523Y114899D01*
X123523Y105501D01*
X119926Y96819D01*
X113281Y90174D01*
X104599Y86577D01*
X95201Y86577D01*
G37*
%LPD*%
%LPC*%
G36*
X873601Y109177D02*
X873601Y109177D01*
X864919Y112774D01*
X858274Y119419D01*
X854677Y128101D01*
X854677Y137499D01*
X858274Y146181D01*
X864919Y152826D01*
X873601Y156423D01*
X882999Y156423D01*
X891681Y152826D01*
X898326Y146181D01*
X901923Y137499D01*
X901923Y128101D01*
X898326Y119419D01*
X891681Y112774D01*
X882999Y109177D01*
X873601Y109177D01*
G37*
%LPD*%
%LPC*%
G36*
X318914Y134538D02*
X318914Y134538D01*
X316906Y135370D01*
X315370Y136906D01*
X314538Y138914D01*
X314538Y141086D01*
X315370Y143094D01*
X316906Y144630D01*
X318914Y145462D01*
X321086Y145462D01*
X323094Y144630D01*
X324441Y143283D01*
X324499Y143241D01*
X324550Y143192D01*
X324600Y143168D01*
X324645Y143135D01*
X324713Y143113D01*
X324777Y143082D01*
X324836Y143074D01*
X324885Y143058D01*
X324941Y143058D01*
X325006Y143049D01*
X452406Y143049D01*
X452476Y143060D01*
X452547Y143061D01*
X452600Y143080D01*
X452655Y143088D01*
X452718Y143121D01*
X452785Y143144D01*
X452833Y143180D01*
X452879Y143204D01*
X452918Y143243D01*
X452971Y143283D01*
X522304Y212616D01*
X522346Y212673D01*
X522395Y212724D01*
X522419Y212775D01*
X522452Y212820D01*
X522474Y212887D01*
X522505Y212951D01*
X522513Y213011D01*
X522529Y213060D01*
X522529Y213116D01*
X522538Y213181D01*
X522538Y215086D01*
X523370Y217094D01*
X524906Y218630D01*
X526914Y219462D01*
X529086Y219462D01*
X531094Y218630D01*
X532630Y217094D01*
X533462Y215086D01*
X533462Y212914D01*
X532630Y210906D01*
X531094Y209370D01*
X529086Y208538D01*
X527181Y208538D01*
X527111Y208527D01*
X527040Y208526D01*
X526987Y208507D01*
X526932Y208499D01*
X526869Y208466D01*
X526802Y208443D01*
X526754Y208407D01*
X526708Y208383D01*
X526669Y208344D01*
X526616Y208304D01*
X455263Y136951D01*
X325006Y136951D01*
X324936Y136940D01*
X324865Y136939D01*
X324813Y136920D01*
X324757Y136912D01*
X324694Y136879D01*
X324627Y136856D01*
X324579Y136820D01*
X324533Y136796D01*
X324494Y136757D01*
X324441Y136717D01*
X323094Y135370D01*
X321086Y134538D01*
X318914Y134538D01*
G37*
%LPD*%
%LPC*%
G36*
X434914Y473538D02*
X434914Y473538D01*
X432906Y474370D01*
X431370Y475906D01*
X430538Y477914D01*
X430538Y479819D01*
X430527Y479889D01*
X430526Y479960D01*
X430507Y480013D01*
X430499Y480068D01*
X430466Y480131D01*
X430443Y480198D01*
X430407Y480246D01*
X430383Y480292D01*
X430344Y480331D01*
X430304Y480384D01*
X380971Y529717D01*
X380914Y529759D01*
X380863Y529808D01*
X380812Y529832D01*
X380767Y529865D01*
X380700Y529887D01*
X380636Y529918D01*
X380576Y529926D01*
X380527Y529942D01*
X380471Y529942D01*
X380406Y529951D01*
X347006Y529951D01*
X346936Y529940D01*
X346865Y529939D01*
X346813Y529920D01*
X346757Y529912D01*
X346694Y529879D01*
X346627Y529856D01*
X346579Y529820D01*
X346533Y529796D01*
X346494Y529757D01*
X346441Y529717D01*
X345094Y528370D01*
X343086Y527538D01*
X340914Y527538D01*
X338906Y528370D01*
X337370Y529906D01*
X336538Y531914D01*
X336538Y534086D01*
X337370Y536094D01*
X338906Y537630D01*
X340914Y538462D01*
X343086Y538462D01*
X345094Y537630D01*
X346441Y536283D01*
X346499Y536241D01*
X346550Y536192D01*
X346600Y536168D01*
X346645Y536135D01*
X346713Y536113D01*
X346777Y536082D01*
X346836Y536074D01*
X346885Y536058D01*
X346941Y536058D01*
X347006Y536049D01*
X383263Y536049D01*
X434616Y484696D01*
X434673Y484654D01*
X434724Y484605D01*
X434775Y484581D01*
X434820Y484548D01*
X434887Y484526D01*
X434951Y484495D01*
X435011Y484487D01*
X435060Y484471D01*
X435116Y484471D01*
X435181Y484462D01*
X437086Y484462D01*
X439094Y483630D01*
X440441Y482283D01*
X440499Y482241D01*
X440550Y482192D01*
X440600Y482168D01*
X440645Y482135D01*
X440713Y482113D01*
X440777Y482082D01*
X440836Y482074D01*
X440885Y482058D01*
X440941Y482058D01*
X441006Y482049D01*
X449406Y482049D01*
X449476Y482060D01*
X449547Y482061D01*
X449600Y482080D01*
X449655Y482088D01*
X449718Y482121D01*
X449785Y482144D01*
X449833Y482180D01*
X449879Y482204D01*
X449918Y482243D01*
X449971Y482283D01*
X471304Y503616D01*
X471346Y503673D01*
X471395Y503724D01*
X471419Y503775D01*
X471452Y503820D01*
X471474Y503887D01*
X471505Y503951D01*
X471513Y504011D01*
X471529Y504060D01*
X471529Y504116D01*
X471538Y504181D01*
X471538Y506086D01*
X472370Y508094D01*
X473906Y509630D01*
X475914Y510462D01*
X478086Y510462D01*
X480094Y509630D01*
X481630Y508094D01*
X482462Y506086D01*
X482462Y503914D01*
X481630Y501906D01*
X480094Y500370D01*
X478086Y499538D01*
X476181Y499538D01*
X476111Y499527D01*
X476040Y499526D01*
X475987Y499507D01*
X475932Y499499D01*
X475869Y499466D01*
X475802Y499443D01*
X475754Y499407D01*
X475708Y499383D01*
X475669Y499344D01*
X475616Y499304D01*
X452263Y475951D01*
X441006Y475951D01*
X440936Y475940D01*
X440865Y475939D01*
X440813Y475920D01*
X440757Y475912D01*
X440694Y475879D01*
X440627Y475856D01*
X440579Y475820D01*
X440533Y475796D01*
X440494Y475757D01*
X440441Y475717D01*
X439094Y474370D01*
X437086Y473538D01*
X434914Y473538D01*
G37*
%LPD*%
%LPC*%
G36*
X104914Y581538D02*
X104914Y581538D01*
X102906Y582370D01*
X101370Y583906D01*
X100538Y585914D01*
X100538Y588086D01*
X101370Y590094D01*
X102906Y591630D01*
X104914Y592462D01*
X106819Y592462D01*
X106889Y592473D01*
X106960Y592474D01*
X107013Y592493D01*
X107068Y592501D01*
X107131Y592534D01*
X107198Y592557D01*
X107246Y592593D01*
X107292Y592617D01*
X107331Y592656D01*
X107384Y592696D01*
X108717Y594029D01*
X108759Y594086D01*
X108808Y594137D01*
X108832Y594188D01*
X108865Y594233D01*
X108887Y594300D01*
X108918Y594364D01*
X108926Y594424D01*
X108942Y594473D01*
X108942Y594529D01*
X108951Y594594D01*
X108951Y750994D01*
X108940Y751064D01*
X108939Y751135D01*
X108920Y751187D01*
X108912Y751243D01*
X108879Y751306D01*
X108856Y751373D01*
X108820Y751421D01*
X108796Y751467D01*
X108757Y751506D01*
X108717Y751559D01*
X107370Y752906D01*
X106538Y754914D01*
X106538Y757086D01*
X107370Y759094D01*
X108906Y760630D01*
X110914Y761462D01*
X113086Y761462D01*
X115094Y760630D01*
X116630Y759094D01*
X117462Y757086D01*
X117462Y754914D01*
X116630Y752906D01*
X115283Y751559D01*
X115241Y751501D01*
X115192Y751450D01*
X115168Y751400D01*
X115135Y751355D01*
X115113Y751287D01*
X115082Y751223D01*
X115074Y751164D01*
X115058Y751115D01*
X115058Y751059D01*
X115049Y750994D01*
X115049Y591737D01*
X111696Y588384D01*
X111654Y588327D01*
X111605Y588276D01*
X111581Y588225D01*
X111548Y588180D01*
X111526Y588113D01*
X111495Y588049D01*
X111487Y587989D01*
X111471Y587940D01*
X111471Y587884D01*
X111462Y587819D01*
X111462Y585914D01*
X110630Y583906D01*
X109094Y582370D01*
X107086Y581538D01*
X104914Y581538D01*
G37*
%LPD*%
%LPC*%
G36*
X778110Y951259D02*
X778110Y951259D01*
X772030Y953777D01*
X767377Y958430D01*
X764859Y964510D01*
X764859Y971090D01*
X767377Y977170D01*
X772030Y981823D01*
X778110Y984341D01*
X784690Y984341D01*
X790770Y981823D01*
X795423Y977170D01*
X797941Y971090D01*
X797941Y964510D01*
X795423Y958430D01*
X790770Y953777D01*
X784690Y951259D01*
X778110Y951259D01*
G37*
%LPD*%
%LPC*%
G36*
X28110Y951259D02*
X28110Y951259D01*
X22030Y953777D01*
X17377Y958430D01*
X14859Y964510D01*
X14859Y971090D01*
X17377Y977170D01*
X22030Y981823D01*
X28110Y984341D01*
X34690Y984341D01*
X40770Y981823D01*
X45423Y977170D01*
X47941Y971090D01*
X47941Y964510D01*
X45423Y958430D01*
X40770Y953777D01*
X34690Y951259D01*
X28110Y951259D01*
G37*
%LPD*%
%LPC*%
G36*
X28110Y641259D02*
X28110Y641259D01*
X22030Y643777D01*
X17377Y648430D01*
X14859Y654510D01*
X14859Y661090D01*
X17377Y667170D01*
X22030Y671823D01*
X28110Y674341D01*
X34690Y674341D01*
X40770Y671823D01*
X45423Y667170D01*
X47941Y661090D01*
X47941Y654510D01*
X45423Y648430D01*
X40770Y643777D01*
X34690Y641259D01*
X28110Y641259D01*
G37*
%LPD*%
%LPC*%
G36*
X778110Y641259D02*
X778110Y641259D01*
X772030Y643777D01*
X767377Y648430D01*
X764859Y654510D01*
X764859Y661090D01*
X767377Y667170D01*
X772030Y671823D01*
X778110Y674341D01*
X784690Y674341D01*
X790770Y671823D01*
X795423Y667170D01*
X797941Y661090D01*
X797941Y654510D01*
X795423Y648430D01*
X790770Y643777D01*
X784690Y641259D01*
X778110Y641259D01*
G37*
%LPD*%
%LPC*%
G36*
X892914Y309538D02*
X892914Y309538D01*
X890906Y310370D01*
X889370Y311906D01*
X888538Y313914D01*
X888538Y316086D01*
X889370Y318094D01*
X890717Y319441D01*
X890759Y319499D01*
X890808Y319550D01*
X890832Y319600D01*
X890865Y319645D01*
X890887Y319713D01*
X890918Y319777D01*
X890926Y319836D01*
X890942Y319885D01*
X890942Y319941D01*
X890951Y320006D01*
X890951Y348263D01*
X904717Y362029D01*
X904759Y362086D01*
X904808Y362137D01*
X904832Y362188D01*
X904865Y362233D01*
X904887Y362300D01*
X904918Y362364D01*
X904926Y362424D01*
X904942Y362473D01*
X904942Y362529D01*
X904951Y362594D01*
X904951Y396406D01*
X904940Y396476D01*
X904939Y396547D01*
X904920Y396600D01*
X904912Y396655D01*
X904879Y396718D01*
X904856Y396785D01*
X904820Y396833D01*
X904796Y396879D01*
X904757Y396918D01*
X904717Y396971D01*
X889384Y412304D01*
X889327Y412346D01*
X889276Y412395D01*
X889225Y412419D01*
X889180Y412452D01*
X889113Y412474D01*
X889049Y412505D01*
X888989Y412513D01*
X888940Y412529D01*
X888884Y412529D01*
X888819Y412538D01*
X886914Y412538D01*
X884906Y413370D01*
X883370Y414906D01*
X882538Y416914D01*
X882538Y419086D01*
X883370Y421094D01*
X884906Y422630D01*
X886914Y423462D01*
X889086Y423462D01*
X891094Y422630D01*
X892630Y421094D01*
X893462Y419086D01*
X893462Y417181D01*
X893473Y417111D01*
X893474Y417040D01*
X893493Y416987D01*
X893501Y416932D01*
X893534Y416869D01*
X893557Y416802D01*
X893593Y416754D01*
X893617Y416708D01*
X893656Y416669D01*
X893696Y416616D01*
X911049Y399263D01*
X911049Y359737D01*
X897283Y345971D01*
X897244Y345917D01*
X897211Y345884D01*
X897209Y345880D01*
X897192Y345863D01*
X897168Y345812D01*
X897135Y345767D01*
X897113Y345700D01*
X897082Y345636D01*
X897074Y345576D01*
X897058Y345527D01*
X897058Y345471D01*
X897049Y345406D01*
X897049Y320006D01*
X897060Y319936D01*
X897061Y319865D01*
X897080Y319813D01*
X897088Y319757D01*
X897121Y319694D01*
X897144Y319627D01*
X897180Y319579D01*
X897204Y319533D01*
X897243Y319494D01*
X897283Y319441D01*
X898630Y318094D01*
X899462Y316086D01*
X899462Y313914D01*
X898630Y311906D01*
X897094Y310370D01*
X895086Y309538D01*
X892914Y309538D01*
G37*
%LPD*%
%LPC*%
G36*
X899914Y613538D02*
X899914Y613538D01*
X897906Y614370D01*
X896370Y615906D01*
X896141Y616458D01*
X896088Y616544D01*
X896041Y616633D01*
X896023Y616651D01*
X896009Y616673D01*
X895932Y616738D01*
X895859Y616808D01*
X895837Y616819D01*
X895817Y616836D01*
X895723Y616874D01*
X895632Y616918D01*
X895606Y616921D01*
X895584Y616931D01*
X895508Y616936D01*
X895403Y616951D01*
X828006Y616951D01*
X827936Y616940D01*
X827865Y616939D01*
X827813Y616920D01*
X827757Y616912D01*
X827694Y616879D01*
X827627Y616856D01*
X827579Y616820D01*
X827533Y616796D01*
X827494Y616757D01*
X827441Y616717D01*
X826094Y615370D01*
X824086Y614538D01*
X821914Y614538D01*
X819906Y615370D01*
X818370Y616906D01*
X817538Y618914D01*
X817538Y621086D01*
X818370Y623094D01*
X819906Y624630D01*
X821914Y625462D01*
X824086Y625462D01*
X826094Y624630D01*
X827441Y623283D01*
X827499Y623241D01*
X827550Y623192D01*
X827600Y623168D01*
X827645Y623135D01*
X827713Y623113D01*
X827777Y623082D01*
X827836Y623074D01*
X827885Y623058D01*
X827941Y623058D01*
X828006Y623049D01*
X896994Y623049D01*
X897064Y623060D01*
X897135Y623061D01*
X897187Y623080D01*
X897243Y623088D01*
X897306Y623121D01*
X897373Y623144D01*
X897421Y623180D01*
X897467Y623204D01*
X897506Y623243D01*
X897559Y623283D01*
X897906Y623630D01*
X899914Y624462D01*
X902086Y624462D01*
X904094Y623630D01*
X905630Y622094D01*
X906462Y620086D01*
X906462Y617914D01*
X905630Y615906D01*
X904094Y614370D01*
X902086Y613538D01*
X899914Y613538D01*
G37*
%LPD*%
%LPC*%
G36*
X929660Y687647D02*
X929660Y687647D01*
X926112Y689117D01*
X923397Y691832D01*
X921927Y695380D01*
X921927Y699220D01*
X923397Y702768D01*
X926112Y705483D01*
X929660Y706953D01*
X948740Y706953D01*
X952288Y705483D01*
X955003Y702768D01*
X956473Y699220D01*
X956473Y695380D01*
X955003Y691832D01*
X952288Y689117D01*
X948740Y687647D01*
X929660Y687647D01*
G37*
%LPD*%
%LPC*%
G36*
X929660Y662247D02*
X929660Y662247D01*
X926112Y663717D01*
X923397Y666432D01*
X921927Y669980D01*
X921927Y673820D01*
X923397Y677368D01*
X926112Y680083D01*
X929660Y681553D01*
X948740Y681553D01*
X952288Y680083D01*
X955003Y677368D01*
X956473Y673820D01*
X956473Y669980D01*
X955003Y666432D01*
X952288Y663717D01*
X948740Y662247D01*
X929660Y662247D01*
G37*
%LPD*%
%LPC*%
G36*
X929660Y636847D02*
X929660Y636847D01*
X926112Y638317D01*
X923397Y641032D01*
X921927Y644580D01*
X921927Y648420D01*
X923397Y651968D01*
X926112Y654683D01*
X929660Y656153D01*
X948740Y656153D01*
X952288Y654683D01*
X955003Y651968D01*
X956473Y648420D01*
X956473Y644580D01*
X955003Y641032D01*
X952288Y638317D01*
X948740Y636847D01*
X929660Y636847D01*
G37*
%LPD*%
%LPC*%
G36*
X669914Y450538D02*
X669914Y450538D01*
X667906Y451370D01*
X666370Y452906D01*
X665538Y454914D01*
X665538Y456819D01*
X665527Y456889D01*
X665526Y456960D01*
X665507Y457013D01*
X665499Y457068D01*
X665466Y457131D01*
X665443Y457198D01*
X665407Y457246D01*
X665383Y457292D01*
X665344Y457331D01*
X665304Y457384D01*
X646971Y475717D01*
X646914Y475759D01*
X646863Y475808D01*
X646812Y475832D01*
X646767Y475865D01*
X646700Y475887D01*
X646636Y475918D01*
X646576Y475926D01*
X646527Y475942D01*
X646471Y475942D01*
X646406Y475951D01*
X623597Y475951D01*
X623497Y475935D01*
X623397Y475926D01*
X623373Y475916D01*
X623348Y475912D01*
X623258Y475865D01*
X623166Y475825D01*
X623147Y475808D01*
X623124Y475796D01*
X623053Y475724D01*
X622978Y475657D01*
X622964Y475634D01*
X622947Y475617D01*
X622913Y475549D01*
X622859Y475458D01*
X622630Y474906D01*
X621094Y473370D01*
X619086Y472538D01*
X616914Y472538D01*
X614906Y473370D01*
X613370Y474906D01*
X612538Y476914D01*
X612538Y479086D01*
X613370Y481094D01*
X614906Y482630D01*
X616914Y483462D01*
X619086Y483462D01*
X621094Y482630D01*
X621441Y482283D01*
X621499Y482241D01*
X621550Y482192D01*
X621600Y482168D01*
X621645Y482135D01*
X621713Y482113D01*
X621777Y482082D01*
X621836Y482074D01*
X621885Y482058D01*
X621941Y482058D01*
X622006Y482049D01*
X649263Y482049D01*
X669616Y461696D01*
X669673Y461654D01*
X669724Y461605D01*
X669775Y461581D01*
X669820Y461548D01*
X669887Y461526D01*
X669951Y461495D01*
X670011Y461487D01*
X670060Y461471D01*
X670116Y461471D01*
X670181Y461462D01*
X672086Y461462D01*
X674094Y460630D01*
X675630Y459094D01*
X676462Y457086D01*
X676462Y454914D01*
X675630Y452906D01*
X674094Y451370D01*
X672086Y450538D01*
X669914Y450538D01*
G37*
%LPD*%
%LPC*%
G36*
X500914Y150538D02*
X500914Y150538D01*
X498906Y151370D01*
X497370Y152906D01*
X496538Y154914D01*
X496538Y157086D01*
X497370Y159094D01*
X498906Y160630D01*
X500914Y161462D01*
X503086Y161462D01*
X505094Y160630D01*
X506441Y159283D01*
X506499Y159241D01*
X506550Y159192D01*
X506600Y159168D01*
X506645Y159135D01*
X506713Y159113D01*
X506777Y159082D01*
X506836Y159074D01*
X506885Y159058D01*
X506941Y159058D01*
X507006Y159049D01*
X515406Y159049D01*
X515476Y159060D01*
X515547Y159061D01*
X515600Y159080D01*
X515655Y159088D01*
X515718Y159121D01*
X515785Y159144D01*
X515833Y159180D01*
X515879Y159204D01*
X515918Y159243D01*
X515971Y159283D01*
X540304Y183616D01*
X540346Y183673D01*
X540395Y183724D01*
X540419Y183775D01*
X540452Y183820D01*
X540474Y183887D01*
X540505Y183951D01*
X540513Y184011D01*
X540529Y184060D01*
X540529Y184116D01*
X540538Y184181D01*
X540538Y186086D01*
X541370Y188094D01*
X542906Y189630D01*
X544914Y190462D01*
X547086Y190462D01*
X549094Y189630D01*
X550630Y188094D01*
X551462Y186086D01*
X551462Y183914D01*
X550630Y181906D01*
X549094Y180370D01*
X547086Y179538D01*
X545181Y179538D01*
X545111Y179527D01*
X545040Y179526D01*
X544987Y179507D01*
X544932Y179499D01*
X544869Y179466D01*
X544802Y179443D01*
X544754Y179407D01*
X544708Y179383D01*
X544669Y179344D01*
X544616Y179304D01*
X518263Y152951D01*
X507006Y152951D01*
X506936Y152940D01*
X506865Y152939D01*
X506813Y152920D01*
X506757Y152912D01*
X506694Y152879D01*
X506627Y152856D01*
X506579Y152820D01*
X506533Y152796D01*
X506494Y152757D01*
X506441Y152717D01*
X505094Y151370D01*
X503086Y150538D01*
X500914Y150538D01*
G37*
%LPD*%
%LPC*%
G36*
X99914Y274538D02*
X99914Y274538D01*
X97906Y275370D01*
X96370Y276906D01*
X95538Y278914D01*
X95538Y281086D01*
X96370Y283094D01*
X97906Y284630D01*
X99914Y285462D01*
X102086Y285462D01*
X104094Y284630D01*
X105441Y283283D01*
X105499Y283241D01*
X105550Y283192D01*
X105600Y283168D01*
X105645Y283135D01*
X105713Y283113D01*
X105777Y283082D01*
X105836Y283074D01*
X105885Y283058D01*
X105941Y283058D01*
X106006Y283049D01*
X140406Y283049D01*
X140476Y283060D01*
X140547Y283061D01*
X140600Y283080D01*
X140655Y283088D01*
X140718Y283121D01*
X140785Y283144D01*
X140833Y283180D01*
X140879Y283204D01*
X140907Y283232D01*
X140908Y283233D01*
X140920Y283245D01*
X140971Y283283D01*
X141472Y283784D01*
X141532Y283866D01*
X141596Y283944D01*
X141605Y283967D01*
X141620Y283988D01*
X141651Y284084D01*
X141688Y284178D01*
X141689Y284204D01*
X141697Y284228D01*
X141696Y284329D01*
X141702Y284430D01*
X141696Y284456D01*
X141696Y284480D01*
X141671Y284552D01*
X141645Y284655D01*
X141538Y284914D01*
X141538Y287086D01*
X142370Y289094D01*
X143906Y290630D01*
X145914Y291462D01*
X148086Y291462D01*
X150094Y290630D01*
X151630Y289094D01*
X152462Y287086D01*
X152462Y284914D01*
X151630Y282906D01*
X150094Y281370D01*
X148086Y280538D01*
X147181Y280538D01*
X147111Y280527D01*
X147040Y280526D01*
X146987Y280507D01*
X146932Y280499D01*
X146869Y280466D01*
X146802Y280443D01*
X146754Y280407D01*
X146708Y280383D01*
X146669Y280344D01*
X146616Y280304D01*
X143263Y276951D01*
X106006Y276951D01*
X105936Y276940D01*
X105865Y276939D01*
X105813Y276920D01*
X105757Y276912D01*
X105694Y276879D01*
X105627Y276856D01*
X105579Y276820D01*
X105533Y276796D01*
X105494Y276757D01*
X105441Y276717D01*
X104094Y275370D01*
X102086Y274538D01*
X99914Y274538D01*
G37*
%LPD*%
%LPC*%
G36*
X759914Y349538D02*
X759914Y349538D01*
X757906Y350370D01*
X756370Y351906D01*
X755538Y353914D01*
X755538Y355819D01*
X755527Y355889D01*
X755526Y355960D01*
X755507Y356013D01*
X755499Y356068D01*
X755466Y356131D01*
X755443Y356198D01*
X755407Y356246D01*
X755383Y356292D01*
X755344Y356331D01*
X755304Y356384D01*
X753951Y357737D01*
X753951Y395403D01*
X753935Y395503D01*
X753926Y395603D01*
X753916Y395627D01*
X753912Y395652D01*
X753865Y395742D01*
X753825Y395834D01*
X753808Y395853D01*
X753796Y395876D01*
X753724Y395947D01*
X753657Y396022D01*
X753634Y396036D01*
X753617Y396053D01*
X753549Y396087D01*
X753458Y396141D01*
X752906Y396370D01*
X751370Y397906D01*
X750538Y399914D01*
X750538Y402086D01*
X751370Y404094D01*
X752906Y405630D01*
X754914Y406462D01*
X757086Y406462D01*
X759094Y405630D01*
X760630Y404094D01*
X761462Y402086D01*
X761462Y399914D01*
X760630Y397906D01*
X760283Y397559D01*
X760241Y397501D01*
X760192Y397450D01*
X760168Y397400D01*
X760135Y397355D01*
X760113Y397287D01*
X760082Y397223D01*
X760074Y397164D01*
X760058Y397115D01*
X760058Y397059D01*
X760049Y396994D01*
X760049Y361261D01*
X760050Y361256D01*
X760049Y361251D01*
X760070Y361131D01*
X760088Y361012D01*
X760091Y361008D01*
X760092Y361002D01*
X760149Y360895D01*
X760204Y360788D01*
X760207Y360784D01*
X760210Y360780D01*
X760296Y360697D01*
X760383Y360611D01*
X760388Y360608D01*
X760391Y360605D01*
X760500Y360553D01*
X760609Y360498D01*
X760614Y360498D01*
X760618Y360495D01*
X760848Y360462D01*
X762086Y360462D01*
X764094Y359630D01*
X765630Y358094D01*
X766462Y356086D01*
X766462Y353914D01*
X765630Y351906D01*
X764094Y350370D01*
X762086Y349538D01*
X759914Y349538D01*
G37*
%LPD*%
%LPC*%
G36*
X261926Y956369D02*
X261926Y956369D01*
X257725Y958109D01*
X254509Y961325D01*
X252769Y965526D01*
X252769Y970074D01*
X254509Y974275D01*
X257725Y977491D01*
X261926Y979231D01*
X266474Y979231D01*
X270675Y977491D01*
X273891Y974275D01*
X275631Y970074D01*
X275631Y965526D01*
X273891Y961325D01*
X270675Y958109D01*
X266474Y956369D01*
X261926Y956369D01*
G37*
%LPD*%
%LPC*%
G36*
X236526Y956369D02*
X236526Y956369D01*
X232325Y958109D01*
X229109Y961325D01*
X227369Y965526D01*
X227369Y970074D01*
X229109Y974275D01*
X232325Y977491D01*
X236526Y979231D01*
X241074Y979231D01*
X245275Y977491D01*
X248491Y974275D01*
X250231Y970074D01*
X250231Y965526D01*
X248491Y961325D01*
X245275Y958109D01*
X241074Y956369D01*
X236526Y956369D01*
G37*
%LPD*%
%LPC*%
G36*
X211126Y956369D02*
X211126Y956369D01*
X206925Y958109D01*
X203709Y961325D01*
X201969Y965526D01*
X201969Y970074D01*
X203709Y974275D01*
X206925Y977491D01*
X211126Y979231D01*
X215674Y979231D01*
X219875Y977491D01*
X223091Y974275D01*
X224831Y970074D01*
X224831Y965526D01*
X223091Y961325D01*
X219875Y958109D01*
X215674Y956369D01*
X211126Y956369D01*
G37*
%LPD*%
%LPC*%
G36*
X439726Y956369D02*
X439726Y956369D01*
X435525Y958109D01*
X432309Y961325D01*
X430569Y965526D01*
X430569Y970074D01*
X432309Y974275D01*
X435525Y977491D01*
X439726Y979231D01*
X444274Y979231D01*
X448475Y977491D01*
X451691Y974275D01*
X453431Y970074D01*
X453431Y965526D01*
X451691Y961325D01*
X448475Y958109D01*
X444274Y956369D01*
X439726Y956369D01*
G37*
%LPD*%
%LPC*%
G36*
X414326Y956369D02*
X414326Y956369D01*
X410125Y958109D01*
X406909Y961325D01*
X405169Y965526D01*
X405169Y970074D01*
X406909Y974275D01*
X410125Y977491D01*
X414326Y979231D01*
X418874Y979231D01*
X423075Y977491D01*
X426291Y974275D01*
X428031Y970074D01*
X428031Y965526D01*
X426291Y961325D01*
X423075Y958109D01*
X418874Y956369D01*
X414326Y956369D01*
G37*
%LPD*%
%LPC*%
G36*
X388926Y956369D02*
X388926Y956369D01*
X384725Y958109D01*
X381509Y961325D01*
X379769Y965526D01*
X379769Y970074D01*
X381509Y974275D01*
X384725Y977491D01*
X388926Y979231D01*
X393474Y979231D01*
X397675Y977491D01*
X400891Y974275D01*
X402631Y970074D01*
X402631Y965526D01*
X400891Y961325D01*
X397675Y958109D01*
X393474Y956369D01*
X388926Y956369D01*
G37*
%LPD*%
%LPC*%
G36*
X363526Y956369D02*
X363526Y956369D01*
X359325Y958109D01*
X356109Y961325D01*
X354369Y965526D01*
X354369Y970074D01*
X356109Y974275D01*
X359325Y977491D01*
X363526Y979231D01*
X368074Y979231D01*
X372275Y977491D01*
X375491Y974275D01*
X377231Y970074D01*
X377231Y965526D01*
X375491Y961325D01*
X372275Y958109D01*
X368074Y956369D01*
X363526Y956369D01*
G37*
%LPD*%
%LPC*%
G36*
X338126Y956369D02*
X338126Y956369D01*
X333925Y958109D01*
X330709Y961325D01*
X328969Y965526D01*
X328969Y970074D01*
X330709Y974275D01*
X333925Y977491D01*
X338126Y979231D01*
X342674Y979231D01*
X346875Y977491D01*
X350091Y974275D01*
X351831Y970074D01*
X351831Y965526D01*
X350091Y961325D01*
X346875Y958109D01*
X342674Y956369D01*
X338126Y956369D01*
G37*
%LPD*%
%LPC*%
G36*
X312726Y956369D02*
X312726Y956369D01*
X308525Y958109D01*
X305309Y961325D01*
X303569Y965526D01*
X303569Y970074D01*
X305309Y974275D01*
X308525Y977491D01*
X312726Y979231D01*
X317274Y979231D01*
X321475Y977491D01*
X324691Y974275D01*
X326431Y970074D01*
X326431Y965526D01*
X324691Y961325D01*
X321475Y958109D01*
X317274Y956369D01*
X312726Y956369D01*
G37*
%LPD*%
%LPC*%
G36*
X109526Y956369D02*
X109526Y956369D01*
X105325Y958109D01*
X102109Y961325D01*
X100369Y965526D01*
X100369Y970074D01*
X102109Y974275D01*
X105325Y977491D01*
X109526Y979231D01*
X114074Y979231D01*
X118275Y977491D01*
X121491Y974275D01*
X123231Y970074D01*
X123231Y965526D01*
X121491Y961325D01*
X118275Y958109D01*
X114074Y956369D01*
X109526Y956369D01*
G37*
%LPD*%
%LPC*%
G36*
X134926Y956369D02*
X134926Y956369D01*
X130725Y958109D01*
X127509Y961325D01*
X125769Y965526D01*
X125769Y970074D01*
X127509Y974275D01*
X130725Y977491D01*
X134926Y979231D01*
X139474Y979231D01*
X143675Y977491D01*
X146891Y974275D01*
X148631Y970074D01*
X148631Y965526D01*
X146891Y961325D01*
X143675Y958109D01*
X139474Y956369D01*
X134926Y956369D01*
G37*
%LPD*%
%LPC*%
G36*
X160326Y956369D02*
X160326Y956369D01*
X156125Y958109D01*
X152909Y961325D01*
X151169Y965526D01*
X151169Y970074D01*
X152909Y974275D01*
X156125Y977491D01*
X160326Y979231D01*
X164874Y979231D01*
X169075Y977491D01*
X172291Y974275D01*
X174031Y970074D01*
X174031Y965526D01*
X172291Y961325D01*
X169075Y958109D01*
X164874Y956369D01*
X160326Y956369D01*
G37*
%LPD*%
%LPC*%
G36*
X287326Y956369D02*
X287326Y956369D01*
X283125Y958109D01*
X279909Y961325D01*
X278169Y965526D01*
X278169Y970074D01*
X279909Y974275D01*
X283125Y977491D01*
X287326Y979231D01*
X291874Y979231D01*
X296075Y977491D01*
X299291Y974275D01*
X301031Y970074D01*
X301031Y965526D01*
X299291Y961325D01*
X296075Y958109D01*
X291874Y956369D01*
X287326Y956369D01*
G37*
%LPD*%
%LPC*%
G36*
X909899Y181399D02*
X909899Y181399D01*
X909899Y203903D01*
X912348Y203627D01*
X914991Y203024D01*
X917549Y202129D01*
X919991Y200953D01*
X922286Y199511D01*
X924405Y197821D01*
X926321Y195905D01*
X928011Y193786D01*
X929453Y191491D01*
X930629Y189049D01*
X931524Y186491D01*
X932127Y183848D01*
X932403Y181399D01*
X909899Y181399D01*
G37*
%LPD*%
%LPC*%
G36*
X41499Y111799D02*
X41499Y111799D01*
X41499Y134303D01*
X43948Y134027D01*
X46591Y133424D01*
X49149Y132529D01*
X51591Y131353D01*
X53886Y129911D01*
X56005Y128221D01*
X57921Y126305D01*
X59611Y124186D01*
X61053Y121891D01*
X62229Y119449D01*
X63124Y116891D01*
X63727Y114248D01*
X64003Y111799D01*
X41499Y111799D01*
G37*
%LPD*%
%LPC*%
G36*
X939899Y134399D02*
X939899Y134399D01*
X939899Y156903D01*
X942348Y156627D01*
X944991Y156024D01*
X947549Y155129D01*
X949991Y153953D01*
X952286Y152511D01*
X954405Y150821D01*
X956321Y148905D01*
X958011Y146786D01*
X959453Y144491D01*
X960629Y142049D01*
X961524Y139491D01*
X962127Y136848D01*
X962403Y134399D01*
X939899Y134399D01*
G37*
%LPD*%
%LPC*%
G36*
X71499Y64799D02*
X71499Y64799D01*
X71499Y87303D01*
X73948Y87027D01*
X76591Y86424D01*
X79149Y85529D01*
X81591Y84353D01*
X83886Y82911D01*
X86005Y81221D01*
X87921Y79305D01*
X89611Y77186D01*
X91053Y74891D01*
X92229Y72449D01*
X93124Y69891D01*
X93727Y67248D01*
X94003Y64799D01*
X71499Y64799D01*
G37*
%LPD*%
%LPC*%
G36*
X909899Y178201D02*
X909899Y178201D01*
X932403Y178201D01*
X932127Y175752D01*
X931524Y173109D01*
X930629Y170551D01*
X929453Y168109D01*
X928011Y165814D01*
X926321Y163695D01*
X924405Y161779D01*
X922286Y160089D01*
X919991Y158647D01*
X917549Y157471D01*
X914991Y156576D01*
X912348Y155973D01*
X909899Y155697D01*
X909899Y178201D01*
G37*
%LPD*%
%LPC*%
G36*
X884197Y181399D02*
X884197Y181399D01*
X884473Y183848D01*
X885076Y186491D01*
X885971Y189049D01*
X887147Y191491D01*
X888589Y193786D01*
X890279Y195905D01*
X892195Y197821D01*
X894314Y199511D01*
X896609Y200953D01*
X899051Y202129D01*
X901609Y203024D01*
X904252Y203627D01*
X906701Y203903D01*
X906701Y181399D01*
X884197Y181399D01*
G37*
%LPD*%
%LPC*%
G36*
X71499Y61601D02*
X71499Y61601D01*
X94003Y61601D01*
X93727Y59152D01*
X93124Y56509D01*
X92229Y53951D01*
X91053Y51509D01*
X89611Y49214D01*
X87921Y47095D01*
X86005Y45179D01*
X83886Y43489D01*
X81591Y42047D01*
X79149Y40871D01*
X76591Y39976D01*
X73948Y39373D01*
X71499Y39097D01*
X71499Y61601D01*
G37*
%LPD*%
%LPC*%
G36*
X939899Y131201D02*
X939899Y131201D01*
X962403Y131201D01*
X962127Y128752D01*
X961524Y126109D01*
X960629Y123551D01*
X959453Y121109D01*
X958011Y118814D01*
X956321Y116695D01*
X954405Y114779D01*
X952286Y113089D01*
X949991Y111647D01*
X947549Y110471D01*
X944991Y109576D01*
X942348Y108973D01*
X939899Y108697D01*
X939899Y131201D01*
G37*
%LPD*%
%LPC*%
G36*
X15797Y111799D02*
X15797Y111799D01*
X16073Y114248D01*
X16676Y116891D01*
X17571Y119449D01*
X18747Y121891D01*
X20189Y124186D01*
X21879Y126305D01*
X23795Y128221D01*
X25914Y129911D01*
X28209Y131353D01*
X30651Y132529D01*
X33209Y133424D01*
X35852Y134027D01*
X38301Y134303D01*
X38301Y111799D01*
X15797Y111799D01*
G37*
%LPD*%
%LPC*%
G36*
X45797Y64799D02*
X45797Y64799D01*
X46073Y67248D01*
X46676Y69891D01*
X47571Y72449D01*
X48747Y74891D01*
X50189Y77186D01*
X51879Y79305D01*
X53795Y81221D01*
X55914Y82911D01*
X58209Y84353D01*
X60651Y85529D01*
X63209Y86424D01*
X65852Y87027D01*
X68301Y87303D01*
X68301Y64799D01*
X45797Y64799D01*
G37*
%LPD*%
%LPC*%
G36*
X914197Y134399D02*
X914197Y134399D01*
X914473Y136848D01*
X915076Y139491D01*
X915971Y142049D01*
X917147Y144491D01*
X918589Y146786D01*
X920279Y148905D01*
X922195Y150821D01*
X924314Y152511D01*
X926609Y153953D01*
X929051Y155129D01*
X931609Y156024D01*
X934252Y156627D01*
X936701Y156903D01*
X936701Y134399D01*
X914197Y134399D01*
G37*
%LPD*%
%LPC*%
G36*
X41499Y108601D02*
X41499Y108601D01*
X64003Y108601D01*
X63727Y106152D01*
X63124Y103509D01*
X62229Y100951D01*
X61053Y98509D01*
X59611Y96214D01*
X57921Y94095D01*
X56005Y92179D01*
X53886Y90489D01*
X51591Y89047D01*
X49149Y87871D01*
X46591Y86976D01*
X43948Y86373D01*
X41499Y86097D01*
X41499Y108601D01*
G37*
%LPD*%
%LPC*%
G36*
X934252Y108973D02*
X934252Y108973D01*
X931609Y109576D01*
X929051Y110471D01*
X926609Y111647D01*
X924314Y113089D01*
X922195Y114779D01*
X920279Y116695D01*
X918589Y118814D01*
X917147Y121109D01*
X915971Y123551D01*
X915076Y126109D01*
X914473Y128752D01*
X914197Y131201D01*
X936701Y131201D01*
X936701Y108697D01*
X934252Y108973D01*
G37*
%LPD*%
%LPC*%
G36*
X35852Y86373D02*
X35852Y86373D01*
X33209Y86976D01*
X30651Y87871D01*
X28209Y89047D01*
X25914Y90489D01*
X23795Y92179D01*
X21879Y94095D01*
X20189Y96214D01*
X18747Y98509D01*
X17571Y100951D01*
X16676Y103509D01*
X16073Y106152D01*
X15797Y108601D01*
X38301Y108601D01*
X38301Y86097D01*
X35852Y86373D01*
G37*
%LPD*%
%LPC*%
G36*
X65852Y39373D02*
X65852Y39373D01*
X63209Y39976D01*
X60651Y40871D01*
X58209Y42047D01*
X55914Y43489D01*
X53795Y45179D01*
X51879Y47095D01*
X50189Y49214D01*
X48747Y51509D01*
X47571Y53951D01*
X46676Y56509D01*
X46073Y59152D01*
X45797Y61601D01*
X68301Y61601D01*
X68301Y39097D01*
X65852Y39373D01*
G37*
%LPD*%
%LPC*%
G36*
X904252Y155973D02*
X904252Y155973D01*
X901609Y156576D01*
X899051Y157471D01*
X896609Y158647D01*
X894314Y160089D01*
X892195Y161779D01*
X890279Y163695D01*
X888589Y165814D01*
X887147Y168109D01*
X885971Y170551D01*
X885076Y173109D01*
X884473Y175752D01*
X884197Y178201D01*
X906701Y178201D01*
X906701Y155697D01*
X904252Y155973D01*
G37*
%LPD*%
%LPC*%
G36*
X429779Y281939D02*
X429779Y281939D01*
X426044Y283486D01*
X423186Y286344D01*
X421639Y290079D01*
X421639Y294121D01*
X423186Y297856D01*
X426044Y300714D01*
X429779Y302261D01*
X433821Y302261D01*
X437556Y300714D01*
X440414Y297856D01*
X441961Y294121D01*
X441961Y290079D01*
X440414Y286344D01*
X437556Y283486D01*
X433821Y281939D01*
X429779Y281939D01*
G37*
%LPD*%
%LPC*%
G36*
X404379Y281939D02*
X404379Y281939D01*
X400644Y283486D01*
X397786Y286344D01*
X396239Y290079D01*
X396239Y294121D01*
X397786Y297856D01*
X400644Y300714D01*
X404379Y302261D01*
X408421Y302261D01*
X412156Y300714D01*
X415014Y297856D01*
X416561Y294121D01*
X416561Y290079D01*
X415014Y286344D01*
X412156Y283486D01*
X408421Y281939D01*
X404379Y281939D01*
G37*
%LPD*%
%LPC*%
G36*
X429779Y256539D02*
X429779Y256539D01*
X426044Y258086D01*
X423186Y260944D01*
X421639Y264679D01*
X421639Y268721D01*
X423186Y272456D01*
X426044Y275314D01*
X429779Y276861D01*
X433821Y276861D01*
X437556Y275314D01*
X440414Y272456D01*
X441961Y268721D01*
X441961Y264679D01*
X440414Y260944D01*
X437556Y258086D01*
X433821Y256539D01*
X429779Y256539D01*
G37*
%LPD*%
%LPC*%
G36*
X404379Y256539D02*
X404379Y256539D01*
X400644Y258086D01*
X397786Y260944D01*
X396239Y264679D01*
X396239Y268721D01*
X397786Y272456D01*
X400644Y275314D01*
X404379Y276861D01*
X408421Y276861D01*
X412156Y275314D01*
X415014Y272456D01*
X416561Y268721D01*
X416561Y264679D01*
X415014Y260944D01*
X412156Y258086D01*
X408421Y256539D01*
X404379Y256539D01*
G37*
%LPD*%
%LPC*%
G36*
X455179Y256539D02*
X455179Y256539D01*
X451444Y258086D01*
X448586Y260944D01*
X447039Y264679D01*
X447039Y268721D01*
X448586Y272456D01*
X451444Y275314D01*
X455179Y276861D01*
X459221Y276861D01*
X462956Y275314D01*
X465814Y272456D01*
X467361Y268721D01*
X467361Y264679D01*
X465814Y260944D01*
X462956Y258086D01*
X459221Y256539D01*
X455179Y256539D01*
G37*
%LPD*%
%LPC*%
G36*
X549468Y429227D02*
X549468Y429227D01*
X548277Y430418D01*
X548277Y445182D01*
X549468Y446373D01*
X564232Y446373D01*
X565423Y445182D01*
X565423Y430418D01*
X564232Y429227D01*
X549468Y429227D01*
G37*
%LPD*%
%LPC*%
G36*
X772982Y385063D02*
X772982Y385063D01*
X769808Y386378D01*
X767378Y388808D01*
X766063Y391982D01*
X766063Y395418D01*
X767378Y398592D01*
X769808Y401022D01*
X772982Y402337D01*
X776418Y402337D01*
X779592Y401022D01*
X782022Y398592D01*
X783337Y395418D01*
X783337Y391982D01*
X782022Y388808D01*
X779592Y386378D01*
X776418Y385063D01*
X772982Y385063D01*
G37*
%LPD*%
%LPC*%
G36*
X772982Y359663D02*
X772982Y359663D01*
X769808Y360978D01*
X767378Y363408D01*
X766063Y366582D01*
X766063Y370018D01*
X767378Y373192D01*
X769808Y375622D01*
X772982Y376937D01*
X776418Y376937D01*
X779592Y375622D01*
X782022Y373192D01*
X783337Y370018D01*
X783337Y366582D01*
X782022Y363408D01*
X779592Y360978D01*
X776418Y359663D01*
X772982Y359663D01*
G37*
%LPD*%
%LPC*%
G36*
X849182Y359663D02*
X849182Y359663D01*
X846008Y360978D01*
X843578Y363408D01*
X842263Y366582D01*
X842263Y370018D01*
X843578Y373192D01*
X846008Y375622D01*
X849182Y376937D01*
X852618Y376937D01*
X855792Y375622D01*
X858222Y373192D01*
X859537Y370018D01*
X859537Y366582D01*
X858222Y363408D01*
X855792Y360978D01*
X852618Y359663D01*
X849182Y359663D01*
G37*
%LPD*%
%LPC*%
G36*
X849182Y334263D02*
X849182Y334263D01*
X846008Y335578D01*
X843578Y338008D01*
X842263Y341182D01*
X842263Y344618D01*
X843578Y347792D01*
X846008Y350222D01*
X849182Y351537D01*
X852618Y351537D01*
X855792Y350222D01*
X858222Y347792D01*
X859537Y344618D01*
X859537Y341182D01*
X858222Y338008D01*
X855792Y335578D01*
X852618Y334263D01*
X849182Y334263D01*
G37*
%LPD*%
%LPC*%
G36*
X849182Y385063D02*
X849182Y385063D01*
X846008Y386378D01*
X843578Y388808D01*
X842263Y391982D01*
X842263Y395418D01*
X843578Y398592D01*
X846008Y401022D01*
X849182Y402337D01*
X852618Y402337D01*
X855792Y401022D01*
X858222Y398592D01*
X859537Y395418D01*
X859537Y391982D01*
X858222Y388808D01*
X855792Y386378D01*
X852618Y385063D01*
X849182Y385063D01*
G37*
%LPD*%
%LPC*%
G36*
X849182Y410463D02*
X849182Y410463D01*
X846008Y411778D01*
X843578Y414208D01*
X842263Y417382D01*
X842263Y420818D01*
X843578Y423992D01*
X846008Y426422D01*
X849182Y427737D01*
X852618Y427737D01*
X855792Y426422D01*
X858222Y423992D01*
X859537Y420818D01*
X859537Y417382D01*
X858222Y414208D01*
X855792Y411778D01*
X852618Y410463D01*
X849182Y410463D01*
G37*
%LPD*%
%LPC*%
G36*
X772982Y410463D02*
X772982Y410463D01*
X769808Y411778D01*
X767378Y414208D01*
X766063Y417382D01*
X766063Y420818D01*
X767378Y423992D01*
X769808Y426422D01*
X772982Y427737D01*
X776418Y427737D01*
X779592Y426422D01*
X782022Y423992D01*
X783337Y420818D01*
X783337Y417382D01*
X782022Y414208D01*
X779592Y411778D01*
X776418Y410463D01*
X772982Y410463D01*
G37*
%LPD*%
%LPC*%
G36*
X633845Y378427D02*
X633845Y378427D01*
X630694Y379732D01*
X628282Y382144D01*
X626977Y385295D01*
X626977Y388705D01*
X628282Y391856D01*
X630694Y394268D01*
X633845Y395573D01*
X637255Y395573D01*
X640406Y394268D01*
X642818Y391856D01*
X644123Y388705D01*
X644123Y385295D01*
X642818Y382144D01*
X640406Y379732D01*
X637255Y378427D01*
X633845Y378427D01*
G37*
%LPD*%
%LPC*%
G36*
X555145Y403827D02*
X555145Y403827D01*
X551994Y405132D01*
X549582Y407544D01*
X548277Y410695D01*
X548277Y414105D01*
X549582Y417256D01*
X551994Y419668D01*
X555145Y420973D01*
X558555Y420973D01*
X561706Y419668D01*
X564118Y417256D01*
X565423Y414105D01*
X565423Y410695D01*
X564118Y407544D01*
X561706Y405132D01*
X558555Y403827D01*
X555145Y403827D01*
G37*
%LPD*%
%LPC*%
G36*
X555145Y378427D02*
X555145Y378427D01*
X551994Y379732D01*
X549582Y382144D01*
X548277Y385295D01*
X548277Y388705D01*
X549582Y391856D01*
X551994Y394268D01*
X555145Y395573D01*
X558555Y395573D01*
X561706Y394268D01*
X564118Y391856D01*
X565423Y388705D01*
X565423Y385295D01*
X564118Y382144D01*
X561706Y379732D01*
X558555Y378427D01*
X555145Y378427D01*
G37*
%LPD*%
%LPC*%
G36*
X633845Y429227D02*
X633845Y429227D01*
X630694Y430532D01*
X628282Y432944D01*
X626977Y436095D01*
X626977Y439505D01*
X628282Y442656D01*
X630694Y445068D01*
X633845Y446373D01*
X637255Y446373D01*
X640406Y445068D01*
X642818Y442656D01*
X644123Y439505D01*
X644123Y436095D01*
X642818Y432944D01*
X640406Y430532D01*
X637255Y429227D01*
X633845Y429227D01*
G37*
%LPD*%
%LPC*%
G36*
X633845Y353027D02*
X633845Y353027D01*
X630694Y354332D01*
X628282Y356744D01*
X626977Y359895D01*
X626977Y363305D01*
X628282Y366456D01*
X630694Y368868D01*
X633845Y370173D01*
X637255Y370173D01*
X640406Y368868D01*
X642818Y366456D01*
X644123Y363305D01*
X644123Y359895D01*
X642818Y356744D01*
X640406Y354332D01*
X637255Y353027D01*
X633845Y353027D01*
G37*
%LPD*%
%LPC*%
G36*
X555145Y353027D02*
X555145Y353027D01*
X551994Y354332D01*
X549582Y356744D01*
X548277Y359895D01*
X548277Y363305D01*
X549582Y366456D01*
X551994Y368868D01*
X555145Y370173D01*
X558555Y370173D01*
X561706Y368868D01*
X564118Y366456D01*
X565423Y363305D01*
X565423Y359895D01*
X564118Y356744D01*
X561706Y354332D01*
X558555Y353027D01*
X555145Y353027D01*
G37*
%LPD*%
%LPC*%
G36*
X87999Y969399D02*
X87999Y969399D01*
X87999Y979739D01*
X96133Y979739D01*
X96779Y979566D01*
X97358Y979231D01*
X97831Y978758D01*
X98166Y978179D01*
X98339Y977533D01*
X98339Y969399D01*
X87999Y969399D01*
G37*
%LPD*%
%LPC*%
G36*
X74461Y969399D02*
X74461Y969399D01*
X74461Y977533D01*
X74634Y978179D01*
X74969Y978758D01*
X75442Y979231D01*
X76021Y979566D01*
X76667Y979739D01*
X84801Y979739D01*
X84801Y969399D01*
X74461Y969399D01*
G37*
%LPD*%
%LPC*%
G36*
X87999Y955861D02*
X87999Y955861D01*
X87999Y966201D01*
X98339Y966201D01*
X98339Y958067D01*
X98166Y957421D01*
X97831Y956842D01*
X97358Y956369D01*
X96779Y956034D01*
X96133Y955861D01*
X87999Y955861D01*
G37*
%LPD*%
%LPC*%
G36*
X76667Y955861D02*
X76667Y955861D01*
X76021Y956034D01*
X75442Y956369D01*
X74969Y956842D01*
X74634Y957421D01*
X74461Y958067D01*
X74461Y966201D01*
X84801Y966201D01*
X84801Y955861D01*
X76667Y955861D01*
G37*
%LPD*%
%LPC*%
G36*
X468999Y969399D02*
X468999Y969399D01*
X468999Y979634D01*
X470196Y979445D01*
X471983Y978864D01*
X473657Y978011D01*
X475177Y976906D01*
X476506Y975577D01*
X477611Y974057D01*
X478464Y972383D01*
X479045Y970596D01*
X479234Y969399D01*
X468999Y969399D01*
G37*
%LPD*%
%LPC*%
G36*
X189599Y969399D02*
X189599Y969399D01*
X189599Y979634D01*
X190796Y979445D01*
X192583Y978864D01*
X194257Y978011D01*
X195777Y976906D01*
X197106Y975577D01*
X198211Y974057D01*
X199064Y972383D01*
X199645Y970596D01*
X199834Y969399D01*
X189599Y969399D01*
G37*
%LPD*%
%LPC*%
G36*
X455566Y969399D02*
X455566Y969399D01*
X455755Y970596D01*
X456336Y972383D01*
X457189Y974057D01*
X457702Y974763D01*
X458283Y975562D01*
X458283Y975563D01*
X458294Y975577D01*
X459623Y976906D01*
X459726Y976981D01*
X459726Y976982D01*
X460826Y977781D01*
X461143Y978011D01*
X462817Y978864D01*
X464048Y979264D01*
X464604Y979445D01*
X465801Y979634D01*
X465801Y969399D01*
X455566Y969399D01*
G37*
%LPD*%
%LPC*%
G36*
X176166Y969399D02*
X176166Y969399D01*
X176355Y970596D01*
X176936Y972383D01*
X177789Y974057D01*
X178302Y974763D01*
X178883Y975562D01*
X178883Y975563D01*
X178894Y975577D01*
X180223Y976906D01*
X180326Y976981D01*
X180326Y976982D01*
X181426Y977781D01*
X181743Y978011D01*
X183417Y978864D01*
X184648Y979264D01*
X185204Y979445D01*
X186401Y979634D01*
X186401Y969399D01*
X176166Y969399D01*
G37*
%LPD*%
%LPC*%
G36*
X189599Y966201D02*
X189599Y966201D01*
X199834Y966201D01*
X199645Y965004D01*
X199064Y963217D01*
X198211Y961543D01*
X198039Y961306D01*
X197459Y960507D01*
X197458Y960507D01*
X197106Y960023D01*
X195777Y958694D01*
X195220Y958289D01*
X194257Y957589D01*
X192583Y956736D01*
X190796Y956155D01*
X189599Y955966D01*
X189599Y966201D01*
G37*
%LPD*%
%LPC*%
G36*
X468999Y966201D02*
X468999Y966201D01*
X479234Y966201D01*
X479045Y965004D01*
X478464Y963217D01*
X477611Y961543D01*
X477439Y961306D01*
X476859Y960507D01*
X476858Y960507D01*
X476506Y960023D01*
X475177Y958694D01*
X474620Y958289D01*
X473657Y957589D01*
X471983Y956736D01*
X470196Y956155D01*
X468999Y955966D01*
X468999Y966201D01*
G37*
%LPD*%
%LPC*%
G36*
X464604Y956155D02*
X464604Y956155D01*
X462817Y956736D01*
X461143Y957589D01*
X459623Y958694D01*
X458294Y960023D01*
X457189Y961543D01*
X456336Y963217D01*
X455755Y965004D01*
X455566Y966201D01*
X465801Y966201D01*
X465801Y955966D01*
X464604Y956155D01*
G37*
%LPD*%
%LPC*%
G36*
X185204Y956155D02*
X185204Y956155D01*
X183417Y956736D01*
X181743Y957589D01*
X180223Y958694D01*
X178894Y960023D01*
X177789Y961543D01*
X176936Y963217D01*
X176355Y965004D01*
X176166Y966201D01*
X186401Y966201D01*
X186401Y955966D01*
X185204Y956155D01*
G37*
%LPD*%
%LPC*%
G36*
X458799Y293699D02*
X458799Y293699D01*
X458799Y302648D01*
X459698Y302506D01*
X461295Y301987D01*
X462792Y301225D01*
X464150Y300238D01*
X465338Y299050D01*
X466325Y297692D01*
X467087Y296195D01*
X467606Y294598D01*
X467748Y293699D01*
X458799Y293699D01*
G37*
%LPD*%
%LPC*%
G36*
X458799Y290501D02*
X458799Y290501D01*
X467748Y290501D01*
X467606Y289602D01*
X467087Y288005D01*
X466325Y286508D01*
X465912Y285940D01*
X465338Y285150D01*
X464150Y283962D01*
X463819Y283722D01*
X462792Y282975D01*
X461295Y282213D01*
X459698Y281694D01*
X458799Y281552D01*
X458799Y290501D01*
G37*
%LPD*%
%LPC*%
G36*
X446652Y293699D02*
X446652Y293699D01*
X446794Y294598D01*
X447313Y296195D01*
X448075Y297692D01*
X449062Y299050D01*
X450250Y300238D01*
X451046Y300816D01*
X451608Y301225D01*
X453105Y301987D01*
X454702Y302506D01*
X455601Y302648D01*
X455601Y293699D01*
X446652Y293699D01*
G37*
%LPD*%
%LPC*%
G36*
X454702Y281694D02*
X454702Y281694D01*
X453105Y282213D01*
X451608Y282975D01*
X450250Y283962D01*
X449062Y285150D01*
X448075Y286508D01*
X447313Y288005D01*
X446794Y289602D01*
X446652Y290501D01*
X455601Y290501D01*
X455601Y281552D01*
X454702Y281694D01*
G37*
%LPD*%
%LPC*%
G36*
X776299Y344499D02*
X776299Y344499D01*
X776299Y351906D01*
X777368Y351693D01*
X779032Y351004D01*
X780529Y350003D01*
X781803Y348729D01*
X782804Y347232D01*
X783493Y345568D01*
X783706Y344499D01*
X776299Y344499D01*
G37*
%LPD*%
%LPC*%
G36*
X765694Y344499D02*
X765694Y344499D01*
X765907Y345568D01*
X766596Y347232D01*
X767597Y348729D01*
X768871Y350003D01*
X770368Y351004D01*
X772032Y351693D01*
X773101Y351906D01*
X773101Y344499D01*
X765694Y344499D01*
G37*
%LPD*%
%LPC*%
G36*
X776299Y341301D02*
X776299Y341301D01*
X783706Y341301D01*
X783493Y340232D01*
X782804Y338568D01*
X781803Y337071D01*
X780529Y335797D01*
X779032Y334796D01*
X777368Y334107D01*
X776299Y333894D01*
X776299Y341301D01*
G37*
%LPD*%
%LPC*%
G36*
X772032Y334107D02*
X772032Y334107D01*
X770368Y334796D01*
X768871Y335797D01*
X767597Y337071D01*
X766596Y338568D01*
X765907Y340232D01*
X765694Y341301D01*
X773101Y341301D01*
X773101Y333894D01*
X772032Y334107D01*
G37*
%LPD*%
%LPC*%
G36*
X637149Y413999D02*
X637149Y413999D01*
X637149Y421341D01*
X638199Y421132D01*
X639851Y420447D01*
X641339Y419453D01*
X642603Y418189D01*
X643597Y416701D01*
X644282Y415049D01*
X644491Y413999D01*
X637149Y413999D01*
G37*
%LPD*%
%LPC*%
G36*
X626609Y413999D02*
X626609Y413999D01*
X626818Y415049D01*
X627503Y416701D01*
X628497Y418189D01*
X629761Y419453D01*
X631249Y420447D01*
X632901Y421132D01*
X633951Y421341D01*
X633951Y413999D01*
X626609Y413999D01*
G37*
%LPD*%
%LPC*%
G36*
X637149Y410801D02*
X637149Y410801D01*
X644491Y410801D01*
X644282Y409751D01*
X643597Y408099D01*
X642603Y406611D01*
X641339Y405347D01*
X639851Y404353D01*
X638199Y403668D01*
X637149Y403459D01*
X637149Y410801D01*
G37*
%LPD*%
%LPC*%
G36*
X632901Y403668D02*
X632901Y403668D01*
X631249Y404353D01*
X629761Y405347D01*
X628497Y406611D01*
X627503Y408099D01*
X626818Y409751D01*
X626609Y410801D01*
X633951Y410801D01*
X633951Y403459D01*
X632901Y403668D01*
G37*
%LPD*%
%LPC*%
G36*
X436952Y336952D02*
X436952Y336952D01*
X436952Y341897D01*
X437741Y341740D01*
X438828Y341290D01*
X439805Y340637D01*
X440637Y339805D01*
X441290Y338828D01*
X441740Y337741D01*
X441897Y336952D01*
X436952Y336952D01*
G37*
%LPD*%
%LPC*%
G36*
X440952Y315952D02*
X440952Y315952D01*
X440952Y320897D01*
X441741Y320740D01*
X442828Y320290D01*
X443805Y319637D01*
X444637Y318805D01*
X445290Y317828D01*
X445740Y316741D01*
X445897Y315952D01*
X440952Y315952D01*
G37*
%LPD*%
%LPC*%
G36*
X141952Y513952D02*
X141952Y513952D01*
X141952Y518897D01*
X142741Y518740D01*
X143828Y518290D01*
X144805Y517637D01*
X145637Y516805D01*
X146290Y515828D01*
X146740Y514741D01*
X146897Y513952D01*
X141952Y513952D01*
G37*
%LPD*%
%LPC*%
G36*
X656952Y205952D02*
X656952Y205952D01*
X656952Y210897D01*
X657741Y210740D01*
X658828Y210290D01*
X659805Y209637D01*
X660637Y208805D01*
X661290Y207828D01*
X661740Y206741D01*
X661897Y205952D01*
X656952Y205952D01*
G37*
%LPD*%
%LPC*%
G36*
X899952Y802952D02*
X899952Y802952D01*
X899952Y807897D01*
X900741Y807740D01*
X901828Y807290D01*
X902805Y806637D01*
X903637Y805805D01*
X904290Y804828D01*
X904740Y803741D01*
X904897Y802952D01*
X899952Y802952D01*
G37*
%LPD*%
%LPC*%
G36*
X260952Y172952D02*
X260952Y172952D01*
X260952Y177897D01*
X261741Y177740D01*
X262828Y177290D01*
X263805Y176637D01*
X264637Y175805D01*
X265290Y174828D01*
X265740Y173741D01*
X265897Y172952D01*
X260952Y172952D01*
G37*
%LPD*%
%LPC*%
G36*
X657952Y575952D02*
X657952Y575952D01*
X657952Y580897D01*
X658741Y580740D01*
X659828Y580290D01*
X660805Y579637D01*
X661637Y578805D01*
X662290Y577828D01*
X662740Y576741D01*
X662897Y575952D01*
X657952Y575952D01*
G37*
%LPD*%
%LPC*%
G36*
X656952Y204048D02*
X656952Y204048D01*
X661897Y204048D01*
X661740Y203259D01*
X661290Y202172D01*
X660637Y201195D01*
X659805Y200363D01*
X658828Y199710D01*
X657741Y199260D01*
X656952Y199103D01*
X656952Y204048D01*
G37*
%LPD*%
%LPC*%
G36*
X893103Y802952D02*
X893103Y802952D01*
X893260Y803741D01*
X893710Y804828D01*
X894363Y805805D01*
X895195Y806637D01*
X896172Y807290D01*
X897259Y807740D01*
X898048Y807897D01*
X898048Y802952D01*
X893103Y802952D01*
G37*
%LPD*%
%LPC*%
G36*
X254103Y172952D02*
X254103Y172952D01*
X254260Y173741D01*
X254710Y174828D01*
X255363Y175805D01*
X256195Y176637D01*
X257172Y177290D01*
X258259Y177740D01*
X259048Y177897D01*
X259048Y172952D01*
X254103Y172952D01*
G37*
%LPD*%
%LPC*%
G36*
X434103Y315952D02*
X434103Y315952D01*
X434260Y316741D01*
X434710Y317828D01*
X435363Y318805D01*
X436195Y319637D01*
X437172Y320290D01*
X438259Y320740D01*
X439048Y320897D01*
X439048Y315952D01*
X434103Y315952D01*
G37*
%LPD*%
%LPC*%
G36*
X436952Y335048D02*
X436952Y335048D01*
X441897Y335048D01*
X441740Y334259D01*
X441290Y333172D01*
X440637Y332195D01*
X439805Y331363D01*
X438828Y330710D01*
X437741Y330260D01*
X436952Y330103D01*
X436952Y335048D01*
G37*
%LPD*%
%LPC*%
G36*
X141952Y512048D02*
X141952Y512048D01*
X146897Y512048D01*
X146740Y511259D01*
X146290Y510172D01*
X145637Y509195D01*
X144805Y508363D01*
X143828Y507710D01*
X142741Y507260D01*
X141952Y507103D01*
X141952Y512048D01*
G37*
%LPD*%
%LPC*%
G36*
X135103Y513952D02*
X135103Y513952D01*
X135260Y514741D01*
X135710Y515828D01*
X136363Y516805D01*
X137195Y517637D01*
X138172Y518290D01*
X139259Y518740D01*
X140048Y518897D01*
X140048Y513952D01*
X135103Y513952D01*
G37*
%LPD*%
%LPC*%
G36*
X260952Y171048D02*
X260952Y171048D01*
X265897Y171048D01*
X265740Y170259D01*
X265290Y169172D01*
X264637Y168195D01*
X263805Y167363D01*
X262828Y166710D01*
X261741Y166260D01*
X260952Y166103D01*
X260952Y171048D01*
G37*
%LPD*%
%LPC*%
G36*
X899952Y801048D02*
X899952Y801048D01*
X904897Y801048D01*
X904740Y800259D01*
X904290Y799172D01*
X903637Y798195D01*
X902805Y797363D01*
X901828Y796710D01*
X900741Y796260D01*
X899952Y796103D01*
X899952Y801048D01*
G37*
%LPD*%
%LPC*%
G36*
X657952Y574048D02*
X657952Y574048D01*
X662897Y574048D01*
X662740Y573259D01*
X662290Y572172D01*
X661637Y571195D01*
X660805Y570363D01*
X659828Y569710D01*
X658741Y569260D01*
X657952Y569103D01*
X657952Y574048D01*
G37*
%LPD*%
%LPC*%
G36*
X650103Y205952D02*
X650103Y205952D01*
X650260Y206741D01*
X650710Y207828D01*
X651363Y208805D01*
X652195Y209637D01*
X653172Y210290D01*
X654259Y210740D01*
X655048Y210897D01*
X655048Y205952D01*
X650103Y205952D01*
G37*
%LPD*%
%LPC*%
G36*
X651103Y575952D02*
X651103Y575952D01*
X651260Y576741D01*
X651710Y577828D01*
X652363Y578805D01*
X653195Y579637D01*
X654172Y580290D01*
X655259Y580740D01*
X656048Y580897D01*
X656048Y575952D01*
X651103Y575952D01*
G37*
%LPD*%
%LPC*%
G36*
X440952Y314048D02*
X440952Y314048D01*
X445897Y314048D01*
X445740Y313259D01*
X445290Y312172D01*
X444637Y311194D01*
X443805Y310363D01*
X442828Y309710D01*
X441741Y309260D01*
X440952Y309103D01*
X440952Y314048D01*
G37*
%LPD*%
%LPC*%
G36*
X654259Y199260D02*
X654259Y199260D01*
X653172Y199710D01*
X652195Y200363D01*
X651363Y201195D01*
X650710Y202172D01*
X650260Y203259D01*
X650103Y204048D01*
X655048Y204048D01*
X655048Y199103D01*
X654259Y199260D01*
G37*
%LPD*%
%LPC*%
G36*
X258259Y166260D02*
X258259Y166260D01*
X257172Y166710D01*
X256195Y167363D01*
X255363Y168195D01*
X254710Y169172D01*
X254260Y170259D01*
X254103Y171048D01*
X259048Y171048D01*
X259048Y166103D01*
X258259Y166260D01*
G37*
%LPD*%
%LPC*%
G36*
X139259Y507260D02*
X139259Y507260D01*
X138172Y507710D01*
X137195Y508363D01*
X136363Y509195D01*
X135710Y510172D01*
X135260Y511259D01*
X135103Y512048D01*
X140048Y512048D01*
X140048Y507103D01*
X139259Y507260D01*
G37*
%LPD*%
%LPC*%
G36*
X897259Y796260D02*
X897259Y796260D01*
X896172Y796710D01*
X895195Y797363D01*
X894363Y798195D01*
X893710Y799172D01*
X893260Y800259D01*
X893103Y801048D01*
X898048Y801048D01*
X898048Y796103D01*
X897259Y796260D01*
G37*
%LPD*%
%LPC*%
G36*
X655259Y569260D02*
X655259Y569260D01*
X654172Y569710D01*
X653195Y570363D01*
X652363Y571195D01*
X651710Y572172D01*
X651260Y573259D01*
X651103Y574048D01*
X656048Y574048D01*
X656048Y569103D01*
X655259Y569260D01*
G37*
%LPD*%
%LPC*%
G36*
X438259Y309260D02*
X438259Y309260D01*
X437172Y309710D01*
X436195Y310363D01*
X435363Y311194D01*
X434710Y312172D01*
X434260Y313259D01*
X434103Y314048D01*
X439048Y314048D01*
X439048Y309103D01*
X438259Y309260D01*
G37*
%LPD*%
%LPC*%
G36*
X86399Y967799D02*
X86399Y967799D01*
X86399Y967801D01*
X86401Y967801D01*
X86401Y967799D01*
X86399Y967799D01*
G37*
%LPD*%
%LPC*%
G36*
X187999Y967799D02*
X187999Y967799D01*
X187999Y967801D01*
X188001Y967801D01*
X188001Y967799D01*
X187999Y967799D01*
G37*
%LPD*%
%LPC*%
G36*
X908299Y179799D02*
X908299Y179799D01*
X908299Y179801D01*
X908301Y179801D01*
X908301Y179799D01*
X908299Y179799D01*
G37*
%LPD*%
%LPC*%
G36*
X467399Y967799D02*
X467399Y967799D01*
X467399Y967801D01*
X467401Y967801D01*
X467401Y967799D01*
X467399Y967799D01*
G37*
%LPD*%
%LPC*%
G36*
X635549Y412399D02*
X635549Y412399D01*
X635549Y412401D01*
X635551Y412401D01*
X635551Y412399D01*
X635549Y412399D01*
G37*
%LPD*%
%LPC*%
G36*
X774699Y342899D02*
X774699Y342899D01*
X774699Y342901D01*
X774701Y342901D01*
X774701Y342899D01*
X774699Y342899D01*
G37*
%LPD*%
%LPC*%
G36*
X938299Y132799D02*
X938299Y132799D01*
X938299Y132801D01*
X938301Y132801D01*
X938301Y132799D01*
X938299Y132799D01*
G37*
%LPD*%
%LPC*%
G36*
X39899Y110199D02*
X39899Y110199D01*
X39899Y110201D01*
X39901Y110201D01*
X39901Y110199D01*
X39899Y110199D01*
G37*
%LPD*%
%LPC*%
G36*
X457199Y292099D02*
X457199Y292099D01*
X457199Y292101D01*
X457201Y292101D01*
X457201Y292099D01*
X457199Y292099D01*
G37*
%LPD*%
%LPC*%
G36*
X69899Y63199D02*
X69899Y63199D01*
X69899Y63201D01*
X69901Y63201D01*
X69901Y63199D01*
X69899Y63199D01*
G37*
%LPD*%
D10*
X774700Y419100D03*
X774700Y393700D03*
X850900Y393700D03*
X850900Y419100D03*
X774700Y368300D03*
X774700Y342900D03*
X850900Y368300D03*
X850900Y342900D03*
D11*
X431800Y266700D03*
X431800Y292100D03*
X406400Y292100D03*
X406400Y266700D03*
X457200Y266700D03*
X457200Y292100D03*
D12*
X878300Y132800D03*
X938300Y132800D03*
X908300Y179800D03*
X99900Y110200D03*
X39900Y110200D03*
X69900Y63200D03*
D13*
X86400Y967800D03*
D14*
X111800Y967800D03*
X137200Y967800D03*
X162600Y967800D03*
X188000Y967800D03*
X213400Y967800D03*
X238800Y967800D03*
X264200Y967800D03*
X289600Y967800D03*
X315000Y967800D03*
X340400Y967800D03*
X365800Y967800D03*
X391200Y967800D03*
X416600Y967800D03*
X442000Y967800D03*
X467400Y967800D03*
D15*
X931580Y697300D02*
X946820Y697300D01*
X946820Y671900D02*
X931580Y671900D01*
X931580Y646500D02*
X946820Y646500D01*
D16*
X556850Y387000D03*
X556850Y412400D03*
X556850Y361600D03*
D17*
X556850Y437800D03*
D16*
X635550Y361600D03*
X635550Y437800D03*
X635550Y387000D03*
X635550Y412400D03*
D18*
X537000Y356000D03*
D19*
X534000Y353000D01*
X546160Y332000D02*
X556000Y332000D01*
X560000Y328000D01*
X560000Y309000D02*
X553000Y302000D01*
X511000Y302000D01*
X503000Y310000D01*
X501523Y310000D01*
D18*
X501523Y310000D03*
D19*
X560000Y309000D02*
X560000Y328000D01*
X546160Y332000D02*
X534000Y344160D01*
X534000Y353000D01*
D18*
X260000Y172000D03*
X656000Y205000D03*
X141000Y513000D03*
X657000Y575000D03*
X899000Y802000D03*
X440000Y315000D03*
D19*
X436000Y319000D01*
X436000Y336000D01*
D18*
X436000Y336000D03*
D19*
X420000Y389000D02*
X443000Y412000D01*
D18*
X505000Y412000D03*
D19*
X443000Y412000D01*
X420000Y389000D02*
X420000Y344000D01*
X427000Y337000D01*
D18*
X427000Y337000D03*
X495000Y404000D03*
D19*
X454000Y404000D01*
X450000Y400000D01*
X477000Y348000D02*
X477000Y327000D01*
D18*
X477000Y327000D03*
D19*
X450000Y375000D02*
X450000Y400000D01*
X450000Y375000D02*
X477000Y348000D01*
D18*
X501523Y344000D03*
D19*
X524000Y344000D01*
X535000Y333000D01*
X536000Y333000D01*
D18*
X536000Y333000D03*
X894000Y315000D03*
D19*
X894000Y347000D01*
X908000Y361000D01*
X908000Y398000D01*
X888000Y418000D01*
D18*
X888000Y418000D03*
X420000Y315000D03*
D19*
X411000Y324000D01*
X367000Y324000D01*
D18*
X367000Y324000D03*
X420000Y329000D03*
D19*
X408000Y329000D01*
X406523Y330477D02*
X405523Y330477D01*
D18*
X405523Y330477D03*
D19*
X406523Y330477D02*
X408000Y329000D01*
D18*
X451000Y246477D03*
D19*
X451000Y240000D01*
X459000Y232000D01*
X462000Y232000D01*
X495000Y265000D01*
X495000Y392000D01*
D18*
X495000Y392000D03*
X524000Y457000D03*
D19*
X524000Y421000D01*
X495000Y392000D01*
D18*
X101000Y280000D03*
D19*
X142000Y280000D01*
X147000Y285000D01*
X147000Y286000D01*
D18*
X147000Y286000D03*
X112000Y756000D03*
D19*
X112000Y593000D01*
X106000Y587000D01*
D18*
X106000Y587000D03*
X342000Y533000D03*
D19*
X382000Y533000D01*
X436000Y479000D01*
D18*
X436000Y479000D03*
X477000Y505000D03*
D19*
X451000Y479000D01*
X436000Y479000D01*
D18*
X371286Y315714D03*
D19*
X375508Y319936D01*
X392064Y319936D02*
X396000Y316000D01*
D18*
X396000Y316000D03*
D19*
X392064Y319936D02*
X375508Y319936D01*
D18*
X671000Y456000D03*
D19*
X648000Y479000D01*
X618000Y479000D01*
X618000Y478000D01*
D18*
X618000Y478000D03*
X857000Y513000D03*
D19*
X834000Y536000D01*
X603000Y536000D01*
X548000Y591000D01*
X259000Y591000D01*
X227000Y559000D01*
X227000Y293000D01*
X164000Y230000D01*
D18*
X164000Y230000D03*
X546000Y185000D03*
D19*
X517000Y156000D01*
X502000Y156000D01*
D18*
X502000Y156000D03*
X528000Y214000D03*
D19*
X454000Y140000D01*
X320000Y140000D01*
D18*
X320000Y140000D03*
X761000Y355000D03*
D19*
X757000Y359000D02*
X757000Y400000D01*
X757000Y359000D02*
X761000Y355000D01*
X757000Y400000D02*
X756000Y401000D01*
D18*
X756000Y401000D03*
X823000Y620000D03*
D19*
X900000Y620000D01*
X901000Y619000D01*
D18*
X901000Y619000D03*
M02*
